G75*
%MOIN*%
%OFA0B0*%
%FSLAX25Y25*%
%IPPOS*%
%LPD*%
%AMOC8*
5,1,8,0,0,1.08239X$1,22.5*
%
%ADD10C,0.06496*%
%ADD11OC8,0.06000*%
%ADD12OC8,0.04800*%
%ADD13R,0.07400X0.07400*%
%ADD14OC8,0.12661*%
%ADD15C,0.01600*%
%ADD16R,0.03762X0.03762*%
%ADD17C,0.01000*%
D10*
X0021000Y0034031D03*
X0021000Y0045842D03*
X0071000Y0045842D03*
X0071000Y0034031D03*
X0071000Y0079307D03*
X0021000Y0079307D03*
X0021000Y0089937D03*
X0021000Y0123401D03*
X0021000Y0135212D03*
X0231000Y0135212D03*
X0231000Y0123401D03*
X0231000Y0089937D03*
X0231000Y0079307D03*
X0281000Y0079307D03*
X0281000Y0045842D03*
X0281000Y0034031D03*
X0231000Y0034031D03*
X0231000Y0045842D03*
D11*
X0326000Y0044622D03*
X0336000Y0044622D03*
X0346000Y0044622D03*
X0356000Y0044622D03*
X0366000Y0044622D03*
X0366000Y0034622D03*
X0356000Y0034622D03*
X0346000Y0034622D03*
X0336000Y0034622D03*
X0326000Y0034622D03*
D12*
X0346000Y0059622D03*
X0356000Y0059622D03*
X0146000Y0059622D03*
X0136000Y0059622D03*
D13*
X0167378Y0094779D03*
X0167378Y0104622D03*
X0167378Y0114464D03*
X0377378Y0114464D03*
X0377378Y0104622D03*
X0377378Y0094779D03*
D14*
X0351000Y0087299D03*
X0351000Y0121945D03*
X0141000Y0121945D03*
X0141000Y0087299D03*
D15*
X0003500Y0139782D02*
X0003500Y0029422D01*
X0018927Y0029422D01*
X0018354Y0029714D01*
X0017711Y0030181D01*
X0017150Y0030743D01*
X0016683Y0031385D01*
X0016322Y0032093D01*
X0016076Y0032849D01*
X0015952Y0033634D01*
X0015952Y0033748D01*
X0020717Y0033748D01*
X0020717Y0034314D01*
X0015952Y0034314D01*
X0015952Y0034428D01*
X0016076Y0035213D01*
X0016322Y0035969D01*
X0016683Y0036677D01*
X0017150Y0037320D01*
X0017711Y0037882D01*
X0018354Y0038349D01*
X0019062Y0038709D01*
X0019818Y0038955D01*
X0020603Y0039079D01*
X0020717Y0039079D01*
X0020717Y0034314D01*
X0021283Y0034314D01*
X0026048Y0034314D01*
X0026048Y0034428D01*
X0025924Y0035213D01*
X0025678Y0035969D01*
X0025317Y0036677D01*
X0024850Y0037320D01*
X0024289Y0037882D01*
X0023646Y0038349D01*
X0022938Y0038709D01*
X0022182Y0038955D01*
X0021397Y0039079D01*
X0021283Y0039079D01*
X0021283Y0034314D01*
X0021283Y0033748D01*
X0026048Y0033748D01*
X0026048Y0033634D01*
X0025924Y0032849D01*
X0025678Y0032093D01*
X0025317Y0031385D01*
X0024850Y0030743D01*
X0024289Y0030181D01*
X0023646Y0029714D01*
X0023073Y0029422D01*
X0068927Y0029422D01*
X0068354Y0029714D01*
X0067711Y0030181D01*
X0067150Y0030743D01*
X0066683Y0031385D01*
X0066322Y0032093D01*
X0066076Y0032849D01*
X0065952Y0033634D01*
X0065952Y0033748D01*
X0070717Y0033748D01*
X0070717Y0034314D01*
X0065952Y0034314D01*
X0065952Y0034428D01*
X0066076Y0035213D01*
X0066322Y0035969D01*
X0066683Y0036677D01*
X0067150Y0037320D01*
X0067711Y0037882D01*
X0068354Y0038349D01*
X0069062Y0038709D01*
X0069818Y0038955D01*
X0070603Y0039079D01*
X0070717Y0039079D01*
X0070717Y0034314D01*
X0071283Y0034314D01*
X0076048Y0034314D01*
X0076048Y0034428D01*
X0075924Y0035213D01*
X0075678Y0035969D01*
X0075317Y0036677D01*
X0074850Y0037320D01*
X0074289Y0037882D01*
X0073646Y0038349D01*
X0072938Y0038709D01*
X0072182Y0038955D01*
X0071397Y0039079D01*
X0071283Y0039079D01*
X0071283Y0034314D01*
X0071283Y0033748D01*
X0076048Y0033748D01*
X0076048Y0033634D01*
X0075924Y0032849D01*
X0075678Y0032093D01*
X0075317Y0031385D01*
X0074850Y0030743D01*
X0074289Y0030181D01*
X0073646Y0029714D01*
X0073073Y0029422D01*
X0228927Y0029422D01*
X0228354Y0029714D01*
X0227711Y0030181D01*
X0227150Y0030743D01*
X0226683Y0031385D01*
X0226322Y0032093D01*
X0226076Y0032849D01*
X0225952Y0033634D01*
X0225952Y0033748D01*
X0230717Y0033748D01*
X0230717Y0034314D01*
X0225952Y0034314D01*
X0225952Y0034428D01*
X0226076Y0035213D01*
X0226322Y0035969D01*
X0226683Y0036677D01*
X0227150Y0037320D01*
X0227711Y0037882D01*
X0228354Y0038349D01*
X0229062Y0038709D01*
X0229818Y0038955D01*
X0230603Y0039079D01*
X0230717Y0039079D01*
X0230717Y0034314D01*
X0231283Y0034314D01*
X0236048Y0034314D01*
X0236048Y0034428D01*
X0235924Y0035213D01*
X0235678Y0035969D01*
X0235317Y0036677D01*
X0234850Y0037320D01*
X0234289Y0037882D01*
X0233646Y0038349D01*
X0232938Y0038709D01*
X0232182Y0038955D01*
X0231397Y0039079D01*
X0231283Y0039079D01*
X0231283Y0034314D01*
X0231283Y0033748D01*
X0236048Y0033748D01*
X0236048Y0033634D01*
X0235924Y0032849D01*
X0235678Y0032093D01*
X0235317Y0031385D01*
X0234850Y0030743D01*
X0234289Y0030181D01*
X0233646Y0029714D01*
X0233073Y0029422D01*
X0278927Y0029422D01*
X0278354Y0029714D01*
X0277711Y0030181D01*
X0277150Y0030743D01*
X0276683Y0031385D01*
X0276322Y0032093D01*
X0276076Y0032849D01*
X0275952Y0033634D01*
X0275952Y0033748D01*
X0280717Y0033748D01*
X0280717Y0034314D01*
X0275952Y0034314D01*
X0275952Y0034428D01*
X0276076Y0035213D01*
X0276322Y0035969D01*
X0276683Y0036677D01*
X0277150Y0037320D01*
X0277711Y0037882D01*
X0278354Y0038349D01*
X0279062Y0038709D01*
X0279818Y0038955D01*
X0280603Y0039079D01*
X0280717Y0039079D01*
X0280717Y0034314D01*
X0281283Y0034314D01*
X0286048Y0034314D01*
X0286048Y0034428D01*
X0285924Y0035213D01*
X0285678Y0035969D01*
X0285317Y0036677D01*
X0284850Y0037320D01*
X0284289Y0037882D01*
X0283646Y0038349D01*
X0282938Y0038709D01*
X0282182Y0038955D01*
X0281397Y0039079D01*
X0281283Y0039079D01*
X0281283Y0034314D01*
X0281283Y0033748D01*
X0286048Y0033748D01*
X0286048Y0033634D01*
X0285924Y0032849D01*
X0285678Y0032093D01*
X0285317Y0031385D01*
X0284850Y0030743D01*
X0284289Y0030181D01*
X0283646Y0029714D01*
X0283073Y0029422D01*
X0391000Y0029422D01*
X0391000Y0139782D01*
X0233150Y0139782D01*
X0233646Y0139530D01*
X0234289Y0139063D01*
X0234850Y0138501D01*
X0235317Y0137858D01*
X0235678Y0137150D01*
X0235924Y0136394D01*
X0236048Y0135610D01*
X0236048Y0135495D01*
X0231283Y0135495D01*
X0231283Y0134930D01*
X0236048Y0134930D01*
X0236048Y0134815D01*
X0235924Y0134030D01*
X0235678Y0133275D01*
X0235317Y0132567D01*
X0234850Y0131924D01*
X0234289Y0131362D01*
X0233646Y0130895D01*
X0232938Y0130534D01*
X0232182Y0130289D01*
X0231397Y0130164D01*
X0231283Y0130164D01*
X0231283Y0134930D01*
X0230717Y0134930D01*
X0225952Y0134930D01*
X0225952Y0134815D01*
X0226076Y0134030D01*
X0226322Y0133275D01*
X0226683Y0132567D01*
X0227150Y0131924D01*
X0227711Y0131362D01*
X0228354Y0130895D01*
X0229062Y0130534D01*
X0229818Y0130289D01*
X0230603Y0130164D01*
X0230717Y0130164D01*
X0230717Y0134930D01*
X0230717Y0135495D01*
X0225952Y0135495D01*
X0225952Y0135610D01*
X0226076Y0136394D01*
X0226322Y0137150D01*
X0226683Y0137858D01*
X0227150Y0138501D01*
X0227711Y0139063D01*
X0228354Y0139530D01*
X0228850Y0139782D01*
X0023150Y0139782D01*
X0023646Y0139530D01*
X0024289Y0139063D01*
X0024850Y0138501D01*
X0025317Y0137858D01*
X0025678Y0137150D01*
X0025924Y0136394D01*
X0026048Y0135610D01*
X0026048Y0135495D01*
X0021283Y0135495D01*
X0021283Y0134930D01*
X0026048Y0134930D01*
X0026048Y0134815D01*
X0025924Y0134030D01*
X0025678Y0133275D01*
X0025317Y0132567D01*
X0024850Y0131924D01*
X0024289Y0131362D01*
X0023646Y0130895D01*
X0022938Y0130534D01*
X0022182Y0130289D01*
X0021397Y0130164D01*
X0021283Y0130164D01*
X0021283Y0134930D01*
X0020717Y0134930D01*
X0015952Y0134930D01*
X0015952Y0134815D01*
X0016076Y0134030D01*
X0016322Y0133275D01*
X0016683Y0132567D01*
X0017150Y0131924D01*
X0017711Y0131362D01*
X0018354Y0130895D01*
X0019062Y0130534D01*
X0019818Y0130289D01*
X0020603Y0130164D01*
X0020717Y0130164D01*
X0020717Y0134930D01*
X0020717Y0135495D01*
X0015952Y0135495D01*
X0015952Y0135610D01*
X0016076Y0136394D01*
X0016322Y0137150D01*
X0016683Y0137858D01*
X0017150Y0138501D01*
X0017711Y0139063D01*
X0018354Y0139530D01*
X0018850Y0139782D01*
X0003500Y0139782D01*
X0003500Y0138897D02*
X0017545Y0138897D01*
X0016397Y0137298D02*
X0003500Y0137298D01*
X0003500Y0135700D02*
X0015966Y0135700D01*
X0016065Y0134101D02*
X0003500Y0134101D01*
X0003500Y0132503D02*
X0016729Y0132503D01*
X0020717Y0132503D02*
X0021283Y0132503D01*
X0021283Y0134101D02*
X0020717Y0134101D01*
X0025271Y0132503D02*
X0226729Y0132503D01*
X0226065Y0134101D02*
X0025935Y0134101D01*
X0026034Y0135700D02*
X0225966Y0135700D01*
X0226397Y0137298D02*
X0025603Y0137298D01*
X0024455Y0138897D02*
X0227545Y0138897D01*
X0234455Y0138897D02*
X0391000Y0138897D01*
X0391000Y0137298D02*
X0235603Y0137298D01*
X0236034Y0135700D02*
X0391000Y0135700D01*
X0391000Y0134101D02*
X0235935Y0134101D01*
X0235271Y0132503D02*
X0391000Y0132503D01*
X0391000Y0130904D02*
X0233659Y0130904D01*
X0231283Y0130904D02*
X0230717Y0130904D01*
X0228341Y0130904D02*
X0023659Y0130904D01*
X0021283Y0130904D02*
X0020717Y0130904D01*
X0018341Y0130904D02*
X0003500Y0130904D01*
X0003500Y0129306D02*
X0136863Y0129306D01*
X0137632Y0130075D02*
X0132869Y0125312D01*
X0132869Y0118577D01*
X0137632Y0113814D01*
X0144368Y0113814D01*
X0149131Y0118577D01*
X0149131Y0125312D01*
X0144368Y0130075D01*
X0137632Y0130075D01*
X0135264Y0127707D02*
X0023796Y0127707D01*
X0023859Y0127681D02*
X0022004Y0128449D01*
X0019996Y0128449D01*
X0018141Y0127681D01*
X0016720Y0126261D01*
X0015952Y0124405D01*
X0015952Y0122445D01*
X0009231Y0122445D01*
X0008176Y0121391D01*
X0008176Y0097853D01*
X0009231Y0096798D01*
X0032769Y0096798D01*
X0033824Y0097853D01*
X0033824Y0121391D01*
X0032769Y0122445D01*
X0026048Y0122445D01*
X0026048Y0124405D01*
X0025280Y0126261D01*
X0023859Y0127681D01*
X0025343Y0126109D02*
X0133665Y0126109D01*
X0132869Y0124510D02*
X0026005Y0124510D01*
X0026048Y0122912D02*
X0132869Y0122912D01*
X0132869Y0121313D02*
X0033824Y0121313D01*
X0033824Y0119715D02*
X0132869Y0119715D01*
X0133330Y0118116D02*
X0033824Y0118116D01*
X0033824Y0116518D02*
X0134928Y0116518D01*
X0136527Y0114919D02*
X0033824Y0114919D01*
X0033824Y0113321D02*
X0161878Y0113321D01*
X0161878Y0114280D02*
X0161878Y0110527D01*
X0162001Y0110069D01*
X0162238Y0109659D01*
X0162354Y0109543D01*
X0161878Y0109067D01*
X0161878Y0100176D01*
X0162354Y0099700D01*
X0161878Y0099225D01*
X0161878Y0090334D01*
X0162932Y0089279D01*
X0171824Y0089279D01*
X0172878Y0090334D01*
X0172878Y0099225D01*
X0172402Y0099700D01*
X0172878Y0100176D01*
X0172878Y0109067D01*
X0172402Y0109543D01*
X0172518Y0109659D01*
X0172755Y0110069D01*
X0172878Y0110527D01*
X0172878Y0114280D01*
X0167562Y0114280D01*
X0167562Y0114649D01*
X0167194Y0114649D01*
X0167194Y0119964D01*
X0163441Y0119964D01*
X0162983Y0119842D01*
X0162573Y0119605D01*
X0162238Y0119269D01*
X0162001Y0118859D01*
X0161878Y0118401D01*
X0161878Y0114649D01*
X0167194Y0114649D01*
X0167194Y0114280D01*
X0161878Y0114280D01*
X0161878Y0114919D02*
X0145473Y0114919D01*
X0147072Y0116518D02*
X0161878Y0116518D01*
X0161878Y0118116D02*
X0148670Y0118116D01*
X0149131Y0119715D02*
X0162763Y0119715D01*
X0167194Y0119715D02*
X0167562Y0119715D01*
X0167562Y0119964D02*
X0167562Y0114649D01*
X0172878Y0114649D01*
X0172878Y0118401D01*
X0172755Y0118859D01*
X0172518Y0119269D01*
X0172183Y0119605D01*
X0171773Y0119842D01*
X0171315Y0119964D01*
X0167562Y0119964D01*
X0167562Y0118116D02*
X0167194Y0118116D01*
X0171993Y0119715D02*
X0218176Y0119715D01*
X0218176Y0121313D02*
X0149131Y0121313D01*
X0149131Y0122912D02*
X0225952Y0122912D01*
X0225952Y0122445D02*
X0219231Y0122445D01*
X0218176Y0121391D01*
X0218176Y0097853D01*
X0219231Y0096798D01*
X0242769Y0096798D01*
X0243824Y0097853D01*
X0243824Y0121391D01*
X0242769Y0122445D01*
X0236048Y0122445D01*
X0236048Y0124405D01*
X0235280Y0126261D01*
X0233859Y0127681D01*
X0232004Y0128449D01*
X0229996Y0128449D01*
X0228141Y0127681D01*
X0226720Y0126261D01*
X0225952Y0124405D01*
X0225952Y0122445D01*
X0225995Y0124510D02*
X0149131Y0124510D01*
X0148335Y0126109D02*
X0226657Y0126109D01*
X0228204Y0127707D02*
X0146736Y0127707D01*
X0145137Y0129306D02*
X0346862Y0129306D01*
X0347632Y0130075D02*
X0342869Y0125312D01*
X0342869Y0118577D01*
X0347632Y0113814D01*
X0354368Y0113814D01*
X0359131Y0118577D01*
X0359131Y0125312D01*
X0354368Y0130075D01*
X0347632Y0130075D01*
X0345264Y0127707D02*
X0233796Y0127707D01*
X0235343Y0126109D02*
X0343665Y0126109D01*
X0342869Y0124510D02*
X0236005Y0124510D01*
X0236048Y0122912D02*
X0342869Y0122912D01*
X0342869Y0121313D02*
X0243824Y0121313D01*
X0243824Y0119715D02*
X0342869Y0119715D01*
X0343330Y0118116D02*
X0243824Y0118116D01*
X0243824Y0116518D02*
X0344928Y0116518D01*
X0346527Y0114919D02*
X0243824Y0114919D01*
X0243824Y0113321D02*
X0371878Y0113321D01*
X0371878Y0114280D02*
X0371878Y0110527D01*
X0372001Y0110069D01*
X0372238Y0109659D01*
X0372354Y0109543D01*
X0371878Y0109067D01*
X0371878Y0100176D01*
X0372354Y0099700D01*
X0371878Y0099225D01*
X0371878Y0090334D01*
X0372932Y0089279D01*
X0381824Y0089279D01*
X0382878Y0090334D01*
X0382878Y0099225D01*
X0382402Y0099700D01*
X0382878Y0100176D01*
X0382878Y0109067D01*
X0382402Y0109543D01*
X0382518Y0109659D01*
X0382755Y0110069D01*
X0382878Y0110527D01*
X0382878Y0114280D01*
X0377562Y0114280D01*
X0377562Y0114649D01*
X0377194Y0114649D01*
X0377194Y0119964D01*
X0373441Y0119964D01*
X0372983Y0119842D01*
X0372573Y0119605D01*
X0372238Y0119269D01*
X0372001Y0118859D01*
X0371878Y0118401D01*
X0371878Y0114649D01*
X0377194Y0114649D01*
X0377194Y0114280D01*
X0371878Y0114280D01*
X0371878Y0114919D02*
X0355473Y0114919D01*
X0357072Y0116518D02*
X0371878Y0116518D01*
X0377194Y0116518D02*
X0377562Y0116518D01*
X0377562Y0114919D02*
X0377194Y0114919D01*
X0377562Y0114649D02*
X0377562Y0119964D01*
X0381315Y0119964D01*
X0381773Y0119842D01*
X0382183Y0119605D01*
X0382518Y0119269D01*
X0382755Y0118859D01*
X0382878Y0118401D01*
X0382878Y0114649D01*
X0377562Y0114649D01*
X0382878Y0114919D02*
X0391000Y0114919D01*
X0391000Y0113321D02*
X0382878Y0113321D01*
X0382878Y0111722D02*
X0391000Y0111722D01*
X0391000Y0110123D02*
X0382770Y0110123D01*
X0382878Y0108525D02*
X0391000Y0108525D01*
X0391000Y0106926D02*
X0382878Y0106926D01*
X0382878Y0105328D02*
X0391000Y0105328D01*
X0391000Y0103729D02*
X0382878Y0103729D01*
X0382878Y0102131D02*
X0391000Y0102131D01*
X0391000Y0100532D02*
X0382878Y0100532D01*
X0382878Y0098934D02*
X0391000Y0098934D01*
X0391000Y0097335D02*
X0382878Y0097335D01*
X0382878Y0095737D02*
X0391000Y0095737D01*
X0391000Y0094138D02*
X0382878Y0094138D01*
X0382878Y0092540D02*
X0391000Y0092540D01*
X0391000Y0090941D02*
X0382878Y0090941D01*
X0381887Y0089343D02*
X0391000Y0089343D01*
X0391000Y0087744D02*
X0359131Y0087744D01*
X0359131Y0086146D02*
X0391000Y0086146D01*
X0391000Y0084547D02*
X0359131Y0084547D01*
X0359131Y0083931D02*
X0354368Y0079168D01*
X0347632Y0079168D01*
X0342869Y0083931D01*
X0342869Y0090667D01*
X0347632Y0095430D01*
X0354368Y0095430D01*
X0359131Y0090667D01*
X0359131Y0083931D01*
X0358148Y0082949D02*
X0391000Y0082949D01*
X0391000Y0081350D02*
X0356550Y0081350D01*
X0354951Y0079752D02*
X0391000Y0079752D01*
X0391000Y0078153D02*
X0285986Y0078153D01*
X0286048Y0078303D02*
X0285280Y0076447D01*
X0283859Y0075027D01*
X0282004Y0074259D01*
X0279996Y0074259D01*
X0278141Y0075027D01*
X0276720Y0076447D01*
X0275952Y0078303D01*
X0275952Y0080311D01*
X0276720Y0082166D01*
X0278141Y0083586D01*
X0279996Y0084355D01*
X0282004Y0084355D01*
X0283859Y0083586D01*
X0285280Y0082166D01*
X0286048Y0080311D01*
X0286048Y0078303D01*
X0286048Y0079752D02*
X0347049Y0079752D01*
X0345450Y0081350D02*
X0285617Y0081350D01*
X0284497Y0082949D02*
X0343852Y0082949D01*
X0342869Y0084547D02*
X0157181Y0084547D01*
X0157181Y0084748D02*
X0156127Y0085803D01*
X0150873Y0085803D01*
X0149819Y0084748D01*
X0149819Y0081693D01*
X0143928Y0075803D01*
X0140873Y0075803D01*
X0139819Y0074748D01*
X0139819Y0069495D01*
X0140873Y0068441D01*
X0146127Y0068441D01*
X0147181Y0069495D01*
X0147181Y0072550D01*
X0153072Y0078441D01*
X0156127Y0078441D01*
X0157181Y0079495D01*
X0157181Y0084748D01*
X0157181Y0082949D02*
X0227503Y0082949D01*
X0228141Y0083586D02*
X0226720Y0082166D01*
X0225952Y0080311D01*
X0225952Y0078303D01*
X0226720Y0076447D01*
X0228141Y0075027D01*
X0229996Y0074259D01*
X0232004Y0074259D01*
X0233859Y0075027D01*
X0235280Y0076447D01*
X0236048Y0078303D01*
X0236048Y0080311D01*
X0235280Y0082166D01*
X0233859Y0083586D01*
X0232004Y0084355D01*
X0229996Y0084355D01*
X0228141Y0083586D01*
X0228141Y0085657D02*
X0229996Y0084889D01*
X0232004Y0084889D01*
X0233859Y0085657D01*
X0235280Y0087077D01*
X0236048Y0088933D01*
X0236048Y0090941D01*
X0235280Y0092796D01*
X0233859Y0094216D01*
X0232004Y0094985D01*
X0229996Y0094985D01*
X0228141Y0094216D01*
X0226720Y0092796D01*
X0225952Y0090941D01*
X0225952Y0088933D01*
X0226720Y0087077D01*
X0228141Y0085657D01*
X0227652Y0086146D02*
X0149131Y0086146D01*
X0149131Y0087744D02*
X0226444Y0087744D01*
X0225952Y0089343D02*
X0171887Y0089343D01*
X0172878Y0090941D02*
X0225952Y0090941D01*
X0226614Y0092540D02*
X0172878Y0092540D01*
X0172878Y0094138D02*
X0228063Y0094138D01*
X0233937Y0094138D02*
X0346341Y0094138D01*
X0344742Y0092540D02*
X0235386Y0092540D01*
X0236048Y0090941D02*
X0343144Y0090941D01*
X0342869Y0089343D02*
X0236048Y0089343D01*
X0235556Y0087744D02*
X0342869Y0087744D01*
X0342869Y0086146D02*
X0234348Y0086146D01*
X0234497Y0082949D02*
X0277503Y0082949D01*
X0276383Y0081350D02*
X0235617Y0081350D01*
X0236048Y0079752D02*
X0275952Y0079752D01*
X0276014Y0078153D02*
X0235986Y0078153D01*
X0235324Y0076555D02*
X0276676Y0076555D01*
X0278312Y0074956D02*
X0233688Y0074956D01*
X0228312Y0074956D02*
X0149587Y0074956D01*
X0151186Y0076555D02*
X0226676Y0076555D01*
X0226014Y0078153D02*
X0152784Y0078153D01*
X0157181Y0079752D02*
X0225952Y0079752D01*
X0226383Y0081350D02*
X0157181Y0081350D01*
X0149819Y0082949D02*
X0148148Y0082949D01*
X0149131Y0083931D02*
X0144368Y0079168D01*
X0137632Y0079168D01*
X0132869Y0083931D01*
X0132869Y0090667D01*
X0137632Y0095430D01*
X0144368Y0095430D01*
X0149131Y0090667D01*
X0149131Y0083931D01*
X0149131Y0084547D02*
X0149819Y0084547D01*
X0149476Y0081350D02*
X0146550Y0081350D01*
X0147877Y0079752D02*
X0144951Y0079752D01*
X0146279Y0078153D02*
X0075986Y0078153D01*
X0076048Y0078303D02*
X0075280Y0076447D01*
X0073859Y0075027D01*
X0072004Y0074259D01*
X0069996Y0074259D01*
X0068141Y0075027D01*
X0066720Y0076447D01*
X0065952Y0078303D01*
X0065952Y0080311D01*
X0066720Y0082166D01*
X0068141Y0083586D01*
X0069996Y0084355D01*
X0072004Y0084355D01*
X0073859Y0083586D01*
X0075280Y0082166D01*
X0076048Y0080311D01*
X0076048Y0078303D01*
X0076048Y0079752D02*
X0137049Y0079752D01*
X0135450Y0081350D02*
X0075617Y0081350D01*
X0074497Y0082949D02*
X0133852Y0082949D01*
X0132869Y0084547D02*
X0003500Y0084547D01*
X0003500Y0082949D02*
X0017503Y0082949D01*
X0018141Y0083586D02*
X0016720Y0082166D01*
X0015952Y0080311D01*
X0015952Y0078303D01*
X0016720Y0076447D01*
X0018141Y0075027D01*
X0019996Y0074259D01*
X0022004Y0074259D01*
X0023859Y0075027D01*
X0025280Y0076447D01*
X0026048Y0078303D01*
X0026048Y0080311D01*
X0025280Y0082166D01*
X0023859Y0083586D01*
X0022004Y0084355D01*
X0019996Y0084355D01*
X0018141Y0083586D01*
X0018141Y0085657D02*
X0019996Y0084889D01*
X0022004Y0084889D01*
X0023859Y0085657D01*
X0025280Y0087077D01*
X0026048Y0088933D01*
X0026048Y0090941D01*
X0025280Y0092796D01*
X0023859Y0094216D01*
X0022004Y0094985D01*
X0019996Y0094985D01*
X0018141Y0094216D01*
X0016720Y0092796D01*
X0015952Y0090941D01*
X0015952Y0088933D01*
X0016720Y0087077D01*
X0018141Y0085657D01*
X0017652Y0086146D02*
X0003500Y0086146D01*
X0003500Y0087744D02*
X0016444Y0087744D01*
X0015952Y0089343D02*
X0003500Y0089343D01*
X0003500Y0090941D02*
X0015952Y0090941D01*
X0016614Y0092540D02*
X0003500Y0092540D01*
X0003500Y0094138D02*
X0018063Y0094138D01*
X0023937Y0094138D02*
X0136341Y0094138D01*
X0134742Y0092540D02*
X0025386Y0092540D01*
X0026048Y0090941D02*
X0133144Y0090941D01*
X0132869Y0089343D02*
X0026048Y0089343D01*
X0025556Y0087744D02*
X0132869Y0087744D01*
X0132869Y0086146D02*
X0024348Y0086146D01*
X0024497Y0082949D02*
X0067503Y0082949D01*
X0066383Y0081350D02*
X0025617Y0081350D01*
X0026048Y0079752D02*
X0065952Y0079752D01*
X0066014Y0078153D02*
X0025986Y0078153D01*
X0025324Y0076555D02*
X0066676Y0076555D01*
X0068312Y0074956D02*
X0023688Y0074956D01*
X0018312Y0074956D02*
X0003500Y0074956D01*
X0003500Y0076555D02*
X0016676Y0076555D01*
X0016014Y0078153D02*
X0003500Y0078153D01*
X0003500Y0079752D02*
X0015952Y0079752D01*
X0016383Y0081350D02*
X0003500Y0081350D01*
X0003500Y0073358D02*
X0139819Y0073358D01*
X0139819Y0071759D02*
X0094681Y0071759D01*
X0094681Y0072248D02*
X0093627Y0073303D01*
X0088373Y0073303D01*
X0087319Y0072248D01*
X0087319Y0066995D01*
X0088373Y0065941D01*
X0088700Y0065941D01*
X0088700Y0053303D01*
X0088373Y0053303D01*
X0087319Y0052248D01*
X0087319Y0046995D01*
X0088373Y0045941D01*
X0093627Y0045941D01*
X0094681Y0046995D01*
X0094681Y0052248D01*
X0093627Y0053303D01*
X0093300Y0053303D01*
X0093300Y0065941D01*
X0093627Y0065941D01*
X0094681Y0066995D01*
X0094681Y0072248D01*
X0094681Y0070161D02*
X0139819Y0070161D01*
X0140752Y0068562D02*
X0094681Y0068562D01*
X0094650Y0066964D02*
X0218176Y0066964D01*
X0218176Y0068562D02*
X0146248Y0068562D01*
X0147181Y0070161D02*
X0218176Y0070161D01*
X0218176Y0071391D02*
X0218176Y0047853D01*
X0219231Y0046798D01*
X0225952Y0046798D01*
X0225952Y0044838D01*
X0226720Y0042983D01*
X0228141Y0041563D01*
X0229996Y0040794D01*
X0232004Y0040794D01*
X0233859Y0041563D01*
X0235280Y0042983D01*
X0236048Y0044838D01*
X0236048Y0046798D01*
X0242769Y0046798D01*
X0243824Y0047853D01*
X0243824Y0071391D01*
X0242769Y0072445D01*
X0219231Y0072445D01*
X0218176Y0071391D01*
X0218545Y0071759D02*
X0147181Y0071759D01*
X0147989Y0073358D02*
X0391000Y0073358D01*
X0391000Y0071759D02*
X0293455Y0071759D01*
X0293824Y0071391D02*
X0292769Y0072445D01*
X0269231Y0072445D01*
X0268176Y0071391D01*
X0268176Y0047853D01*
X0269231Y0046798D01*
X0275952Y0046798D01*
X0275952Y0044838D01*
X0276720Y0042983D01*
X0278141Y0041563D01*
X0279996Y0040794D01*
X0282004Y0040794D01*
X0283859Y0041563D01*
X0285280Y0042983D01*
X0286048Y0044838D01*
X0286048Y0046798D01*
X0292769Y0046798D01*
X0293824Y0047853D01*
X0293824Y0071391D01*
X0293824Y0070161D02*
X0391000Y0070161D01*
X0391000Y0068562D02*
X0293824Y0068562D01*
X0293824Y0066964D02*
X0391000Y0066964D01*
X0391000Y0065365D02*
X0293824Y0065365D01*
X0293824Y0063767D02*
X0344205Y0063767D01*
X0344260Y0063822D02*
X0341800Y0061361D01*
X0341800Y0057882D01*
X0344260Y0055422D01*
X0347740Y0055422D01*
X0350200Y0057882D01*
X0350200Y0061361D01*
X0347740Y0063822D01*
X0344260Y0063822D01*
X0342607Y0062168D02*
X0293824Y0062168D01*
X0293824Y0060570D02*
X0341800Y0060570D01*
X0349393Y0062168D02*
X0352607Y0062168D01*
X0351800Y0061361D02*
X0351800Y0057882D01*
X0354260Y0055422D01*
X0357740Y0055422D01*
X0360200Y0057882D01*
X0360200Y0061361D01*
X0357740Y0063822D01*
X0354260Y0063822D01*
X0351800Y0061361D01*
X0351800Y0060570D02*
X0350200Y0060570D01*
X0350200Y0058971D02*
X0351800Y0058971D01*
X0352309Y0057373D02*
X0349691Y0057373D01*
X0348092Y0055774D02*
X0353908Y0055774D01*
X0358092Y0055774D02*
X0391000Y0055774D01*
X0391000Y0054176D02*
X0293824Y0054176D01*
X0293824Y0055774D02*
X0343908Y0055774D01*
X0342309Y0057373D02*
X0293824Y0057373D01*
X0293824Y0058971D02*
X0341800Y0058971D01*
X0347795Y0063767D02*
X0354205Y0063767D01*
X0357795Y0063767D02*
X0391000Y0063767D01*
X0391000Y0062168D02*
X0359393Y0062168D01*
X0360200Y0060570D02*
X0391000Y0060570D01*
X0391000Y0058971D02*
X0360200Y0058971D01*
X0359691Y0057373D02*
X0391000Y0057373D01*
X0391000Y0052577D02*
X0293824Y0052577D01*
X0293824Y0050979D02*
X0391000Y0050979D01*
X0391000Y0049380D02*
X0368030Y0049380D01*
X0367988Y0049422D02*
X0364012Y0049422D01*
X0361200Y0046610D01*
X0361200Y0042634D01*
X0364012Y0039822D01*
X0367988Y0039822D01*
X0370800Y0042634D01*
X0370800Y0046610D01*
X0367988Y0049422D01*
X0369628Y0047782D02*
X0391000Y0047782D01*
X0391000Y0046183D02*
X0370800Y0046183D01*
X0370800Y0044585D02*
X0391000Y0044585D01*
X0391000Y0042986D02*
X0370800Y0042986D01*
X0369554Y0041388D02*
X0391000Y0041388D01*
X0391000Y0039789D02*
X0003500Y0039789D01*
X0003500Y0041388D02*
X0018563Y0041388D01*
X0018141Y0041563D02*
X0019996Y0040794D01*
X0022004Y0040794D01*
X0023859Y0041563D01*
X0025280Y0042983D01*
X0026048Y0044838D01*
X0026048Y0046798D01*
X0032769Y0046798D01*
X0033824Y0047853D01*
X0033824Y0071391D01*
X0032769Y0072445D01*
X0009231Y0072445D01*
X0008176Y0071391D01*
X0008176Y0047853D01*
X0009231Y0046798D01*
X0015952Y0046798D01*
X0015952Y0044838D01*
X0016720Y0042983D01*
X0018141Y0041563D01*
X0016719Y0042986D02*
X0003500Y0042986D01*
X0003500Y0044585D02*
X0016057Y0044585D01*
X0015952Y0046183D02*
X0003500Y0046183D01*
X0003500Y0047782D02*
X0008247Y0047782D01*
X0008176Y0049380D02*
X0003500Y0049380D01*
X0003500Y0050979D02*
X0008176Y0050979D01*
X0008176Y0052577D02*
X0003500Y0052577D01*
X0003500Y0054176D02*
X0008176Y0054176D01*
X0008176Y0055774D02*
X0003500Y0055774D01*
X0003500Y0057373D02*
X0008176Y0057373D01*
X0008176Y0058971D02*
X0003500Y0058971D01*
X0003500Y0060570D02*
X0008176Y0060570D01*
X0008176Y0062168D02*
X0003500Y0062168D01*
X0003500Y0063767D02*
X0008176Y0063767D01*
X0008176Y0065365D02*
X0003500Y0065365D01*
X0003500Y0066964D02*
X0008176Y0066964D01*
X0008176Y0068562D02*
X0003500Y0068562D01*
X0003500Y0070161D02*
X0008176Y0070161D01*
X0008545Y0071759D02*
X0003500Y0071759D01*
X0033455Y0071759D02*
X0058545Y0071759D01*
X0058176Y0071391D02*
X0058176Y0047853D01*
X0059231Y0046798D01*
X0065952Y0046798D01*
X0065952Y0044838D01*
X0066720Y0042983D01*
X0068141Y0041563D01*
X0069996Y0040794D01*
X0072004Y0040794D01*
X0073859Y0041563D01*
X0075280Y0042983D01*
X0076048Y0044838D01*
X0076048Y0046798D01*
X0082769Y0046798D01*
X0083824Y0047853D01*
X0083824Y0071391D01*
X0082769Y0072445D01*
X0059231Y0072445D01*
X0058176Y0071391D01*
X0058176Y0070161D02*
X0033824Y0070161D01*
X0033824Y0068562D02*
X0058176Y0068562D01*
X0058176Y0066964D02*
X0033824Y0066964D01*
X0033824Y0065365D02*
X0058176Y0065365D01*
X0058176Y0063767D02*
X0033824Y0063767D01*
X0033824Y0062168D02*
X0058176Y0062168D01*
X0058176Y0060570D02*
X0033824Y0060570D01*
X0033824Y0058971D02*
X0058176Y0058971D01*
X0058176Y0057373D02*
X0033824Y0057373D01*
X0033824Y0055774D02*
X0058176Y0055774D01*
X0058176Y0054176D02*
X0033824Y0054176D01*
X0033824Y0052577D02*
X0058176Y0052577D01*
X0058176Y0050979D02*
X0033824Y0050979D01*
X0033824Y0049380D02*
X0058176Y0049380D01*
X0058247Y0047782D02*
X0033753Y0047782D01*
X0026048Y0046183D02*
X0065952Y0046183D01*
X0066057Y0044585D02*
X0025943Y0044585D01*
X0025281Y0042986D02*
X0066719Y0042986D01*
X0068563Y0041388D02*
X0023437Y0041388D01*
X0023863Y0038190D02*
X0068137Y0038190D01*
X0066639Y0036592D02*
X0025361Y0036592D01*
X0025959Y0034993D02*
X0066041Y0034993D01*
X0065990Y0033395D02*
X0026010Y0033395D01*
X0025527Y0031796D02*
X0066473Y0031796D01*
X0067694Y0030198D02*
X0024306Y0030198D01*
X0017694Y0030198D02*
X0003500Y0030198D01*
X0003500Y0031796D02*
X0016473Y0031796D01*
X0015990Y0033395D02*
X0003500Y0033395D01*
X0003500Y0034993D02*
X0016041Y0034993D01*
X0016639Y0036592D02*
X0003500Y0036592D01*
X0003500Y0038190D02*
X0018137Y0038190D01*
X0020717Y0038190D02*
X0021283Y0038190D01*
X0021283Y0036592D02*
X0020717Y0036592D01*
X0020717Y0034993D02*
X0021283Y0034993D01*
X0070717Y0034993D02*
X0071283Y0034993D01*
X0071283Y0036592D02*
X0070717Y0036592D01*
X0070717Y0038190D02*
X0071283Y0038190D01*
X0073863Y0038190D02*
X0228137Y0038190D01*
X0226639Y0036592D02*
X0075361Y0036592D01*
X0075959Y0034993D02*
X0226041Y0034993D01*
X0225990Y0033395D02*
X0076010Y0033395D01*
X0075527Y0031796D02*
X0226473Y0031796D01*
X0227694Y0030198D02*
X0074306Y0030198D01*
X0073437Y0041388D02*
X0228563Y0041388D01*
X0226719Y0042986D02*
X0075281Y0042986D01*
X0075943Y0044585D02*
X0226057Y0044585D01*
X0225952Y0046183D02*
X0093869Y0046183D01*
X0094681Y0047782D02*
X0218247Y0047782D01*
X0218176Y0049380D02*
X0094681Y0049380D01*
X0094681Y0050979D02*
X0218176Y0050979D01*
X0218176Y0052577D02*
X0094352Y0052577D01*
X0093300Y0054176D02*
X0218176Y0054176D01*
X0218176Y0055774D02*
X0148092Y0055774D01*
X0147740Y0055422D02*
X0150200Y0057882D01*
X0150200Y0061361D01*
X0147740Y0063822D01*
X0144260Y0063822D01*
X0141800Y0061361D01*
X0141800Y0057882D01*
X0144260Y0055422D01*
X0147740Y0055422D01*
X0149691Y0057373D02*
X0218176Y0057373D01*
X0218176Y0058971D02*
X0150200Y0058971D01*
X0150200Y0060570D02*
X0218176Y0060570D01*
X0218176Y0062168D02*
X0149393Y0062168D01*
X0147795Y0063767D02*
X0218176Y0063767D01*
X0218176Y0065365D02*
X0093300Y0065365D01*
X0093300Y0063767D02*
X0134205Y0063767D01*
X0134260Y0063822D02*
X0131800Y0061361D01*
X0131800Y0057882D01*
X0134260Y0055422D01*
X0137740Y0055422D01*
X0140200Y0057882D01*
X0140200Y0061361D01*
X0137740Y0063822D01*
X0134260Y0063822D01*
X0132607Y0062168D02*
X0093300Y0062168D01*
X0093300Y0060570D02*
X0131800Y0060570D01*
X0131800Y0058971D02*
X0093300Y0058971D01*
X0093300Y0057373D02*
X0132309Y0057373D01*
X0133908Y0055774D02*
X0093300Y0055774D01*
X0088700Y0055774D02*
X0083824Y0055774D01*
X0083824Y0054176D02*
X0088700Y0054176D01*
X0087648Y0052577D02*
X0083824Y0052577D01*
X0083824Y0050979D02*
X0087319Y0050979D01*
X0087319Y0049380D02*
X0083824Y0049380D01*
X0083753Y0047782D02*
X0087319Y0047782D01*
X0088131Y0046183D02*
X0076048Y0046183D01*
X0083824Y0057373D02*
X0088700Y0057373D01*
X0088700Y0058971D02*
X0083824Y0058971D01*
X0083824Y0060570D02*
X0088700Y0060570D01*
X0088700Y0062168D02*
X0083824Y0062168D01*
X0083824Y0063767D02*
X0088700Y0063767D01*
X0088700Y0065365D02*
X0083824Y0065365D01*
X0083824Y0066964D02*
X0087350Y0066964D01*
X0087319Y0068562D02*
X0083824Y0068562D01*
X0083824Y0070161D02*
X0087319Y0070161D01*
X0087319Y0071759D02*
X0083455Y0071759D01*
X0073688Y0074956D02*
X0140027Y0074956D01*
X0144680Y0076555D02*
X0075324Y0076555D01*
X0033306Y0097335D02*
X0161878Y0097335D01*
X0161878Y0095737D02*
X0003500Y0095737D01*
X0003500Y0097335D02*
X0008694Y0097335D01*
X0008176Y0098934D02*
X0003500Y0098934D01*
X0003500Y0100532D02*
X0008176Y0100532D01*
X0008176Y0102131D02*
X0003500Y0102131D01*
X0003500Y0103729D02*
X0008176Y0103729D01*
X0008176Y0105328D02*
X0003500Y0105328D01*
X0003500Y0106926D02*
X0008176Y0106926D01*
X0008176Y0108525D02*
X0003500Y0108525D01*
X0003500Y0110123D02*
X0008176Y0110123D01*
X0008176Y0111722D02*
X0003500Y0111722D01*
X0003500Y0113321D02*
X0008176Y0113321D01*
X0008176Y0114919D02*
X0003500Y0114919D01*
X0003500Y0116518D02*
X0008176Y0116518D01*
X0008176Y0118116D02*
X0003500Y0118116D01*
X0003500Y0119715D02*
X0008176Y0119715D01*
X0008176Y0121313D02*
X0003500Y0121313D01*
X0003500Y0122912D02*
X0015952Y0122912D01*
X0015995Y0124510D02*
X0003500Y0124510D01*
X0003500Y0126109D02*
X0016657Y0126109D01*
X0018204Y0127707D02*
X0003500Y0127707D01*
X0033824Y0111722D02*
X0161878Y0111722D01*
X0161986Y0110123D02*
X0033824Y0110123D01*
X0033824Y0108525D02*
X0161878Y0108525D01*
X0161878Y0106926D02*
X0033824Y0106926D01*
X0033824Y0105328D02*
X0161878Y0105328D01*
X0161878Y0103729D02*
X0033824Y0103729D01*
X0033824Y0102131D02*
X0161878Y0102131D01*
X0161878Y0100532D02*
X0033824Y0100532D01*
X0033824Y0098934D02*
X0161878Y0098934D01*
X0161878Y0094138D02*
X0145659Y0094138D01*
X0147258Y0092540D02*
X0161878Y0092540D01*
X0161878Y0090941D02*
X0148856Y0090941D01*
X0149131Y0089343D02*
X0162869Y0089343D01*
X0172878Y0095737D02*
X0371878Y0095737D01*
X0371878Y0097335D02*
X0243306Y0097335D01*
X0243824Y0098934D02*
X0371878Y0098934D01*
X0371878Y0100532D02*
X0243824Y0100532D01*
X0243824Y0102131D02*
X0371878Y0102131D01*
X0371878Y0103729D02*
X0243824Y0103729D01*
X0243824Y0105328D02*
X0371878Y0105328D01*
X0371878Y0106926D02*
X0243824Y0106926D01*
X0243824Y0108525D02*
X0371878Y0108525D01*
X0371986Y0110123D02*
X0243824Y0110123D01*
X0243824Y0111722D02*
X0371878Y0111722D01*
X0382878Y0116518D02*
X0391000Y0116518D01*
X0391000Y0118116D02*
X0382878Y0118116D01*
X0381993Y0119715D02*
X0391000Y0119715D01*
X0391000Y0121313D02*
X0359131Y0121313D01*
X0359131Y0119715D02*
X0372763Y0119715D01*
X0371878Y0118116D02*
X0358670Y0118116D01*
X0359131Y0122912D02*
X0391000Y0122912D01*
X0391000Y0124510D02*
X0359131Y0124510D01*
X0358335Y0126109D02*
X0391000Y0126109D01*
X0391000Y0127707D02*
X0356736Y0127707D01*
X0355137Y0129306D02*
X0391000Y0129306D01*
X0377562Y0119715D02*
X0377194Y0119715D01*
X0377194Y0118116D02*
X0377562Y0118116D01*
X0371878Y0094138D02*
X0355659Y0094138D01*
X0357258Y0092540D02*
X0371878Y0092540D01*
X0371878Y0090941D02*
X0358856Y0090941D01*
X0359131Y0089343D02*
X0372869Y0089343D01*
X0391000Y0076555D02*
X0285324Y0076555D01*
X0283688Y0074956D02*
X0391000Y0074956D01*
X0363970Y0049380D02*
X0358030Y0049380D01*
X0357988Y0049422D02*
X0356200Y0049422D01*
X0356200Y0044822D01*
X0355800Y0044822D01*
X0355800Y0049422D01*
X0354012Y0049422D01*
X0351200Y0046610D01*
X0351200Y0044822D01*
X0355800Y0044822D01*
X0355800Y0044422D01*
X0351200Y0044422D01*
X0351200Y0042634D01*
X0354012Y0039822D01*
X0355800Y0039822D01*
X0355800Y0044422D01*
X0356200Y0044422D01*
X0356200Y0044822D01*
X0360800Y0044822D01*
X0360800Y0046610D01*
X0357988Y0049422D01*
X0356200Y0049380D02*
X0355800Y0049380D01*
X0355800Y0047782D02*
X0356200Y0047782D01*
X0356200Y0046183D02*
X0355800Y0046183D01*
X0352372Y0047782D02*
X0349628Y0047782D01*
X0350800Y0046610D02*
X0347988Y0049422D01*
X0346200Y0049422D01*
X0346200Y0044822D01*
X0345800Y0044822D01*
X0345800Y0049422D01*
X0344012Y0049422D01*
X0341200Y0046610D01*
X0341200Y0044822D01*
X0345800Y0044822D01*
X0345800Y0044422D01*
X0341200Y0044422D01*
X0341200Y0042634D01*
X0344012Y0039822D01*
X0345800Y0039822D01*
X0345800Y0044422D01*
X0346200Y0044422D01*
X0346200Y0044822D01*
X0350800Y0044822D01*
X0350800Y0046610D01*
X0350800Y0046183D02*
X0351200Y0046183D01*
X0346200Y0046183D02*
X0345800Y0046183D01*
X0345800Y0047782D02*
X0346200Y0047782D01*
X0346200Y0049380D02*
X0345800Y0049380D01*
X0343970Y0049380D02*
X0338030Y0049380D01*
X0337988Y0049422D02*
X0336200Y0049422D01*
X0336200Y0044822D01*
X0335800Y0044822D01*
X0335800Y0049422D01*
X0334012Y0049422D01*
X0331200Y0046610D01*
X0331200Y0044822D01*
X0335800Y0044822D01*
X0335800Y0044422D01*
X0331200Y0044422D01*
X0331200Y0042634D01*
X0334012Y0039822D01*
X0335800Y0039822D01*
X0335800Y0044422D01*
X0336200Y0044422D01*
X0336200Y0044822D01*
X0340800Y0044822D01*
X0340800Y0046610D01*
X0337988Y0049422D01*
X0336200Y0049380D02*
X0335800Y0049380D01*
X0335800Y0047782D02*
X0336200Y0047782D01*
X0336200Y0046183D02*
X0335800Y0046183D01*
X0332372Y0047782D02*
X0329628Y0047782D01*
X0330800Y0046610D02*
X0327988Y0049422D01*
X0324012Y0049422D01*
X0321200Y0046610D01*
X0321200Y0042634D01*
X0324012Y0039822D01*
X0327988Y0039822D01*
X0330800Y0042634D01*
X0330800Y0046610D01*
X0330800Y0046183D02*
X0331200Y0046183D01*
X0330800Y0044585D02*
X0335800Y0044585D01*
X0336200Y0044585D02*
X0345800Y0044585D01*
X0346200Y0044585D02*
X0355800Y0044585D01*
X0356200Y0044585D02*
X0361200Y0044585D01*
X0360800Y0044422D02*
X0356200Y0044422D01*
X0356200Y0039822D01*
X0357988Y0039822D01*
X0360800Y0042634D01*
X0360800Y0044422D01*
X0360800Y0042986D02*
X0361200Y0042986D01*
X0362446Y0041388D02*
X0359554Y0041388D01*
X0357988Y0039422D02*
X0356200Y0039422D01*
X0356200Y0034822D01*
X0355800Y0034822D01*
X0355800Y0039422D01*
X0354012Y0039422D01*
X0351200Y0036610D01*
X0351200Y0034822D01*
X0355800Y0034822D01*
X0355800Y0034422D01*
X0351200Y0034422D01*
X0351200Y0032634D01*
X0354012Y0029822D01*
X0355800Y0029822D01*
X0355800Y0034422D01*
X0356200Y0034422D01*
X0356200Y0034822D01*
X0360800Y0034822D01*
X0360800Y0036610D01*
X0357988Y0039422D01*
X0359219Y0038190D02*
X0362781Y0038190D01*
X0364012Y0039422D02*
X0361200Y0036610D01*
X0361200Y0032634D01*
X0364012Y0029822D01*
X0367988Y0029822D01*
X0370800Y0032634D01*
X0370800Y0036610D01*
X0367988Y0039422D01*
X0364012Y0039422D01*
X0369219Y0038190D02*
X0391000Y0038190D01*
X0391000Y0036592D02*
X0370800Y0036592D01*
X0370800Y0034993D02*
X0391000Y0034993D01*
X0391000Y0033395D02*
X0370800Y0033395D01*
X0369963Y0031796D02*
X0391000Y0031796D01*
X0391000Y0030198D02*
X0368364Y0030198D01*
X0363636Y0030198D02*
X0358364Y0030198D01*
X0357988Y0029822D02*
X0360800Y0032634D01*
X0360800Y0034422D01*
X0356200Y0034422D01*
X0356200Y0029822D01*
X0357988Y0029822D01*
X0356200Y0030198D02*
X0355800Y0030198D01*
X0353636Y0030198D02*
X0348364Y0030198D01*
X0347988Y0029822D02*
X0350800Y0032634D01*
X0350800Y0034422D01*
X0346200Y0034422D01*
X0346200Y0034822D01*
X0345800Y0034822D01*
X0345800Y0039422D01*
X0344012Y0039422D01*
X0341200Y0036610D01*
X0341200Y0034822D01*
X0345800Y0034822D01*
X0345800Y0034422D01*
X0341200Y0034422D01*
X0341200Y0032634D01*
X0344012Y0029822D01*
X0345800Y0029822D01*
X0345800Y0034422D01*
X0346200Y0034422D01*
X0346200Y0029822D01*
X0347988Y0029822D01*
X0346200Y0030198D02*
X0345800Y0030198D01*
X0343636Y0030198D02*
X0338364Y0030198D01*
X0337988Y0029822D02*
X0340800Y0032634D01*
X0340800Y0034422D01*
X0336200Y0034422D01*
X0336200Y0034822D01*
X0335800Y0034822D01*
X0335800Y0039422D01*
X0334012Y0039422D01*
X0331200Y0036610D01*
X0331200Y0034822D01*
X0335800Y0034822D01*
X0335800Y0034422D01*
X0331200Y0034422D01*
X0331200Y0032634D01*
X0334012Y0029822D01*
X0335800Y0029822D01*
X0335800Y0034422D01*
X0336200Y0034422D01*
X0336200Y0029822D01*
X0337988Y0029822D01*
X0336200Y0030198D02*
X0335800Y0030198D01*
X0333636Y0030198D02*
X0328364Y0030198D01*
X0327988Y0029822D02*
X0330800Y0032634D01*
X0330800Y0036610D01*
X0327988Y0039422D01*
X0324012Y0039422D01*
X0321200Y0036610D01*
X0321200Y0032634D01*
X0324012Y0029822D01*
X0327988Y0029822D01*
X0323636Y0030198D02*
X0284306Y0030198D01*
X0285527Y0031796D02*
X0322037Y0031796D01*
X0321200Y0033395D02*
X0286010Y0033395D01*
X0285959Y0034993D02*
X0321200Y0034993D01*
X0321200Y0036592D02*
X0285361Y0036592D01*
X0283863Y0038190D02*
X0322781Y0038190D01*
X0329219Y0038190D02*
X0332781Y0038190D01*
X0331200Y0036592D02*
X0330800Y0036592D01*
X0330800Y0034993D02*
X0331200Y0034993D01*
X0331200Y0033395D02*
X0330800Y0033395D01*
X0329963Y0031796D02*
X0332037Y0031796D01*
X0335800Y0031796D02*
X0336200Y0031796D01*
X0336200Y0033395D02*
X0335800Y0033395D01*
X0336200Y0034822D02*
X0340800Y0034822D01*
X0340800Y0036610D01*
X0337988Y0039422D01*
X0336200Y0039422D01*
X0336200Y0034822D01*
X0336200Y0034993D02*
X0335800Y0034993D01*
X0335800Y0036592D02*
X0336200Y0036592D01*
X0336200Y0038190D02*
X0335800Y0038190D01*
X0336200Y0039822D02*
X0337988Y0039822D01*
X0340800Y0042634D01*
X0340800Y0044422D01*
X0336200Y0044422D01*
X0336200Y0039822D01*
X0336200Y0041388D02*
X0335800Y0041388D01*
X0335800Y0042986D02*
X0336200Y0042986D01*
X0339554Y0041388D02*
X0342446Y0041388D01*
X0341200Y0042986D02*
X0340800Y0042986D01*
X0345800Y0042986D02*
X0346200Y0042986D01*
X0346200Y0044422D02*
X0346200Y0039822D01*
X0347988Y0039822D01*
X0350800Y0042634D01*
X0350800Y0044422D01*
X0346200Y0044422D01*
X0350800Y0042986D02*
X0351200Y0042986D01*
X0352446Y0041388D02*
X0349554Y0041388D01*
X0347988Y0039422D02*
X0346200Y0039422D01*
X0346200Y0034822D01*
X0350800Y0034822D01*
X0350800Y0036610D01*
X0347988Y0039422D01*
X0349219Y0038190D02*
X0352781Y0038190D01*
X0351200Y0036592D02*
X0350800Y0036592D01*
X0350800Y0034993D02*
X0351200Y0034993D01*
X0351200Y0033395D02*
X0350800Y0033395D01*
X0349963Y0031796D02*
X0352037Y0031796D01*
X0355800Y0031796D02*
X0356200Y0031796D01*
X0356200Y0033395D02*
X0355800Y0033395D01*
X0355800Y0034993D02*
X0356200Y0034993D01*
X0356200Y0036592D02*
X0355800Y0036592D01*
X0355800Y0038190D02*
X0356200Y0038190D01*
X0360800Y0036592D02*
X0361200Y0036592D01*
X0361200Y0034993D02*
X0360800Y0034993D01*
X0360800Y0033395D02*
X0361200Y0033395D01*
X0362037Y0031796D02*
X0359963Y0031796D01*
X0346200Y0031796D02*
X0345800Y0031796D01*
X0345800Y0033395D02*
X0346200Y0033395D01*
X0346200Y0034993D02*
X0345800Y0034993D01*
X0345800Y0036592D02*
X0346200Y0036592D01*
X0346200Y0038190D02*
X0345800Y0038190D01*
X0342781Y0038190D02*
X0339219Y0038190D01*
X0340800Y0036592D02*
X0341200Y0036592D01*
X0341200Y0034993D02*
X0340800Y0034993D01*
X0340800Y0033395D02*
X0341200Y0033395D01*
X0342037Y0031796D02*
X0339963Y0031796D01*
X0345800Y0041388D02*
X0346200Y0041388D01*
X0355800Y0041388D02*
X0356200Y0041388D01*
X0356200Y0042986D02*
X0355800Y0042986D01*
X0360800Y0046183D02*
X0361200Y0046183D01*
X0362372Y0047782D02*
X0359628Y0047782D01*
X0353970Y0049380D02*
X0348030Y0049380D01*
X0342372Y0047782D02*
X0339628Y0047782D01*
X0340800Y0046183D02*
X0341200Y0046183D01*
X0333970Y0049380D02*
X0328030Y0049380D01*
X0323970Y0049380D02*
X0293824Y0049380D01*
X0293753Y0047782D02*
X0322372Y0047782D01*
X0321200Y0046183D02*
X0286048Y0046183D01*
X0285943Y0044585D02*
X0321200Y0044585D01*
X0321200Y0042986D02*
X0285281Y0042986D01*
X0283437Y0041388D02*
X0322446Y0041388D01*
X0329554Y0041388D02*
X0332446Y0041388D01*
X0331200Y0042986D02*
X0330800Y0042986D01*
X0281283Y0038190D02*
X0280717Y0038190D01*
X0280717Y0036592D02*
X0281283Y0036592D01*
X0281283Y0034993D02*
X0280717Y0034993D01*
X0276639Y0036592D02*
X0235361Y0036592D01*
X0235959Y0034993D02*
X0276041Y0034993D01*
X0275990Y0033395D02*
X0236010Y0033395D01*
X0235527Y0031796D02*
X0276473Y0031796D01*
X0277694Y0030198D02*
X0234306Y0030198D01*
X0231283Y0034993D02*
X0230717Y0034993D01*
X0230717Y0036592D02*
X0231283Y0036592D01*
X0231283Y0038190D02*
X0230717Y0038190D01*
X0233863Y0038190D02*
X0278137Y0038190D01*
X0278563Y0041388D02*
X0233437Y0041388D01*
X0235281Y0042986D02*
X0276719Y0042986D01*
X0276057Y0044585D02*
X0235943Y0044585D01*
X0236048Y0046183D02*
X0275952Y0046183D01*
X0268247Y0047782D02*
X0243753Y0047782D01*
X0243824Y0049380D02*
X0268176Y0049380D01*
X0268176Y0050979D02*
X0243824Y0050979D01*
X0243824Y0052577D02*
X0268176Y0052577D01*
X0268176Y0054176D02*
X0243824Y0054176D01*
X0243824Y0055774D02*
X0268176Y0055774D01*
X0268176Y0057373D02*
X0243824Y0057373D01*
X0243824Y0058971D02*
X0268176Y0058971D01*
X0268176Y0060570D02*
X0243824Y0060570D01*
X0243824Y0062168D02*
X0268176Y0062168D01*
X0268176Y0063767D02*
X0243824Y0063767D01*
X0243824Y0065365D02*
X0268176Y0065365D01*
X0268176Y0066964D02*
X0243824Y0066964D01*
X0243824Y0068562D02*
X0268176Y0068562D01*
X0268176Y0070161D02*
X0243824Y0070161D01*
X0243455Y0071759D02*
X0268545Y0071759D01*
X0218694Y0097335D02*
X0172878Y0097335D01*
X0172878Y0098934D02*
X0218176Y0098934D01*
X0218176Y0100532D02*
X0172878Y0100532D01*
X0172878Y0102131D02*
X0218176Y0102131D01*
X0218176Y0103729D02*
X0172878Y0103729D01*
X0172878Y0105328D02*
X0218176Y0105328D01*
X0218176Y0106926D02*
X0172878Y0106926D01*
X0172878Y0108525D02*
X0218176Y0108525D01*
X0218176Y0110123D02*
X0172770Y0110123D01*
X0172878Y0111722D02*
X0218176Y0111722D01*
X0218176Y0113321D02*
X0172878Y0113321D01*
X0172878Y0114919D02*
X0218176Y0114919D01*
X0218176Y0116518D02*
X0172878Y0116518D01*
X0167562Y0116518D02*
X0167194Y0116518D01*
X0167194Y0114919D02*
X0167562Y0114919D01*
X0172878Y0118116D02*
X0218176Y0118116D01*
X0230717Y0132503D02*
X0231283Y0132503D01*
X0231283Y0134101D02*
X0230717Y0134101D01*
X0144205Y0063767D02*
X0137795Y0063767D01*
X0139393Y0062168D02*
X0142607Y0062168D01*
X0141800Y0060570D02*
X0140200Y0060570D01*
X0140200Y0058971D02*
X0141800Y0058971D01*
X0142309Y0057373D02*
X0139691Y0057373D01*
X0138092Y0055774D02*
X0143908Y0055774D01*
D16*
X0158500Y0067122D03*
X0143500Y0072122D03*
X0153500Y0082122D03*
X0201000Y0067122D03*
X0241000Y0074622D03*
X0273500Y0084622D03*
X0253500Y0102122D03*
X0333500Y0072122D03*
X0371000Y0059622D03*
X0296000Y0032122D03*
X0213500Y0042122D03*
X0156000Y0039622D03*
X0131000Y0039622D03*
X0091000Y0049622D03*
X0091000Y0069622D03*
X0068500Y0087122D03*
X0043500Y0102122D03*
X0028500Y0082122D03*
D17*
X0091000Y0069622D02*
X0091000Y0049622D01*
X0143500Y0072122D02*
X0153500Y0082122D01*
M02*
