G75*
%MOIN*%
%OFA0B0*%
%FSLAX25Y25*%
%IPPOS*%
%LPD*%
%AMOC8*
5,1,8,0,0,1.08239X$1,22.5*
%
%ADD10C,0.07096*%
%ADD11OC8,0.06600*%
%ADD12OC8,0.05400*%
%ADD13R,0.08000X0.08000*%
%ADD14OC8,0.13261*%
%ADD15R,0.04362X0.04362*%
D10*
X0021000Y0034031D03*
X0021000Y0045842D03*
X0071000Y0045842D03*
X0071000Y0034031D03*
X0071000Y0079307D03*
X0021000Y0079307D03*
X0021000Y0089937D03*
X0021000Y0123401D03*
X0021000Y0135212D03*
X0231000Y0135212D03*
X0231000Y0123401D03*
X0231000Y0089937D03*
X0231000Y0079307D03*
X0281000Y0079307D03*
X0281000Y0045842D03*
X0281000Y0034031D03*
X0231000Y0034031D03*
X0231000Y0045842D03*
D11*
X0326000Y0044622D03*
X0336000Y0044622D03*
X0346000Y0044622D03*
X0356000Y0044622D03*
X0366000Y0044622D03*
X0366000Y0034622D03*
X0356000Y0034622D03*
X0346000Y0034622D03*
X0336000Y0034622D03*
X0326000Y0034622D03*
D12*
X0346000Y0059622D03*
X0356000Y0059622D03*
X0146000Y0059622D03*
X0136000Y0059622D03*
D13*
X0167378Y0094779D03*
X0167378Y0104622D03*
X0167378Y0114464D03*
X0377378Y0114464D03*
X0377378Y0104622D03*
X0377378Y0094779D03*
D14*
X0351000Y0087299D03*
X0351000Y0121945D03*
X0141000Y0121945D03*
X0141000Y0087299D03*
D15*
X0153500Y0082122D03*
X0143500Y0072122D03*
X0158500Y0067122D03*
X0201000Y0067122D03*
X0241000Y0074622D03*
X0273500Y0084622D03*
X0253500Y0102122D03*
X0333500Y0072122D03*
X0371000Y0059622D03*
X0296000Y0032122D03*
X0213500Y0042122D03*
X0156000Y0039622D03*
X0131000Y0039622D03*
X0091000Y0049622D03*
X0091000Y0069622D03*
X0068500Y0087122D03*
X0043500Y0102122D03*
X0028500Y0082122D03*
M02*
