G75*
%MOIN*%
%OFA0B0*%
%FSLAX25Y25*%
%IPPOS*%
%LPD*%
%AMOC8*
5,1,8,0,0,1.08239X$1,22.5*
%
%ADD10C,0.01400*%
%ADD11C,0.00400*%
%ADD12C,0.01000*%
%ADD13C,0.02000*%
%ADD14R,0.03150X0.01378*%
%ADD15C,0.00300*%
%ADD16C,0.00000*%
%ADD17R,0.06299X0.01969*%
%ADD18R,0.01969X0.06299*%
%ADD19C,0.00800*%
%ADD20R,0.01929X0.04331*%
%ADD21R,0.04331X0.01930*%
%ADD22C,0.00600*%
%ADD23R,0.02000X0.02000*%
%ADD24C,0.00500*%
%ADD25R,0.02300X0.01800*%
%ADD26R,0.01800X0.02300*%
%ADD27R,0.03400X0.01600*%
%ADD28R,0.01600X0.03400*%
%ADD29R,0.03346X0.02953*%
%ADD30R,0.05315X0.03543*%
D10*
X0366302Y0052055D02*
X0364200Y0054858D01*
X0366302Y0057212D02*
X0366302Y0060014D01*
X0368404Y0054858D02*
X0366302Y0052055D01*
X0365601Y0067525D02*
X0368404Y0067525D01*
X0365601Y0067525D02*
X0364200Y0068926D01*
X0365601Y0070327D01*
X0368404Y0070327D01*
X0367703Y0072681D02*
X0368404Y0073382D01*
X0368404Y0074783D01*
X0367703Y0075483D01*
X0367002Y0072681D02*
X0364200Y0075483D01*
X0364200Y0072681D01*
X0367002Y0072681D02*
X0367703Y0072681D01*
X0364200Y0077837D02*
X0364200Y0080640D01*
X0364200Y0079239D02*
X0368404Y0079239D01*
X0367002Y0080640D01*
X0366302Y0082994D02*
X0366302Y0085796D01*
X0368404Y0088150D02*
X0364200Y0090953D01*
X0364901Y0093307D02*
X0367703Y0093307D01*
X0368404Y0094007D01*
X0368404Y0096109D01*
X0364200Y0096109D01*
X0364200Y0094007D01*
X0364901Y0093307D01*
X0364200Y0098463D02*
X0364200Y0101265D01*
X0368404Y0101265D01*
X0368404Y0098463D01*
X0366302Y0099864D02*
X0366302Y0101265D01*
X0366302Y0103619D02*
X0365601Y0104320D01*
X0365601Y0106422D01*
X0364200Y0106422D02*
X0368404Y0106422D01*
X0368404Y0104320D01*
X0367703Y0103619D01*
X0366302Y0103619D01*
X0365601Y0105021D02*
X0364200Y0103619D01*
D11*
X0372496Y0072574D02*
X0384504Y0072574D01*
X0384504Y0066669D02*
X0372496Y0066669D01*
X0379863Y0052164D02*
X0379863Y0049095D01*
X0379863Y0050630D02*
X0375259Y0050630D01*
X0376794Y0049095D01*
X0376026Y0047560D02*
X0375259Y0046793D01*
X0375259Y0044491D01*
X0379863Y0044491D01*
X0379863Y0046793D01*
X0379096Y0047560D01*
X0376026Y0047560D01*
X0319737Y0047549D02*
X0316668Y0050618D01*
X0315900Y0050618D01*
X0315133Y0049850D01*
X0315133Y0048316D01*
X0315900Y0047549D01*
X0319737Y0047549D02*
X0319737Y0050618D01*
X0318970Y0046014D02*
X0315900Y0046014D01*
X0315133Y0045247D01*
X0315133Y0042945D01*
X0319737Y0042945D01*
X0319737Y0045247D01*
X0318970Y0046014D01*
X0298953Y0041118D02*
X0298953Y0053126D01*
X0293047Y0053126D02*
X0293047Y0041118D01*
X0264878Y0054267D02*
X0264878Y0059976D01*
X0262122Y0059976D02*
X0262122Y0054267D01*
X0269622Y0071767D02*
X0269622Y0077476D01*
X0272378Y0077476D02*
X0272378Y0071767D01*
X0242378Y0081767D02*
X0242378Y0087476D01*
X0239622Y0087476D02*
X0239622Y0081767D01*
X0266200Y0089620D02*
X0266200Y0091154D01*
X0266967Y0091922D01*
X0268502Y0091922D01*
X0269269Y0091154D01*
X0269269Y0089620D01*
X0268502Y0088852D01*
X0266967Y0088852D01*
X0266200Y0089620D01*
X0262378Y0109267D02*
X0262378Y0114976D01*
X0259622Y0114976D02*
X0259622Y0109267D01*
X0176769Y0083654D02*
X0176769Y0082120D01*
X0176002Y0081352D01*
X0174467Y0081352D01*
X0173700Y0082120D01*
X0173700Y0083654D01*
X0174467Y0084422D01*
X0176002Y0084422D01*
X0176769Y0083654D01*
X0157378Y0052476D02*
X0157378Y0046767D01*
X0154622Y0046767D02*
X0154622Y0052476D01*
X0204622Y0047476D02*
X0204622Y0041767D01*
X0207378Y0041767D02*
X0207378Y0047476D01*
X0062378Y0071767D02*
X0062378Y0077476D01*
X0059622Y0077476D02*
X0059622Y0071767D01*
X0054878Y0059976D02*
X0054878Y0054267D01*
X0052122Y0054267D02*
X0052122Y0059976D01*
X0056967Y0088852D02*
X0058502Y0088852D01*
X0059269Y0089620D01*
X0059269Y0091154D01*
X0058502Y0091922D01*
X0056967Y0091922D01*
X0056200Y0091154D01*
X0056200Y0089620D01*
X0056967Y0088852D01*
X0032378Y0089267D02*
X0032378Y0094976D01*
X0029622Y0094976D02*
X0029622Y0089267D01*
X0049622Y0109267D02*
X0049622Y0114976D01*
X0052378Y0114976D02*
X0052378Y0109267D01*
D12*
X0308244Y0051952D02*
X0308244Y0043291D01*
X0313756Y0043291D01*
X0313756Y0051952D01*
X0308244Y0051952D01*
X0361000Y0049622D02*
X0361000Y0029622D01*
X0371000Y0029622D01*
X0376000Y0029622D01*
X0376000Y0049622D01*
X0371000Y0049622D01*
X0361000Y0049622D01*
X0371000Y0049622D02*
X0371000Y0029622D01*
X0381244Y0044291D02*
X0386756Y0044291D01*
X0386756Y0052952D01*
X0381244Y0052952D01*
X0381244Y0044291D01*
D13*
X0373500Y0052122D02*
X0373500Y0027122D01*
D14*
X0263500Y0054661D03*
X0263500Y0059582D03*
X0271000Y0072161D03*
X0271000Y0077082D03*
X0241000Y0082161D03*
X0241000Y0087082D03*
X0261000Y0109661D03*
X0261000Y0114582D03*
X0156000Y0052082D03*
X0156000Y0047161D03*
X0206000Y0047082D03*
X0206000Y0042161D03*
X0061000Y0072161D03*
X0061000Y0077082D03*
X0031000Y0089661D03*
X0031000Y0094582D03*
X0051000Y0109661D03*
X0051000Y0114582D03*
X0053500Y0059582D03*
X0053500Y0054661D03*
D15*
X0078650Y0032674D02*
X0078650Y0029772D01*
X0078650Y0030739D02*
X0080101Y0030739D01*
X0080585Y0031223D01*
X0080585Y0032190D01*
X0080101Y0032674D01*
X0078650Y0032674D01*
X0079617Y0030739D02*
X0080585Y0029772D01*
X0081597Y0030255D02*
X0082080Y0029772D01*
X0083048Y0029772D01*
X0083531Y0030255D01*
X0083531Y0032190D01*
X0083048Y0032674D01*
X0082080Y0032674D01*
X0081597Y0032190D01*
X0081597Y0031707D01*
X0082080Y0031223D01*
X0083531Y0031223D01*
X0055788Y0046996D02*
X0055304Y0046513D01*
X0054337Y0046513D01*
X0053853Y0046996D01*
X0052842Y0046996D02*
X0052358Y0046513D01*
X0051390Y0046513D01*
X0050907Y0046996D01*
X0050907Y0048931D01*
X0051390Y0049415D01*
X0052358Y0049415D01*
X0052842Y0048931D01*
X0053853Y0048931D02*
X0054337Y0049415D01*
X0055304Y0049415D01*
X0055788Y0048931D01*
X0055788Y0048448D01*
X0055304Y0047964D01*
X0055788Y0047480D01*
X0055788Y0046996D01*
X0055304Y0047964D02*
X0054821Y0047964D01*
X0042638Y0048507D02*
X0040703Y0046572D01*
X0042638Y0046572D01*
X0042638Y0048507D02*
X0042638Y0048990D01*
X0042155Y0049474D01*
X0041187Y0049474D01*
X0040703Y0048990D01*
X0038724Y0049474D02*
X0037757Y0048507D01*
X0036745Y0048990D02*
X0036745Y0048023D01*
X0036262Y0047539D01*
X0034810Y0047539D01*
X0034810Y0046572D02*
X0034810Y0049474D01*
X0036262Y0049474D01*
X0036745Y0048990D01*
X0035778Y0047539D02*
X0036745Y0046572D01*
X0037757Y0046572D02*
X0039692Y0046572D01*
X0038724Y0046572D02*
X0038724Y0049474D01*
X0030138Y0052055D02*
X0030138Y0052539D01*
X0029655Y0053023D01*
X0028203Y0053023D01*
X0028203Y0052055D01*
X0028687Y0051572D01*
X0029655Y0051572D01*
X0030138Y0052055D01*
X0029171Y0053990D02*
X0028203Y0053023D01*
X0029171Y0053990D02*
X0030138Y0054474D01*
X0026224Y0054474D02*
X0026224Y0051572D01*
X0025257Y0051572D02*
X0027192Y0051572D01*
X0024245Y0051572D02*
X0023278Y0052539D01*
X0023762Y0052539D02*
X0022310Y0052539D01*
X0022310Y0051572D02*
X0022310Y0054474D01*
X0023762Y0054474D01*
X0024245Y0053990D01*
X0024245Y0053023D01*
X0023762Y0052539D01*
X0025257Y0053507D02*
X0026224Y0054474D01*
X0020138Y0054474D02*
X0018203Y0054474D01*
X0018203Y0053023D01*
X0019171Y0053507D01*
X0019655Y0053507D01*
X0020138Y0053023D01*
X0020138Y0052055D01*
X0019655Y0051572D01*
X0018687Y0051572D01*
X0018203Y0052055D01*
X0017192Y0051572D02*
X0015257Y0051572D01*
X0016224Y0051572D02*
X0016224Y0054474D01*
X0015257Y0053507D01*
X0014245Y0053990D02*
X0014245Y0053023D01*
X0013762Y0052539D01*
X0012310Y0052539D01*
X0012310Y0051572D02*
X0012310Y0054474D01*
X0013762Y0054474D01*
X0014245Y0053990D01*
X0013278Y0052539D02*
X0014245Y0051572D01*
X0040793Y0066072D02*
X0041760Y0066072D01*
X0041276Y0066072D02*
X0041276Y0068974D01*
X0040793Y0068974D02*
X0041760Y0068974D01*
X0042757Y0068490D02*
X0042757Y0066555D01*
X0043241Y0066072D01*
X0044208Y0066072D01*
X0044692Y0066555D01*
X0045703Y0066555D02*
X0046187Y0066072D01*
X0047155Y0066072D01*
X0047638Y0066555D01*
X0047638Y0067039D01*
X0047155Y0067523D01*
X0046671Y0067523D01*
X0047155Y0067523D02*
X0047638Y0068007D01*
X0047638Y0068490D01*
X0047155Y0068974D01*
X0046187Y0068974D01*
X0045703Y0068490D01*
X0044692Y0068490D02*
X0044208Y0068974D01*
X0043241Y0068974D01*
X0042757Y0068490D01*
X0065500Y0072815D02*
X0065984Y0072331D01*
X0066952Y0072331D01*
X0067435Y0072815D01*
X0068447Y0072815D02*
X0068931Y0072331D01*
X0069898Y0072331D01*
X0070382Y0072815D01*
X0070382Y0074750D01*
X0069898Y0075233D01*
X0068931Y0075233D01*
X0068447Y0074750D01*
X0068447Y0074266D01*
X0068931Y0073782D01*
X0070382Y0073782D01*
X0067435Y0074750D02*
X0066952Y0075233D01*
X0065984Y0075233D01*
X0065500Y0074750D01*
X0065500Y0072815D01*
X0078650Y0064690D02*
X0079134Y0065174D01*
X0080101Y0065174D01*
X0080585Y0064690D01*
X0080585Y0062755D01*
X0080101Y0062272D01*
X0079134Y0062272D01*
X0078650Y0062755D01*
X0078650Y0064690D01*
X0079617Y0063239D02*
X0080585Y0062272D01*
X0081597Y0062272D02*
X0083531Y0062272D01*
X0082564Y0062272D02*
X0082564Y0065174D01*
X0081597Y0064207D01*
X0111150Y0052190D02*
X0111634Y0052674D01*
X0112601Y0052674D01*
X0113085Y0052190D01*
X0113085Y0050255D01*
X0112601Y0049772D01*
X0111634Y0049772D01*
X0111150Y0050255D01*
X0111150Y0052190D01*
X0112117Y0050739D02*
X0113085Y0049772D01*
X0114097Y0051223D02*
X0116031Y0051223D01*
X0115548Y0049772D02*
X0115548Y0052674D01*
X0114097Y0051223D01*
X0126150Y0064772D02*
X0126150Y0067674D01*
X0127601Y0067674D01*
X0128085Y0067190D01*
X0128085Y0066223D01*
X0127601Y0065739D01*
X0126150Y0065739D01*
X0127117Y0065739D02*
X0128085Y0064772D01*
X0129097Y0064772D02*
X0131031Y0066707D01*
X0131031Y0067190D01*
X0130548Y0067674D01*
X0129580Y0067674D01*
X0129097Y0067190D01*
X0129097Y0064772D02*
X0131031Y0064772D01*
X0132043Y0065255D02*
X0133978Y0067190D01*
X0133978Y0065255D01*
X0133494Y0064772D01*
X0132527Y0064772D01*
X0132043Y0065255D01*
X0132043Y0067190D01*
X0132527Y0067674D01*
X0133494Y0067674D01*
X0133978Y0067190D01*
X0153000Y0059750D02*
X0153000Y0057815D01*
X0153484Y0057331D01*
X0154452Y0057331D01*
X0154935Y0057815D01*
X0155947Y0057815D02*
X0156431Y0057331D01*
X0157398Y0057331D01*
X0157882Y0057815D01*
X0157882Y0058298D01*
X0157398Y0058782D01*
X0156431Y0058782D01*
X0155947Y0059266D01*
X0155947Y0059750D01*
X0156431Y0060233D01*
X0157398Y0060233D01*
X0157882Y0059750D01*
X0157882Y0059266D01*
X0157398Y0058782D01*
X0156431Y0058782D02*
X0155947Y0058298D01*
X0155947Y0057815D01*
X0154935Y0059750D02*
X0154452Y0060233D01*
X0153484Y0060233D01*
X0153000Y0059750D01*
X0181150Y0060186D02*
X0181634Y0060186D01*
X0183569Y0058251D01*
X0184052Y0058251D01*
X0184052Y0060186D01*
X0183569Y0061197D02*
X0183085Y0061197D01*
X0182601Y0061681D01*
X0182117Y0061197D01*
X0181634Y0061197D01*
X0181150Y0061681D01*
X0181150Y0062648D01*
X0181634Y0063132D01*
X0181150Y0064144D02*
X0181150Y0066079D01*
X0181150Y0065111D02*
X0184052Y0065111D01*
X0183085Y0066079D01*
X0184052Y0067090D02*
X0181150Y0067090D01*
X0181150Y0069025D02*
X0184052Y0069025D01*
X0183085Y0068058D01*
X0184052Y0067090D01*
X0181150Y0070037D02*
X0181150Y0071972D01*
X0184052Y0071972D01*
X0183569Y0063132D02*
X0184052Y0062648D01*
X0184052Y0061681D01*
X0183569Y0061197D01*
X0182601Y0061681D02*
X0182601Y0062165D01*
X0181634Y0057239D02*
X0183569Y0055304D01*
X0181634Y0055304D01*
X0181150Y0055788D01*
X0181150Y0056755D01*
X0181634Y0057239D01*
X0183569Y0057239D01*
X0184052Y0056755D01*
X0184052Y0055788D01*
X0183569Y0055304D01*
X0183569Y0054293D02*
X0181634Y0054293D01*
X0183569Y0052358D01*
X0181634Y0052358D01*
X0181150Y0052841D01*
X0181150Y0053809D01*
X0181634Y0054293D01*
X0183569Y0054293D02*
X0184052Y0053809D01*
X0184052Y0052841D01*
X0183569Y0052358D01*
X0184052Y0051346D02*
X0181150Y0051346D01*
X0181150Y0049411D02*
X0184052Y0049411D01*
X0183085Y0050379D01*
X0184052Y0051346D01*
X0203407Y0036431D02*
X0203407Y0034496D01*
X0203890Y0034013D01*
X0204858Y0034013D01*
X0205342Y0034496D01*
X0206353Y0034496D02*
X0206353Y0034013D01*
X0206353Y0034496D02*
X0208288Y0036431D01*
X0208288Y0036915D01*
X0206353Y0036915D01*
X0205342Y0036431D02*
X0204858Y0036915D01*
X0203890Y0036915D01*
X0203407Y0036431D01*
X0222757Y0051572D02*
X0222757Y0054474D01*
X0224208Y0054474D01*
X0224692Y0053990D01*
X0224692Y0053023D01*
X0224208Y0052539D01*
X0222757Y0052539D01*
X0223724Y0052539D02*
X0224692Y0051572D01*
X0225703Y0052055D02*
X0226187Y0051572D01*
X0227155Y0051572D01*
X0227638Y0052055D01*
X0227638Y0053023D01*
X0227155Y0053507D01*
X0226671Y0053507D01*
X0225703Y0053023D01*
X0225703Y0054474D01*
X0227638Y0054474D01*
X0232757Y0054474D02*
X0234208Y0054474D01*
X0234692Y0053990D01*
X0234692Y0053023D01*
X0234208Y0052539D01*
X0232757Y0052539D01*
X0232757Y0051572D02*
X0232757Y0054474D01*
X0233724Y0052539D02*
X0234692Y0051572D01*
X0235703Y0052055D02*
X0236187Y0051572D01*
X0237155Y0051572D01*
X0237638Y0052055D01*
X0237638Y0052539D01*
X0237155Y0053023D01*
X0235703Y0053023D01*
X0235703Y0052055D01*
X0235703Y0053023D02*
X0236671Y0053990D01*
X0237638Y0054474D01*
X0245257Y0049474D02*
X0246708Y0049474D01*
X0247192Y0048990D01*
X0247192Y0048023D01*
X0246708Y0047539D01*
X0245257Y0047539D01*
X0245257Y0046572D02*
X0245257Y0049474D01*
X0246224Y0047539D02*
X0247192Y0046572D01*
X0248203Y0048023D02*
X0250138Y0048023D01*
X0249655Y0049474D02*
X0248203Y0048023D01*
X0249655Y0046572D02*
X0249655Y0049474D01*
X0260907Y0048931D02*
X0260907Y0046996D01*
X0261390Y0046513D01*
X0262358Y0046513D01*
X0262842Y0046996D01*
X0263853Y0046513D02*
X0265788Y0046513D01*
X0264821Y0046513D02*
X0264821Y0049415D01*
X0263853Y0048448D01*
X0262842Y0048931D02*
X0262358Y0049415D01*
X0261390Y0049415D01*
X0260907Y0048931D01*
X0291110Y0057725D02*
X0291110Y0059660D01*
X0291593Y0060144D01*
X0292561Y0060144D01*
X0293045Y0059660D01*
X0294056Y0059176D02*
X0295024Y0060144D01*
X0295024Y0057241D01*
X0295991Y0057241D02*
X0294056Y0057241D01*
X0293045Y0057725D02*
X0292561Y0057241D01*
X0291593Y0057241D01*
X0291110Y0057725D01*
X0297003Y0057241D02*
X0298938Y0057241D01*
X0297970Y0057241D02*
X0297970Y0060144D01*
X0297003Y0059176D01*
X0291031Y0064772D02*
X0289097Y0064772D01*
X0291031Y0066707D01*
X0291031Y0067190D01*
X0290548Y0067674D01*
X0289580Y0067674D01*
X0289097Y0067190D01*
X0288085Y0067190D02*
X0288085Y0065255D01*
X0287601Y0064772D01*
X0286634Y0064772D01*
X0286150Y0065255D01*
X0286150Y0067190D01*
X0286634Y0067674D01*
X0287601Y0067674D01*
X0288085Y0067190D01*
X0287117Y0065739D02*
X0288085Y0064772D01*
X0277882Y0072815D02*
X0277398Y0072331D01*
X0276431Y0072331D01*
X0275947Y0072815D01*
X0275947Y0073782D02*
X0276914Y0074266D01*
X0277398Y0074266D01*
X0277882Y0073782D01*
X0277882Y0072815D01*
X0275947Y0073782D02*
X0275947Y0075233D01*
X0277882Y0075233D01*
X0274935Y0074750D02*
X0274452Y0075233D01*
X0273484Y0075233D01*
X0273000Y0074750D01*
X0273000Y0072815D01*
X0273484Y0072331D01*
X0274452Y0072331D01*
X0274935Y0072815D01*
X0257638Y0066072D02*
X0255703Y0066072D01*
X0256671Y0066072D02*
X0256671Y0068974D01*
X0255703Y0068007D01*
X0254692Y0068490D02*
X0254208Y0068974D01*
X0253241Y0068974D01*
X0252757Y0068490D01*
X0252757Y0066555D01*
X0253241Y0066072D01*
X0254208Y0066072D01*
X0254692Y0066555D01*
X0251760Y0066072D02*
X0250793Y0066072D01*
X0251276Y0066072D02*
X0251276Y0068974D01*
X0250793Y0068974D02*
X0251760Y0068974D01*
X0251080Y0084569D02*
X0250113Y0084569D01*
X0249629Y0085053D01*
X0249629Y0085537D01*
X0251564Y0087472D01*
X0249629Y0087472D01*
X0248617Y0087472D02*
X0247166Y0087472D01*
X0246682Y0086988D01*
X0246682Y0085053D01*
X0247166Y0084569D01*
X0248617Y0084569D01*
X0248617Y0087472D01*
X0251080Y0084569D02*
X0251564Y0085053D01*
X0252575Y0085053D02*
X0254510Y0086988D01*
X0254510Y0087472D01*
X0255522Y0086988D02*
X0256006Y0087472D01*
X0256973Y0087472D01*
X0257457Y0086988D01*
X0255522Y0085053D01*
X0255522Y0086988D01*
X0257457Y0086988D02*
X0257457Y0085053D01*
X0256973Y0084569D01*
X0256006Y0084569D01*
X0255522Y0085053D01*
X0254510Y0084569D02*
X0252575Y0084569D01*
X0252575Y0085053D01*
X0258469Y0087472D02*
X0260403Y0087472D01*
X0260403Y0084569D01*
X0261415Y0084569D02*
X0263350Y0084569D01*
X0262383Y0084569D02*
X0262383Y0087472D01*
X0242882Y0092815D02*
X0242882Y0093298D01*
X0242398Y0093782D01*
X0240947Y0093782D01*
X0240947Y0092815D01*
X0241431Y0092331D01*
X0242398Y0092331D01*
X0242882Y0092815D01*
X0241914Y0094750D02*
X0240947Y0093782D01*
X0241914Y0094750D02*
X0242882Y0095233D01*
X0239935Y0094750D02*
X0239452Y0095233D01*
X0238484Y0095233D01*
X0238000Y0094750D01*
X0238000Y0092815D01*
X0238484Y0092331D01*
X0239452Y0092331D01*
X0239935Y0092815D01*
X0260500Y0102815D02*
X0260984Y0102331D01*
X0261952Y0102331D01*
X0262435Y0102815D01*
X0263447Y0102331D02*
X0265382Y0104266D01*
X0265382Y0104750D01*
X0264898Y0105233D01*
X0263931Y0105233D01*
X0263447Y0104750D01*
X0262435Y0104750D02*
X0261952Y0105233D01*
X0260984Y0105233D01*
X0260500Y0104750D01*
X0260500Y0102815D01*
X0263447Y0102331D02*
X0265382Y0102331D01*
X0246031Y0112190D02*
X0244097Y0110255D01*
X0244097Y0109772D01*
X0243085Y0109772D02*
X0242117Y0110739D01*
X0242601Y0110739D02*
X0241150Y0110739D01*
X0241150Y0109772D02*
X0241150Y0112674D01*
X0242601Y0112674D01*
X0243085Y0112190D01*
X0243085Y0111223D01*
X0242601Y0110739D01*
X0246031Y0112190D02*
X0246031Y0112674D01*
X0244097Y0112674D01*
X0253650Y0129772D02*
X0253650Y0132674D01*
X0255101Y0132674D01*
X0255585Y0132190D01*
X0255585Y0131223D01*
X0255101Y0130739D01*
X0253650Y0130739D01*
X0254617Y0130739D02*
X0255585Y0129772D01*
X0256597Y0130255D02*
X0256597Y0130739D01*
X0257080Y0131223D01*
X0258048Y0131223D01*
X0258531Y0130739D01*
X0258531Y0130255D01*
X0258048Y0129772D01*
X0257080Y0129772D01*
X0256597Y0130255D01*
X0257080Y0131223D02*
X0256597Y0131707D01*
X0256597Y0132190D01*
X0257080Y0132674D01*
X0258048Y0132674D01*
X0258531Y0132190D01*
X0258531Y0131707D01*
X0258048Y0131223D01*
X0318650Y0102674D02*
X0320101Y0102674D01*
X0320585Y0102190D01*
X0320585Y0101223D01*
X0320101Y0100739D01*
X0318650Y0100739D01*
X0318650Y0099772D02*
X0318650Y0102674D01*
X0321597Y0102190D02*
X0322080Y0102674D01*
X0323048Y0102674D01*
X0323531Y0102190D01*
X0323531Y0101707D01*
X0321597Y0099772D01*
X0323531Y0099772D01*
X0320585Y0099772D02*
X0319617Y0100739D01*
X0336150Y0092190D02*
X0336634Y0092674D01*
X0337601Y0092674D01*
X0338085Y0092190D01*
X0338085Y0090255D01*
X0337601Y0089772D01*
X0336634Y0089772D01*
X0336150Y0090255D01*
X0336150Y0092190D01*
X0337117Y0090739D02*
X0338085Y0089772D01*
X0339097Y0090255D02*
X0339580Y0089772D01*
X0340548Y0089772D01*
X0341031Y0090255D01*
X0341031Y0091223D01*
X0340548Y0091707D01*
X0340064Y0091707D01*
X0339097Y0091223D01*
X0339097Y0092674D01*
X0341031Y0092674D01*
X0307638Y0081974D02*
X0307638Y0081490D01*
X0305703Y0079555D01*
X0305703Y0079072D01*
X0304692Y0079072D02*
X0302757Y0079072D01*
X0303724Y0079072D02*
X0303724Y0081974D01*
X0302757Y0081007D01*
X0301745Y0081490D02*
X0301745Y0080523D01*
X0301262Y0080039D01*
X0299810Y0080039D01*
X0299810Y0079072D02*
X0299810Y0081974D01*
X0301262Y0081974D01*
X0301745Y0081490D01*
X0300778Y0080039D02*
X0301745Y0079072D01*
X0305703Y0081974D02*
X0307638Y0081974D01*
X0319131Y0066260D02*
X0318648Y0065776D01*
X0318648Y0064809D01*
X0319131Y0064325D01*
X0319615Y0064325D01*
X0320099Y0064809D01*
X0320099Y0066260D01*
X0321066Y0066260D02*
X0319131Y0066260D01*
X0321066Y0066260D02*
X0321550Y0065776D01*
X0321550Y0064809D01*
X0321066Y0064325D01*
X0321550Y0063314D02*
X0321550Y0061379D01*
X0321550Y0062346D02*
X0318648Y0062346D01*
X0319615Y0061379D01*
X0319131Y0060367D02*
X0320099Y0060367D01*
X0320583Y0059883D01*
X0320583Y0058432D01*
X0321550Y0058432D02*
X0318648Y0058432D01*
X0318648Y0059883D01*
X0319131Y0060367D01*
X0320583Y0059400D02*
X0321550Y0060367D01*
X0387978Y0065215D02*
X0388462Y0064731D01*
X0390397Y0064731D01*
X0390881Y0065215D01*
X0390881Y0066183D01*
X0390397Y0066666D01*
X0390881Y0067678D02*
X0390881Y0069613D01*
X0390881Y0068645D02*
X0387978Y0068645D01*
X0388946Y0067678D01*
X0388462Y0066666D02*
X0387978Y0066183D01*
X0387978Y0065215D01*
X0388462Y0070624D02*
X0387978Y0071108D01*
X0387978Y0072076D01*
X0388462Y0072559D01*
X0388946Y0072559D01*
X0390881Y0070624D01*
X0390881Y0072559D01*
X0266031Y0029772D02*
X0264097Y0029772D01*
X0265064Y0029772D02*
X0265064Y0032674D01*
X0264097Y0031707D01*
X0263085Y0032190D02*
X0263085Y0031223D01*
X0262601Y0030739D01*
X0261150Y0030739D01*
X0261150Y0029772D02*
X0261150Y0032674D01*
X0262601Y0032674D01*
X0263085Y0032190D01*
X0262117Y0030739D02*
X0263085Y0029772D01*
X0145138Y0034555D02*
X0144655Y0034072D01*
X0143687Y0034072D01*
X0143203Y0034555D01*
X0143203Y0035039D01*
X0143687Y0035523D01*
X0144655Y0035523D01*
X0145138Y0035039D01*
X0145138Y0034555D01*
X0144655Y0035523D02*
X0145138Y0036007D01*
X0145138Y0036490D01*
X0144655Y0036974D01*
X0143687Y0036974D01*
X0143203Y0036490D01*
X0143203Y0036007D01*
X0143687Y0035523D01*
X0142192Y0034072D02*
X0140257Y0034072D01*
X0141224Y0034072D02*
X0141224Y0036974D01*
X0140257Y0036007D01*
X0139245Y0036490D02*
X0139245Y0035523D01*
X0138762Y0035039D01*
X0137310Y0035039D01*
X0137310Y0034072D02*
X0137310Y0036974D01*
X0138762Y0036974D01*
X0139245Y0036490D01*
X0138278Y0035039D02*
X0139245Y0034072D01*
X0133978Y0077272D02*
X0132043Y0077272D01*
X0133011Y0077272D02*
X0133011Y0080174D01*
X0132043Y0079207D01*
X0130064Y0080174D02*
X0130064Y0077272D01*
X0129097Y0077272D02*
X0131031Y0077272D01*
X0128085Y0077272D02*
X0127117Y0078239D01*
X0127601Y0078239D02*
X0126150Y0078239D01*
X0126150Y0077272D02*
X0126150Y0080174D01*
X0127601Y0080174D01*
X0128085Y0079690D01*
X0128085Y0078723D01*
X0127601Y0078239D01*
X0129097Y0079207D02*
X0130064Y0080174D01*
X0186150Y0082272D02*
X0187117Y0082272D01*
X0186634Y0082272D02*
X0186634Y0085174D01*
X0187117Y0085174D02*
X0186150Y0085174D01*
X0188114Y0084690D02*
X0188114Y0082755D01*
X0188598Y0082272D01*
X0189566Y0082272D01*
X0190049Y0082755D01*
X0191061Y0082272D02*
X0192996Y0084207D01*
X0192996Y0084690D01*
X0192512Y0085174D01*
X0191545Y0085174D01*
X0191061Y0084690D01*
X0190049Y0084690D02*
X0189566Y0085174D01*
X0188598Y0085174D01*
X0188114Y0084690D01*
X0191061Y0082272D02*
X0192996Y0082272D01*
X0060788Y0110464D02*
X0058853Y0110464D01*
X0060304Y0111915D01*
X0060304Y0109013D01*
X0057842Y0109496D02*
X0057358Y0109013D01*
X0056390Y0109013D01*
X0055907Y0109496D01*
X0055907Y0111431D01*
X0056390Y0111915D01*
X0057358Y0111915D01*
X0057842Y0111431D01*
X0035138Y0111490D02*
X0035138Y0111007D01*
X0034655Y0110523D01*
X0035138Y0110039D01*
X0035138Y0109555D01*
X0034655Y0109072D01*
X0033687Y0109072D01*
X0033203Y0109555D01*
X0032192Y0109072D02*
X0030257Y0109072D01*
X0031224Y0109072D02*
X0031224Y0111974D01*
X0030257Y0111007D01*
X0029245Y0111490D02*
X0029245Y0110523D01*
X0028762Y0110039D01*
X0027310Y0110039D01*
X0027310Y0109072D02*
X0027310Y0111974D01*
X0028762Y0111974D01*
X0029245Y0111490D01*
X0028278Y0110039D02*
X0029245Y0109072D01*
X0034171Y0110523D02*
X0034655Y0110523D01*
X0035138Y0111490D02*
X0034655Y0111974D01*
X0033687Y0111974D01*
X0033203Y0111490D01*
X0034377Y0102733D02*
X0035345Y0102733D01*
X0035828Y0102250D01*
X0033893Y0100315D01*
X0034377Y0099831D01*
X0035345Y0099831D01*
X0035828Y0100315D01*
X0035828Y0102250D01*
X0034377Y0102733D02*
X0033893Y0102250D01*
X0033893Y0100315D01*
X0032882Y0099831D02*
X0030947Y0099831D01*
X0031914Y0099831D02*
X0031914Y0102733D01*
X0030947Y0101766D01*
X0029935Y0102250D02*
X0029452Y0102733D01*
X0028484Y0102733D01*
X0028000Y0102250D01*
X0028000Y0100315D01*
X0028484Y0099831D01*
X0029452Y0099831D01*
X0029935Y0100315D01*
X0037166Y0087472D02*
X0036682Y0086988D01*
X0036682Y0085053D01*
X0037166Y0084569D01*
X0038617Y0084569D01*
X0038617Y0087472D01*
X0037166Y0087472D01*
X0039629Y0087472D02*
X0041564Y0087472D01*
X0039629Y0085537D01*
X0039629Y0085053D01*
X0040113Y0084569D01*
X0041080Y0084569D01*
X0041564Y0085053D01*
X0042575Y0085053D02*
X0044510Y0086988D01*
X0044510Y0087472D01*
X0045522Y0086988D02*
X0046006Y0087472D01*
X0046973Y0087472D01*
X0047457Y0086988D01*
X0045522Y0085053D01*
X0045522Y0086988D01*
X0047457Y0086988D02*
X0047457Y0085053D01*
X0046973Y0084569D01*
X0046006Y0084569D01*
X0045522Y0085053D01*
X0044510Y0084569D02*
X0042575Y0084569D01*
X0042575Y0085053D01*
X0048469Y0087472D02*
X0050403Y0087472D01*
X0050403Y0084569D01*
X0051415Y0084569D02*
X0053350Y0084569D01*
X0052383Y0084569D02*
X0052383Y0087472D01*
X0050994Y0129772D02*
X0050994Y0132674D01*
X0049543Y0131223D01*
X0051478Y0131223D01*
X0048531Y0129772D02*
X0046597Y0129772D01*
X0047564Y0129772D02*
X0047564Y0132674D01*
X0046597Y0131707D01*
X0045585Y0132190D02*
X0045585Y0131223D01*
X0045101Y0130739D01*
X0043650Y0130739D01*
X0043650Y0129772D02*
X0043650Y0132674D01*
X0045101Y0132674D01*
X0045585Y0132190D01*
X0044617Y0130739D02*
X0045585Y0129772D01*
D16*
X0046000Y0128622D02*
X0046000Y0120622D01*
X0042000Y0124622D02*
X0050000Y0124622D01*
X0051000Y0116122D02*
X0051000Y0108122D01*
X0047000Y0112122D02*
X0055000Y0112122D01*
X0045000Y0112122D02*
X0037000Y0112122D01*
X0041000Y0108122D02*
X0041000Y0116122D01*
X0031000Y0096122D02*
X0031000Y0088122D01*
X0027000Y0092122D02*
X0035000Y0092122D01*
X0046000Y0088622D02*
X0046000Y0080622D01*
X0042000Y0084622D02*
X0050000Y0084622D01*
X0061000Y0078622D02*
X0061000Y0070622D01*
X0057000Y0074622D02*
X0065000Y0074622D01*
X0071000Y0063622D02*
X0071000Y0055622D01*
X0067000Y0059622D02*
X0075000Y0059622D01*
X0057500Y0057122D02*
X0049500Y0057122D01*
X0042500Y0057122D02*
X0034500Y0057122D01*
X0026000Y0058122D02*
X0026000Y0066122D01*
X0022000Y0062122D02*
X0030000Y0062122D01*
X0038500Y0061122D02*
X0038500Y0053122D01*
X0053500Y0053122D02*
X0053500Y0061122D01*
X0020000Y0062122D02*
X0012000Y0062122D01*
X0016000Y0058122D02*
X0016000Y0066122D01*
X0081000Y0043622D02*
X0081000Y0035622D01*
X0077000Y0039622D02*
X0085000Y0039622D01*
X0117000Y0044622D02*
X0125000Y0044622D01*
X0121000Y0040622D02*
X0121000Y0048622D01*
X0137000Y0044622D02*
X0145000Y0044622D01*
X0141000Y0040622D02*
X0141000Y0048622D01*
X0152000Y0049622D02*
X0160000Y0049622D01*
X0156000Y0045622D02*
X0156000Y0053622D01*
X0177000Y0059622D02*
X0185000Y0059622D01*
X0181000Y0055622D02*
X0181000Y0063622D01*
X0222000Y0062122D02*
X0230000Y0062122D01*
X0232000Y0062122D02*
X0240000Y0062122D01*
X0236000Y0058122D02*
X0236000Y0066122D01*
X0226000Y0066122D02*
X0226000Y0058122D01*
X0244500Y0057122D02*
X0252500Y0057122D01*
X0259500Y0057122D02*
X0267500Y0057122D01*
X0277000Y0059622D02*
X0285000Y0059622D01*
X0281000Y0055622D02*
X0281000Y0063622D01*
X0263500Y0061122D02*
X0263500Y0053122D01*
X0248500Y0053122D02*
X0248500Y0061122D01*
X0271000Y0070622D02*
X0271000Y0078622D01*
X0267000Y0074622D02*
X0275000Y0074622D01*
X0256000Y0080622D02*
X0256000Y0088622D01*
X0252000Y0084622D02*
X0260000Y0084622D01*
X0245000Y0084622D02*
X0237000Y0084622D01*
X0241000Y0080622D02*
X0241000Y0088622D01*
X0251000Y0108122D02*
X0251000Y0116122D01*
X0261000Y0116122D02*
X0261000Y0108122D01*
X0257000Y0112122D02*
X0265000Y0112122D01*
X0255000Y0112122D02*
X0247000Y0112122D01*
X0256000Y0120622D02*
X0256000Y0128622D01*
X0252000Y0124622D02*
X0260000Y0124622D01*
X0313500Y0101122D02*
X0313500Y0093122D01*
X0309500Y0097122D02*
X0317500Y0097122D01*
X0331000Y0088622D02*
X0331000Y0080622D01*
X0327000Y0084622D02*
X0335000Y0084622D01*
X0317500Y0082122D02*
X0309500Y0082122D01*
X0313500Y0078122D02*
X0313500Y0086122D01*
X0326000Y0068622D02*
X0326000Y0060622D01*
X0322000Y0064622D02*
X0330000Y0064622D01*
X0311000Y0051622D02*
X0311000Y0043622D01*
X0307000Y0047622D02*
X0315000Y0047622D01*
X0300000Y0047122D02*
X0292000Y0047122D01*
X0296000Y0043122D02*
X0296000Y0051122D01*
X0267500Y0039622D02*
X0259500Y0039622D01*
X0263500Y0035622D02*
X0263500Y0043622D01*
X0210000Y0044622D02*
X0202000Y0044622D01*
X0206000Y0040622D02*
X0206000Y0048622D01*
X0125000Y0062122D02*
X0117000Y0062122D01*
X0121000Y0058122D02*
X0121000Y0066122D01*
X0121000Y0073122D02*
X0121000Y0081122D01*
X0117000Y0077122D02*
X0125000Y0077122D01*
X0342000Y0039622D02*
X0350000Y0039622D01*
X0346000Y0035622D02*
X0346000Y0043622D01*
X0380000Y0048622D02*
X0388000Y0048622D01*
X0384000Y0044622D02*
X0384000Y0052622D01*
X0378500Y0065622D02*
X0378500Y0073622D01*
X0374500Y0069622D02*
X0382500Y0069622D01*
D17*
X0296000Y0052437D03*
X0296000Y0041807D03*
D18*
X0373185Y0069622D03*
X0383815Y0069622D03*
D19*
X0265449Y0077141D02*
X0246551Y0077141D01*
X0246551Y0090134D01*
X0265449Y0090134D01*
X0265449Y0077141D01*
X0265449Y0090134D02*
X0265449Y0092102D01*
X0246551Y0092102D01*
X0246551Y0090134D01*
X0188480Y0079071D02*
X0188480Y0040173D01*
X0175488Y0040173D01*
X0173520Y0040173D01*
X0173520Y0079071D01*
X0175488Y0079071D01*
X0175488Y0040173D01*
X0175488Y0079071D02*
X0188480Y0079071D01*
X0055449Y0077141D02*
X0036551Y0077141D01*
X0036551Y0090134D01*
X0055449Y0090134D01*
X0055449Y0077141D01*
X0055449Y0090134D02*
X0055449Y0092102D01*
X0036551Y0092102D01*
X0036551Y0090134D01*
D20*
X0038500Y0094661D03*
X0043500Y0094661D03*
X0048500Y0094661D03*
X0053500Y0094661D03*
X0053500Y0074582D03*
X0048500Y0074582D03*
X0043500Y0074582D03*
X0038500Y0074582D03*
X0248500Y0074582D03*
X0253500Y0074582D03*
X0258500Y0074582D03*
X0263500Y0074582D03*
X0263500Y0094661D03*
X0258500Y0094661D03*
X0253500Y0094661D03*
X0248500Y0094661D03*
D21*
X0191040Y0077122D03*
X0191040Y0072122D03*
X0191040Y0067122D03*
X0191040Y0062122D03*
X0191040Y0057122D03*
X0191040Y0052122D03*
X0191040Y0047122D03*
X0191040Y0042122D03*
X0170960Y0042122D03*
X0170960Y0047122D03*
X0170960Y0052122D03*
X0170960Y0057122D03*
X0170960Y0062122D03*
X0170960Y0067122D03*
X0170960Y0072122D03*
X0170960Y0077122D03*
D22*
X0122402Y0075421D02*
X0122402Y0078823D01*
X0119598Y0078823D02*
X0119598Y0075421D01*
X0119598Y0063823D02*
X0119598Y0060421D01*
X0122402Y0060421D02*
X0122402Y0063823D01*
X0126600Y0047222D02*
X0115400Y0047222D01*
X0115400Y0042022D01*
X0126600Y0042022D01*
X0126600Y0047222D01*
X0139598Y0046323D02*
X0139598Y0042921D01*
X0142402Y0042921D02*
X0142402Y0046323D01*
X0082402Y0041323D02*
X0082402Y0037921D01*
X0079598Y0037921D02*
X0079598Y0041323D01*
X0039902Y0055421D02*
X0039902Y0058823D01*
X0037098Y0058823D02*
X0037098Y0055421D01*
X0027402Y0060421D02*
X0027402Y0063823D01*
X0024598Y0063823D02*
X0024598Y0060421D01*
X0017402Y0060421D02*
X0017402Y0063823D01*
X0014598Y0063823D02*
X0014598Y0060421D01*
X0039598Y0110421D02*
X0039598Y0113823D01*
X0042402Y0113823D02*
X0042402Y0110421D01*
X0044299Y0123220D02*
X0047701Y0123220D01*
X0047701Y0126023D02*
X0044299Y0126023D01*
X0224598Y0063823D02*
X0224598Y0060421D01*
X0227402Y0060421D02*
X0227402Y0063823D01*
X0234598Y0063823D02*
X0234598Y0060421D01*
X0237402Y0060421D02*
X0237402Y0063823D01*
X0247098Y0058823D02*
X0247098Y0055421D01*
X0249902Y0055421D02*
X0249902Y0058823D01*
X0262098Y0041323D02*
X0262098Y0037921D01*
X0264902Y0037921D02*
X0264902Y0041323D01*
X0321000Y0047122D02*
X0321000Y0032122D01*
X0323500Y0029622D01*
X0328500Y0029622D01*
X0331000Y0032122D01*
X0331000Y0047122D01*
X0333500Y0049622D01*
X0338500Y0049622D01*
X0341000Y0047122D01*
X0341000Y0032122D01*
X0343500Y0029622D01*
X0348500Y0029622D01*
X0351000Y0032122D01*
X0351000Y0047122D01*
X0353500Y0049622D01*
X0358500Y0049622D01*
X0361000Y0047122D01*
X0363500Y0049622D01*
X0368500Y0049622D01*
X0371000Y0047122D01*
X0371000Y0032122D01*
X0368500Y0029622D01*
X0363500Y0029622D01*
X0361000Y0032122D01*
X0361000Y0047122D01*
X0351000Y0047122D02*
X0348500Y0049622D01*
X0343500Y0049622D01*
X0341000Y0047122D01*
X0331000Y0047122D02*
X0328500Y0049622D01*
X0323500Y0049622D01*
X0321000Y0047122D01*
X0331000Y0032122D02*
X0333500Y0029622D01*
X0338500Y0029622D01*
X0341000Y0032122D01*
X0351000Y0032122D02*
X0353500Y0029622D01*
X0358500Y0029622D01*
X0361000Y0032122D01*
X0327402Y0062921D02*
X0327402Y0066323D01*
X0324598Y0066323D02*
X0324598Y0062921D01*
X0314902Y0080421D02*
X0314902Y0083823D01*
X0312098Y0083823D02*
X0312098Y0080421D01*
X0325400Y0082022D02*
X0325400Y0087222D01*
X0336600Y0087222D01*
X0336600Y0082022D01*
X0325400Y0082022D01*
X0314902Y0095421D02*
X0314902Y0098823D01*
X0312098Y0098823D02*
X0312098Y0095421D01*
X0252402Y0110421D02*
X0252402Y0113823D01*
X0249598Y0113823D02*
X0249598Y0110421D01*
X0254299Y0123220D02*
X0257701Y0123220D01*
X0257701Y0126023D02*
X0254299Y0126023D01*
D23*
X0326000Y0044622D03*
X0336000Y0044622D03*
X0346000Y0044622D03*
X0356000Y0044622D03*
X0366000Y0044622D03*
X0366000Y0034622D03*
X0356000Y0034622D03*
X0346000Y0034622D03*
X0336000Y0034622D03*
X0326000Y0034622D03*
D24*
X0283600Y0054022D02*
X0278400Y0054022D01*
X0278400Y0065222D01*
X0283600Y0065222D01*
X0283600Y0054022D01*
X0073600Y0054022D02*
X0073600Y0065222D01*
X0068400Y0065222D01*
X0068400Y0054022D01*
X0073600Y0054022D01*
D25*
X0067050Y0055922D03*
X0074950Y0059622D03*
X0067050Y0063322D03*
X0277050Y0063322D03*
X0284950Y0059622D03*
X0277050Y0055922D03*
D26*
X0327300Y0080672D03*
X0334700Y0080672D03*
X0331000Y0088572D03*
X0124700Y0040672D03*
X0117300Y0040672D03*
X0121000Y0048572D03*
D27*
X0141000Y0047122D03*
X0141000Y0042122D03*
X0121000Y0059622D03*
X0121000Y0064622D03*
X0121000Y0074622D03*
X0121000Y0079622D03*
X0038500Y0059622D03*
X0026000Y0059622D03*
X0016000Y0059622D03*
X0016000Y0064622D03*
X0026000Y0064622D03*
X0038500Y0054622D03*
X0081000Y0042122D03*
X0081000Y0037122D03*
X0226000Y0059622D03*
X0226000Y0064622D03*
X0236000Y0064622D03*
X0236000Y0059622D03*
X0248500Y0059622D03*
X0248500Y0054622D03*
X0263500Y0042122D03*
X0263500Y0037122D03*
X0326000Y0062122D03*
X0326000Y0067122D03*
X0313500Y0079622D03*
X0313500Y0084622D03*
X0313500Y0094622D03*
X0313500Y0099622D03*
X0251000Y0109622D03*
X0251000Y0114622D03*
X0041000Y0114622D03*
X0041000Y0109622D03*
D28*
X0043500Y0124622D03*
X0048500Y0124622D03*
X0253500Y0124622D03*
X0258500Y0124622D03*
D29*
X0384098Y0054823D03*
X0384098Y0042421D03*
X0310902Y0041421D03*
X0310902Y0053823D03*
D30*
X0311098Y0049984D03*
X0383902Y0046260D03*
M02*
