%
M48
M72
T01C0.02362
T02C0.03200
T03C0.03937
T04C0.04000
T05C0.04331
T06C0.08661
%
T01
X131000Y39622
X156000Y39622
X213500Y42122
X201000Y67122
X241000Y74622
X273500Y84622
X253500Y102122
X333500Y72122
X371000Y59622
X296000Y32122
X158500Y67122
X143500Y72122
X153500Y82122
X91000Y69622
X68500Y87122
X43500Y102122
X28500Y82122
X91000Y49622
T02
X136000Y59622
X146000Y59622
X346000Y59622
X356000Y59622
T03
X377378Y94779
X377378Y104622
X377378Y114464
X167378Y114464
X167378Y104622
X167378Y94779
T04
X326000Y44622
X336000Y44622
X346000Y44622
X356000Y44622
X366000Y44622
X366000Y34622
X356000Y34622
X346000Y34622
X336000Y34622
X326000Y34622
T05
X21000Y34031
X21000Y45842
X71000Y45842
X71000Y34031
X71000Y79307
X21000Y79307
X21000Y89937
X21000Y123401
X21000Y135212
X231000Y135212
X231000Y123401
X231000Y89937
X231000Y79307
X281000Y79307
X281000Y45842
X281000Y34031
X231000Y34031
X231000Y45842
T06
X141000Y87299
X141000Y121945
X351000Y121945
X351000Y87299
M30
