G75*
%MOIN*%
%OFA0B0*%
%FSLAX25Y25*%
%IPPOS*%
%LPD*%
%AMOC8*
5,1,8,0,0,1.08239X$1,22.5*
%
%ADD10C,0.02500*%
%ADD11C,0.00600*%
%ADD12C,0.27622*%
%ADD13C,0.16598*%
D10*
X0189037Y0148040D02*
X0189041Y0148370D01*
X0189053Y0148701D01*
X0189073Y0149030D01*
X0189102Y0149360D01*
X0189138Y0149688D01*
X0189183Y0150015D01*
X0189235Y0150342D01*
X0189296Y0150667D01*
X0189364Y0150990D01*
X0189440Y0151311D01*
X0189525Y0151631D01*
X0189617Y0151948D01*
X0189717Y0152263D01*
X0189824Y0152576D01*
X0189939Y0152885D01*
X0190062Y0153192D01*
X0190192Y0153496D01*
X0190330Y0153796D01*
X0190475Y0154093D01*
X0190627Y0154386D01*
X0190786Y0154676D01*
X0190952Y0154961D01*
X0191126Y0155243D01*
X0191306Y0155520D01*
X0191493Y0155792D01*
X0191686Y0156060D01*
X0191886Y0156323D01*
X0192093Y0156581D01*
X0192306Y0156834D01*
X0192525Y0157081D01*
X0192749Y0157323D01*
X0192980Y0157560D01*
X0193217Y0157791D01*
X0193459Y0158015D01*
X0193706Y0158234D01*
X0193959Y0158447D01*
X0194217Y0158654D01*
X0194480Y0158854D01*
X0194748Y0159047D01*
X0195020Y0159234D01*
X0195297Y0159414D01*
X0195579Y0159588D01*
X0195864Y0159754D01*
X0196154Y0159913D01*
X0196447Y0160065D01*
X0196744Y0160210D01*
X0197044Y0160348D01*
X0197348Y0160478D01*
X0197655Y0160601D01*
X0197964Y0160716D01*
X0198277Y0160823D01*
X0198592Y0160923D01*
X0198909Y0161015D01*
X0199229Y0161100D01*
X0199550Y0161176D01*
X0199873Y0161244D01*
X0200198Y0161305D01*
X0200525Y0161357D01*
X0200852Y0161402D01*
X0201180Y0161438D01*
X0201510Y0161467D01*
X0201839Y0161487D01*
X0202170Y0161499D01*
X0202500Y0161503D01*
X0202830Y0161499D01*
X0203161Y0161487D01*
X0203490Y0161467D01*
X0203820Y0161438D01*
X0204148Y0161402D01*
X0204475Y0161357D01*
X0204802Y0161305D01*
X0205127Y0161244D01*
X0205450Y0161176D01*
X0205771Y0161100D01*
X0206091Y0161015D01*
X0206408Y0160923D01*
X0206723Y0160823D01*
X0207036Y0160716D01*
X0207345Y0160601D01*
X0207652Y0160478D01*
X0207956Y0160348D01*
X0208256Y0160210D01*
X0208553Y0160065D01*
X0208846Y0159913D01*
X0209136Y0159754D01*
X0209421Y0159588D01*
X0209703Y0159414D01*
X0209980Y0159234D01*
X0210252Y0159047D01*
X0210520Y0158854D01*
X0210783Y0158654D01*
X0211041Y0158447D01*
X0211294Y0158234D01*
X0211541Y0158015D01*
X0211783Y0157791D01*
X0212020Y0157560D01*
X0212251Y0157323D01*
X0212475Y0157081D01*
X0212694Y0156834D01*
X0212907Y0156581D01*
X0213114Y0156323D01*
X0213314Y0156060D01*
X0213507Y0155792D01*
X0213694Y0155520D01*
X0213874Y0155243D01*
X0214048Y0154961D01*
X0214214Y0154676D01*
X0214373Y0154386D01*
X0214525Y0154093D01*
X0214670Y0153796D01*
X0214808Y0153496D01*
X0214938Y0153192D01*
X0215061Y0152885D01*
X0215176Y0152576D01*
X0215283Y0152263D01*
X0215383Y0151948D01*
X0215475Y0151631D01*
X0215560Y0151311D01*
X0215636Y0150990D01*
X0215704Y0150667D01*
X0215765Y0150342D01*
X0215817Y0150015D01*
X0215862Y0149688D01*
X0215898Y0149360D01*
X0215927Y0149030D01*
X0215947Y0148701D01*
X0215959Y0148370D01*
X0215963Y0148040D01*
X0215959Y0147710D01*
X0215947Y0147379D01*
X0215927Y0147050D01*
X0215898Y0146720D01*
X0215862Y0146392D01*
X0215817Y0146065D01*
X0215765Y0145738D01*
X0215704Y0145413D01*
X0215636Y0145090D01*
X0215560Y0144769D01*
X0215475Y0144449D01*
X0215383Y0144132D01*
X0215283Y0143817D01*
X0215176Y0143504D01*
X0215061Y0143195D01*
X0214938Y0142888D01*
X0214808Y0142584D01*
X0214670Y0142284D01*
X0214525Y0141987D01*
X0214373Y0141694D01*
X0214214Y0141404D01*
X0214048Y0141119D01*
X0213874Y0140837D01*
X0213694Y0140560D01*
X0213507Y0140288D01*
X0213314Y0140020D01*
X0213114Y0139757D01*
X0212907Y0139499D01*
X0212694Y0139246D01*
X0212475Y0138999D01*
X0212251Y0138757D01*
X0212020Y0138520D01*
X0211783Y0138289D01*
X0211541Y0138065D01*
X0211294Y0137846D01*
X0211041Y0137633D01*
X0210783Y0137426D01*
X0210520Y0137226D01*
X0210252Y0137033D01*
X0209980Y0136846D01*
X0209703Y0136666D01*
X0209421Y0136492D01*
X0209136Y0136326D01*
X0208846Y0136167D01*
X0208553Y0136015D01*
X0208256Y0135870D01*
X0207956Y0135732D01*
X0207652Y0135602D01*
X0207345Y0135479D01*
X0207036Y0135364D01*
X0206723Y0135257D01*
X0206408Y0135157D01*
X0206091Y0135065D01*
X0205771Y0134980D01*
X0205450Y0134904D01*
X0205127Y0134836D01*
X0204802Y0134775D01*
X0204475Y0134723D01*
X0204148Y0134678D01*
X0203820Y0134642D01*
X0203490Y0134613D01*
X0203161Y0134593D01*
X0202830Y0134581D01*
X0202500Y0134577D01*
X0202170Y0134581D01*
X0201839Y0134593D01*
X0201510Y0134613D01*
X0201180Y0134642D01*
X0200852Y0134678D01*
X0200525Y0134723D01*
X0200198Y0134775D01*
X0199873Y0134836D01*
X0199550Y0134904D01*
X0199229Y0134980D01*
X0198909Y0135065D01*
X0198592Y0135157D01*
X0198277Y0135257D01*
X0197964Y0135364D01*
X0197655Y0135479D01*
X0197348Y0135602D01*
X0197044Y0135732D01*
X0196744Y0135870D01*
X0196447Y0136015D01*
X0196154Y0136167D01*
X0195864Y0136326D01*
X0195579Y0136492D01*
X0195297Y0136666D01*
X0195020Y0136846D01*
X0194748Y0137033D01*
X0194480Y0137226D01*
X0194217Y0137426D01*
X0193959Y0137633D01*
X0193706Y0137846D01*
X0193459Y0138065D01*
X0193217Y0138289D01*
X0192980Y0138520D01*
X0192749Y0138757D01*
X0192525Y0138999D01*
X0192306Y0139246D01*
X0192093Y0139499D01*
X0191886Y0139757D01*
X0191686Y0140020D01*
X0191493Y0140288D01*
X0191306Y0140560D01*
X0191126Y0140837D01*
X0190952Y0141119D01*
X0190786Y0141404D01*
X0190627Y0141694D01*
X0190475Y0141987D01*
X0190330Y0142284D01*
X0190192Y0142584D01*
X0190062Y0142888D01*
X0189939Y0143195D01*
X0189824Y0143504D01*
X0189717Y0143817D01*
X0189617Y0144132D01*
X0189525Y0144449D01*
X0189440Y0144769D01*
X0189364Y0145090D01*
X0189296Y0145413D01*
X0189235Y0145738D01*
X0189183Y0146065D01*
X0189138Y0146392D01*
X0189102Y0146720D01*
X0189073Y0147050D01*
X0189053Y0147379D01*
X0189041Y0147710D01*
X0189037Y0148040D01*
X0200000Y0148040D02*
X0200002Y0148139D01*
X0200008Y0148239D01*
X0200018Y0148338D01*
X0200032Y0148436D01*
X0200049Y0148534D01*
X0200071Y0148631D01*
X0200096Y0148727D01*
X0200125Y0148822D01*
X0200158Y0148916D01*
X0200195Y0149008D01*
X0200235Y0149099D01*
X0200279Y0149188D01*
X0200327Y0149276D01*
X0200378Y0149361D01*
X0200432Y0149444D01*
X0200489Y0149526D01*
X0200550Y0149604D01*
X0200614Y0149681D01*
X0200680Y0149754D01*
X0200750Y0149825D01*
X0200822Y0149893D01*
X0200897Y0149959D01*
X0200975Y0150021D01*
X0201055Y0150080D01*
X0201137Y0150136D01*
X0201221Y0150188D01*
X0201308Y0150237D01*
X0201396Y0150283D01*
X0201486Y0150325D01*
X0201578Y0150364D01*
X0201671Y0150399D01*
X0201765Y0150430D01*
X0201861Y0150457D01*
X0201958Y0150480D01*
X0202055Y0150500D01*
X0202153Y0150516D01*
X0202252Y0150528D01*
X0202351Y0150536D01*
X0202450Y0150540D01*
X0202550Y0150540D01*
X0202649Y0150536D01*
X0202748Y0150528D01*
X0202847Y0150516D01*
X0202945Y0150500D01*
X0203042Y0150480D01*
X0203139Y0150457D01*
X0203235Y0150430D01*
X0203329Y0150399D01*
X0203422Y0150364D01*
X0203514Y0150325D01*
X0203604Y0150283D01*
X0203692Y0150237D01*
X0203779Y0150188D01*
X0203863Y0150136D01*
X0203945Y0150080D01*
X0204025Y0150021D01*
X0204103Y0149959D01*
X0204178Y0149893D01*
X0204250Y0149825D01*
X0204320Y0149754D01*
X0204386Y0149681D01*
X0204450Y0149604D01*
X0204511Y0149526D01*
X0204568Y0149444D01*
X0204622Y0149361D01*
X0204673Y0149276D01*
X0204721Y0149188D01*
X0204765Y0149099D01*
X0204805Y0149008D01*
X0204842Y0148916D01*
X0204875Y0148822D01*
X0204904Y0148727D01*
X0204929Y0148631D01*
X0204951Y0148534D01*
X0204968Y0148436D01*
X0204982Y0148338D01*
X0204992Y0148239D01*
X0204998Y0148139D01*
X0205000Y0148040D01*
X0204998Y0147941D01*
X0204992Y0147841D01*
X0204982Y0147742D01*
X0204968Y0147644D01*
X0204951Y0147546D01*
X0204929Y0147449D01*
X0204904Y0147353D01*
X0204875Y0147258D01*
X0204842Y0147164D01*
X0204805Y0147072D01*
X0204765Y0146981D01*
X0204721Y0146892D01*
X0204673Y0146804D01*
X0204622Y0146719D01*
X0204568Y0146636D01*
X0204511Y0146554D01*
X0204450Y0146476D01*
X0204386Y0146399D01*
X0204320Y0146326D01*
X0204250Y0146255D01*
X0204178Y0146187D01*
X0204103Y0146121D01*
X0204025Y0146059D01*
X0203945Y0146000D01*
X0203863Y0145944D01*
X0203779Y0145892D01*
X0203692Y0145843D01*
X0203604Y0145797D01*
X0203514Y0145755D01*
X0203422Y0145716D01*
X0203329Y0145681D01*
X0203235Y0145650D01*
X0203139Y0145623D01*
X0203042Y0145600D01*
X0202945Y0145580D01*
X0202847Y0145564D01*
X0202748Y0145552D01*
X0202649Y0145544D01*
X0202550Y0145540D01*
X0202450Y0145540D01*
X0202351Y0145544D01*
X0202252Y0145552D01*
X0202153Y0145564D01*
X0202055Y0145580D01*
X0201958Y0145600D01*
X0201861Y0145623D01*
X0201765Y0145650D01*
X0201671Y0145681D01*
X0201578Y0145716D01*
X0201486Y0145755D01*
X0201396Y0145797D01*
X0201308Y0145843D01*
X0201221Y0145892D01*
X0201137Y0145944D01*
X0201055Y0146000D01*
X0200975Y0146059D01*
X0200897Y0146121D01*
X0200822Y0146187D01*
X0200750Y0146255D01*
X0200680Y0146326D01*
X0200614Y0146399D01*
X0200550Y0146476D01*
X0200489Y0146554D01*
X0200432Y0146636D01*
X0200378Y0146719D01*
X0200327Y0146804D01*
X0200279Y0146892D01*
X0200235Y0146981D01*
X0200195Y0147072D01*
X0200158Y0147164D01*
X0200125Y0147258D01*
X0200096Y0147353D01*
X0200071Y0147449D01*
X0200049Y0147546D01*
X0200032Y0147644D01*
X0200018Y0147742D01*
X0200008Y0147841D01*
X0200002Y0147941D01*
X0200000Y0148040D01*
X0196910Y0148040D02*
X0196912Y0148189D01*
X0196918Y0148339D01*
X0196928Y0148488D01*
X0196942Y0148637D01*
X0196960Y0148785D01*
X0196982Y0148933D01*
X0197008Y0149080D01*
X0197037Y0149227D01*
X0197071Y0149372D01*
X0197109Y0149517D01*
X0197150Y0149660D01*
X0197195Y0149803D01*
X0197244Y0149944D01*
X0197297Y0150084D01*
X0197354Y0150222D01*
X0197414Y0150359D01*
X0197478Y0150494D01*
X0197545Y0150628D01*
X0197616Y0150759D01*
X0197690Y0150889D01*
X0197768Y0151016D01*
X0197849Y0151142D01*
X0197934Y0151265D01*
X0198022Y0151386D01*
X0198113Y0151504D01*
X0198207Y0151620D01*
X0198304Y0151734D01*
X0198405Y0151845D01*
X0198508Y0151953D01*
X0198614Y0152058D01*
X0198723Y0152161D01*
X0198834Y0152260D01*
X0198948Y0152357D01*
X0199065Y0152450D01*
X0199184Y0152540D01*
X0199306Y0152627D01*
X0199429Y0152711D01*
X0199555Y0152792D01*
X0199683Y0152869D01*
X0199814Y0152942D01*
X0199946Y0153012D01*
X0200079Y0153079D01*
X0200215Y0153142D01*
X0200352Y0153201D01*
X0200491Y0153256D01*
X0200631Y0153308D01*
X0200773Y0153356D01*
X0200915Y0153401D01*
X0201059Y0153441D01*
X0201204Y0153478D01*
X0201350Y0153510D01*
X0201497Y0153539D01*
X0201644Y0153564D01*
X0201792Y0153585D01*
X0201940Y0153602D01*
X0202089Y0153615D01*
X0202239Y0153624D01*
X0202388Y0153629D01*
X0202537Y0153630D01*
X0202687Y0153627D01*
X0202836Y0153620D01*
X0202985Y0153609D01*
X0203134Y0153594D01*
X0203282Y0153575D01*
X0203430Y0153552D01*
X0203577Y0153525D01*
X0203723Y0153495D01*
X0203868Y0153460D01*
X0204013Y0153421D01*
X0204156Y0153379D01*
X0204298Y0153333D01*
X0204439Y0153283D01*
X0204579Y0153229D01*
X0204717Y0153172D01*
X0204853Y0153111D01*
X0204988Y0153046D01*
X0205121Y0152978D01*
X0205252Y0152906D01*
X0205381Y0152830D01*
X0205508Y0152752D01*
X0205633Y0152670D01*
X0205755Y0152584D01*
X0205876Y0152496D01*
X0205994Y0152404D01*
X0206109Y0152309D01*
X0206222Y0152211D01*
X0206332Y0152110D01*
X0206439Y0152006D01*
X0206544Y0151899D01*
X0206646Y0151790D01*
X0206745Y0151678D01*
X0206840Y0151563D01*
X0206933Y0151445D01*
X0207022Y0151326D01*
X0207109Y0151204D01*
X0207192Y0151079D01*
X0207271Y0150953D01*
X0207347Y0150824D01*
X0207420Y0150694D01*
X0207489Y0150561D01*
X0207555Y0150427D01*
X0207617Y0150291D01*
X0207675Y0150153D01*
X0207730Y0150014D01*
X0207781Y0149874D01*
X0207828Y0149732D01*
X0207871Y0149589D01*
X0207911Y0149445D01*
X0207946Y0149299D01*
X0207978Y0149153D01*
X0208006Y0149007D01*
X0208030Y0148859D01*
X0208050Y0148711D01*
X0208066Y0148562D01*
X0208078Y0148413D01*
X0208086Y0148264D01*
X0208090Y0148115D01*
X0208090Y0147965D01*
X0208086Y0147816D01*
X0208078Y0147667D01*
X0208066Y0147518D01*
X0208050Y0147369D01*
X0208030Y0147221D01*
X0208006Y0147073D01*
X0207978Y0146927D01*
X0207946Y0146781D01*
X0207911Y0146635D01*
X0207871Y0146491D01*
X0207828Y0146348D01*
X0207781Y0146206D01*
X0207730Y0146066D01*
X0207675Y0145927D01*
X0207617Y0145789D01*
X0207555Y0145653D01*
X0207489Y0145519D01*
X0207420Y0145386D01*
X0207347Y0145256D01*
X0207271Y0145127D01*
X0207192Y0145001D01*
X0207109Y0144876D01*
X0207022Y0144754D01*
X0206933Y0144635D01*
X0206840Y0144517D01*
X0206745Y0144402D01*
X0206646Y0144290D01*
X0206544Y0144181D01*
X0206439Y0144074D01*
X0206332Y0143970D01*
X0206222Y0143869D01*
X0206109Y0143771D01*
X0205994Y0143676D01*
X0205876Y0143584D01*
X0205755Y0143496D01*
X0205633Y0143410D01*
X0205508Y0143328D01*
X0205381Y0143250D01*
X0205252Y0143174D01*
X0205121Y0143102D01*
X0204988Y0143034D01*
X0204853Y0142969D01*
X0204717Y0142908D01*
X0204579Y0142851D01*
X0204439Y0142797D01*
X0204298Y0142747D01*
X0204156Y0142701D01*
X0204013Y0142659D01*
X0203868Y0142620D01*
X0203723Y0142585D01*
X0203577Y0142555D01*
X0203430Y0142528D01*
X0203282Y0142505D01*
X0203134Y0142486D01*
X0202985Y0142471D01*
X0202836Y0142460D01*
X0202687Y0142453D01*
X0202537Y0142450D01*
X0202388Y0142451D01*
X0202239Y0142456D01*
X0202089Y0142465D01*
X0201940Y0142478D01*
X0201792Y0142495D01*
X0201644Y0142516D01*
X0201497Y0142541D01*
X0201350Y0142570D01*
X0201204Y0142602D01*
X0201059Y0142639D01*
X0200915Y0142679D01*
X0200773Y0142724D01*
X0200631Y0142772D01*
X0200491Y0142824D01*
X0200352Y0142879D01*
X0200215Y0142938D01*
X0200079Y0143001D01*
X0199946Y0143068D01*
X0199814Y0143138D01*
X0199683Y0143211D01*
X0199555Y0143288D01*
X0199429Y0143369D01*
X0199306Y0143453D01*
X0199184Y0143540D01*
X0199065Y0143630D01*
X0198948Y0143723D01*
X0198834Y0143820D01*
X0198723Y0143919D01*
X0198614Y0144022D01*
X0198508Y0144127D01*
X0198405Y0144235D01*
X0198304Y0144346D01*
X0198207Y0144460D01*
X0198113Y0144576D01*
X0198022Y0144694D01*
X0197934Y0144815D01*
X0197849Y0144938D01*
X0197768Y0145064D01*
X0197690Y0145191D01*
X0197616Y0145321D01*
X0197545Y0145452D01*
X0197478Y0145586D01*
X0197414Y0145721D01*
X0197354Y0145858D01*
X0197297Y0145996D01*
X0197244Y0146136D01*
X0197195Y0146277D01*
X0197150Y0146420D01*
X0197109Y0146563D01*
X0197071Y0146708D01*
X0197037Y0146853D01*
X0197008Y0147000D01*
X0196982Y0147147D01*
X0196960Y0147295D01*
X0196942Y0147443D01*
X0196928Y0147592D01*
X0196918Y0147741D01*
X0196912Y0147891D01*
X0196910Y0148040D01*
X0193486Y0148040D02*
X0193489Y0148261D01*
X0193497Y0148482D01*
X0193510Y0148703D01*
X0193529Y0148924D01*
X0193554Y0149143D01*
X0193584Y0149363D01*
X0193619Y0149581D01*
X0193659Y0149799D01*
X0193705Y0150015D01*
X0193756Y0150230D01*
X0193813Y0150444D01*
X0193874Y0150657D01*
X0193941Y0150868D01*
X0194013Y0151077D01*
X0194090Y0151284D01*
X0194172Y0151490D01*
X0194259Y0151693D01*
X0194351Y0151894D01*
X0194448Y0152093D01*
X0194550Y0152289D01*
X0194657Y0152483D01*
X0194768Y0152674D01*
X0194884Y0152862D01*
X0195005Y0153048D01*
X0195130Y0153230D01*
X0195260Y0153410D01*
X0195394Y0153586D01*
X0195532Y0153758D01*
X0195675Y0153928D01*
X0195821Y0154093D01*
X0195972Y0154256D01*
X0196126Y0154414D01*
X0196284Y0154568D01*
X0196447Y0154719D01*
X0196612Y0154865D01*
X0196782Y0155008D01*
X0196954Y0155146D01*
X0197130Y0155280D01*
X0197310Y0155410D01*
X0197492Y0155535D01*
X0197678Y0155656D01*
X0197866Y0155772D01*
X0198057Y0155883D01*
X0198251Y0155990D01*
X0198447Y0156092D01*
X0198646Y0156189D01*
X0198847Y0156281D01*
X0199050Y0156368D01*
X0199256Y0156450D01*
X0199463Y0156527D01*
X0199672Y0156599D01*
X0199883Y0156666D01*
X0200096Y0156727D01*
X0200310Y0156784D01*
X0200525Y0156835D01*
X0200741Y0156881D01*
X0200959Y0156921D01*
X0201177Y0156956D01*
X0201397Y0156986D01*
X0201616Y0157011D01*
X0201837Y0157030D01*
X0202058Y0157043D01*
X0202279Y0157051D01*
X0202500Y0157054D01*
X0202721Y0157051D01*
X0202942Y0157043D01*
X0203163Y0157030D01*
X0203384Y0157011D01*
X0203603Y0156986D01*
X0203823Y0156956D01*
X0204041Y0156921D01*
X0204259Y0156881D01*
X0204475Y0156835D01*
X0204690Y0156784D01*
X0204904Y0156727D01*
X0205117Y0156666D01*
X0205328Y0156599D01*
X0205537Y0156527D01*
X0205744Y0156450D01*
X0205950Y0156368D01*
X0206153Y0156281D01*
X0206354Y0156189D01*
X0206553Y0156092D01*
X0206749Y0155990D01*
X0206943Y0155883D01*
X0207134Y0155772D01*
X0207322Y0155656D01*
X0207508Y0155535D01*
X0207690Y0155410D01*
X0207870Y0155280D01*
X0208046Y0155146D01*
X0208218Y0155008D01*
X0208388Y0154865D01*
X0208553Y0154719D01*
X0208716Y0154568D01*
X0208874Y0154414D01*
X0209028Y0154256D01*
X0209179Y0154093D01*
X0209325Y0153928D01*
X0209468Y0153758D01*
X0209606Y0153586D01*
X0209740Y0153410D01*
X0209870Y0153230D01*
X0209995Y0153048D01*
X0210116Y0152862D01*
X0210232Y0152674D01*
X0210343Y0152483D01*
X0210450Y0152289D01*
X0210552Y0152093D01*
X0210649Y0151894D01*
X0210741Y0151693D01*
X0210828Y0151490D01*
X0210910Y0151284D01*
X0210987Y0151077D01*
X0211059Y0150868D01*
X0211126Y0150657D01*
X0211187Y0150444D01*
X0211244Y0150230D01*
X0211295Y0150015D01*
X0211341Y0149799D01*
X0211381Y0149581D01*
X0211416Y0149363D01*
X0211446Y0149143D01*
X0211471Y0148924D01*
X0211490Y0148703D01*
X0211503Y0148482D01*
X0211511Y0148261D01*
X0211514Y0148040D01*
X0211511Y0147819D01*
X0211503Y0147598D01*
X0211490Y0147377D01*
X0211471Y0147156D01*
X0211446Y0146937D01*
X0211416Y0146717D01*
X0211381Y0146499D01*
X0211341Y0146281D01*
X0211295Y0146065D01*
X0211244Y0145850D01*
X0211187Y0145636D01*
X0211126Y0145423D01*
X0211059Y0145212D01*
X0210987Y0145003D01*
X0210910Y0144796D01*
X0210828Y0144590D01*
X0210741Y0144387D01*
X0210649Y0144186D01*
X0210552Y0143987D01*
X0210450Y0143791D01*
X0210343Y0143597D01*
X0210232Y0143406D01*
X0210116Y0143218D01*
X0209995Y0143032D01*
X0209870Y0142850D01*
X0209740Y0142670D01*
X0209606Y0142494D01*
X0209468Y0142322D01*
X0209325Y0142152D01*
X0209179Y0141987D01*
X0209028Y0141824D01*
X0208874Y0141666D01*
X0208716Y0141512D01*
X0208553Y0141361D01*
X0208388Y0141215D01*
X0208218Y0141072D01*
X0208046Y0140934D01*
X0207870Y0140800D01*
X0207690Y0140670D01*
X0207508Y0140545D01*
X0207322Y0140424D01*
X0207134Y0140308D01*
X0206943Y0140197D01*
X0206749Y0140090D01*
X0206553Y0139988D01*
X0206354Y0139891D01*
X0206153Y0139799D01*
X0205950Y0139712D01*
X0205744Y0139630D01*
X0205537Y0139553D01*
X0205328Y0139481D01*
X0205117Y0139414D01*
X0204904Y0139353D01*
X0204690Y0139296D01*
X0204475Y0139245D01*
X0204259Y0139199D01*
X0204041Y0139159D01*
X0203823Y0139124D01*
X0203603Y0139094D01*
X0203384Y0139069D01*
X0203163Y0139050D01*
X0202942Y0139037D01*
X0202721Y0139029D01*
X0202500Y0139026D01*
X0202279Y0139029D01*
X0202058Y0139037D01*
X0201837Y0139050D01*
X0201616Y0139069D01*
X0201397Y0139094D01*
X0201177Y0139124D01*
X0200959Y0139159D01*
X0200741Y0139199D01*
X0200525Y0139245D01*
X0200310Y0139296D01*
X0200096Y0139353D01*
X0199883Y0139414D01*
X0199672Y0139481D01*
X0199463Y0139553D01*
X0199256Y0139630D01*
X0199050Y0139712D01*
X0198847Y0139799D01*
X0198646Y0139891D01*
X0198447Y0139988D01*
X0198251Y0140090D01*
X0198057Y0140197D01*
X0197866Y0140308D01*
X0197678Y0140424D01*
X0197492Y0140545D01*
X0197310Y0140670D01*
X0197130Y0140800D01*
X0196954Y0140934D01*
X0196782Y0141072D01*
X0196612Y0141215D01*
X0196447Y0141361D01*
X0196284Y0141512D01*
X0196126Y0141666D01*
X0195972Y0141824D01*
X0195821Y0141987D01*
X0195675Y0142152D01*
X0195532Y0142322D01*
X0195394Y0142494D01*
X0195260Y0142670D01*
X0195130Y0142850D01*
X0195005Y0143032D01*
X0194884Y0143218D01*
X0194768Y0143406D01*
X0194657Y0143597D01*
X0194550Y0143791D01*
X0194448Y0143987D01*
X0194351Y0144186D01*
X0194259Y0144387D01*
X0194172Y0144590D01*
X0194090Y0144796D01*
X0194013Y0145003D01*
X0193941Y0145212D01*
X0193874Y0145423D01*
X0193813Y0145636D01*
X0193756Y0145850D01*
X0193705Y0146065D01*
X0193659Y0146281D01*
X0193619Y0146499D01*
X0193584Y0146717D01*
X0193554Y0146937D01*
X0193529Y0147156D01*
X0193510Y0147377D01*
X0193497Y0147598D01*
X0193489Y0147819D01*
X0193486Y0148040D01*
X0408964Y0148040D02*
X0408966Y0148159D01*
X0408972Y0148277D01*
X0408982Y0148396D01*
X0408996Y0148514D01*
X0409014Y0148631D01*
X0409036Y0148748D01*
X0409061Y0148864D01*
X0409091Y0148979D01*
X0409124Y0149093D01*
X0409162Y0149206D01*
X0409203Y0149317D01*
X0409248Y0149427D01*
X0409296Y0149536D01*
X0409348Y0149643D01*
X0409404Y0149748D01*
X0409463Y0149851D01*
X0409525Y0149952D01*
X0409591Y0150051D01*
X0409660Y0150147D01*
X0409733Y0150241D01*
X0409808Y0150333D01*
X0409887Y0150422D01*
X0409968Y0150509D01*
X0410053Y0150592D01*
X0410140Y0150673D01*
X0410230Y0150751D01*
X0410322Y0150826D01*
X0410417Y0150897D01*
X0410514Y0150966D01*
X0410613Y0151031D01*
X0410715Y0151092D01*
X0410818Y0151151D01*
X0410924Y0151205D01*
X0411031Y0151256D01*
X0411140Y0151304D01*
X0411250Y0151348D01*
X0411362Y0151388D01*
X0411475Y0151424D01*
X0411590Y0151457D01*
X0411705Y0151485D01*
X0411821Y0151510D01*
X0411938Y0151531D01*
X0412056Y0151548D01*
X0412174Y0151561D01*
X0412292Y0151570D01*
X0412411Y0151575D01*
X0412530Y0151576D01*
X0412648Y0151573D01*
X0412767Y0151566D01*
X0412885Y0151555D01*
X0413003Y0151540D01*
X0413121Y0151521D01*
X0413237Y0151498D01*
X0413353Y0151472D01*
X0413468Y0151441D01*
X0413581Y0151407D01*
X0413694Y0151368D01*
X0413805Y0151326D01*
X0413915Y0151281D01*
X0414023Y0151231D01*
X0414129Y0151178D01*
X0414234Y0151122D01*
X0414336Y0151062D01*
X0414437Y0150999D01*
X0414535Y0150932D01*
X0414631Y0150862D01*
X0414725Y0150789D01*
X0414816Y0150712D01*
X0414904Y0150633D01*
X0414990Y0150551D01*
X0415073Y0150466D01*
X0415153Y0150378D01*
X0415230Y0150288D01*
X0415304Y0150195D01*
X0415375Y0150099D01*
X0415442Y0150001D01*
X0415506Y0149901D01*
X0415567Y0149799D01*
X0415625Y0149695D01*
X0415678Y0149589D01*
X0415729Y0149482D01*
X0415775Y0149373D01*
X0415818Y0149262D01*
X0415857Y0149150D01*
X0415893Y0149036D01*
X0415924Y0148922D01*
X0415952Y0148806D01*
X0415976Y0148690D01*
X0415996Y0148573D01*
X0416012Y0148455D01*
X0416024Y0148337D01*
X0416032Y0148218D01*
X0416036Y0148099D01*
X0416036Y0147981D01*
X0416032Y0147862D01*
X0416024Y0147743D01*
X0416012Y0147625D01*
X0415996Y0147507D01*
X0415976Y0147390D01*
X0415952Y0147274D01*
X0415924Y0147158D01*
X0415893Y0147044D01*
X0415857Y0146930D01*
X0415818Y0146818D01*
X0415775Y0146707D01*
X0415729Y0146598D01*
X0415678Y0146491D01*
X0415625Y0146385D01*
X0415567Y0146281D01*
X0415506Y0146179D01*
X0415442Y0146079D01*
X0415375Y0145981D01*
X0415304Y0145885D01*
X0415230Y0145792D01*
X0415153Y0145702D01*
X0415073Y0145614D01*
X0414990Y0145529D01*
X0414904Y0145447D01*
X0414816Y0145368D01*
X0414725Y0145291D01*
X0414631Y0145218D01*
X0414535Y0145148D01*
X0414437Y0145081D01*
X0414336Y0145018D01*
X0414234Y0144958D01*
X0414129Y0144902D01*
X0414023Y0144849D01*
X0413915Y0144799D01*
X0413805Y0144754D01*
X0413694Y0144712D01*
X0413581Y0144673D01*
X0413468Y0144639D01*
X0413353Y0144608D01*
X0413237Y0144582D01*
X0413121Y0144559D01*
X0413003Y0144540D01*
X0412885Y0144525D01*
X0412767Y0144514D01*
X0412648Y0144507D01*
X0412530Y0144504D01*
X0412411Y0144505D01*
X0412292Y0144510D01*
X0412174Y0144519D01*
X0412056Y0144532D01*
X0411938Y0144549D01*
X0411821Y0144570D01*
X0411705Y0144595D01*
X0411590Y0144623D01*
X0411475Y0144656D01*
X0411362Y0144692D01*
X0411250Y0144732D01*
X0411140Y0144776D01*
X0411031Y0144824D01*
X0410924Y0144875D01*
X0410818Y0144929D01*
X0410715Y0144988D01*
X0410613Y0145049D01*
X0410514Y0145114D01*
X0410417Y0145183D01*
X0410322Y0145254D01*
X0410230Y0145329D01*
X0410140Y0145407D01*
X0410053Y0145488D01*
X0409968Y0145571D01*
X0409887Y0145658D01*
X0409808Y0145747D01*
X0409733Y0145839D01*
X0409660Y0145933D01*
X0409591Y0146029D01*
X0409525Y0146128D01*
X0409463Y0146229D01*
X0409404Y0146332D01*
X0409348Y0146437D01*
X0409296Y0146544D01*
X0409248Y0146653D01*
X0409203Y0146763D01*
X0409162Y0146874D01*
X0409124Y0146987D01*
X0409091Y0147101D01*
X0409061Y0147216D01*
X0409036Y0147332D01*
X0409014Y0147449D01*
X0408996Y0147566D01*
X0408982Y0147684D01*
X0408972Y0147803D01*
X0408966Y0147921D01*
X0408964Y0148040D01*
X0403486Y0148040D02*
X0403489Y0148261D01*
X0403497Y0148482D01*
X0403510Y0148703D01*
X0403529Y0148924D01*
X0403554Y0149143D01*
X0403584Y0149363D01*
X0403619Y0149581D01*
X0403659Y0149799D01*
X0403705Y0150015D01*
X0403756Y0150230D01*
X0403813Y0150444D01*
X0403874Y0150657D01*
X0403941Y0150868D01*
X0404013Y0151077D01*
X0404090Y0151284D01*
X0404172Y0151490D01*
X0404259Y0151693D01*
X0404351Y0151894D01*
X0404448Y0152093D01*
X0404550Y0152289D01*
X0404657Y0152483D01*
X0404768Y0152674D01*
X0404884Y0152862D01*
X0405005Y0153048D01*
X0405130Y0153230D01*
X0405260Y0153410D01*
X0405394Y0153586D01*
X0405532Y0153758D01*
X0405675Y0153928D01*
X0405821Y0154093D01*
X0405972Y0154256D01*
X0406126Y0154414D01*
X0406284Y0154568D01*
X0406447Y0154719D01*
X0406612Y0154865D01*
X0406782Y0155008D01*
X0406954Y0155146D01*
X0407130Y0155280D01*
X0407310Y0155410D01*
X0407492Y0155535D01*
X0407678Y0155656D01*
X0407866Y0155772D01*
X0408057Y0155883D01*
X0408251Y0155990D01*
X0408447Y0156092D01*
X0408646Y0156189D01*
X0408847Y0156281D01*
X0409050Y0156368D01*
X0409256Y0156450D01*
X0409463Y0156527D01*
X0409672Y0156599D01*
X0409883Y0156666D01*
X0410096Y0156727D01*
X0410310Y0156784D01*
X0410525Y0156835D01*
X0410741Y0156881D01*
X0410959Y0156921D01*
X0411177Y0156956D01*
X0411397Y0156986D01*
X0411616Y0157011D01*
X0411837Y0157030D01*
X0412058Y0157043D01*
X0412279Y0157051D01*
X0412500Y0157054D01*
X0412721Y0157051D01*
X0412942Y0157043D01*
X0413163Y0157030D01*
X0413384Y0157011D01*
X0413603Y0156986D01*
X0413823Y0156956D01*
X0414041Y0156921D01*
X0414259Y0156881D01*
X0414475Y0156835D01*
X0414690Y0156784D01*
X0414904Y0156727D01*
X0415117Y0156666D01*
X0415328Y0156599D01*
X0415537Y0156527D01*
X0415744Y0156450D01*
X0415950Y0156368D01*
X0416153Y0156281D01*
X0416354Y0156189D01*
X0416553Y0156092D01*
X0416749Y0155990D01*
X0416943Y0155883D01*
X0417134Y0155772D01*
X0417322Y0155656D01*
X0417508Y0155535D01*
X0417690Y0155410D01*
X0417870Y0155280D01*
X0418046Y0155146D01*
X0418218Y0155008D01*
X0418388Y0154865D01*
X0418553Y0154719D01*
X0418716Y0154568D01*
X0418874Y0154414D01*
X0419028Y0154256D01*
X0419179Y0154093D01*
X0419325Y0153928D01*
X0419468Y0153758D01*
X0419606Y0153586D01*
X0419740Y0153410D01*
X0419870Y0153230D01*
X0419995Y0153048D01*
X0420116Y0152862D01*
X0420232Y0152674D01*
X0420343Y0152483D01*
X0420450Y0152289D01*
X0420552Y0152093D01*
X0420649Y0151894D01*
X0420741Y0151693D01*
X0420828Y0151490D01*
X0420910Y0151284D01*
X0420987Y0151077D01*
X0421059Y0150868D01*
X0421126Y0150657D01*
X0421187Y0150444D01*
X0421244Y0150230D01*
X0421295Y0150015D01*
X0421341Y0149799D01*
X0421381Y0149581D01*
X0421416Y0149363D01*
X0421446Y0149143D01*
X0421471Y0148924D01*
X0421490Y0148703D01*
X0421503Y0148482D01*
X0421511Y0148261D01*
X0421514Y0148040D01*
X0421511Y0147819D01*
X0421503Y0147598D01*
X0421490Y0147377D01*
X0421471Y0147156D01*
X0421446Y0146937D01*
X0421416Y0146717D01*
X0421381Y0146499D01*
X0421341Y0146281D01*
X0421295Y0146065D01*
X0421244Y0145850D01*
X0421187Y0145636D01*
X0421126Y0145423D01*
X0421059Y0145212D01*
X0420987Y0145003D01*
X0420910Y0144796D01*
X0420828Y0144590D01*
X0420741Y0144387D01*
X0420649Y0144186D01*
X0420552Y0143987D01*
X0420450Y0143791D01*
X0420343Y0143597D01*
X0420232Y0143406D01*
X0420116Y0143218D01*
X0419995Y0143032D01*
X0419870Y0142850D01*
X0419740Y0142670D01*
X0419606Y0142494D01*
X0419468Y0142322D01*
X0419325Y0142152D01*
X0419179Y0141987D01*
X0419028Y0141824D01*
X0418874Y0141666D01*
X0418716Y0141512D01*
X0418553Y0141361D01*
X0418388Y0141215D01*
X0418218Y0141072D01*
X0418046Y0140934D01*
X0417870Y0140800D01*
X0417690Y0140670D01*
X0417508Y0140545D01*
X0417322Y0140424D01*
X0417134Y0140308D01*
X0416943Y0140197D01*
X0416749Y0140090D01*
X0416553Y0139988D01*
X0416354Y0139891D01*
X0416153Y0139799D01*
X0415950Y0139712D01*
X0415744Y0139630D01*
X0415537Y0139553D01*
X0415328Y0139481D01*
X0415117Y0139414D01*
X0414904Y0139353D01*
X0414690Y0139296D01*
X0414475Y0139245D01*
X0414259Y0139199D01*
X0414041Y0139159D01*
X0413823Y0139124D01*
X0413603Y0139094D01*
X0413384Y0139069D01*
X0413163Y0139050D01*
X0412942Y0139037D01*
X0412721Y0139029D01*
X0412500Y0139026D01*
X0412279Y0139029D01*
X0412058Y0139037D01*
X0411837Y0139050D01*
X0411616Y0139069D01*
X0411397Y0139094D01*
X0411177Y0139124D01*
X0410959Y0139159D01*
X0410741Y0139199D01*
X0410525Y0139245D01*
X0410310Y0139296D01*
X0410096Y0139353D01*
X0409883Y0139414D01*
X0409672Y0139481D01*
X0409463Y0139553D01*
X0409256Y0139630D01*
X0409050Y0139712D01*
X0408847Y0139799D01*
X0408646Y0139891D01*
X0408447Y0139988D01*
X0408251Y0140090D01*
X0408057Y0140197D01*
X0407866Y0140308D01*
X0407678Y0140424D01*
X0407492Y0140545D01*
X0407310Y0140670D01*
X0407130Y0140800D01*
X0406954Y0140934D01*
X0406782Y0141072D01*
X0406612Y0141215D01*
X0406447Y0141361D01*
X0406284Y0141512D01*
X0406126Y0141666D01*
X0405972Y0141824D01*
X0405821Y0141987D01*
X0405675Y0142152D01*
X0405532Y0142322D01*
X0405394Y0142494D01*
X0405260Y0142670D01*
X0405130Y0142850D01*
X0405005Y0143032D01*
X0404884Y0143218D01*
X0404768Y0143406D01*
X0404657Y0143597D01*
X0404550Y0143791D01*
X0404448Y0143987D01*
X0404351Y0144186D01*
X0404259Y0144387D01*
X0404172Y0144590D01*
X0404090Y0144796D01*
X0404013Y0145003D01*
X0403941Y0145212D01*
X0403874Y0145423D01*
X0403813Y0145636D01*
X0403756Y0145850D01*
X0403705Y0146065D01*
X0403659Y0146281D01*
X0403619Y0146499D01*
X0403584Y0146717D01*
X0403554Y0146937D01*
X0403529Y0147156D01*
X0403510Y0147377D01*
X0403497Y0147598D01*
X0403489Y0147819D01*
X0403486Y0148040D01*
X0400000Y0148040D02*
X0400004Y0148347D01*
X0400015Y0148653D01*
X0400034Y0148960D01*
X0400060Y0149265D01*
X0400094Y0149570D01*
X0400135Y0149874D01*
X0400184Y0150177D01*
X0400240Y0150479D01*
X0400304Y0150779D01*
X0400375Y0151077D01*
X0400453Y0151374D01*
X0400538Y0151669D01*
X0400631Y0151961D01*
X0400731Y0152251D01*
X0400838Y0152539D01*
X0400952Y0152824D01*
X0401072Y0153106D01*
X0401200Y0153384D01*
X0401335Y0153660D01*
X0401476Y0153932D01*
X0401624Y0154201D01*
X0401778Y0154466D01*
X0401939Y0154727D01*
X0402107Y0154985D01*
X0402280Y0155238D01*
X0402460Y0155486D01*
X0402646Y0155730D01*
X0402837Y0155970D01*
X0403035Y0156205D01*
X0403238Y0156434D01*
X0403447Y0156659D01*
X0403661Y0156879D01*
X0403881Y0157093D01*
X0404106Y0157302D01*
X0404335Y0157505D01*
X0404570Y0157703D01*
X0404810Y0157894D01*
X0405054Y0158080D01*
X0405302Y0158260D01*
X0405555Y0158433D01*
X0405813Y0158601D01*
X0406074Y0158762D01*
X0406339Y0158916D01*
X0406608Y0159064D01*
X0406880Y0159205D01*
X0407156Y0159340D01*
X0407434Y0159468D01*
X0407716Y0159588D01*
X0408001Y0159702D01*
X0408289Y0159809D01*
X0408579Y0159909D01*
X0408871Y0160002D01*
X0409166Y0160087D01*
X0409463Y0160165D01*
X0409761Y0160236D01*
X0410061Y0160300D01*
X0410363Y0160356D01*
X0410666Y0160405D01*
X0410970Y0160446D01*
X0411275Y0160480D01*
X0411580Y0160506D01*
X0411887Y0160525D01*
X0412193Y0160536D01*
X0412500Y0160540D01*
X0412807Y0160536D01*
X0413113Y0160525D01*
X0413420Y0160506D01*
X0413725Y0160480D01*
X0414030Y0160446D01*
X0414334Y0160405D01*
X0414637Y0160356D01*
X0414939Y0160300D01*
X0415239Y0160236D01*
X0415537Y0160165D01*
X0415834Y0160087D01*
X0416129Y0160002D01*
X0416421Y0159909D01*
X0416711Y0159809D01*
X0416999Y0159702D01*
X0417284Y0159588D01*
X0417566Y0159468D01*
X0417844Y0159340D01*
X0418120Y0159205D01*
X0418392Y0159064D01*
X0418661Y0158916D01*
X0418926Y0158762D01*
X0419187Y0158601D01*
X0419445Y0158433D01*
X0419698Y0158260D01*
X0419946Y0158080D01*
X0420190Y0157894D01*
X0420430Y0157703D01*
X0420665Y0157505D01*
X0420894Y0157302D01*
X0421119Y0157093D01*
X0421339Y0156879D01*
X0421553Y0156659D01*
X0421762Y0156434D01*
X0421965Y0156205D01*
X0422163Y0155970D01*
X0422354Y0155730D01*
X0422540Y0155486D01*
X0422720Y0155238D01*
X0422893Y0154985D01*
X0423061Y0154727D01*
X0423222Y0154466D01*
X0423376Y0154201D01*
X0423524Y0153932D01*
X0423665Y0153660D01*
X0423800Y0153384D01*
X0423928Y0153106D01*
X0424048Y0152824D01*
X0424162Y0152539D01*
X0424269Y0152251D01*
X0424369Y0151961D01*
X0424462Y0151669D01*
X0424547Y0151374D01*
X0424625Y0151077D01*
X0424696Y0150779D01*
X0424760Y0150479D01*
X0424816Y0150177D01*
X0424865Y0149874D01*
X0424906Y0149570D01*
X0424940Y0149265D01*
X0424966Y0148960D01*
X0424985Y0148653D01*
X0424996Y0148347D01*
X0425000Y0148040D01*
X0424996Y0147733D01*
X0424985Y0147427D01*
X0424966Y0147120D01*
X0424940Y0146815D01*
X0424906Y0146510D01*
X0424865Y0146206D01*
X0424816Y0145903D01*
X0424760Y0145601D01*
X0424696Y0145301D01*
X0424625Y0145003D01*
X0424547Y0144706D01*
X0424462Y0144411D01*
X0424369Y0144119D01*
X0424269Y0143829D01*
X0424162Y0143541D01*
X0424048Y0143256D01*
X0423928Y0142974D01*
X0423800Y0142696D01*
X0423665Y0142420D01*
X0423524Y0142148D01*
X0423376Y0141879D01*
X0423222Y0141614D01*
X0423061Y0141353D01*
X0422893Y0141095D01*
X0422720Y0140842D01*
X0422540Y0140594D01*
X0422354Y0140350D01*
X0422163Y0140110D01*
X0421965Y0139875D01*
X0421762Y0139646D01*
X0421553Y0139421D01*
X0421339Y0139201D01*
X0421119Y0138987D01*
X0420894Y0138778D01*
X0420665Y0138575D01*
X0420430Y0138377D01*
X0420190Y0138186D01*
X0419946Y0138000D01*
X0419698Y0137820D01*
X0419445Y0137647D01*
X0419187Y0137479D01*
X0418926Y0137318D01*
X0418661Y0137164D01*
X0418392Y0137016D01*
X0418120Y0136875D01*
X0417844Y0136740D01*
X0417566Y0136612D01*
X0417284Y0136492D01*
X0416999Y0136378D01*
X0416711Y0136271D01*
X0416421Y0136171D01*
X0416129Y0136078D01*
X0415834Y0135993D01*
X0415537Y0135915D01*
X0415239Y0135844D01*
X0414939Y0135780D01*
X0414637Y0135724D01*
X0414334Y0135675D01*
X0414030Y0135634D01*
X0413725Y0135600D01*
X0413420Y0135574D01*
X0413113Y0135555D01*
X0412807Y0135544D01*
X0412500Y0135540D01*
X0412193Y0135544D01*
X0411887Y0135555D01*
X0411580Y0135574D01*
X0411275Y0135600D01*
X0410970Y0135634D01*
X0410666Y0135675D01*
X0410363Y0135724D01*
X0410061Y0135780D01*
X0409761Y0135844D01*
X0409463Y0135915D01*
X0409166Y0135993D01*
X0408871Y0136078D01*
X0408579Y0136171D01*
X0408289Y0136271D01*
X0408001Y0136378D01*
X0407716Y0136492D01*
X0407434Y0136612D01*
X0407156Y0136740D01*
X0406880Y0136875D01*
X0406608Y0137016D01*
X0406339Y0137164D01*
X0406074Y0137318D01*
X0405813Y0137479D01*
X0405555Y0137647D01*
X0405302Y0137820D01*
X0405054Y0138000D01*
X0404810Y0138186D01*
X0404570Y0138377D01*
X0404335Y0138575D01*
X0404106Y0138778D01*
X0403881Y0138987D01*
X0403661Y0139201D01*
X0403447Y0139421D01*
X0403238Y0139646D01*
X0403035Y0139875D01*
X0402837Y0140110D01*
X0402646Y0140350D01*
X0402460Y0140594D01*
X0402280Y0140842D01*
X0402107Y0141095D01*
X0401939Y0141353D01*
X0401778Y0141614D01*
X0401624Y0141879D01*
X0401476Y0142148D01*
X0401335Y0142420D01*
X0401200Y0142696D01*
X0401072Y0142974D01*
X0400952Y0143256D01*
X0400838Y0143541D01*
X0400731Y0143829D01*
X0400631Y0144119D01*
X0400538Y0144411D01*
X0400453Y0144706D01*
X0400375Y0145003D01*
X0400304Y0145301D01*
X0400240Y0145601D01*
X0400184Y0145903D01*
X0400135Y0146206D01*
X0400094Y0146510D01*
X0400060Y0146815D01*
X0400034Y0147120D01*
X0400015Y0147427D01*
X0400004Y0147733D01*
X0400000Y0148040D01*
D11*
X0502500Y0113040D02*
X0002500Y0113040D01*
X0002500Y0233040D01*
X0502500Y0233040D01*
X0502500Y0113040D01*
X0502500Y0113389D02*
X0002500Y0113389D01*
X0002500Y0113988D02*
X0502500Y0113988D01*
X0502500Y0114586D02*
X0002500Y0114586D01*
X0002500Y0115185D02*
X0502500Y0115185D01*
X0502500Y0115783D02*
X0002500Y0115783D01*
X0002500Y0116382D02*
X0502500Y0116382D01*
X0502500Y0116980D02*
X0002500Y0116980D01*
X0002500Y0117579D02*
X0502500Y0117579D01*
X0502500Y0118177D02*
X0002500Y0118177D01*
X0002500Y0118776D02*
X0502500Y0118776D01*
X0502500Y0119374D02*
X0002500Y0119374D01*
X0002500Y0119973D02*
X0502500Y0119973D01*
X0502500Y0120571D02*
X0002500Y0120571D01*
X0002500Y0121170D02*
X0502500Y0121170D01*
X0502500Y0121768D02*
X0002500Y0121768D01*
X0002500Y0122367D02*
X0502500Y0122367D01*
X0502500Y0122965D02*
X0002500Y0122965D01*
X0002500Y0123564D02*
X0502500Y0123564D01*
X0502500Y0124162D02*
X0002500Y0124162D01*
X0002500Y0124761D02*
X0502500Y0124761D01*
X0502500Y0125359D02*
X0002500Y0125359D01*
X0002500Y0125958D02*
X0502500Y0125958D01*
X0502500Y0126556D02*
X0002500Y0126556D01*
X0002500Y0127155D02*
X0502500Y0127155D01*
X0502500Y0127753D02*
X0002500Y0127753D01*
X0002500Y0128352D02*
X0502500Y0128352D01*
X0502500Y0128950D02*
X0002500Y0128950D01*
X0002500Y0129549D02*
X0502500Y0129549D01*
X0502500Y0130147D02*
X0002500Y0130147D01*
X0002500Y0130746D02*
X0502500Y0130746D01*
X0502500Y0131344D02*
X0002500Y0131344D01*
X0002500Y0131943D02*
X0502500Y0131943D01*
X0502500Y0132542D02*
X0203224Y0132542D01*
X0202500Y0132427D02*
X0207325Y0133191D01*
X0211677Y0135409D01*
X0215131Y0138863D01*
X0217349Y0143215D01*
X0218113Y0148040D01*
X0217349Y0152864D01*
X0215131Y0157217D01*
X0211677Y0160671D01*
X0207325Y0162889D01*
X0207325Y0162889D01*
X0202500Y0163653D01*
X0197675Y0162889D01*
X0193323Y0160671D01*
X0189869Y0157217D01*
X0189869Y0157217D01*
X0187651Y0152864D01*
X0186887Y0148040D01*
X0186887Y0148040D01*
X0187651Y0143215D01*
X0189869Y0138863D01*
X0189869Y0138863D01*
X0193323Y0135409D01*
X0197675Y0133191D01*
X0197675Y0133191D01*
X0202500Y0132427D01*
X0202500Y0132427D01*
X0201776Y0132542D02*
X0002500Y0132542D01*
X0002500Y0133140D02*
X0197997Y0133140D01*
X0196601Y0133739D02*
X0135966Y0133739D01*
X0134437Y0133329D02*
X0138178Y0134331D01*
X0141533Y0136268D01*
X0144272Y0139007D01*
X0146208Y0142362D01*
X0147211Y0146103D01*
X0147211Y0149977D01*
X0146208Y0153718D01*
X0144272Y0157073D01*
X0141533Y0159812D01*
X0138178Y0161748D01*
X0134437Y0162751D01*
X0130563Y0162751D01*
X0126822Y0161748D01*
X0123467Y0159812D01*
X0120728Y0157073D01*
X0118792Y0153718D01*
X0117789Y0149977D01*
X0117789Y0146103D01*
X0118792Y0142362D01*
X0120728Y0139007D01*
X0123467Y0136268D01*
X0126822Y0134331D01*
X0130563Y0133329D01*
X0134437Y0133329D01*
X0138188Y0134337D02*
X0195426Y0134337D01*
X0194251Y0134936D02*
X0139225Y0134936D01*
X0140262Y0135534D02*
X0193198Y0135534D01*
X0193323Y0135409D02*
X0193323Y0135409D01*
X0192599Y0136133D02*
X0141298Y0136133D01*
X0141996Y0136731D02*
X0192001Y0136731D01*
X0191402Y0137330D02*
X0142594Y0137330D01*
X0143193Y0137928D02*
X0190803Y0137928D01*
X0190205Y0138527D02*
X0143791Y0138527D01*
X0144340Y0139125D02*
X0189735Y0139125D01*
X0189430Y0139724D02*
X0144686Y0139724D01*
X0145031Y0140322D02*
X0189125Y0140322D01*
X0188820Y0140921D02*
X0145377Y0140921D01*
X0145722Y0141519D02*
X0188515Y0141519D01*
X0188210Y0142118D02*
X0146068Y0142118D01*
X0146304Y0142716D02*
X0187905Y0142716D01*
X0187651Y0143215D02*
X0187651Y0143215D01*
X0187635Y0143315D02*
X0146464Y0143315D01*
X0146624Y0143913D02*
X0187541Y0143913D01*
X0187446Y0144512D02*
X0146785Y0144512D01*
X0146945Y0145110D02*
X0187351Y0145110D01*
X0187256Y0145709D02*
X0147105Y0145709D01*
X0147211Y0146307D02*
X0187161Y0146307D01*
X0187067Y0146906D02*
X0147211Y0146906D01*
X0147211Y0147504D02*
X0186972Y0147504D01*
X0186897Y0148103D02*
X0147211Y0148103D01*
X0147211Y0148701D02*
X0186992Y0148701D01*
X0187087Y0149300D02*
X0147211Y0149300D01*
X0147211Y0149898D02*
X0187181Y0149898D01*
X0187276Y0150497D02*
X0147072Y0150497D01*
X0146911Y0151095D02*
X0187371Y0151095D01*
X0187466Y0151694D02*
X0146751Y0151694D01*
X0146590Y0152292D02*
X0187561Y0152292D01*
X0187651Y0152864D02*
X0187651Y0152864D01*
X0187665Y0152891D02*
X0146430Y0152891D01*
X0146270Y0153489D02*
X0187970Y0153489D01*
X0188275Y0154088D02*
X0145995Y0154088D01*
X0145649Y0154686D02*
X0188580Y0154686D01*
X0188885Y0155285D02*
X0145304Y0155285D01*
X0144958Y0155883D02*
X0189190Y0155883D01*
X0189494Y0156482D02*
X0144613Y0156482D01*
X0144264Y0157080D02*
X0189799Y0157080D01*
X0190331Y0157679D02*
X0143665Y0157679D01*
X0143067Y0158277D02*
X0190930Y0158277D01*
X0191528Y0158876D02*
X0142468Y0158876D01*
X0141870Y0159475D02*
X0192127Y0159475D01*
X0192725Y0160073D02*
X0141080Y0160073D01*
X0140043Y0160672D02*
X0193324Y0160672D01*
X0193323Y0160671D02*
X0193323Y0160671D01*
X0194499Y0161270D02*
X0139006Y0161270D01*
X0137729Y0161869D02*
X0195674Y0161869D01*
X0196848Y0162467D02*
X0135496Y0162467D01*
X0129504Y0162467D02*
X0085496Y0162467D01*
X0084437Y0162751D02*
X0080563Y0162751D01*
X0076822Y0161748D01*
X0073467Y0159812D01*
X0070728Y0157073D01*
X0068792Y0153718D01*
X0067789Y0149977D01*
X0067789Y0146103D01*
X0068792Y0142362D01*
X0070728Y0139007D01*
X0073467Y0136268D01*
X0076822Y0134331D01*
X0080563Y0133329D01*
X0084437Y0133329D01*
X0088178Y0134331D01*
X0091533Y0136268D01*
X0094272Y0139007D01*
X0096208Y0142362D01*
X0097211Y0146103D01*
X0097211Y0149977D01*
X0096208Y0153718D01*
X0094272Y0157073D01*
X0091533Y0159812D01*
X0088178Y0161748D01*
X0084437Y0162751D01*
X0087729Y0161869D02*
X0127271Y0161869D01*
X0125994Y0161270D02*
X0089006Y0161270D01*
X0090043Y0160672D02*
X0124957Y0160672D01*
X0123920Y0160073D02*
X0091080Y0160073D01*
X0091870Y0159475D02*
X0123130Y0159475D01*
X0122532Y0158876D02*
X0092468Y0158876D01*
X0093067Y0158277D02*
X0121933Y0158277D01*
X0121335Y0157679D02*
X0093665Y0157679D01*
X0094264Y0157080D02*
X0120736Y0157080D01*
X0120387Y0156482D02*
X0094613Y0156482D01*
X0094958Y0155883D02*
X0120042Y0155883D01*
X0119696Y0155285D02*
X0095304Y0155285D01*
X0095649Y0154686D02*
X0119351Y0154686D01*
X0119005Y0154088D02*
X0095995Y0154088D01*
X0096270Y0153489D02*
X0118730Y0153489D01*
X0118570Y0152891D02*
X0096430Y0152891D01*
X0096590Y0152292D02*
X0118410Y0152292D01*
X0118249Y0151694D02*
X0096751Y0151694D01*
X0096911Y0151095D02*
X0118089Y0151095D01*
X0117928Y0150497D02*
X0097072Y0150497D01*
X0097211Y0149898D02*
X0117789Y0149898D01*
X0117789Y0149300D02*
X0097211Y0149300D01*
X0097211Y0148701D02*
X0117789Y0148701D01*
X0117789Y0148103D02*
X0097211Y0148103D01*
X0097211Y0147504D02*
X0117789Y0147504D01*
X0117789Y0146906D02*
X0097211Y0146906D01*
X0097211Y0146307D02*
X0117789Y0146307D01*
X0117895Y0145709D02*
X0097105Y0145709D01*
X0096945Y0145110D02*
X0118055Y0145110D01*
X0118215Y0144512D02*
X0096785Y0144512D01*
X0096624Y0143913D02*
X0118376Y0143913D01*
X0118536Y0143315D02*
X0096464Y0143315D01*
X0096304Y0142716D02*
X0118696Y0142716D01*
X0118932Y0142118D02*
X0096068Y0142118D01*
X0095722Y0141519D02*
X0119278Y0141519D01*
X0119623Y0140921D02*
X0095377Y0140921D01*
X0095031Y0140322D02*
X0119969Y0140322D01*
X0120314Y0139724D02*
X0094686Y0139724D01*
X0094340Y0139125D02*
X0120660Y0139125D01*
X0121209Y0138527D02*
X0093791Y0138527D01*
X0093193Y0137928D02*
X0121807Y0137928D01*
X0122406Y0137330D02*
X0092594Y0137330D01*
X0091996Y0136731D02*
X0123004Y0136731D01*
X0123702Y0136133D02*
X0091298Y0136133D01*
X0090262Y0135534D02*
X0124738Y0135534D01*
X0125775Y0134936D02*
X0089225Y0134936D01*
X0088188Y0134337D02*
X0126812Y0134337D01*
X0129034Y0133739D02*
X0085966Y0133739D01*
X0079034Y0133739D02*
X0002500Y0133739D01*
X0002500Y0134337D02*
X0076812Y0134337D01*
X0075775Y0134936D02*
X0002500Y0134936D01*
X0002500Y0135534D02*
X0074738Y0135534D01*
X0073702Y0136133D02*
X0002500Y0136133D01*
X0002500Y0136731D02*
X0073004Y0136731D01*
X0072406Y0137330D02*
X0002500Y0137330D01*
X0002500Y0137928D02*
X0071807Y0137928D01*
X0071209Y0138527D02*
X0002500Y0138527D01*
X0002500Y0139125D02*
X0070660Y0139125D01*
X0070314Y0139724D02*
X0002500Y0139724D01*
X0002500Y0140322D02*
X0069969Y0140322D01*
X0069623Y0140921D02*
X0002500Y0140921D01*
X0002500Y0141519D02*
X0069278Y0141519D01*
X0068932Y0142118D02*
X0002500Y0142118D01*
X0002500Y0142716D02*
X0068696Y0142716D01*
X0068536Y0143315D02*
X0002500Y0143315D01*
X0002500Y0143913D02*
X0068376Y0143913D01*
X0068215Y0144512D02*
X0002500Y0144512D01*
X0002500Y0145110D02*
X0068055Y0145110D01*
X0067895Y0145709D02*
X0002500Y0145709D01*
X0002500Y0146307D02*
X0067789Y0146307D01*
X0067789Y0146906D02*
X0002500Y0146906D01*
X0002500Y0147504D02*
X0067789Y0147504D01*
X0067789Y0148103D02*
X0002500Y0148103D01*
X0002500Y0148701D02*
X0067789Y0148701D01*
X0067789Y0149300D02*
X0002500Y0149300D01*
X0002500Y0149898D02*
X0067789Y0149898D01*
X0067928Y0150497D02*
X0002500Y0150497D01*
X0002500Y0151095D02*
X0068089Y0151095D01*
X0068249Y0151694D02*
X0002500Y0151694D01*
X0002500Y0152292D02*
X0068410Y0152292D01*
X0068570Y0152891D02*
X0002500Y0152891D01*
X0002500Y0153489D02*
X0068730Y0153489D01*
X0069005Y0154088D02*
X0002500Y0154088D01*
X0002500Y0154686D02*
X0069351Y0154686D01*
X0069696Y0155285D02*
X0002500Y0155285D01*
X0002500Y0155883D02*
X0070042Y0155883D01*
X0070387Y0156482D02*
X0002500Y0156482D01*
X0002500Y0157080D02*
X0070736Y0157080D01*
X0071335Y0157679D02*
X0002500Y0157679D01*
X0002500Y0158277D02*
X0071933Y0158277D01*
X0072532Y0158876D02*
X0002500Y0158876D01*
X0002500Y0159475D02*
X0073130Y0159475D01*
X0073920Y0160073D02*
X0002500Y0160073D01*
X0002500Y0160672D02*
X0074957Y0160672D01*
X0075994Y0161270D02*
X0002500Y0161270D01*
X0002500Y0161869D02*
X0077271Y0161869D01*
X0079504Y0162467D02*
X0002500Y0162467D01*
X0002500Y0163066D02*
X0198793Y0163066D01*
X0197675Y0162889D02*
X0197675Y0162889D01*
X0202500Y0163653D02*
X0202500Y0163653D01*
X0206207Y0163066D02*
X0502500Y0163066D01*
X0502500Y0163664D02*
X0002500Y0163664D01*
X0002500Y0164263D02*
X0502500Y0164263D01*
X0502500Y0164861D02*
X0002500Y0164861D01*
X0002500Y0165460D02*
X0502500Y0165460D01*
X0502500Y0166058D02*
X0002500Y0166058D01*
X0002500Y0166657D02*
X0502500Y0166657D01*
X0502500Y0167255D02*
X0002500Y0167255D01*
X0002500Y0167854D02*
X0502500Y0167854D01*
X0502500Y0168452D02*
X0002500Y0168452D01*
X0002500Y0169051D02*
X0012663Y0169051D01*
X0013170Y0168841D02*
X0016830Y0168841D01*
X0020211Y0170241D01*
X0022799Y0172829D01*
X0024199Y0176210D01*
X0024199Y0179870D01*
X0022799Y0183251D01*
X0020211Y0185838D01*
X0016830Y0187239D01*
X0013170Y0187239D01*
X0009789Y0185838D01*
X0007201Y0183251D01*
X0005801Y0179870D01*
X0005801Y0176210D01*
X0007201Y0172829D01*
X0009789Y0170241D01*
X0013170Y0168841D01*
X0011218Y0169649D02*
X0002500Y0169649D01*
X0002500Y0170248D02*
X0009782Y0170248D01*
X0009184Y0170846D02*
X0002500Y0170846D01*
X0002500Y0171445D02*
X0008585Y0171445D01*
X0007987Y0172043D02*
X0002500Y0172043D01*
X0002500Y0172642D02*
X0007388Y0172642D01*
X0007031Y0173240D02*
X0002500Y0173240D01*
X0002500Y0173839D02*
X0006783Y0173839D01*
X0006535Y0174437D02*
X0002500Y0174437D01*
X0002500Y0175036D02*
X0006287Y0175036D01*
X0006039Y0175634D02*
X0002500Y0175634D01*
X0002500Y0176233D02*
X0005801Y0176233D01*
X0005801Y0176831D02*
X0002500Y0176831D01*
X0002500Y0177430D02*
X0005801Y0177430D01*
X0005801Y0178028D02*
X0002500Y0178028D01*
X0002500Y0178627D02*
X0005801Y0178627D01*
X0005801Y0179225D02*
X0002500Y0179225D01*
X0002500Y0179824D02*
X0005801Y0179824D01*
X0006030Y0180422D02*
X0002500Y0180422D01*
X0002500Y0181021D02*
X0006278Y0181021D01*
X0006526Y0181619D02*
X0002500Y0181619D01*
X0002500Y0182218D02*
X0006774Y0182218D01*
X0007021Y0182816D02*
X0002500Y0182816D01*
X0002500Y0183415D02*
X0007366Y0183415D01*
X0007964Y0184013D02*
X0002500Y0184013D01*
X0002500Y0184612D02*
X0008563Y0184612D01*
X0009161Y0185211D02*
X0002500Y0185211D01*
X0002500Y0185809D02*
X0009760Y0185809D01*
X0011163Y0186408D02*
X0002500Y0186408D01*
X0002500Y0187006D02*
X0012608Y0187006D01*
X0017392Y0187006D02*
X0072729Y0187006D01*
X0072131Y0187605D02*
X0002500Y0187605D01*
X0002500Y0188203D02*
X0071532Y0188203D01*
X0070934Y0188802D02*
X0002500Y0188802D01*
X0002500Y0189400D02*
X0070501Y0189400D01*
X0070728Y0189007D02*
X0068792Y0192362D01*
X0067789Y0196103D01*
X0067789Y0199977D01*
X0068792Y0203718D01*
X0070728Y0207073D01*
X0073467Y0209812D01*
X0076822Y0211748D01*
X0080563Y0212751D01*
X0084437Y0212751D01*
X0088178Y0211748D01*
X0091533Y0209812D01*
X0094272Y0207073D01*
X0096208Y0203718D01*
X0097211Y0199977D01*
X0097211Y0196103D01*
X0096208Y0192362D01*
X0094272Y0189007D01*
X0091533Y0186268D01*
X0088178Y0184331D01*
X0084437Y0183329D01*
X0080563Y0183329D01*
X0076822Y0184331D01*
X0073467Y0186268D01*
X0070728Y0189007D01*
X0070156Y0189999D02*
X0002500Y0189999D01*
X0002500Y0190597D02*
X0069810Y0190597D01*
X0069465Y0191196D02*
X0002500Y0191196D01*
X0002500Y0191794D02*
X0069119Y0191794D01*
X0068783Y0192393D02*
X0002500Y0192393D01*
X0002500Y0192991D02*
X0068623Y0192991D01*
X0068462Y0193590D02*
X0002500Y0193590D01*
X0002500Y0194188D02*
X0068302Y0194188D01*
X0068142Y0194787D02*
X0002500Y0194787D01*
X0002500Y0195385D02*
X0067981Y0195385D01*
X0067821Y0195984D02*
X0002500Y0195984D01*
X0002500Y0196582D02*
X0067789Y0196582D01*
X0067789Y0197181D02*
X0002500Y0197181D01*
X0002500Y0197779D02*
X0067789Y0197779D01*
X0067789Y0198378D02*
X0002500Y0198378D01*
X0002500Y0198976D02*
X0067789Y0198976D01*
X0067789Y0199575D02*
X0002500Y0199575D01*
X0002500Y0200173D02*
X0067842Y0200173D01*
X0068002Y0200772D02*
X0002500Y0200772D01*
X0002500Y0201370D02*
X0068162Y0201370D01*
X0068323Y0201969D02*
X0002500Y0201969D01*
X0002500Y0202567D02*
X0068483Y0202567D01*
X0068644Y0203166D02*
X0002500Y0203166D01*
X0002500Y0203764D02*
X0068818Y0203764D01*
X0069164Y0204363D02*
X0002500Y0204363D01*
X0002500Y0204961D02*
X0069509Y0204961D01*
X0069855Y0205560D02*
X0002500Y0205560D01*
X0002500Y0206158D02*
X0070200Y0206158D01*
X0070546Y0206757D02*
X0002500Y0206757D01*
X0002500Y0207355D02*
X0071011Y0207355D01*
X0071610Y0207954D02*
X0002500Y0207954D01*
X0002500Y0208552D02*
X0072208Y0208552D01*
X0072807Y0209151D02*
X0002500Y0209151D01*
X0002500Y0209749D02*
X0073405Y0209749D01*
X0074396Y0210348D02*
X0002500Y0210348D01*
X0002500Y0210946D02*
X0075433Y0210946D01*
X0076470Y0211545D02*
X0002500Y0211545D01*
X0002500Y0212144D02*
X0078297Y0212144D01*
X0080531Y0212742D02*
X0002500Y0212742D01*
X0002500Y0213341D02*
X0502500Y0213341D01*
X0502500Y0213939D02*
X0002500Y0213939D01*
X0002500Y0214538D02*
X0502500Y0214538D01*
X0502500Y0215136D02*
X0002500Y0215136D01*
X0002500Y0215735D02*
X0502500Y0215735D01*
X0502500Y0216333D02*
X0002500Y0216333D01*
X0002500Y0216932D02*
X0502500Y0216932D01*
X0502500Y0217530D02*
X0002500Y0217530D01*
X0002500Y0218129D02*
X0502500Y0218129D01*
X0502500Y0218727D02*
X0002500Y0218727D01*
X0002500Y0219326D02*
X0502500Y0219326D01*
X0502500Y0219924D02*
X0002500Y0219924D01*
X0002500Y0220523D02*
X0502500Y0220523D01*
X0502500Y0221121D02*
X0002500Y0221121D01*
X0002500Y0221720D02*
X0502500Y0221720D01*
X0502500Y0222318D02*
X0002500Y0222318D01*
X0002500Y0222917D02*
X0502500Y0222917D01*
X0502500Y0223515D02*
X0002500Y0223515D01*
X0002500Y0224114D02*
X0502500Y0224114D01*
X0502500Y0224712D02*
X0002500Y0224712D01*
X0002500Y0225311D02*
X0502500Y0225311D01*
X0502500Y0225909D02*
X0002500Y0225909D01*
X0002500Y0226508D02*
X0502500Y0226508D01*
X0502500Y0227106D02*
X0002500Y0227106D01*
X0002500Y0227705D02*
X0502500Y0227705D01*
X0502500Y0228303D02*
X0002500Y0228303D01*
X0002500Y0228902D02*
X0502500Y0228902D01*
X0502500Y0229500D02*
X0002500Y0229500D01*
X0002500Y0230099D02*
X0502500Y0230099D01*
X0502500Y0230697D02*
X0002500Y0230697D01*
X0002500Y0231296D02*
X0502500Y0231296D01*
X0502500Y0231894D02*
X0002500Y0231894D01*
X0002500Y0232493D02*
X0502500Y0232493D01*
X0502500Y0212742D02*
X0294469Y0212742D01*
X0294437Y0212751D02*
X0290563Y0212751D01*
X0286822Y0211748D01*
X0283467Y0209812D01*
X0280728Y0207073D01*
X0278792Y0203718D01*
X0277789Y0199977D01*
X0277789Y0196103D01*
X0278792Y0192362D01*
X0280728Y0189007D01*
X0283467Y0186268D01*
X0286822Y0184331D01*
X0290563Y0183329D01*
X0294437Y0183329D01*
X0298178Y0184331D01*
X0301533Y0186268D01*
X0304272Y0189007D01*
X0306208Y0192362D01*
X0307211Y0196103D01*
X0307211Y0199977D01*
X0306208Y0203718D01*
X0304272Y0207073D01*
X0301533Y0209812D01*
X0298178Y0211748D01*
X0294437Y0212751D01*
X0296703Y0212144D02*
X0502500Y0212144D01*
X0502500Y0211545D02*
X0298530Y0211545D01*
X0299567Y0210946D02*
X0502500Y0210946D01*
X0502500Y0210348D02*
X0300604Y0210348D01*
X0301595Y0209749D02*
X0502500Y0209749D01*
X0502500Y0209151D02*
X0302193Y0209151D01*
X0302792Y0208552D02*
X0502500Y0208552D01*
X0502500Y0207954D02*
X0303390Y0207954D01*
X0303989Y0207355D02*
X0409088Y0207355D01*
X0410563Y0207751D02*
X0406822Y0206748D01*
X0403467Y0204812D01*
X0400728Y0202073D01*
X0398792Y0198718D01*
X0397789Y0194977D01*
X0397789Y0191103D01*
X0398792Y0187362D01*
X0400728Y0184007D01*
X0403467Y0181268D01*
X0406822Y0179331D01*
X0410563Y0178329D01*
X0414437Y0178329D01*
X0418178Y0179331D01*
X0421533Y0181268D01*
X0424272Y0184007D01*
X0426208Y0187362D01*
X0427211Y0191103D01*
X0427211Y0194977D01*
X0426208Y0198718D01*
X0424272Y0202073D01*
X0421533Y0204812D01*
X0418178Y0206748D01*
X0414437Y0207751D01*
X0410563Y0207751D01*
X0406854Y0206757D02*
X0304454Y0206757D01*
X0304800Y0206158D02*
X0405800Y0206158D01*
X0404763Y0205560D02*
X0305145Y0205560D01*
X0305491Y0204961D02*
X0403727Y0204961D01*
X0403019Y0204363D02*
X0305836Y0204363D01*
X0306182Y0203764D02*
X0402420Y0203764D01*
X0401822Y0203166D02*
X0306356Y0203166D01*
X0306517Y0202567D02*
X0401223Y0202567D01*
X0400668Y0201969D02*
X0306677Y0201969D01*
X0306838Y0201370D02*
X0400323Y0201370D01*
X0399977Y0200772D02*
X0306998Y0200772D01*
X0307158Y0200173D02*
X0399632Y0200173D01*
X0399286Y0199575D02*
X0307211Y0199575D01*
X0307211Y0198976D02*
X0398941Y0198976D01*
X0398700Y0198378D02*
X0307211Y0198378D01*
X0307211Y0197779D02*
X0398540Y0197779D01*
X0398380Y0197181D02*
X0307211Y0197181D01*
X0307211Y0196582D02*
X0398219Y0196582D01*
X0398059Y0195984D02*
X0307179Y0195984D01*
X0307019Y0195385D02*
X0397898Y0195385D01*
X0397789Y0194787D02*
X0306858Y0194787D01*
X0306698Y0194188D02*
X0397789Y0194188D01*
X0397789Y0193590D02*
X0306538Y0193590D01*
X0306377Y0192991D02*
X0397789Y0192991D01*
X0397789Y0192393D02*
X0306217Y0192393D01*
X0305881Y0191794D02*
X0397789Y0191794D01*
X0397789Y0191196D02*
X0305535Y0191196D01*
X0305190Y0190597D02*
X0397925Y0190597D01*
X0398085Y0189999D02*
X0304844Y0189999D01*
X0304499Y0189400D02*
X0398245Y0189400D01*
X0398406Y0188802D02*
X0304066Y0188802D01*
X0303468Y0188203D02*
X0398566Y0188203D01*
X0398726Y0187605D02*
X0302869Y0187605D01*
X0302271Y0187006D02*
X0398997Y0187006D01*
X0399342Y0186408D02*
X0301672Y0186408D01*
X0300738Y0185809D02*
X0399688Y0185809D01*
X0400033Y0185211D02*
X0299701Y0185211D01*
X0298664Y0184612D02*
X0400379Y0184612D01*
X0400724Y0184013D02*
X0296992Y0184013D01*
X0294759Y0183415D02*
X0401320Y0183415D01*
X0401919Y0182816D02*
X0213081Y0182816D01*
X0212483Y0182218D02*
X0402517Y0182218D01*
X0403116Y0181619D02*
X0211884Y0181619D01*
X0211533Y0181268D02*
X0214272Y0184007D01*
X0216208Y0187362D01*
X0217211Y0191103D01*
X0217211Y0194977D01*
X0216208Y0198718D01*
X0214272Y0202073D01*
X0211533Y0204812D01*
X0208178Y0206748D01*
X0204437Y0207751D01*
X0200563Y0207751D01*
X0196822Y0206748D01*
X0193467Y0204812D01*
X0190728Y0202073D01*
X0188792Y0198718D01*
X0187789Y0194977D01*
X0187789Y0191103D01*
X0188792Y0187362D01*
X0190728Y0184007D01*
X0193467Y0181268D01*
X0196822Y0179331D01*
X0200563Y0178329D01*
X0204437Y0178329D01*
X0208178Y0179331D01*
X0211533Y0181268D01*
X0211105Y0181021D02*
X0403895Y0181021D01*
X0404932Y0180422D02*
X0210068Y0180422D01*
X0209031Y0179824D02*
X0405968Y0179824D01*
X0407217Y0179225D02*
X0207783Y0179225D01*
X0205549Y0178627D02*
X0409451Y0178627D01*
X0415549Y0178627D02*
X0480801Y0178627D01*
X0480801Y0179225D02*
X0417783Y0179225D01*
X0419031Y0179824D02*
X0480801Y0179824D01*
X0480801Y0179870D02*
X0480801Y0176210D01*
X0482201Y0172829D01*
X0484789Y0170241D01*
X0488170Y0168841D01*
X0491830Y0168841D01*
X0495211Y0170241D01*
X0497799Y0172829D01*
X0499199Y0176210D01*
X0499199Y0179870D01*
X0497799Y0183251D01*
X0495211Y0185838D01*
X0491830Y0187239D01*
X0488170Y0187239D01*
X0484789Y0185838D01*
X0482201Y0183251D01*
X0480801Y0179870D01*
X0481030Y0180422D02*
X0420068Y0180422D01*
X0421105Y0181021D02*
X0481278Y0181021D01*
X0481526Y0181619D02*
X0421884Y0181619D01*
X0422483Y0182218D02*
X0481774Y0182218D01*
X0482021Y0182816D02*
X0423081Y0182816D01*
X0423680Y0183415D02*
X0482366Y0183415D01*
X0482964Y0184013D02*
X0424275Y0184013D01*
X0424621Y0184612D02*
X0483563Y0184612D01*
X0484161Y0185211D02*
X0424967Y0185211D01*
X0425312Y0185809D02*
X0484760Y0185809D01*
X0486163Y0186408D02*
X0425658Y0186408D01*
X0426003Y0187006D02*
X0487608Y0187006D01*
X0492392Y0187006D02*
X0502500Y0187006D01*
X0502500Y0186408D02*
X0493837Y0186408D01*
X0495240Y0185809D02*
X0502500Y0185809D01*
X0502500Y0185211D02*
X0495839Y0185211D01*
X0496437Y0184612D02*
X0502500Y0184612D01*
X0502500Y0184013D02*
X0497036Y0184013D01*
X0497634Y0183415D02*
X0502500Y0183415D01*
X0502500Y0182816D02*
X0497979Y0182816D01*
X0498226Y0182218D02*
X0502500Y0182218D01*
X0502500Y0181619D02*
X0498474Y0181619D01*
X0498722Y0181021D02*
X0502500Y0181021D01*
X0502500Y0180422D02*
X0498970Y0180422D01*
X0499199Y0179824D02*
X0502500Y0179824D01*
X0502500Y0179225D02*
X0499199Y0179225D01*
X0499199Y0178627D02*
X0502500Y0178627D01*
X0502500Y0178028D02*
X0499199Y0178028D01*
X0499199Y0177430D02*
X0502500Y0177430D01*
X0502500Y0176831D02*
X0499199Y0176831D01*
X0499199Y0176233D02*
X0502500Y0176233D01*
X0502500Y0175634D02*
X0498961Y0175634D01*
X0498713Y0175036D02*
X0502500Y0175036D01*
X0502500Y0174437D02*
X0498465Y0174437D01*
X0498217Y0173839D02*
X0502500Y0173839D01*
X0502500Y0173240D02*
X0497969Y0173240D01*
X0497612Y0172642D02*
X0502500Y0172642D01*
X0502500Y0172043D02*
X0497013Y0172043D01*
X0496415Y0171445D02*
X0502500Y0171445D01*
X0502500Y0170846D02*
X0495816Y0170846D01*
X0495218Y0170248D02*
X0502500Y0170248D01*
X0502500Y0169649D02*
X0493782Y0169649D01*
X0492337Y0169051D02*
X0502500Y0169051D01*
X0502500Y0162467D02*
X0413906Y0162467D01*
X0412500Y0162690D02*
X0412500Y0162690D01*
X0407973Y0161973D01*
X0403889Y0159892D01*
X0400648Y0156651D01*
X0398567Y0152567D01*
X0397850Y0148040D01*
X0398567Y0143513D01*
X0398567Y0143513D01*
X0400648Y0139429D01*
X0400648Y0139429D01*
X0403889Y0136188D01*
X0407973Y0134107D01*
X0412500Y0133390D01*
X0417027Y0134107D01*
X0421111Y0136188D01*
X0424352Y0139429D01*
X0426433Y0143513D01*
X0427150Y0148040D01*
X0426433Y0152567D01*
X0424352Y0156651D01*
X0421111Y0159892D01*
X0417027Y0161973D01*
X0412500Y0162690D01*
X0411094Y0162467D02*
X0345496Y0162467D01*
X0344437Y0162751D02*
X0348178Y0161748D01*
X0351533Y0159812D01*
X0354272Y0157073D01*
X0356208Y0153718D01*
X0357211Y0149977D01*
X0357211Y0146103D01*
X0356208Y0142362D01*
X0354272Y0139007D01*
X0351533Y0136268D01*
X0348178Y0134331D01*
X0344437Y0133329D01*
X0340563Y0133329D01*
X0336822Y0134331D01*
X0333467Y0136268D01*
X0330728Y0139007D01*
X0328792Y0142362D01*
X0327789Y0146103D01*
X0327789Y0149977D01*
X0328792Y0153718D01*
X0330728Y0157073D01*
X0333467Y0159812D01*
X0336822Y0161748D01*
X0340563Y0162751D01*
X0344437Y0162751D01*
X0347729Y0161869D02*
X0407768Y0161869D01*
X0407973Y0161973D02*
X0407973Y0161973D01*
X0406594Y0161270D02*
X0349006Y0161270D01*
X0350043Y0160672D02*
X0405419Y0160672D01*
X0404245Y0160073D02*
X0351080Y0160073D01*
X0351870Y0159475D02*
X0403472Y0159475D01*
X0403889Y0159892D02*
X0403889Y0159892D01*
X0402873Y0158876D02*
X0352468Y0158876D01*
X0353067Y0158277D02*
X0402275Y0158277D01*
X0401676Y0157679D02*
X0353665Y0157679D01*
X0354264Y0157080D02*
X0401078Y0157080D01*
X0400562Y0156482D02*
X0354613Y0156482D01*
X0354958Y0155883D02*
X0400257Y0155883D01*
X0399952Y0155285D02*
X0355304Y0155285D01*
X0355649Y0154686D02*
X0399647Y0154686D01*
X0399342Y0154088D02*
X0355995Y0154088D01*
X0356270Y0153489D02*
X0399037Y0153489D01*
X0398732Y0152891D02*
X0356430Y0152891D01*
X0356590Y0152292D02*
X0398524Y0152292D01*
X0398429Y0151694D02*
X0356751Y0151694D01*
X0356911Y0151095D02*
X0398334Y0151095D01*
X0398239Y0150497D02*
X0357072Y0150497D01*
X0357211Y0149898D02*
X0398144Y0149898D01*
X0398050Y0149300D02*
X0357211Y0149300D01*
X0357211Y0148701D02*
X0397955Y0148701D01*
X0397860Y0148103D02*
X0357211Y0148103D01*
X0357211Y0147504D02*
X0397935Y0147504D01*
X0397850Y0148040D02*
X0397850Y0148040D01*
X0398030Y0146906D02*
X0357211Y0146906D01*
X0357211Y0146307D02*
X0398124Y0146307D01*
X0398219Y0145709D02*
X0357105Y0145709D01*
X0356945Y0145110D02*
X0398314Y0145110D01*
X0398409Y0144512D02*
X0356785Y0144512D01*
X0356624Y0143913D02*
X0398504Y0143913D01*
X0398668Y0143315D02*
X0356464Y0143315D01*
X0356304Y0142716D02*
X0398973Y0142716D01*
X0399278Y0142118D02*
X0356068Y0142118D01*
X0355722Y0141519D02*
X0399583Y0141519D01*
X0399888Y0140921D02*
X0355377Y0140921D01*
X0355031Y0140322D02*
X0400193Y0140322D01*
X0400498Y0139724D02*
X0354686Y0139724D01*
X0354340Y0139125D02*
X0400951Y0139125D01*
X0401550Y0138527D02*
X0353791Y0138527D01*
X0353193Y0137928D02*
X0402148Y0137928D01*
X0402747Y0137330D02*
X0352594Y0137330D01*
X0351996Y0136731D02*
X0403346Y0136731D01*
X0403889Y0136188D02*
X0403889Y0136188D01*
X0403997Y0136133D02*
X0351298Y0136133D01*
X0350262Y0135534D02*
X0405172Y0135534D01*
X0406346Y0134936D02*
X0349225Y0134936D01*
X0348188Y0134337D02*
X0407521Y0134337D01*
X0407973Y0134107D02*
X0407973Y0134107D01*
X0410298Y0133739D02*
X0345966Y0133739D01*
X0339034Y0133739D02*
X0295966Y0133739D01*
X0294437Y0133329D02*
X0298178Y0134331D01*
X0301533Y0136268D01*
X0304272Y0139007D01*
X0306208Y0142362D01*
X0307211Y0146103D01*
X0307211Y0149977D01*
X0306208Y0153718D01*
X0304272Y0157073D01*
X0301533Y0159812D01*
X0298178Y0161748D01*
X0294437Y0162751D01*
X0290563Y0162751D01*
X0286822Y0161748D01*
X0283467Y0159812D01*
X0280728Y0157073D01*
X0278792Y0153718D01*
X0277789Y0149977D01*
X0277789Y0146103D01*
X0278792Y0142362D01*
X0280728Y0139007D01*
X0283467Y0136268D01*
X0286822Y0134331D01*
X0290563Y0133329D01*
X0294437Y0133329D01*
X0298188Y0134337D02*
X0336812Y0134337D01*
X0335775Y0134936D02*
X0299225Y0134936D01*
X0300262Y0135534D02*
X0334738Y0135534D01*
X0333702Y0136133D02*
X0301298Y0136133D01*
X0301996Y0136731D02*
X0333004Y0136731D01*
X0332406Y0137330D02*
X0302594Y0137330D01*
X0303193Y0137928D02*
X0331807Y0137928D01*
X0331209Y0138527D02*
X0303791Y0138527D01*
X0304340Y0139125D02*
X0330660Y0139125D01*
X0330314Y0139724D02*
X0304686Y0139724D01*
X0305031Y0140322D02*
X0329969Y0140322D01*
X0329623Y0140921D02*
X0305377Y0140921D01*
X0305722Y0141519D02*
X0329278Y0141519D01*
X0328932Y0142118D02*
X0306068Y0142118D01*
X0306304Y0142716D02*
X0328696Y0142716D01*
X0328536Y0143315D02*
X0306464Y0143315D01*
X0306624Y0143913D02*
X0328376Y0143913D01*
X0328215Y0144512D02*
X0306785Y0144512D01*
X0306945Y0145110D02*
X0328055Y0145110D01*
X0327895Y0145709D02*
X0307105Y0145709D01*
X0307211Y0146307D02*
X0327789Y0146307D01*
X0327789Y0146906D02*
X0307211Y0146906D01*
X0307211Y0147504D02*
X0327789Y0147504D01*
X0327789Y0148103D02*
X0307211Y0148103D01*
X0307211Y0148701D02*
X0327789Y0148701D01*
X0327789Y0149300D02*
X0307211Y0149300D01*
X0307211Y0149898D02*
X0327789Y0149898D01*
X0327928Y0150497D02*
X0307072Y0150497D01*
X0306911Y0151095D02*
X0328089Y0151095D01*
X0328249Y0151694D02*
X0306751Y0151694D01*
X0306590Y0152292D02*
X0328410Y0152292D01*
X0328570Y0152891D02*
X0306430Y0152891D01*
X0306270Y0153489D02*
X0328730Y0153489D01*
X0329005Y0154088D02*
X0305995Y0154088D01*
X0305649Y0154686D02*
X0329351Y0154686D01*
X0329696Y0155285D02*
X0305304Y0155285D01*
X0304958Y0155883D02*
X0330042Y0155883D01*
X0330387Y0156482D02*
X0304613Y0156482D01*
X0304264Y0157080D02*
X0330736Y0157080D01*
X0331335Y0157679D02*
X0303665Y0157679D01*
X0303067Y0158277D02*
X0331933Y0158277D01*
X0332532Y0158876D02*
X0302468Y0158876D01*
X0301870Y0159475D02*
X0333130Y0159475D01*
X0333920Y0160073D02*
X0301080Y0160073D01*
X0300043Y0160672D02*
X0334957Y0160672D01*
X0335994Y0161270D02*
X0299006Y0161270D01*
X0297729Y0161869D02*
X0337271Y0161869D01*
X0339504Y0162467D02*
X0295496Y0162467D01*
X0289504Y0162467D02*
X0208152Y0162467D01*
X0209326Y0161869D02*
X0287271Y0161869D01*
X0285994Y0161270D02*
X0210501Y0161270D01*
X0211676Y0160672D02*
X0284957Y0160672D01*
X0283920Y0160073D02*
X0212275Y0160073D01*
X0211677Y0160671D02*
X0211677Y0160671D01*
X0212873Y0159475D02*
X0283130Y0159475D01*
X0282532Y0158876D02*
X0213472Y0158876D01*
X0214070Y0158277D02*
X0281933Y0158277D01*
X0281335Y0157679D02*
X0214669Y0157679D01*
X0215131Y0157217D02*
X0215131Y0157217D01*
X0215201Y0157080D02*
X0280736Y0157080D01*
X0280387Y0156482D02*
X0215506Y0156482D01*
X0215810Y0155883D02*
X0280042Y0155883D01*
X0279696Y0155285D02*
X0216115Y0155285D01*
X0216420Y0154686D02*
X0279351Y0154686D01*
X0279005Y0154088D02*
X0216725Y0154088D01*
X0217030Y0153489D02*
X0278730Y0153489D01*
X0278570Y0152891D02*
X0217335Y0152891D01*
X0217349Y0152864D02*
X0217349Y0152864D01*
X0217439Y0152292D02*
X0278410Y0152292D01*
X0278249Y0151694D02*
X0217534Y0151694D01*
X0217629Y0151095D02*
X0278089Y0151095D01*
X0277928Y0150497D02*
X0217724Y0150497D01*
X0217819Y0149898D02*
X0277789Y0149898D01*
X0277789Y0149300D02*
X0217913Y0149300D01*
X0218008Y0148701D02*
X0277789Y0148701D01*
X0277789Y0148103D02*
X0218103Y0148103D01*
X0218028Y0147504D02*
X0277789Y0147504D01*
X0277789Y0146906D02*
X0217933Y0146906D01*
X0217838Y0146307D02*
X0277789Y0146307D01*
X0277895Y0145709D02*
X0217744Y0145709D01*
X0217649Y0145110D02*
X0278055Y0145110D01*
X0278215Y0144512D02*
X0217554Y0144512D01*
X0217459Y0143913D02*
X0278376Y0143913D01*
X0278536Y0143315D02*
X0217365Y0143315D01*
X0217349Y0143215D02*
X0217349Y0143215D01*
X0217095Y0142716D02*
X0278696Y0142716D01*
X0278932Y0142118D02*
X0216790Y0142118D01*
X0216485Y0141519D02*
X0279278Y0141519D01*
X0279623Y0140921D02*
X0216180Y0140921D01*
X0215875Y0140322D02*
X0279969Y0140322D01*
X0280314Y0139724D02*
X0215570Y0139724D01*
X0215265Y0139125D02*
X0280660Y0139125D01*
X0281209Y0138527D02*
X0214795Y0138527D01*
X0215131Y0138863D02*
X0215131Y0138863D01*
X0214196Y0137928D02*
X0281807Y0137928D01*
X0282406Y0137330D02*
X0213598Y0137330D01*
X0212999Y0136731D02*
X0283004Y0136731D01*
X0283702Y0136133D02*
X0212401Y0136133D01*
X0211802Y0135534D02*
X0284738Y0135534D01*
X0285775Y0134936D02*
X0210749Y0134936D01*
X0211677Y0135409D02*
X0211677Y0135409D01*
X0209574Y0134337D02*
X0286812Y0134337D01*
X0289034Y0133739D02*
X0208399Y0133739D01*
X0207325Y0133191D02*
X0207325Y0133191D01*
X0207003Y0133140D02*
X0502500Y0133140D01*
X0502500Y0133739D02*
X0414702Y0133739D01*
X0412500Y0133390D02*
X0412500Y0133390D01*
X0417027Y0134107D02*
X0417027Y0134107D01*
X0417479Y0134337D02*
X0502500Y0134337D01*
X0502500Y0134936D02*
X0418654Y0134936D01*
X0419828Y0135534D02*
X0502500Y0135534D01*
X0502500Y0136133D02*
X0421003Y0136133D01*
X0421111Y0136188D02*
X0421111Y0136188D01*
X0421654Y0136731D02*
X0502500Y0136731D01*
X0502500Y0137330D02*
X0422253Y0137330D01*
X0422852Y0137928D02*
X0502500Y0137928D01*
X0502500Y0138527D02*
X0423450Y0138527D01*
X0424049Y0139125D02*
X0502500Y0139125D01*
X0502500Y0139724D02*
X0424502Y0139724D01*
X0424352Y0139429D02*
X0424352Y0139429D01*
X0424807Y0140322D02*
X0502500Y0140322D01*
X0502500Y0140921D02*
X0425112Y0140921D01*
X0425417Y0141519D02*
X0502500Y0141519D01*
X0502500Y0142118D02*
X0425722Y0142118D01*
X0426027Y0142716D02*
X0502500Y0142716D01*
X0502500Y0143315D02*
X0426332Y0143315D01*
X0426433Y0143513D02*
X0426433Y0143513D01*
X0426496Y0143913D02*
X0502500Y0143913D01*
X0502500Y0144512D02*
X0426591Y0144512D01*
X0426686Y0145110D02*
X0502500Y0145110D01*
X0502500Y0145709D02*
X0426781Y0145709D01*
X0426876Y0146307D02*
X0502500Y0146307D01*
X0502500Y0146906D02*
X0426970Y0146906D01*
X0427065Y0147504D02*
X0502500Y0147504D01*
X0502500Y0148103D02*
X0427140Y0148103D01*
X0427045Y0148701D02*
X0502500Y0148701D01*
X0502500Y0149300D02*
X0426950Y0149300D01*
X0426856Y0149898D02*
X0502500Y0149898D01*
X0502500Y0150497D02*
X0426761Y0150497D01*
X0426666Y0151095D02*
X0502500Y0151095D01*
X0502500Y0151694D02*
X0426571Y0151694D01*
X0426476Y0152292D02*
X0502500Y0152292D01*
X0502500Y0152891D02*
X0426268Y0152891D01*
X0426433Y0152567D02*
X0426433Y0152567D01*
X0425963Y0153489D02*
X0502500Y0153489D01*
X0502500Y0154088D02*
X0425658Y0154088D01*
X0425353Y0154686D02*
X0502500Y0154686D01*
X0502500Y0155285D02*
X0425048Y0155285D01*
X0424743Y0155883D02*
X0502500Y0155883D01*
X0502500Y0156482D02*
X0424438Y0156482D01*
X0424352Y0156651D02*
X0424352Y0156651D01*
X0423922Y0157080D02*
X0502500Y0157080D01*
X0502500Y0157679D02*
X0423324Y0157679D01*
X0422725Y0158277D02*
X0502500Y0158277D01*
X0502500Y0158876D02*
X0422127Y0158876D01*
X0421528Y0159475D02*
X0502500Y0159475D01*
X0502500Y0160073D02*
X0420755Y0160073D01*
X0421111Y0159892D02*
X0421111Y0159892D01*
X0419581Y0160672D02*
X0502500Y0160672D01*
X0502500Y0161270D02*
X0418406Y0161270D01*
X0417232Y0161869D02*
X0502500Y0161869D01*
X0487663Y0169051D02*
X0017337Y0169051D01*
X0018782Y0169649D02*
X0486218Y0169649D01*
X0484782Y0170248D02*
X0020218Y0170248D01*
X0020816Y0170846D02*
X0484184Y0170846D01*
X0483585Y0171445D02*
X0021415Y0171445D01*
X0022013Y0172043D02*
X0482987Y0172043D01*
X0482388Y0172642D02*
X0022612Y0172642D01*
X0022969Y0173240D02*
X0482031Y0173240D01*
X0481783Y0173839D02*
X0023217Y0173839D01*
X0023465Y0174437D02*
X0481535Y0174437D01*
X0481287Y0175036D02*
X0023713Y0175036D01*
X0023961Y0175634D02*
X0481039Y0175634D01*
X0480801Y0176233D02*
X0024199Y0176233D01*
X0024199Y0176831D02*
X0480801Y0176831D01*
X0480801Y0177430D02*
X0024199Y0177430D01*
X0024199Y0178028D02*
X0480801Y0178028D01*
X0502500Y0187605D02*
X0426274Y0187605D01*
X0426434Y0188203D02*
X0502500Y0188203D01*
X0502500Y0188802D02*
X0426594Y0188802D01*
X0426755Y0189400D02*
X0502500Y0189400D01*
X0502500Y0189999D02*
X0426915Y0189999D01*
X0427075Y0190597D02*
X0502500Y0190597D01*
X0502500Y0191196D02*
X0427211Y0191196D01*
X0427211Y0191794D02*
X0502500Y0191794D01*
X0502500Y0192393D02*
X0427211Y0192393D01*
X0427211Y0192991D02*
X0502500Y0192991D01*
X0502500Y0193590D02*
X0427211Y0193590D01*
X0427211Y0194188D02*
X0502500Y0194188D01*
X0502500Y0194787D02*
X0427211Y0194787D01*
X0427102Y0195385D02*
X0502500Y0195385D01*
X0502500Y0195984D02*
X0426941Y0195984D01*
X0426781Y0196582D02*
X0502500Y0196582D01*
X0502500Y0197181D02*
X0426620Y0197181D01*
X0426460Y0197779D02*
X0502500Y0197779D01*
X0502500Y0198378D02*
X0426300Y0198378D01*
X0426059Y0198976D02*
X0502500Y0198976D01*
X0502500Y0199575D02*
X0425714Y0199575D01*
X0425368Y0200173D02*
X0502500Y0200173D01*
X0502500Y0200772D02*
X0425023Y0200772D01*
X0424677Y0201370D02*
X0502500Y0201370D01*
X0502500Y0201969D02*
X0424332Y0201969D01*
X0423777Y0202567D02*
X0502500Y0202567D01*
X0502500Y0203166D02*
X0423178Y0203166D01*
X0422580Y0203764D02*
X0502500Y0203764D01*
X0502500Y0204363D02*
X0421981Y0204363D01*
X0421273Y0204961D02*
X0502500Y0204961D01*
X0502500Y0205560D02*
X0420237Y0205560D01*
X0419200Y0206158D02*
X0502500Y0206158D01*
X0502500Y0206757D02*
X0418146Y0206757D01*
X0415912Y0207355D02*
X0502500Y0207355D01*
X0417027Y0161973D02*
X0417027Y0161973D01*
X0415559Y0154184D02*
X0413133Y0154874D01*
X0410622Y0154642D01*
X0408364Y0153517D01*
X0406664Y0151653D01*
X0405753Y0149301D01*
X0405753Y0146779D01*
X0406664Y0144426D01*
X0408364Y0142562D01*
X0410622Y0141438D01*
X0413133Y0141205D01*
X0415559Y0141895D01*
X0417572Y0143416D01*
X0418900Y0145560D01*
X0419364Y0148040D01*
X0418900Y0150519D01*
X0417572Y0152664D01*
X0415559Y0154184D01*
X0415687Y0154088D02*
X0409510Y0154088D01*
X0410484Y0153356D02*
X0408244Y0151810D01*
X0406980Y0149400D01*
X0406980Y0146679D01*
X0408244Y0144270D01*
X0408244Y0144270D01*
X0410484Y0142724D01*
X0413185Y0142396D01*
X0413185Y0142396D01*
X0415730Y0143361D01*
X0417534Y0145398D01*
X0418186Y0148040D01*
X0418186Y0148040D01*
X0417534Y0150682D01*
X0415730Y0152719D01*
X0413185Y0153684D01*
X0410484Y0153356D01*
X0409810Y0152891D02*
X0407793Y0152891D01*
X0408338Y0153489D02*
X0411584Y0153489D01*
X0411105Y0154686D02*
X0413794Y0154686D01*
X0413698Y0153489D02*
X0416479Y0153489D01*
X0417272Y0152891D02*
X0415276Y0152891D01*
X0416108Y0152292D02*
X0417803Y0152292D01*
X0418173Y0151694D02*
X0416638Y0151694D01*
X0417168Y0151095D02*
X0418544Y0151095D01*
X0418905Y0150497D02*
X0417580Y0150497D01*
X0417534Y0150682D02*
X0417534Y0150682D01*
X0417727Y0149898D02*
X0419016Y0149898D01*
X0419128Y0149300D02*
X0417875Y0149300D01*
X0418022Y0148701D02*
X0419240Y0148701D01*
X0419352Y0148103D02*
X0418170Y0148103D01*
X0418054Y0147504D02*
X0419264Y0147504D01*
X0419152Y0146906D02*
X0417906Y0146906D01*
X0417758Y0146307D02*
X0419040Y0146307D01*
X0418928Y0145709D02*
X0417611Y0145709D01*
X0417534Y0145398D02*
X0417534Y0145398D01*
X0417280Y0145110D02*
X0418622Y0145110D01*
X0418251Y0144512D02*
X0416749Y0144512D01*
X0416219Y0143913D02*
X0417881Y0143913D01*
X0417439Y0143315D02*
X0415609Y0143315D01*
X0415730Y0143361D02*
X0415730Y0143361D01*
X0416646Y0142716D02*
X0414030Y0142716D01*
X0414237Y0141519D02*
X0410458Y0141519D01*
X0410546Y0142716D02*
X0408223Y0142716D01*
X0407678Y0143315D02*
X0409628Y0143315D01*
X0410484Y0142724D02*
X0410484Y0142724D01*
X0409256Y0142118D02*
X0415854Y0142118D01*
X0413287Y0146899D02*
X0412667Y0146664D01*
X0412009Y0146744D01*
X0411463Y0147121D01*
X0411155Y0147708D01*
X0411155Y0148371D01*
X0411463Y0148959D01*
X0412009Y0149335D01*
X0412667Y0149415D01*
X0413287Y0149180D01*
X0413727Y0148684D01*
X0413886Y0148040D01*
X0413727Y0147396D01*
X0413287Y0146899D01*
X0413293Y0146906D02*
X0411775Y0146906D01*
X0411262Y0147504D02*
X0413754Y0147504D01*
X0413870Y0148103D02*
X0411155Y0148103D01*
X0411328Y0148701D02*
X0413711Y0148701D01*
X0412971Y0149300D02*
X0411957Y0149300D01*
X0412009Y0149335D02*
X0412009Y0149335D01*
X0408943Y0152292D02*
X0407247Y0152292D01*
X0406701Y0151694D02*
X0408183Y0151694D01*
X0408244Y0151810D02*
X0408244Y0151810D01*
X0408244Y0151810D01*
X0407869Y0151095D02*
X0406448Y0151095D01*
X0406216Y0150497D02*
X0407555Y0150497D01*
X0407241Y0149898D02*
X0405984Y0149898D01*
X0405753Y0149300D02*
X0406980Y0149300D01*
X0406980Y0148701D02*
X0405753Y0148701D01*
X0405753Y0148103D02*
X0406980Y0148103D01*
X0406980Y0147504D02*
X0405753Y0147504D01*
X0405753Y0146906D02*
X0406980Y0146906D01*
X0407175Y0146307D02*
X0405936Y0146307D01*
X0406167Y0145709D02*
X0407489Y0145709D01*
X0407803Y0145110D02*
X0406399Y0145110D01*
X0406631Y0144512D02*
X0408117Y0144512D01*
X0408244Y0144270D02*
X0408244Y0144270D01*
X0408761Y0143913D02*
X0407132Y0143913D01*
X0290241Y0183415D02*
X0213680Y0183415D01*
X0214275Y0184013D02*
X0288008Y0184013D01*
X0286336Y0184612D02*
X0214621Y0184612D01*
X0214967Y0185211D02*
X0285299Y0185211D01*
X0284262Y0185809D02*
X0215312Y0185809D01*
X0215658Y0186408D02*
X0283328Y0186408D01*
X0282729Y0187006D02*
X0216003Y0187006D01*
X0216274Y0187605D02*
X0282131Y0187605D01*
X0281532Y0188203D02*
X0216434Y0188203D01*
X0216594Y0188802D02*
X0280934Y0188802D01*
X0280501Y0189400D02*
X0216755Y0189400D01*
X0216915Y0189999D02*
X0280156Y0189999D01*
X0279810Y0190597D02*
X0217075Y0190597D01*
X0217211Y0191196D02*
X0279465Y0191196D01*
X0279119Y0191794D02*
X0217211Y0191794D01*
X0217211Y0192393D02*
X0278783Y0192393D01*
X0278623Y0192991D02*
X0217211Y0192991D01*
X0217211Y0193590D02*
X0278462Y0193590D01*
X0278302Y0194188D02*
X0217211Y0194188D01*
X0217211Y0194787D02*
X0278142Y0194787D01*
X0277981Y0195385D02*
X0217102Y0195385D01*
X0216941Y0195984D02*
X0277821Y0195984D01*
X0277789Y0196582D02*
X0216781Y0196582D01*
X0216620Y0197181D02*
X0277789Y0197181D01*
X0277789Y0197779D02*
X0216460Y0197779D01*
X0216300Y0198378D02*
X0277789Y0198378D01*
X0277789Y0198976D02*
X0216059Y0198976D01*
X0215714Y0199575D02*
X0277789Y0199575D01*
X0277842Y0200173D02*
X0215368Y0200173D01*
X0215023Y0200772D02*
X0278002Y0200772D01*
X0278162Y0201370D02*
X0214677Y0201370D01*
X0214332Y0201969D02*
X0278323Y0201969D01*
X0278483Y0202567D02*
X0213777Y0202567D01*
X0213178Y0203166D02*
X0278644Y0203166D01*
X0278818Y0203764D02*
X0212580Y0203764D01*
X0211981Y0204363D02*
X0279164Y0204363D01*
X0279509Y0204961D02*
X0211273Y0204961D01*
X0210237Y0205560D02*
X0279855Y0205560D01*
X0280200Y0206158D02*
X0209200Y0206158D01*
X0208146Y0206757D02*
X0280546Y0206757D01*
X0281011Y0207355D02*
X0205912Y0207355D01*
X0199088Y0207355D02*
X0093989Y0207355D01*
X0094454Y0206757D02*
X0196854Y0206757D01*
X0195800Y0206158D02*
X0094800Y0206158D01*
X0095145Y0205560D02*
X0194763Y0205560D01*
X0193727Y0204961D02*
X0095491Y0204961D01*
X0095836Y0204363D02*
X0193019Y0204363D01*
X0192420Y0203764D02*
X0096182Y0203764D01*
X0096356Y0203166D02*
X0191822Y0203166D01*
X0191223Y0202567D02*
X0096517Y0202567D01*
X0096677Y0201969D02*
X0190668Y0201969D01*
X0190323Y0201370D02*
X0096838Y0201370D01*
X0096998Y0200772D02*
X0189977Y0200772D01*
X0189632Y0200173D02*
X0097158Y0200173D01*
X0097211Y0199575D02*
X0189286Y0199575D01*
X0188941Y0198976D02*
X0097211Y0198976D01*
X0097211Y0198378D02*
X0188700Y0198378D01*
X0188540Y0197779D02*
X0097211Y0197779D01*
X0097211Y0197181D02*
X0188380Y0197181D01*
X0188219Y0196582D02*
X0097211Y0196582D01*
X0097179Y0195984D02*
X0188059Y0195984D01*
X0187898Y0195385D02*
X0097019Y0195385D01*
X0096858Y0194787D02*
X0187789Y0194787D01*
X0187789Y0194188D02*
X0096698Y0194188D01*
X0096538Y0193590D02*
X0187789Y0193590D01*
X0187789Y0192991D02*
X0096377Y0192991D01*
X0096217Y0192393D02*
X0187789Y0192393D01*
X0187789Y0191794D02*
X0095881Y0191794D01*
X0095535Y0191196D02*
X0187789Y0191196D01*
X0187925Y0190597D02*
X0095190Y0190597D01*
X0094844Y0189999D02*
X0188085Y0189999D01*
X0188245Y0189400D02*
X0094499Y0189400D01*
X0094066Y0188802D02*
X0188406Y0188802D01*
X0188566Y0188203D02*
X0093468Y0188203D01*
X0092869Y0187605D02*
X0188726Y0187605D01*
X0188997Y0187006D02*
X0092271Y0187006D01*
X0091672Y0186408D02*
X0189342Y0186408D01*
X0189688Y0185809D02*
X0090738Y0185809D01*
X0089701Y0185211D02*
X0190033Y0185211D01*
X0190379Y0184612D02*
X0088664Y0184612D01*
X0086992Y0184013D02*
X0190724Y0184013D01*
X0191320Y0183415D02*
X0084759Y0183415D01*
X0080241Y0183415D02*
X0022634Y0183415D01*
X0022979Y0182816D02*
X0191919Y0182816D01*
X0192517Y0182218D02*
X0023226Y0182218D01*
X0023474Y0181619D02*
X0193116Y0181619D01*
X0193895Y0181021D02*
X0023722Y0181021D01*
X0023970Y0180422D02*
X0194932Y0180422D01*
X0195968Y0179824D02*
X0024199Y0179824D01*
X0024199Y0179225D02*
X0197217Y0179225D01*
X0199451Y0178627D02*
X0024199Y0178627D01*
X0022036Y0184013D02*
X0078008Y0184013D01*
X0076336Y0184612D02*
X0021437Y0184612D01*
X0020839Y0185211D02*
X0075299Y0185211D01*
X0074262Y0185809D02*
X0020240Y0185809D01*
X0018837Y0186408D02*
X0073328Y0186408D01*
X0093390Y0207954D02*
X0281610Y0207954D01*
X0282208Y0208552D02*
X0092792Y0208552D01*
X0092193Y0209151D02*
X0282807Y0209151D01*
X0283405Y0209749D02*
X0091595Y0209749D01*
X0090604Y0210348D02*
X0284396Y0210348D01*
X0285433Y0210946D02*
X0089567Y0210946D01*
X0088530Y0211545D02*
X0286470Y0211545D01*
X0288297Y0212144D02*
X0086703Y0212144D01*
X0084469Y0212742D02*
X0290531Y0212742D01*
X0210750Y0155561D02*
X0207476Y0158033D01*
X0203530Y0159156D01*
X0199445Y0158777D01*
X0199445Y0158777D01*
X0195772Y0156949D01*
X0193008Y0153917D01*
X0191526Y0150091D01*
X0191526Y0145988D01*
X0193008Y0142163D01*
X0195772Y0139131D01*
X0199445Y0137302D01*
X0203530Y0136924D01*
X0207476Y0138046D01*
X0210750Y0140519D01*
X0212910Y0144007D01*
X0213664Y0148040D01*
X0212910Y0152073D01*
X0210750Y0155561D01*
X0210750Y0155561D01*
X0210750Y0155561D01*
X0210921Y0155285D02*
X0211057Y0155285D01*
X0211292Y0154686D02*
X0211654Y0154686D01*
X0211652Y0154689D02*
X0213259Y0151536D01*
X0213813Y0148040D01*
X0213259Y0144544D01*
X0211652Y0141390D01*
X0209150Y0138887D01*
X0205996Y0137281D01*
X0202500Y0136727D01*
X0199004Y0137281D01*
X0195850Y0138887D01*
X0193348Y0141390D01*
X0191741Y0144544D01*
X0191187Y0148040D01*
X0191741Y0151536D01*
X0193348Y0154689D01*
X0195850Y0157192D01*
X0199004Y0158799D01*
X0202500Y0159353D01*
X0205996Y0158799D01*
X0209150Y0157192D01*
X0211652Y0154689D01*
X0211662Y0154088D02*
X0211959Y0154088D01*
X0212033Y0153489D02*
X0212264Y0153489D01*
X0212403Y0152891D02*
X0212569Y0152891D01*
X0212774Y0152292D02*
X0212874Y0152292D01*
X0212910Y0152073D02*
X0212910Y0152073D01*
X0212981Y0151694D02*
X0213179Y0151694D01*
X0213093Y0151095D02*
X0213329Y0151095D01*
X0213424Y0150497D02*
X0213205Y0150497D01*
X0213316Y0149898D02*
X0213519Y0149898D01*
X0213428Y0149300D02*
X0213613Y0149300D01*
X0213540Y0148701D02*
X0213708Y0148701D01*
X0213652Y0148103D02*
X0213803Y0148103D01*
X0213664Y0148040D02*
X0213664Y0148040D01*
X0213728Y0147504D02*
X0213564Y0147504D01*
X0213633Y0146906D02*
X0213452Y0146906D01*
X0213539Y0146307D02*
X0213340Y0146307D01*
X0213444Y0145709D02*
X0213228Y0145709D01*
X0213116Y0145110D02*
X0213349Y0145110D01*
X0213243Y0144512D02*
X0213004Y0144512D01*
X0212938Y0143913D02*
X0212852Y0143913D01*
X0212633Y0143315D02*
X0212481Y0143315D01*
X0212328Y0142716D02*
X0212111Y0142716D01*
X0212023Y0142118D02*
X0211740Y0142118D01*
X0211718Y0141519D02*
X0211370Y0141519D01*
X0211183Y0140921D02*
X0210999Y0140921D01*
X0210750Y0140519D02*
X0210750Y0140519D01*
X0210584Y0140322D02*
X0210490Y0140322D01*
X0209986Y0139724D02*
X0209697Y0139724D01*
X0209387Y0139125D02*
X0208905Y0139125D01*
X0208441Y0138527D02*
X0208112Y0138527D01*
X0207476Y0138046D02*
X0207476Y0138046D01*
X0207267Y0137928D02*
X0207061Y0137928D01*
X0206092Y0137330D02*
X0204957Y0137330D01*
X0203530Y0136924D02*
X0203530Y0136924D01*
X0202527Y0136731D02*
X0202473Y0136731D01*
X0199445Y0137302D02*
X0199445Y0137302D01*
X0199390Y0137330D02*
X0198908Y0137330D01*
X0198188Y0137928D02*
X0197733Y0137928D01*
X0196986Y0138527D02*
X0196559Y0138527D01*
X0195784Y0139125D02*
X0195613Y0139125D01*
X0195772Y0139131D02*
X0195772Y0139131D01*
X0195232Y0139724D02*
X0195014Y0139724D01*
X0194686Y0140322D02*
X0194416Y0140322D01*
X0194141Y0140921D02*
X0193817Y0140921D01*
X0193595Y0141519D02*
X0193282Y0141519D01*
X0193049Y0142118D02*
X0192977Y0142118D01*
X0193008Y0142163D02*
X0193008Y0142163D01*
X0192794Y0142716D02*
X0192672Y0142716D01*
X0192562Y0143315D02*
X0192367Y0143315D01*
X0192330Y0143913D02*
X0192062Y0143913D01*
X0192098Y0144512D02*
X0191757Y0144512D01*
X0191651Y0145110D02*
X0191866Y0145110D01*
X0191635Y0145709D02*
X0191556Y0145709D01*
X0191526Y0146307D02*
X0191461Y0146307D01*
X0191526Y0146906D02*
X0191367Y0146906D01*
X0191272Y0147504D02*
X0191526Y0147504D01*
X0191526Y0148103D02*
X0191197Y0148103D01*
X0191292Y0148701D02*
X0191526Y0148701D01*
X0191526Y0149300D02*
X0191387Y0149300D01*
X0191481Y0149898D02*
X0191526Y0149898D01*
X0191576Y0150497D02*
X0191683Y0150497D01*
X0191671Y0151095D02*
X0191915Y0151095D01*
X0191821Y0151694D02*
X0192147Y0151694D01*
X0192126Y0152292D02*
X0192379Y0152292D01*
X0192431Y0152891D02*
X0192611Y0152891D01*
X0192736Y0153489D02*
X0192843Y0153489D01*
X0193008Y0153917D02*
X0193008Y0153917D01*
X0193041Y0154088D02*
X0193164Y0154088D01*
X0193346Y0154686D02*
X0193710Y0154686D01*
X0193943Y0155285D02*
X0194256Y0155285D01*
X0194542Y0155883D02*
X0194801Y0155883D01*
X0195140Y0156482D02*
X0195347Y0156482D01*
X0195772Y0156949D02*
X0195772Y0156949D01*
X0195772Y0156949D01*
X0195739Y0157080D02*
X0196037Y0157080D01*
X0196806Y0157679D02*
X0197239Y0157679D01*
X0197981Y0158277D02*
X0198441Y0158277D01*
X0199490Y0158876D02*
X0200508Y0158876D01*
X0203530Y0159156D02*
X0203530Y0159156D01*
X0204514Y0158876D02*
X0205510Y0158876D01*
X0206618Y0158277D02*
X0207019Y0158277D01*
X0207476Y0158033D02*
X0207476Y0158033D01*
X0207945Y0157679D02*
X0208194Y0157679D01*
X0208738Y0157080D02*
X0209261Y0157080D01*
X0209530Y0156482D02*
X0209860Y0156482D01*
X0210323Y0155883D02*
X0210458Y0155883D01*
X0202794Y0148229D02*
X0202850Y0148040D01*
X0202794Y0147851D01*
X0202645Y0147721D01*
X0202450Y0147693D01*
X0202271Y0147775D01*
X0202164Y0147941D01*
X0202164Y0148138D01*
X0202271Y0148304D01*
X0202450Y0148386D01*
X0202645Y0148358D01*
X0202794Y0148229D01*
X0202831Y0148103D02*
X0202164Y0148103D01*
D12*
X0132500Y0148040D03*
X0082500Y0148040D03*
X0082500Y0198040D03*
X0202500Y0193040D03*
X0292500Y0198040D03*
X0292500Y0148040D03*
X0342500Y0148040D03*
X0412500Y0193040D03*
D13*
X0490000Y0178040D03*
X0015000Y0178040D03*
M02*
