G75*
%MOIN*%
%OFA0B0*%
%FSLAX25Y25*%
%IPPOS*%
%LPD*%
%AMOC8*
5,1,8,0,0,1.08239X$1,22.5*
%
%ADD10C,0.00000*%
%ADD11C,0.14380*%
%ADD12C,0.28222*%
%ADD13C,0.17198*%
D10*
X0002500Y0113040D02*
X0002500Y0233000D01*
X0501201Y0233000D01*
X0501201Y0113040D01*
X0002500Y0113040D01*
X0325610Y0008040D02*
X0325612Y0008209D01*
X0325618Y0008378D01*
X0325629Y0008547D01*
X0325643Y0008715D01*
X0325662Y0008883D01*
X0325685Y0009051D01*
X0325711Y0009218D01*
X0325742Y0009384D01*
X0325777Y0009550D01*
X0325816Y0009714D01*
X0325860Y0009878D01*
X0325907Y0010040D01*
X0325958Y0010201D01*
X0326013Y0010361D01*
X0326072Y0010520D01*
X0326134Y0010677D01*
X0326201Y0010832D01*
X0326272Y0010986D01*
X0326346Y0011138D01*
X0326424Y0011288D01*
X0326505Y0011436D01*
X0326590Y0011582D01*
X0326679Y0011726D01*
X0326771Y0011868D01*
X0326867Y0012007D01*
X0326966Y0012144D01*
X0327068Y0012279D01*
X0327174Y0012411D01*
X0327283Y0012540D01*
X0327395Y0012667D01*
X0327510Y0012791D01*
X0327628Y0012912D01*
X0327749Y0013030D01*
X0327873Y0013145D01*
X0328000Y0013257D01*
X0328129Y0013366D01*
X0328261Y0013472D01*
X0328396Y0013574D01*
X0328533Y0013673D01*
X0328672Y0013769D01*
X0328814Y0013861D01*
X0328958Y0013950D01*
X0329104Y0014035D01*
X0329252Y0014116D01*
X0329402Y0014194D01*
X0329554Y0014268D01*
X0329708Y0014339D01*
X0329863Y0014406D01*
X0330020Y0014468D01*
X0330179Y0014527D01*
X0330339Y0014582D01*
X0330500Y0014633D01*
X0330662Y0014680D01*
X0330826Y0014724D01*
X0330990Y0014763D01*
X0331156Y0014798D01*
X0331322Y0014829D01*
X0331489Y0014855D01*
X0331657Y0014878D01*
X0331825Y0014897D01*
X0331993Y0014911D01*
X0332162Y0014922D01*
X0332331Y0014928D01*
X0332500Y0014930D01*
X0332669Y0014928D01*
X0332838Y0014922D01*
X0333007Y0014911D01*
X0333175Y0014897D01*
X0333343Y0014878D01*
X0333511Y0014855D01*
X0333678Y0014829D01*
X0333844Y0014798D01*
X0334010Y0014763D01*
X0334174Y0014724D01*
X0334338Y0014680D01*
X0334500Y0014633D01*
X0334661Y0014582D01*
X0334821Y0014527D01*
X0334980Y0014468D01*
X0335137Y0014406D01*
X0335292Y0014339D01*
X0335446Y0014268D01*
X0335598Y0014194D01*
X0335748Y0014116D01*
X0335896Y0014035D01*
X0336042Y0013950D01*
X0336186Y0013861D01*
X0336328Y0013769D01*
X0336467Y0013673D01*
X0336604Y0013574D01*
X0336739Y0013472D01*
X0336871Y0013366D01*
X0337000Y0013257D01*
X0337127Y0013145D01*
X0337251Y0013030D01*
X0337372Y0012912D01*
X0337490Y0012791D01*
X0337605Y0012667D01*
X0337717Y0012540D01*
X0337826Y0012411D01*
X0337932Y0012279D01*
X0338034Y0012144D01*
X0338133Y0012007D01*
X0338229Y0011868D01*
X0338321Y0011726D01*
X0338410Y0011582D01*
X0338495Y0011436D01*
X0338576Y0011288D01*
X0338654Y0011138D01*
X0338728Y0010986D01*
X0338799Y0010832D01*
X0338866Y0010677D01*
X0338928Y0010520D01*
X0338987Y0010361D01*
X0339042Y0010201D01*
X0339093Y0010040D01*
X0339140Y0009878D01*
X0339184Y0009714D01*
X0339223Y0009550D01*
X0339258Y0009384D01*
X0339289Y0009218D01*
X0339315Y0009051D01*
X0339338Y0008883D01*
X0339357Y0008715D01*
X0339371Y0008547D01*
X0339382Y0008378D01*
X0339388Y0008209D01*
X0339390Y0008040D01*
X0339388Y0007871D01*
X0339382Y0007702D01*
X0339371Y0007533D01*
X0339357Y0007365D01*
X0339338Y0007197D01*
X0339315Y0007029D01*
X0339289Y0006862D01*
X0339258Y0006696D01*
X0339223Y0006530D01*
X0339184Y0006366D01*
X0339140Y0006202D01*
X0339093Y0006040D01*
X0339042Y0005879D01*
X0338987Y0005719D01*
X0338928Y0005560D01*
X0338866Y0005403D01*
X0338799Y0005248D01*
X0338728Y0005094D01*
X0338654Y0004942D01*
X0338576Y0004792D01*
X0338495Y0004644D01*
X0338410Y0004498D01*
X0338321Y0004354D01*
X0338229Y0004212D01*
X0338133Y0004073D01*
X0338034Y0003936D01*
X0337932Y0003801D01*
X0337826Y0003669D01*
X0337717Y0003540D01*
X0337605Y0003413D01*
X0337490Y0003289D01*
X0337372Y0003168D01*
X0337251Y0003050D01*
X0337127Y0002935D01*
X0337000Y0002823D01*
X0336871Y0002714D01*
X0336739Y0002608D01*
X0336604Y0002506D01*
X0336467Y0002407D01*
X0336328Y0002311D01*
X0336186Y0002219D01*
X0336042Y0002130D01*
X0335896Y0002045D01*
X0335748Y0001964D01*
X0335598Y0001886D01*
X0335446Y0001812D01*
X0335292Y0001741D01*
X0335137Y0001674D01*
X0334980Y0001612D01*
X0334821Y0001553D01*
X0334661Y0001498D01*
X0334500Y0001447D01*
X0334338Y0001400D01*
X0334174Y0001356D01*
X0334010Y0001317D01*
X0333844Y0001282D01*
X0333678Y0001251D01*
X0333511Y0001225D01*
X0333343Y0001202D01*
X0333175Y0001183D01*
X0333007Y0001169D01*
X0332838Y0001158D01*
X0332669Y0001152D01*
X0332500Y0001150D01*
X0332331Y0001152D01*
X0332162Y0001158D01*
X0331993Y0001169D01*
X0331825Y0001183D01*
X0331657Y0001202D01*
X0331489Y0001225D01*
X0331322Y0001251D01*
X0331156Y0001282D01*
X0330990Y0001317D01*
X0330826Y0001356D01*
X0330662Y0001400D01*
X0330500Y0001447D01*
X0330339Y0001498D01*
X0330179Y0001553D01*
X0330020Y0001612D01*
X0329863Y0001674D01*
X0329708Y0001741D01*
X0329554Y0001812D01*
X0329402Y0001886D01*
X0329252Y0001964D01*
X0329104Y0002045D01*
X0328958Y0002130D01*
X0328814Y0002219D01*
X0328672Y0002311D01*
X0328533Y0002407D01*
X0328396Y0002506D01*
X0328261Y0002608D01*
X0328129Y0002714D01*
X0328000Y0002823D01*
X0327873Y0002935D01*
X0327749Y0003050D01*
X0327628Y0003168D01*
X0327510Y0003289D01*
X0327395Y0003413D01*
X0327283Y0003540D01*
X0327174Y0003669D01*
X0327068Y0003801D01*
X0326966Y0003936D01*
X0326867Y0004073D01*
X0326771Y0004212D01*
X0326679Y0004354D01*
X0326590Y0004498D01*
X0326505Y0004644D01*
X0326424Y0004792D01*
X0326346Y0004942D01*
X0326272Y0005094D01*
X0326201Y0005248D01*
X0326134Y0005403D01*
X0326072Y0005560D01*
X0326013Y0005719D01*
X0325958Y0005879D01*
X0325907Y0006040D01*
X0325860Y0006202D01*
X0325816Y0006366D01*
X0325777Y0006530D01*
X0325742Y0006696D01*
X0325711Y0006862D01*
X0325685Y0007029D01*
X0325662Y0007197D01*
X0325643Y0007365D01*
X0325629Y0007533D01*
X0325618Y0007702D01*
X0325612Y0007871D01*
X0325610Y0008040D01*
D11*
X0332500Y0008040D03*
D12*
X0342500Y0148040D03*
X0292500Y0148040D03*
X0202500Y0193040D03*
X0292500Y0198040D03*
X0412500Y0193040D03*
X0132500Y0148040D03*
X0082500Y0148040D03*
X0082500Y0198040D03*
D13*
X0015000Y0178040D03*
X0490000Y0178040D03*
M02*
