G75*
%MOIN*%
%OFA0B0*%
%FSLAX25Y25*%
%IPPOS*%
%LPD*%
%AMOC8*
5,1,8,0,0,1.08239X$1,22.5*
%
%ADD10C,0.01600*%
%ADD11C,0.00600*%
%ADD12C,0.02500*%
%ADD13C,0.02000*%
%ADD14C,0.01200*%
%ADD15C,0.01300*%
%ADD16C,0.03000*%
D10*
X0013300Y0118504D02*
X0017570Y0118504D01*
X0019705Y0120639D01*
X0017570Y0122775D01*
X0013300Y0122775D01*
X0016503Y0122775D02*
X0016503Y0118504D01*
X0018638Y0125871D02*
X0019705Y0126938D01*
X0019705Y0129073D01*
X0018638Y0130141D01*
X0014368Y0130141D01*
X0013300Y0129073D01*
X0013300Y0126938D01*
X0014368Y0125871D01*
X0015435Y0133237D02*
X0019705Y0133237D01*
X0015435Y0133237D02*
X0013300Y0135372D01*
X0015435Y0137507D01*
X0019705Y0137507D01*
X0017570Y0140603D02*
X0013300Y0144873D01*
X0013300Y0147969D02*
X0013300Y0152240D01*
X0017570Y0147969D01*
X0018638Y0147969D01*
X0019705Y0149037D01*
X0019705Y0151172D01*
X0018638Y0152240D01*
X0017570Y0144873D02*
X0013300Y0140603D01*
D11*
X0068358Y0148040D02*
X0068362Y0148387D01*
X0068375Y0148734D01*
X0068396Y0149080D01*
X0068426Y0149426D01*
X0068464Y0149771D01*
X0068511Y0150115D01*
X0068566Y0150458D01*
X0068630Y0150799D01*
X0068702Y0151139D01*
X0068782Y0151476D01*
X0068870Y0151812D01*
X0068967Y0152145D01*
X0069072Y0152476D01*
X0069185Y0152804D01*
X0069306Y0153130D01*
X0069434Y0153452D01*
X0069571Y0153771D01*
X0069716Y0154086D01*
X0069868Y0154398D01*
X0070028Y0154706D01*
X0070195Y0155011D01*
X0070370Y0155310D01*
X0070552Y0155606D01*
X0070741Y0155897D01*
X0070938Y0156183D01*
X0071141Y0156464D01*
X0071351Y0156741D01*
X0071568Y0157012D01*
X0071792Y0157277D01*
X0072021Y0157537D01*
X0072258Y0157791D01*
X0072500Y0158040D01*
X0072749Y0158282D01*
X0073003Y0158519D01*
X0073263Y0158748D01*
X0073528Y0158972D01*
X0073799Y0159189D01*
X0074076Y0159399D01*
X0074357Y0159602D01*
X0074643Y0159799D01*
X0074934Y0159988D01*
X0075230Y0160170D01*
X0075529Y0160345D01*
X0075834Y0160512D01*
X0076142Y0160672D01*
X0076454Y0160824D01*
X0076769Y0160969D01*
X0077088Y0161106D01*
X0077410Y0161234D01*
X0077736Y0161355D01*
X0078064Y0161468D01*
X0078395Y0161573D01*
X0078728Y0161670D01*
X0079064Y0161758D01*
X0079401Y0161838D01*
X0079741Y0161910D01*
X0080082Y0161974D01*
X0080425Y0162029D01*
X0080769Y0162076D01*
X0081114Y0162114D01*
X0081460Y0162144D01*
X0081806Y0162165D01*
X0082153Y0162178D01*
X0082500Y0162182D01*
X0082847Y0162178D01*
X0083194Y0162165D01*
X0083540Y0162144D01*
X0083886Y0162114D01*
X0084231Y0162076D01*
X0084575Y0162029D01*
X0084918Y0161974D01*
X0085259Y0161910D01*
X0085599Y0161838D01*
X0085936Y0161758D01*
X0086272Y0161670D01*
X0086605Y0161573D01*
X0086936Y0161468D01*
X0087264Y0161355D01*
X0087590Y0161234D01*
X0087912Y0161106D01*
X0088231Y0160969D01*
X0088546Y0160824D01*
X0088858Y0160672D01*
X0089166Y0160512D01*
X0089471Y0160345D01*
X0089770Y0160170D01*
X0090066Y0159988D01*
X0090357Y0159799D01*
X0090643Y0159602D01*
X0090924Y0159399D01*
X0091201Y0159189D01*
X0091472Y0158972D01*
X0091737Y0158748D01*
X0091997Y0158519D01*
X0092251Y0158282D01*
X0092500Y0158040D01*
X0092742Y0157791D01*
X0092979Y0157537D01*
X0093208Y0157277D01*
X0093432Y0157012D01*
X0093649Y0156741D01*
X0093859Y0156464D01*
X0094062Y0156183D01*
X0094259Y0155897D01*
X0094448Y0155606D01*
X0094630Y0155310D01*
X0094805Y0155011D01*
X0094972Y0154706D01*
X0095132Y0154398D01*
X0095284Y0154086D01*
X0095429Y0153771D01*
X0095566Y0153452D01*
X0095694Y0153130D01*
X0095815Y0152804D01*
X0095928Y0152476D01*
X0096033Y0152145D01*
X0096130Y0151812D01*
X0096218Y0151476D01*
X0096298Y0151139D01*
X0096370Y0150799D01*
X0096434Y0150458D01*
X0096489Y0150115D01*
X0096536Y0149771D01*
X0096574Y0149426D01*
X0096604Y0149080D01*
X0096625Y0148734D01*
X0096638Y0148387D01*
X0096642Y0148040D01*
X0096638Y0147693D01*
X0096625Y0147346D01*
X0096604Y0147000D01*
X0096574Y0146654D01*
X0096536Y0146309D01*
X0096489Y0145965D01*
X0096434Y0145622D01*
X0096370Y0145281D01*
X0096298Y0144941D01*
X0096218Y0144604D01*
X0096130Y0144268D01*
X0096033Y0143935D01*
X0095928Y0143604D01*
X0095815Y0143276D01*
X0095694Y0142950D01*
X0095566Y0142628D01*
X0095429Y0142309D01*
X0095284Y0141994D01*
X0095132Y0141682D01*
X0094972Y0141374D01*
X0094805Y0141069D01*
X0094630Y0140770D01*
X0094448Y0140474D01*
X0094259Y0140183D01*
X0094062Y0139897D01*
X0093859Y0139616D01*
X0093649Y0139339D01*
X0093432Y0139068D01*
X0093208Y0138803D01*
X0092979Y0138543D01*
X0092742Y0138289D01*
X0092500Y0138040D01*
X0092251Y0137798D01*
X0091997Y0137561D01*
X0091737Y0137332D01*
X0091472Y0137108D01*
X0091201Y0136891D01*
X0090924Y0136681D01*
X0090643Y0136478D01*
X0090357Y0136281D01*
X0090066Y0136092D01*
X0089770Y0135910D01*
X0089471Y0135735D01*
X0089166Y0135568D01*
X0088858Y0135408D01*
X0088546Y0135256D01*
X0088231Y0135111D01*
X0087912Y0134974D01*
X0087590Y0134846D01*
X0087264Y0134725D01*
X0086936Y0134612D01*
X0086605Y0134507D01*
X0086272Y0134410D01*
X0085936Y0134322D01*
X0085599Y0134242D01*
X0085259Y0134170D01*
X0084918Y0134106D01*
X0084575Y0134051D01*
X0084231Y0134004D01*
X0083886Y0133966D01*
X0083540Y0133936D01*
X0083194Y0133915D01*
X0082847Y0133902D01*
X0082500Y0133898D01*
X0082153Y0133902D01*
X0081806Y0133915D01*
X0081460Y0133936D01*
X0081114Y0133966D01*
X0080769Y0134004D01*
X0080425Y0134051D01*
X0080082Y0134106D01*
X0079741Y0134170D01*
X0079401Y0134242D01*
X0079064Y0134322D01*
X0078728Y0134410D01*
X0078395Y0134507D01*
X0078064Y0134612D01*
X0077736Y0134725D01*
X0077410Y0134846D01*
X0077088Y0134974D01*
X0076769Y0135111D01*
X0076454Y0135256D01*
X0076142Y0135408D01*
X0075834Y0135568D01*
X0075529Y0135735D01*
X0075230Y0135910D01*
X0074934Y0136092D01*
X0074643Y0136281D01*
X0074357Y0136478D01*
X0074076Y0136681D01*
X0073799Y0136891D01*
X0073528Y0137108D01*
X0073263Y0137332D01*
X0073003Y0137561D01*
X0072749Y0137798D01*
X0072500Y0138040D01*
X0072258Y0138289D01*
X0072021Y0138543D01*
X0071792Y0138803D01*
X0071568Y0139068D01*
X0071351Y0139339D01*
X0071141Y0139616D01*
X0070938Y0139897D01*
X0070741Y0140183D01*
X0070552Y0140474D01*
X0070370Y0140770D01*
X0070195Y0141069D01*
X0070028Y0141374D01*
X0069868Y0141682D01*
X0069716Y0141994D01*
X0069571Y0142309D01*
X0069434Y0142628D01*
X0069306Y0142950D01*
X0069185Y0143276D01*
X0069072Y0143604D01*
X0068967Y0143935D01*
X0068870Y0144268D01*
X0068782Y0144604D01*
X0068702Y0144941D01*
X0068630Y0145281D01*
X0068566Y0145622D01*
X0068511Y0145965D01*
X0068464Y0146309D01*
X0068426Y0146654D01*
X0068396Y0147000D01*
X0068375Y0147346D01*
X0068362Y0147693D01*
X0068358Y0148040D01*
X0118358Y0148040D02*
X0118362Y0148387D01*
X0118375Y0148734D01*
X0118396Y0149080D01*
X0118426Y0149426D01*
X0118464Y0149771D01*
X0118511Y0150115D01*
X0118566Y0150458D01*
X0118630Y0150799D01*
X0118702Y0151139D01*
X0118782Y0151476D01*
X0118870Y0151812D01*
X0118967Y0152145D01*
X0119072Y0152476D01*
X0119185Y0152804D01*
X0119306Y0153130D01*
X0119434Y0153452D01*
X0119571Y0153771D01*
X0119716Y0154086D01*
X0119868Y0154398D01*
X0120028Y0154706D01*
X0120195Y0155011D01*
X0120370Y0155310D01*
X0120552Y0155606D01*
X0120741Y0155897D01*
X0120938Y0156183D01*
X0121141Y0156464D01*
X0121351Y0156741D01*
X0121568Y0157012D01*
X0121792Y0157277D01*
X0122021Y0157537D01*
X0122258Y0157791D01*
X0122500Y0158040D01*
X0122749Y0158282D01*
X0123003Y0158519D01*
X0123263Y0158748D01*
X0123528Y0158972D01*
X0123799Y0159189D01*
X0124076Y0159399D01*
X0124357Y0159602D01*
X0124643Y0159799D01*
X0124934Y0159988D01*
X0125230Y0160170D01*
X0125529Y0160345D01*
X0125834Y0160512D01*
X0126142Y0160672D01*
X0126454Y0160824D01*
X0126769Y0160969D01*
X0127088Y0161106D01*
X0127410Y0161234D01*
X0127736Y0161355D01*
X0128064Y0161468D01*
X0128395Y0161573D01*
X0128728Y0161670D01*
X0129064Y0161758D01*
X0129401Y0161838D01*
X0129741Y0161910D01*
X0130082Y0161974D01*
X0130425Y0162029D01*
X0130769Y0162076D01*
X0131114Y0162114D01*
X0131460Y0162144D01*
X0131806Y0162165D01*
X0132153Y0162178D01*
X0132500Y0162182D01*
X0132847Y0162178D01*
X0133194Y0162165D01*
X0133540Y0162144D01*
X0133886Y0162114D01*
X0134231Y0162076D01*
X0134575Y0162029D01*
X0134918Y0161974D01*
X0135259Y0161910D01*
X0135599Y0161838D01*
X0135936Y0161758D01*
X0136272Y0161670D01*
X0136605Y0161573D01*
X0136936Y0161468D01*
X0137264Y0161355D01*
X0137590Y0161234D01*
X0137912Y0161106D01*
X0138231Y0160969D01*
X0138546Y0160824D01*
X0138858Y0160672D01*
X0139166Y0160512D01*
X0139471Y0160345D01*
X0139770Y0160170D01*
X0140066Y0159988D01*
X0140357Y0159799D01*
X0140643Y0159602D01*
X0140924Y0159399D01*
X0141201Y0159189D01*
X0141472Y0158972D01*
X0141737Y0158748D01*
X0141997Y0158519D01*
X0142251Y0158282D01*
X0142500Y0158040D01*
X0142742Y0157791D01*
X0142979Y0157537D01*
X0143208Y0157277D01*
X0143432Y0157012D01*
X0143649Y0156741D01*
X0143859Y0156464D01*
X0144062Y0156183D01*
X0144259Y0155897D01*
X0144448Y0155606D01*
X0144630Y0155310D01*
X0144805Y0155011D01*
X0144972Y0154706D01*
X0145132Y0154398D01*
X0145284Y0154086D01*
X0145429Y0153771D01*
X0145566Y0153452D01*
X0145694Y0153130D01*
X0145815Y0152804D01*
X0145928Y0152476D01*
X0146033Y0152145D01*
X0146130Y0151812D01*
X0146218Y0151476D01*
X0146298Y0151139D01*
X0146370Y0150799D01*
X0146434Y0150458D01*
X0146489Y0150115D01*
X0146536Y0149771D01*
X0146574Y0149426D01*
X0146604Y0149080D01*
X0146625Y0148734D01*
X0146638Y0148387D01*
X0146642Y0148040D01*
X0146638Y0147693D01*
X0146625Y0147346D01*
X0146604Y0147000D01*
X0146574Y0146654D01*
X0146536Y0146309D01*
X0146489Y0145965D01*
X0146434Y0145622D01*
X0146370Y0145281D01*
X0146298Y0144941D01*
X0146218Y0144604D01*
X0146130Y0144268D01*
X0146033Y0143935D01*
X0145928Y0143604D01*
X0145815Y0143276D01*
X0145694Y0142950D01*
X0145566Y0142628D01*
X0145429Y0142309D01*
X0145284Y0141994D01*
X0145132Y0141682D01*
X0144972Y0141374D01*
X0144805Y0141069D01*
X0144630Y0140770D01*
X0144448Y0140474D01*
X0144259Y0140183D01*
X0144062Y0139897D01*
X0143859Y0139616D01*
X0143649Y0139339D01*
X0143432Y0139068D01*
X0143208Y0138803D01*
X0142979Y0138543D01*
X0142742Y0138289D01*
X0142500Y0138040D01*
X0142251Y0137798D01*
X0141997Y0137561D01*
X0141737Y0137332D01*
X0141472Y0137108D01*
X0141201Y0136891D01*
X0140924Y0136681D01*
X0140643Y0136478D01*
X0140357Y0136281D01*
X0140066Y0136092D01*
X0139770Y0135910D01*
X0139471Y0135735D01*
X0139166Y0135568D01*
X0138858Y0135408D01*
X0138546Y0135256D01*
X0138231Y0135111D01*
X0137912Y0134974D01*
X0137590Y0134846D01*
X0137264Y0134725D01*
X0136936Y0134612D01*
X0136605Y0134507D01*
X0136272Y0134410D01*
X0135936Y0134322D01*
X0135599Y0134242D01*
X0135259Y0134170D01*
X0134918Y0134106D01*
X0134575Y0134051D01*
X0134231Y0134004D01*
X0133886Y0133966D01*
X0133540Y0133936D01*
X0133194Y0133915D01*
X0132847Y0133902D01*
X0132500Y0133898D01*
X0132153Y0133902D01*
X0131806Y0133915D01*
X0131460Y0133936D01*
X0131114Y0133966D01*
X0130769Y0134004D01*
X0130425Y0134051D01*
X0130082Y0134106D01*
X0129741Y0134170D01*
X0129401Y0134242D01*
X0129064Y0134322D01*
X0128728Y0134410D01*
X0128395Y0134507D01*
X0128064Y0134612D01*
X0127736Y0134725D01*
X0127410Y0134846D01*
X0127088Y0134974D01*
X0126769Y0135111D01*
X0126454Y0135256D01*
X0126142Y0135408D01*
X0125834Y0135568D01*
X0125529Y0135735D01*
X0125230Y0135910D01*
X0124934Y0136092D01*
X0124643Y0136281D01*
X0124357Y0136478D01*
X0124076Y0136681D01*
X0123799Y0136891D01*
X0123528Y0137108D01*
X0123263Y0137332D01*
X0123003Y0137561D01*
X0122749Y0137798D01*
X0122500Y0138040D01*
X0122258Y0138289D01*
X0122021Y0138543D01*
X0121792Y0138803D01*
X0121568Y0139068D01*
X0121351Y0139339D01*
X0121141Y0139616D01*
X0120938Y0139897D01*
X0120741Y0140183D01*
X0120552Y0140474D01*
X0120370Y0140770D01*
X0120195Y0141069D01*
X0120028Y0141374D01*
X0119868Y0141682D01*
X0119716Y0141994D01*
X0119571Y0142309D01*
X0119434Y0142628D01*
X0119306Y0142950D01*
X0119185Y0143276D01*
X0119072Y0143604D01*
X0118967Y0143935D01*
X0118870Y0144268D01*
X0118782Y0144604D01*
X0118702Y0144941D01*
X0118630Y0145281D01*
X0118566Y0145622D01*
X0118511Y0145965D01*
X0118464Y0146309D01*
X0118426Y0146654D01*
X0118396Y0147000D01*
X0118375Y0147346D01*
X0118362Y0147693D01*
X0118358Y0148040D01*
X0191320Y0193040D02*
X0191323Y0193314D01*
X0191333Y0193589D01*
X0191350Y0193862D01*
X0191374Y0194136D01*
X0191404Y0194409D01*
X0191441Y0194680D01*
X0191485Y0194951D01*
X0191535Y0195221D01*
X0191592Y0195490D01*
X0191655Y0195757D01*
X0191725Y0196022D01*
X0191801Y0196285D01*
X0191884Y0196547D01*
X0191974Y0196806D01*
X0192069Y0197064D01*
X0192171Y0197318D01*
X0192279Y0197571D01*
X0192393Y0197820D01*
X0192514Y0198067D01*
X0192640Y0198310D01*
X0192772Y0198551D01*
X0192911Y0198788D01*
X0193055Y0199021D01*
X0193204Y0199251D01*
X0193359Y0199478D01*
X0193520Y0199700D01*
X0193686Y0199918D01*
X0193858Y0200133D01*
X0194034Y0200342D01*
X0194216Y0200548D01*
X0194403Y0200749D01*
X0194595Y0200945D01*
X0194791Y0201137D01*
X0194992Y0201324D01*
X0195198Y0201506D01*
X0195407Y0201682D01*
X0195622Y0201854D01*
X0195840Y0202020D01*
X0196062Y0202181D01*
X0196289Y0202336D01*
X0196519Y0202485D01*
X0196752Y0202629D01*
X0196989Y0202768D01*
X0197230Y0202900D01*
X0197473Y0203026D01*
X0197720Y0203147D01*
X0197969Y0203261D01*
X0198222Y0203369D01*
X0198476Y0203471D01*
X0198734Y0203566D01*
X0198993Y0203656D01*
X0199255Y0203739D01*
X0199518Y0203815D01*
X0199783Y0203885D01*
X0200050Y0203948D01*
X0200319Y0204005D01*
X0200589Y0204055D01*
X0200860Y0204099D01*
X0201131Y0204136D01*
X0201404Y0204166D01*
X0201678Y0204190D01*
X0201951Y0204207D01*
X0202226Y0204217D01*
X0202500Y0204220D01*
X0202774Y0204217D01*
X0203049Y0204207D01*
X0203322Y0204190D01*
X0203596Y0204166D01*
X0203869Y0204136D01*
X0204140Y0204099D01*
X0204411Y0204055D01*
X0204681Y0204005D01*
X0204950Y0203948D01*
X0205217Y0203885D01*
X0205482Y0203815D01*
X0205745Y0203739D01*
X0206007Y0203656D01*
X0206266Y0203566D01*
X0206524Y0203471D01*
X0206778Y0203369D01*
X0207031Y0203261D01*
X0207280Y0203147D01*
X0207527Y0203026D01*
X0207770Y0202900D01*
X0208011Y0202768D01*
X0208248Y0202629D01*
X0208481Y0202485D01*
X0208711Y0202336D01*
X0208938Y0202181D01*
X0209160Y0202020D01*
X0209378Y0201854D01*
X0209593Y0201682D01*
X0209802Y0201506D01*
X0210008Y0201324D01*
X0210209Y0201137D01*
X0210405Y0200945D01*
X0210597Y0200749D01*
X0210784Y0200548D01*
X0210966Y0200342D01*
X0211142Y0200133D01*
X0211314Y0199918D01*
X0211480Y0199700D01*
X0211641Y0199478D01*
X0211796Y0199251D01*
X0211945Y0199021D01*
X0212089Y0198788D01*
X0212228Y0198551D01*
X0212360Y0198310D01*
X0212486Y0198067D01*
X0212607Y0197820D01*
X0212721Y0197571D01*
X0212829Y0197318D01*
X0212931Y0197064D01*
X0213026Y0196806D01*
X0213116Y0196547D01*
X0213199Y0196285D01*
X0213275Y0196022D01*
X0213345Y0195757D01*
X0213408Y0195490D01*
X0213465Y0195221D01*
X0213515Y0194951D01*
X0213559Y0194680D01*
X0213596Y0194409D01*
X0213626Y0194136D01*
X0213650Y0193862D01*
X0213667Y0193589D01*
X0213677Y0193314D01*
X0213680Y0193040D01*
X0213677Y0192766D01*
X0213667Y0192491D01*
X0213650Y0192218D01*
X0213626Y0191944D01*
X0213596Y0191671D01*
X0213559Y0191400D01*
X0213515Y0191129D01*
X0213465Y0190859D01*
X0213408Y0190590D01*
X0213345Y0190323D01*
X0213275Y0190058D01*
X0213199Y0189795D01*
X0213116Y0189533D01*
X0213026Y0189274D01*
X0212931Y0189016D01*
X0212829Y0188762D01*
X0212721Y0188509D01*
X0212607Y0188260D01*
X0212486Y0188013D01*
X0212360Y0187770D01*
X0212228Y0187529D01*
X0212089Y0187292D01*
X0211945Y0187059D01*
X0211796Y0186829D01*
X0211641Y0186602D01*
X0211480Y0186380D01*
X0211314Y0186162D01*
X0211142Y0185947D01*
X0210966Y0185738D01*
X0210784Y0185532D01*
X0210597Y0185331D01*
X0210405Y0185135D01*
X0210209Y0184943D01*
X0210008Y0184756D01*
X0209802Y0184574D01*
X0209593Y0184398D01*
X0209378Y0184226D01*
X0209160Y0184060D01*
X0208938Y0183899D01*
X0208711Y0183744D01*
X0208481Y0183595D01*
X0208248Y0183451D01*
X0208011Y0183312D01*
X0207770Y0183180D01*
X0207527Y0183054D01*
X0207280Y0182933D01*
X0207031Y0182819D01*
X0206778Y0182711D01*
X0206524Y0182609D01*
X0206266Y0182514D01*
X0206007Y0182424D01*
X0205745Y0182341D01*
X0205482Y0182265D01*
X0205217Y0182195D01*
X0204950Y0182132D01*
X0204681Y0182075D01*
X0204411Y0182025D01*
X0204140Y0181981D01*
X0203869Y0181944D01*
X0203596Y0181914D01*
X0203322Y0181890D01*
X0203049Y0181873D01*
X0202774Y0181863D01*
X0202500Y0181860D01*
X0202226Y0181863D01*
X0201951Y0181873D01*
X0201678Y0181890D01*
X0201404Y0181914D01*
X0201131Y0181944D01*
X0200860Y0181981D01*
X0200589Y0182025D01*
X0200319Y0182075D01*
X0200050Y0182132D01*
X0199783Y0182195D01*
X0199518Y0182265D01*
X0199255Y0182341D01*
X0198993Y0182424D01*
X0198734Y0182514D01*
X0198476Y0182609D01*
X0198222Y0182711D01*
X0197969Y0182819D01*
X0197720Y0182933D01*
X0197473Y0183054D01*
X0197230Y0183180D01*
X0196989Y0183312D01*
X0196752Y0183451D01*
X0196519Y0183595D01*
X0196289Y0183744D01*
X0196062Y0183899D01*
X0195840Y0184060D01*
X0195622Y0184226D01*
X0195407Y0184398D01*
X0195198Y0184574D01*
X0194992Y0184756D01*
X0194791Y0184943D01*
X0194595Y0185135D01*
X0194403Y0185331D01*
X0194216Y0185532D01*
X0194034Y0185738D01*
X0193858Y0185947D01*
X0193686Y0186162D01*
X0193520Y0186380D01*
X0193359Y0186602D01*
X0193204Y0186829D01*
X0193055Y0187059D01*
X0192911Y0187292D01*
X0192772Y0187529D01*
X0192640Y0187770D01*
X0192514Y0188013D01*
X0192393Y0188260D01*
X0192279Y0188509D01*
X0192171Y0188762D01*
X0192069Y0189016D01*
X0191974Y0189274D01*
X0191884Y0189533D01*
X0191801Y0189795D01*
X0191725Y0190058D01*
X0191655Y0190323D01*
X0191592Y0190590D01*
X0191535Y0190859D01*
X0191485Y0191129D01*
X0191441Y0191400D01*
X0191404Y0191671D01*
X0191374Y0191944D01*
X0191350Y0192218D01*
X0191333Y0192491D01*
X0191323Y0192766D01*
X0191320Y0193040D01*
X0278358Y0198040D02*
X0278362Y0198387D01*
X0278375Y0198734D01*
X0278396Y0199080D01*
X0278426Y0199426D01*
X0278464Y0199771D01*
X0278511Y0200115D01*
X0278566Y0200458D01*
X0278630Y0200799D01*
X0278702Y0201139D01*
X0278782Y0201476D01*
X0278870Y0201812D01*
X0278967Y0202145D01*
X0279072Y0202476D01*
X0279185Y0202804D01*
X0279306Y0203130D01*
X0279434Y0203452D01*
X0279571Y0203771D01*
X0279716Y0204086D01*
X0279868Y0204398D01*
X0280028Y0204706D01*
X0280195Y0205011D01*
X0280370Y0205310D01*
X0280552Y0205606D01*
X0280741Y0205897D01*
X0280938Y0206183D01*
X0281141Y0206464D01*
X0281351Y0206741D01*
X0281568Y0207012D01*
X0281792Y0207277D01*
X0282021Y0207537D01*
X0282258Y0207791D01*
X0282500Y0208040D01*
X0282749Y0208282D01*
X0283003Y0208519D01*
X0283263Y0208748D01*
X0283528Y0208972D01*
X0283799Y0209189D01*
X0284076Y0209399D01*
X0284357Y0209602D01*
X0284643Y0209799D01*
X0284934Y0209988D01*
X0285230Y0210170D01*
X0285529Y0210345D01*
X0285834Y0210512D01*
X0286142Y0210672D01*
X0286454Y0210824D01*
X0286769Y0210969D01*
X0287088Y0211106D01*
X0287410Y0211234D01*
X0287736Y0211355D01*
X0288064Y0211468D01*
X0288395Y0211573D01*
X0288728Y0211670D01*
X0289064Y0211758D01*
X0289401Y0211838D01*
X0289741Y0211910D01*
X0290082Y0211974D01*
X0290425Y0212029D01*
X0290769Y0212076D01*
X0291114Y0212114D01*
X0291460Y0212144D01*
X0291806Y0212165D01*
X0292153Y0212178D01*
X0292500Y0212182D01*
X0292847Y0212178D01*
X0293194Y0212165D01*
X0293540Y0212144D01*
X0293886Y0212114D01*
X0294231Y0212076D01*
X0294575Y0212029D01*
X0294918Y0211974D01*
X0295259Y0211910D01*
X0295599Y0211838D01*
X0295936Y0211758D01*
X0296272Y0211670D01*
X0296605Y0211573D01*
X0296936Y0211468D01*
X0297264Y0211355D01*
X0297590Y0211234D01*
X0297912Y0211106D01*
X0298231Y0210969D01*
X0298546Y0210824D01*
X0298858Y0210672D01*
X0299166Y0210512D01*
X0299471Y0210345D01*
X0299770Y0210170D01*
X0300066Y0209988D01*
X0300357Y0209799D01*
X0300643Y0209602D01*
X0300924Y0209399D01*
X0301201Y0209189D01*
X0301472Y0208972D01*
X0301737Y0208748D01*
X0301997Y0208519D01*
X0302251Y0208282D01*
X0302500Y0208040D01*
X0302742Y0207791D01*
X0302979Y0207537D01*
X0303208Y0207277D01*
X0303432Y0207012D01*
X0303649Y0206741D01*
X0303859Y0206464D01*
X0304062Y0206183D01*
X0304259Y0205897D01*
X0304448Y0205606D01*
X0304630Y0205310D01*
X0304805Y0205011D01*
X0304972Y0204706D01*
X0305132Y0204398D01*
X0305284Y0204086D01*
X0305429Y0203771D01*
X0305566Y0203452D01*
X0305694Y0203130D01*
X0305815Y0202804D01*
X0305928Y0202476D01*
X0306033Y0202145D01*
X0306130Y0201812D01*
X0306218Y0201476D01*
X0306298Y0201139D01*
X0306370Y0200799D01*
X0306434Y0200458D01*
X0306489Y0200115D01*
X0306536Y0199771D01*
X0306574Y0199426D01*
X0306604Y0199080D01*
X0306625Y0198734D01*
X0306638Y0198387D01*
X0306642Y0198040D01*
X0306638Y0197693D01*
X0306625Y0197346D01*
X0306604Y0197000D01*
X0306574Y0196654D01*
X0306536Y0196309D01*
X0306489Y0195965D01*
X0306434Y0195622D01*
X0306370Y0195281D01*
X0306298Y0194941D01*
X0306218Y0194604D01*
X0306130Y0194268D01*
X0306033Y0193935D01*
X0305928Y0193604D01*
X0305815Y0193276D01*
X0305694Y0192950D01*
X0305566Y0192628D01*
X0305429Y0192309D01*
X0305284Y0191994D01*
X0305132Y0191682D01*
X0304972Y0191374D01*
X0304805Y0191069D01*
X0304630Y0190770D01*
X0304448Y0190474D01*
X0304259Y0190183D01*
X0304062Y0189897D01*
X0303859Y0189616D01*
X0303649Y0189339D01*
X0303432Y0189068D01*
X0303208Y0188803D01*
X0302979Y0188543D01*
X0302742Y0188289D01*
X0302500Y0188040D01*
X0302251Y0187798D01*
X0301997Y0187561D01*
X0301737Y0187332D01*
X0301472Y0187108D01*
X0301201Y0186891D01*
X0300924Y0186681D01*
X0300643Y0186478D01*
X0300357Y0186281D01*
X0300066Y0186092D01*
X0299770Y0185910D01*
X0299471Y0185735D01*
X0299166Y0185568D01*
X0298858Y0185408D01*
X0298546Y0185256D01*
X0298231Y0185111D01*
X0297912Y0184974D01*
X0297590Y0184846D01*
X0297264Y0184725D01*
X0296936Y0184612D01*
X0296605Y0184507D01*
X0296272Y0184410D01*
X0295936Y0184322D01*
X0295599Y0184242D01*
X0295259Y0184170D01*
X0294918Y0184106D01*
X0294575Y0184051D01*
X0294231Y0184004D01*
X0293886Y0183966D01*
X0293540Y0183936D01*
X0293194Y0183915D01*
X0292847Y0183902D01*
X0292500Y0183898D01*
X0292153Y0183902D01*
X0291806Y0183915D01*
X0291460Y0183936D01*
X0291114Y0183966D01*
X0290769Y0184004D01*
X0290425Y0184051D01*
X0290082Y0184106D01*
X0289741Y0184170D01*
X0289401Y0184242D01*
X0289064Y0184322D01*
X0288728Y0184410D01*
X0288395Y0184507D01*
X0288064Y0184612D01*
X0287736Y0184725D01*
X0287410Y0184846D01*
X0287088Y0184974D01*
X0286769Y0185111D01*
X0286454Y0185256D01*
X0286142Y0185408D01*
X0285834Y0185568D01*
X0285529Y0185735D01*
X0285230Y0185910D01*
X0284934Y0186092D01*
X0284643Y0186281D01*
X0284357Y0186478D01*
X0284076Y0186681D01*
X0283799Y0186891D01*
X0283528Y0187108D01*
X0283263Y0187332D01*
X0283003Y0187561D01*
X0282749Y0187798D01*
X0282500Y0188040D01*
X0282258Y0188289D01*
X0282021Y0188543D01*
X0281792Y0188803D01*
X0281568Y0189068D01*
X0281351Y0189339D01*
X0281141Y0189616D01*
X0280938Y0189897D01*
X0280741Y0190183D01*
X0280552Y0190474D01*
X0280370Y0190770D01*
X0280195Y0191069D01*
X0280028Y0191374D01*
X0279868Y0191682D01*
X0279716Y0191994D01*
X0279571Y0192309D01*
X0279434Y0192628D01*
X0279306Y0192950D01*
X0279185Y0193276D01*
X0279072Y0193604D01*
X0278967Y0193935D01*
X0278870Y0194268D01*
X0278782Y0194604D01*
X0278702Y0194941D01*
X0278630Y0195281D01*
X0278566Y0195622D01*
X0278511Y0195965D01*
X0278464Y0196309D01*
X0278426Y0196654D01*
X0278396Y0197000D01*
X0278375Y0197346D01*
X0278362Y0197693D01*
X0278358Y0198040D01*
X0278358Y0148040D02*
X0278362Y0148387D01*
X0278375Y0148734D01*
X0278396Y0149080D01*
X0278426Y0149426D01*
X0278464Y0149771D01*
X0278511Y0150115D01*
X0278566Y0150458D01*
X0278630Y0150799D01*
X0278702Y0151139D01*
X0278782Y0151476D01*
X0278870Y0151812D01*
X0278967Y0152145D01*
X0279072Y0152476D01*
X0279185Y0152804D01*
X0279306Y0153130D01*
X0279434Y0153452D01*
X0279571Y0153771D01*
X0279716Y0154086D01*
X0279868Y0154398D01*
X0280028Y0154706D01*
X0280195Y0155011D01*
X0280370Y0155310D01*
X0280552Y0155606D01*
X0280741Y0155897D01*
X0280938Y0156183D01*
X0281141Y0156464D01*
X0281351Y0156741D01*
X0281568Y0157012D01*
X0281792Y0157277D01*
X0282021Y0157537D01*
X0282258Y0157791D01*
X0282500Y0158040D01*
X0282749Y0158282D01*
X0283003Y0158519D01*
X0283263Y0158748D01*
X0283528Y0158972D01*
X0283799Y0159189D01*
X0284076Y0159399D01*
X0284357Y0159602D01*
X0284643Y0159799D01*
X0284934Y0159988D01*
X0285230Y0160170D01*
X0285529Y0160345D01*
X0285834Y0160512D01*
X0286142Y0160672D01*
X0286454Y0160824D01*
X0286769Y0160969D01*
X0287088Y0161106D01*
X0287410Y0161234D01*
X0287736Y0161355D01*
X0288064Y0161468D01*
X0288395Y0161573D01*
X0288728Y0161670D01*
X0289064Y0161758D01*
X0289401Y0161838D01*
X0289741Y0161910D01*
X0290082Y0161974D01*
X0290425Y0162029D01*
X0290769Y0162076D01*
X0291114Y0162114D01*
X0291460Y0162144D01*
X0291806Y0162165D01*
X0292153Y0162178D01*
X0292500Y0162182D01*
X0292847Y0162178D01*
X0293194Y0162165D01*
X0293540Y0162144D01*
X0293886Y0162114D01*
X0294231Y0162076D01*
X0294575Y0162029D01*
X0294918Y0161974D01*
X0295259Y0161910D01*
X0295599Y0161838D01*
X0295936Y0161758D01*
X0296272Y0161670D01*
X0296605Y0161573D01*
X0296936Y0161468D01*
X0297264Y0161355D01*
X0297590Y0161234D01*
X0297912Y0161106D01*
X0298231Y0160969D01*
X0298546Y0160824D01*
X0298858Y0160672D01*
X0299166Y0160512D01*
X0299471Y0160345D01*
X0299770Y0160170D01*
X0300066Y0159988D01*
X0300357Y0159799D01*
X0300643Y0159602D01*
X0300924Y0159399D01*
X0301201Y0159189D01*
X0301472Y0158972D01*
X0301737Y0158748D01*
X0301997Y0158519D01*
X0302251Y0158282D01*
X0302500Y0158040D01*
X0302742Y0157791D01*
X0302979Y0157537D01*
X0303208Y0157277D01*
X0303432Y0157012D01*
X0303649Y0156741D01*
X0303859Y0156464D01*
X0304062Y0156183D01*
X0304259Y0155897D01*
X0304448Y0155606D01*
X0304630Y0155310D01*
X0304805Y0155011D01*
X0304972Y0154706D01*
X0305132Y0154398D01*
X0305284Y0154086D01*
X0305429Y0153771D01*
X0305566Y0153452D01*
X0305694Y0153130D01*
X0305815Y0152804D01*
X0305928Y0152476D01*
X0306033Y0152145D01*
X0306130Y0151812D01*
X0306218Y0151476D01*
X0306298Y0151139D01*
X0306370Y0150799D01*
X0306434Y0150458D01*
X0306489Y0150115D01*
X0306536Y0149771D01*
X0306574Y0149426D01*
X0306604Y0149080D01*
X0306625Y0148734D01*
X0306638Y0148387D01*
X0306642Y0148040D01*
X0306638Y0147693D01*
X0306625Y0147346D01*
X0306604Y0147000D01*
X0306574Y0146654D01*
X0306536Y0146309D01*
X0306489Y0145965D01*
X0306434Y0145622D01*
X0306370Y0145281D01*
X0306298Y0144941D01*
X0306218Y0144604D01*
X0306130Y0144268D01*
X0306033Y0143935D01*
X0305928Y0143604D01*
X0305815Y0143276D01*
X0305694Y0142950D01*
X0305566Y0142628D01*
X0305429Y0142309D01*
X0305284Y0141994D01*
X0305132Y0141682D01*
X0304972Y0141374D01*
X0304805Y0141069D01*
X0304630Y0140770D01*
X0304448Y0140474D01*
X0304259Y0140183D01*
X0304062Y0139897D01*
X0303859Y0139616D01*
X0303649Y0139339D01*
X0303432Y0139068D01*
X0303208Y0138803D01*
X0302979Y0138543D01*
X0302742Y0138289D01*
X0302500Y0138040D01*
X0302251Y0137798D01*
X0301997Y0137561D01*
X0301737Y0137332D01*
X0301472Y0137108D01*
X0301201Y0136891D01*
X0300924Y0136681D01*
X0300643Y0136478D01*
X0300357Y0136281D01*
X0300066Y0136092D01*
X0299770Y0135910D01*
X0299471Y0135735D01*
X0299166Y0135568D01*
X0298858Y0135408D01*
X0298546Y0135256D01*
X0298231Y0135111D01*
X0297912Y0134974D01*
X0297590Y0134846D01*
X0297264Y0134725D01*
X0296936Y0134612D01*
X0296605Y0134507D01*
X0296272Y0134410D01*
X0295936Y0134322D01*
X0295599Y0134242D01*
X0295259Y0134170D01*
X0294918Y0134106D01*
X0294575Y0134051D01*
X0294231Y0134004D01*
X0293886Y0133966D01*
X0293540Y0133936D01*
X0293194Y0133915D01*
X0292847Y0133902D01*
X0292500Y0133898D01*
X0292153Y0133902D01*
X0291806Y0133915D01*
X0291460Y0133936D01*
X0291114Y0133966D01*
X0290769Y0134004D01*
X0290425Y0134051D01*
X0290082Y0134106D01*
X0289741Y0134170D01*
X0289401Y0134242D01*
X0289064Y0134322D01*
X0288728Y0134410D01*
X0288395Y0134507D01*
X0288064Y0134612D01*
X0287736Y0134725D01*
X0287410Y0134846D01*
X0287088Y0134974D01*
X0286769Y0135111D01*
X0286454Y0135256D01*
X0286142Y0135408D01*
X0285834Y0135568D01*
X0285529Y0135735D01*
X0285230Y0135910D01*
X0284934Y0136092D01*
X0284643Y0136281D01*
X0284357Y0136478D01*
X0284076Y0136681D01*
X0283799Y0136891D01*
X0283528Y0137108D01*
X0283263Y0137332D01*
X0283003Y0137561D01*
X0282749Y0137798D01*
X0282500Y0138040D01*
X0282258Y0138289D01*
X0282021Y0138543D01*
X0281792Y0138803D01*
X0281568Y0139068D01*
X0281351Y0139339D01*
X0281141Y0139616D01*
X0280938Y0139897D01*
X0280741Y0140183D01*
X0280552Y0140474D01*
X0280370Y0140770D01*
X0280195Y0141069D01*
X0280028Y0141374D01*
X0279868Y0141682D01*
X0279716Y0141994D01*
X0279571Y0142309D01*
X0279434Y0142628D01*
X0279306Y0142950D01*
X0279185Y0143276D01*
X0279072Y0143604D01*
X0278967Y0143935D01*
X0278870Y0144268D01*
X0278782Y0144604D01*
X0278702Y0144941D01*
X0278630Y0145281D01*
X0278566Y0145622D01*
X0278511Y0145965D01*
X0278464Y0146309D01*
X0278426Y0146654D01*
X0278396Y0147000D01*
X0278375Y0147346D01*
X0278362Y0147693D01*
X0278358Y0148040D01*
X0328358Y0148040D02*
X0328362Y0148387D01*
X0328375Y0148734D01*
X0328396Y0149080D01*
X0328426Y0149426D01*
X0328464Y0149771D01*
X0328511Y0150115D01*
X0328566Y0150458D01*
X0328630Y0150799D01*
X0328702Y0151139D01*
X0328782Y0151476D01*
X0328870Y0151812D01*
X0328967Y0152145D01*
X0329072Y0152476D01*
X0329185Y0152804D01*
X0329306Y0153130D01*
X0329434Y0153452D01*
X0329571Y0153771D01*
X0329716Y0154086D01*
X0329868Y0154398D01*
X0330028Y0154706D01*
X0330195Y0155011D01*
X0330370Y0155310D01*
X0330552Y0155606D01*
X0330741Y0155897D01*
X0330938Y0156183D01*
X0331141Y0156464D01*
X0331351Y0156741D01*
X0331568Y0157012D01*
X0331792Y0157277D01*
X0332021Y0157537D01*
X0332258Y0157791D01*
X0332500Y0158040D01*
X0332749Y0158282D01*
X0333003Y0158519D01*
X0333263Y0158748D01*
X0333528Y0158972D01*
X0333799Y0159189D01*
X0334076Y0159399D01*
X0334357Y0159602D01*
X0334643Y0159799D01*
X0334934Y0159988D01*
X0335230Y0160170D01*
X0335529Y0160345D01*
X0335834Y0160512D01*
X0336142Y0160672D01*
X0336454Y0160824D01*
X0336769Y0160969D01*
X0337088Y0161106D01*
X0337410Y0161234D01*
X0337736Y0161355D01*
X0338064Y0161468D01*
X0338395Y0161573D01*
X0338728Y0161670D01*
X0339064Y0161758D01*
X0339401Y0161838D01*
X0339741Y0161910D01*
X0340082Y0161974D01*
X0340425Y0162029D01*
X0340769Y0162076D01*
X0341114Y0162114D01*
X0341460Y0162144D01*
X0341806Y0162165D01*
X0342153Y0162178D01*
X0342500Y0162182D01*
X0342847Y0162178D01*
X0343194Y0162165D01*
X0343540Y0162144D01*
X0343886Y0162114D01*
X0344231Y0162076D01*
X0344575Y0162029D01*
X0344918Y0161974D01*
X0345259Y0161910D01*
X0345599Y0161838D01*
X0345936Y0161758D01*
X0346272Y0161670D01*
X0346605Y0161573D01*
X0346936Y0161468D01*
X0347264Y0161355D01*
X0347590Y0161234D01*
X0347912Y0161106D01*
X0348231Y0160969D01*
X0348546Y0160824D01*
X0348858Y0160672D01*
X0349166Y0160512D01*
X0349471Y0160345D01*
X0349770Y0160170D01*
X0350066Y0159988D01*
X0350357Y0159799D01*
X0350643Y0159602D01*
X0350924Y0159399D01*
X0351201Y0159189D01*
X0351472Y0158972D01*
X0351737Y0158748D01*
X0351997Y0158519D01*
X0352251Y0158282D01*
X0352500Y0158040D01*
X0352742Y0157791D01*
X0352979Y0157537D01*
X0353208Y0157277D01*
X0353432Y0157012D01*
X0353649Y0156741D01*
X0353859Y0156464D01*
X0354062Y0156183D01*
X0354259Y0155897D01*
X0354448Y0155606D01*
X0354630Y0155310D01*
X0354805Y0155011D01*
X0354972Y0154706D01*
X0355132Y0154398D01*
X0355284Y0154086D01*
X0355429Y0153771D01*
X0355566Y0153452D01*
X0355694Y0153130D01*
X0355815Y0152804D01*
X0355928Y0152476D01*
X0356033Y0152145D01*
X0356130Y0151812D01*
X0356218Y0151476D01*
X0356298Y0151139D01*
X0356370Y0150799D01*
X0356434Y0150458D01*
X0356489Y0150115D01*
X0356536Y0149771D01*
X0356574Y0149426D01*
X0356604Y0149080D01*
X0356625Y0148734D01*
X0356638Y0148387D01*
X0356642Y0148040D01*
X0356638Y0147693D01*
X0356625Y0147346D01*
X0356604Y0147000D01*
X0356574Y0146654D01*
X0356536Y0146309D01*
X0356489Y0145965D01*
X0356434Y0145622D01*
X0356370Y0145281D01*
X0356298Y0144941D01*
X0356218Y0144604D01*
X0356130Y0144268D01*
X0356033Y0143935D01*
X0355928Y0143604D01*
X0355815Y0143276D01*
X0355694Y0142950D01*
X0355566Y0142628D01*
X0355429Y0142309D01*
X0355284Y0141994D01*
X0355132Y0141682D01*
X0354972Y0141374D01*
X0354805Y0141069D01*
X0354630Y0140770D01*
X0354448Y0140474D01*
X0354259Y0140183D01*
X0354062Y0139897D01*
X0353859Y0139616D01*
X0353649Y0139339D01*
X0353432Y0139068D01*
X0353208Y0138803D01*
X0352979Y0138543D01*
X0352742Y0138289D01*
X0352500Y0138040D01*
X0352251Y0137798D01*
X0351997Y0137561D01*
X0351737Y0137332D01*
X0351472Y0137108D01*
X0351201Y0136891D01*
X0350924Y0136681D01*
X0350643Y0136478D01*
X0350357Y0136281D01*
X0350066Y0136092D01*
X0349770Y0135910D01*
X0349471Y0135735D01*
X0349166Y0135568D01*
X0348858Y0135408D01*
X0348546Y0135256D01*
X0348231Y0135111D01*
X0347912Y0134974D01*
X0347590Y0134846D01*
X0347264Y0134725D01*
X0346936Y0134612D01*
X0346605Y0134507D01*
X0346272Y0134410D01*
X0345936Y0134322D01*
X0345599Y0134242D01*
X0345259Y0134170D01*
X0344918Y0134106D01*
X0344575Y0134051D01*
X0344231Y0134004D01*
X0343886Y0133966D01*
X0343540Y0133936D01*
X0343194Y0133915D01*
X0342847Y0133902D01*
X0342500Y0133898D01*
X0342153Y0133902D01*
X0341806Y0133915D01*
X0341460Y0133936D01*
X0341114Y0133966D01*
X0340769Y0134004D01*
X0340425Y0134051D01*
X0340082Y0134106D01*
X0339741Y0134170D01*
X0339401Y0134242D01*
X0339064Y0134322D01*
X0338728Y0134410D01*
X0338395Y0134507D01*
X0338064Y0134612D01*
X0337736Y0134725D01*
X0337410Y0134846D01*
X0337088Y0134974D01*
X0336769Y0135111D01*
X0336454Y0135256D01*
X0336142Y0135408D01*
X0335834Y0135568D01*
X0335529Y0135735D01*
X0335230Y0135910D01*
X0334934Y0136092D01*
X0334643Y0136281D01*
X0334357Y0136478D01*
X0334076Y0136681D01*
X0333799Y0136891D01*
X0333528Y0137108D01*
X0333263Y0137332D01*
X0333003Y0137561D01*
X0332749Y0137798D01*
X0332500Y0138040D01*
X0332258Y0138289D01*
X0332021Y0138543D01*
X0331792Y0138803D01*
X0331568Y0139068D01*
X0331351Y0139339D01*
X0331141Y0139616D01*
X0330938Y0139897D01*
X0330741Y0140183D01*
X0330552Y0140474D01*
X0330370Y0140770D01*
X0330195Y0141069D01*
X0330028Y0141374D01*
X0329868Y0141682D01*
X0329716Y0141994D01*
X0329571Y0142309D01*
X0329434Y0142628D01*
X0329306Y0142950D01*
X0329185Y0143276D01*
X0329072Y0143604D01*
X0328967Y0143935D01*
X0328870Y0144268D01*
X0328782Y0144604D01*
X0328702Y0144941D01*
X0328630Y0145281D01*
X0328566Y0145622D01*
X0328511Y0145965D01*
X0328464Y0146309D01*
X0328426Y0146654D01*
X0328396Y0147000D01*
X0328375Y0147346D01*
X0328362Y0147693D01*
X0328358Y0148040D01*
X0401320Y0193040D02*
X0401323Y0193314D01*
X0401333Y0193589D01*
X0401350Y0193862D01*
X0401374Y0194136D01*
X0401404Y0194409D01*
X0401441Y0194680D01*
X0401485Y0194951D01*
X0401535Y0195221D01*
X0401592Y0195490D01*
X0401655Y0195757D01*
X0401725Y0196022D01*
X0401801Y0196285D01*
X0401884Y0196547D01*
X0401974Y0196806D01*
X0402069Y0197064D01*
X0402171Y0197318D01*
X0402279Y0197571D01*
X0402393Y0197820D01*
X0402514Y0198067D01*
X0402640Y0198310D01*
X0402772Y0198551D01*
X0402911Y0198788D01*
X0403055Y0199021D01*
X0403204Y0199251D01*
X0403359Y0199478D01*
X0403520Y0199700D01*
X0403686Y0199918D01*
X0403858Y0200133D01*
X0404034Y0200342D01*
X0404216Y0200548D01*
X0404403Y0200749D01*
X0404595Y0200945D01*
X0404791Y0201137D01*
X0404992Y0201324D01*
X0405198Y0201506D01*
X0405407Y0201682D01*
X0405622Y0201854D01*
X0405840Y0202020D01*
X0406062Y0202181D01*
X0406289Y0202336D01*
X0406519Y0202485D01*
X0406752Y0202629D01*
X0406989Y0202768D01*
X0407230Y0202900D01*
X0407473Y0203026D01*
X0407720Y0203147D01*
X0407969Y0203261D01*
X0408222Y0203369D01*
X0408476Y0203471D01*
X0408734Y0203566D01*
X0408993Y0203656D01*
X0409255Y0203739D01*
X0409518Y0203815D01*
X0409783Y0203885D01*
X0410050Y0203948D01*
X0410319Y0204005D01*
X0410589Y0204055D01*
X0410860Y0204099D01*
X0411131Y0204136D01*
X0411404Y0204166D01*
X0411678Y0204190D01*
X0411951Y0204207D01*
X0412226Y0204217D01*
X0412500Y0204220D01*
X0412774Y0204217D01*
X0413049Y0204207D01*
X0413322Y0204190D01*
X0413596Y0204166D01*
X0413869Y0204136D01*
X0414140Y0204099D01*
X0414411Y0204055D01*
X0414681Y0204005D01*
X0414950Y0203948D01*
X0415217Y0203885D01*
X0415482Y0203815D01*
X0415745Y0203739D01*
X0416007Y0203656D01*
X0416266Y0203566D01*
X0416524Y0203471D01*
X0416778Y0203369D01*
X0417031Y0203261D01*
X0417280Y0203147D01*
X0417527Y0203026D01*
X0417770Y0202900D01*
X0418011Y0202768D01*
X0418248Y0202629D01*
X0418481Y0202485D01*
X0418711Y0202336D01*
X0418938Y0202181D01*
X0419160Y0202020D01*
X0419378Y0201854D01*
X0419593Y0201682D01*
X0419802Y0201506D01*
X0420008Y0201324D01*
X0420209Y0201137D01*
X0420405Y0200945D01*
X0420597Y0200749D01*
X0420784Y0200548D01*
X0420966Y0200342D01*
X0421142Y0200133D01*
X0421314Y0199918D01*
X0421480Y0199700D01*
X0421641Y0199478D01*
X0421796Y0199251D01*
X0421945Y0199021D01*
X0422089Y0198788D01*
X0422228Y0198551D01*
X0422360Y0198310D01*
X0422486Y0198067D01*
X0422607Y0197820D01*
X0422721Y0197571D01*
X0422829Y0197318D01*
X0422931Y0197064D01*
X0423026Y0196806D01*
X0423116Y0196547D01*
X0423199Y0196285D01*
X0423275Y0196022D01*
X0423345Y0195757D01*
X0423408Y0195490D01*
X0423465Y0195221D01*
X0423515Y0194951D01*
X0423559Y0194680D01*
X0423596Y0194409D01*
X0423626Y0194136D01*
X0423650Y0193862D01*
X0423667Y0193589D01*
X0423677Y0193314D01*
X0423680Y0193040D01*
X0423677Y0192766D01*
X0423667Y0192491D01*
X0423650Y0192218D01*
X0423626Y0191944D01*
X0423596Y0191671D01*
X0423559Y0191400D01*
X0423515Y0191129D01*
X0423465Y0190859D01*
X0423408Y0190590D01*
X0423345Y0190323D01*
X0423275Y0190058D01*
X0423199Y0189795D01*
X0423116Y0189533D01*
X0423026Y0189274D01*
X0422931Y0189016D01*
X0422829Y0188762D01*
X0422721Y0188509D01*
X0422607Y0188260D01*
X0422486Y0188013D01*
X0422360Y0187770D01*
X0422228Y0187529D01*
X0422089Y0187292D01*
X0421945Y0187059D01*
X0421796Y0186829D01*
X0421641Y0186602D01*
X0421480Y0186380D01*
X0421314Y0186162D01*
X0421142Y0185947D01*
X0420966Y0185738D01*
X0420784Y0185532D01*
X0420597Y0185331D01*
X0420405Y0185135D01*
X0420209Y0184943D01*
X0420008Y0184756D01*
X0419802Y0184574D01*
X0419593Y0184398D01*
X0419378Y0184226D01*
X0419160Y0184060D01*
X0418938Y0183899D01*
X0418711Y0183744D01*
X0418481Y0183595D01*
X0418248Y0183451D01*
X0418011Y0183312D01*
X0417770Y0183180D01*
X0417527Y0183054D01*
X0417280Y0182933D01*
X0417031Y0182819D01*
X0416778Y0182711D01*
X0416524Y0182609D01*
X0416266Y0182514D01*
X0416007Y0182424D01*
X0415745Y0182341D01*
X0415482Y0182265D01*
X0415217Y0182195D01*
X0414950Y0182132D01*
X0414681Y0182075D01*
X0414411Y0182025D01*
X0414140Y0181981D01*
X0413869Y0181944D01*
X0413596Y0181914D01*
X0413322Y0181890D01*
X0413049Y0181873D01*
X0412774Y0181863D01*
X0412500Y0181860D01*
X0412226Y0181863D01*
X0411951Y0181873D01*
X0411678Y0181890D01*
X0411404Y0181914D01*
X0411131Y0181944D01*
X0410860Y0181981D01*
X0410589Y0182025D01*
X0410319Y0182075D01*
X0410050Y0182132D01*
X0409783Y0182195D01*
X0409518Y0182265D01*
X0409255Y0182341D01*
X0408993Y0182424D01*
X0408734Y0182514D01*
X0408476Y0182609D01*
X0408222Y0182711D01*
X0407969Y0182819D01*
X0407720Y0182933D01*
X0407473Y0183054D01*
X0407230Y0183180D01*
X0406989Y0183312D01*
X0406752Y0183451D01*
X0406519Y0183595D01*
X0406289Y0183744D01*
X0406062Y0183899D01*
X0405840Y0184060D01*
X0405622Y0184226D01*
X0405407Y0184398D01*
X0405198Y0184574D01*
X0404992Y0184756D01*
X0404791Y0184943D01*
X0404595Y0185135D01*
X0404403Y0185331D01*
X0404216Y0185532D01*
X0404034Y0185738D01*
X0403858Y0185947D01*
X0403686Y0186162D01*
X0403520Y0186380D01*
X0403359Y0186602D01*
X0403204Y0186829D01*
X0403055Y0187059D01*
X0402911Y0187292D01*
X0402772Y0187529D01*
X0402640Y0187770D01*
X0402514Y0188013D01*
X0402393Y0188260D01*
X0402279Y0188509D01*
X0402171Y0188762D01*
X0402069Y0189016D01*
X0401974Y0189274D01*
X0401884Y0189533D01*
X0401801Y0189795D01*
X0401725Y0190058D01*
X0401655Y0190323D01*
X0401592Y0190590D01*
X0401535Y0190859D01*
X0401485Y0191129D01*
X0401441Y0191400D01*
X0401404Y0191671D01*
X0401374Y0191944D01*
X0401350Y0192218D01*
X0401333Y0192491D01*
X0401323Y0192766D01*
X0401320Y0193040D01*
X0068358Y0198040D02*
X0068362Y0198387D01*
X0068375Y0198734D01*
X0068396Y0199080D01*
X0068426Y0199426D01*
X0068464Y0199771D01*
X0068511Y0200115D01*
X0068566Y0200458D01*
X0068630Y0200799D01*
X0068702Y0201139D01*
X0068782Y0201476D01*
X0068870Y0201812D01*
X0068967Y0202145D01*
X0069072Y0202476D01*
X0069185Y0202804D01*
X0069306Y0203130D01*
X0069434Y0203452D01*
X0069571Y0203771D01*
X0069716Y0204086D01*
X0069868Y0204398D01*
X0070028Y0204706D01*
X0070195Y0205011D01*
X0070370Y0205310D01*
X0070552Y0205606D01*
X0070741Y0205897D01*
X0070938Y0206183D01*
X0071141Y0206464D01*
X0071351Y0206741D01*
X0071568Y0207012D01*
X0071792Y0207277D01*
X0072021Y0207537D01*
X0072258Y0207791D01*
X0072500Y0208040D01*
X0072749Y0208282D01*
X0073003Y0208519D01*
X0073263Y0208748D01*
X0073528Y0208972D01*
X0073799Y0209189D01*
X0074076Y0209399D01*
X0074357Y0209602D01*
X0074643Y0209799D01*
X0074934Y0209988D01*
X0075230Y0210170D01*
X0075529Y0210345D01*
X0075834Y0210512D01*
X0076142Y0210672D01*
X0076454Y0210824D01*
X0076769Y0210969D01*
X0077088Y0211106D01*
X0077410Y0211234D01*
X0077736Y0211355D01*
X0078064Y0211468D01*
X0078395Y0211573D01*
X0078728Y0211670D01*
X0079064Y0211758D01*
X0079401Y0211838D01*
X0079741Y0211910D01*
X0080082Y0211974D01*
X0080425Y0212029D01*
X0080769Y0212076D01*
X0081114Y0212114D01*
X0081460Y0212144D01*
X0081806Y0212165D01*
X0082153Y0212178D01*
X0082500Y0212182D01*
X0082847Y0212178D01*
X0083194Y0212165D01*
X0083540Y0212144D01*
X0083886Y0212114D01*
X0084231Y0212076D01*
X0084575Y0212029D01*
X0084918Y0211974D01*
X0085259Y0211910D01*
X0085599Y0211838D01*
X0085936Y0211758D01*
X0086272Y0211670D01*
X0086605Y0211573D01*
X0086936Y0211468D01*
X0087264Y0211355D01*
X0087590Y0211234D01*
X0087912Y0211106D01*
X0088231Y0210969D01*
X0088546Y0210824D01*
X0088858Y0210672D01*
X0089166Y0210512D01*
X0089471Y0210345D01*
X0089770Y0210170D01*
X0090066Y0209988D01*
X0090357Y0209799D01*
X0090643Y0209602D01*
X0090924Y0209399D01*
X0091201Y0209189D01*
X0091472Y0208972D01*
X0091737Y0208748D01*
X0091997Y0208519D01*
X0092251Y0208282D01*
X0092500Y0208040D01*
X0092742Y0207791D01*
X0092979Y0207537D01*
X0093208Y0207277D01*
X0093432Y0207012D01*
X0093649Y0206741D01*
X0093859Y0206464D01*
X0094062Y0206183D01*
X0094259Y0205897D01*
X0094448Y0205606D01*
X0094630Y0205310D01*
X0094805Y0205011D01*
X0094972Y0204706D01*
X0095132Y0204398D01*
X0095284Y0204086D01*
X0095429Y0203771D01*
X0095566Y0203452D01*
X0095694Y0203130D01*
X0095815Y0202804D01*
X0095928Y0202476D01*
X0096033Y0202145D01*
X0096130Y0201812D01*
X0096218Y0201476D01*
X0096298Y0201139D01*
X0096370Y0200799D01*
X0096434Y0200458D01*
X0096489Y0200115D01*
X0096536Y0199771D01*
X0096574Y0199426D01*
X0096604Y0199080D01*
X0096625Y0198734D01*
X0096638Y0198387D01*
X0096642Y0198040D01*
X0096638Y0197693D01*
X0096625Y0197346D01*
X0096604Y0197000D01*
X0096574Y0196654D01*
X0096536Y0196309D01*
X0096489Y0195965D01*
X0096434Y0195622D01*
X0096370Y0195281D01*
X0096298Y0194941D01*
X0096218Y0194604D01*
X0096130Y0194268D01*
X0096033Y0193935D01*
X0095928Y0193604D01*
X0095815Y0193276D01*
X0095694Y0192950D01*
X0095566Y0192628D01*
X0095429Y0192309D01*
X0095284Y0191994D01*
X0095132Y0191682D01*
X0094972Y0191374D01*
X0094805Y0191069D01*
X0094630Y0190770D01*
X0094448Y0190474D01*
X0094259Y0190183D01*
X0094062Y0189897D01*
X0093859Y0189616D01*
X0093649Y0189339D01*
X0093432Y0189068D01*
X0093208Y0188803D01*
X0092979Y0188543D01*
X0092742Y0188289D01*
X0092500Y0188040D01*
X0092251Y0187798D01*
X0091997Y0187561D01*
X0091737Y0187332D01*
X0091472Y0187108D01*
X0091201Y0186891D01*
X0090924Y0186681D01*
X0090643Y0186478D01*
X0090357Y0186281D01*
X0090066Y0186092D01*
X0089770Y0185910D01*
X0089471Y0185735D01*
X0089166Y0185568D01*
X0088858Y0185408D01*
X0088546Y0185256D01*
X0088231Y0185111D01*
X0087912Y0184974D01*
X0087590Y0184846D01*
X0087264Y0184725D01*
X0086936Y0184612D01*
X0086605Y0184507D01*
X0086272Y0184410D01*
X0085936Y0184322D01*
X0085599Y0184242D01*
X0085259Y0184170D01*
X0084918Y0184106D01*
X0084575Y0184051D01*
X0084231Y0184004D01*
X0083886Y0183966D01*
X0083540Y0183936D01*
X0083194Y0183915D01*
X0082847Y0183902D01*
X0082500Y0183898D01*
X0082153Y0183902D01*
X0081806Y0183915D01*
X0081460Y0183936D01*
X0081114Y0183966D01*
X0080769Y0184004D01*
X0080425Y0184051D01*
X0080082Y0184106D01*
X0079741Y0184170D01*
X0079401Y0184242D01*
X0079064Y0184322D01*
X0078728Y0184410D01*
X0078395Y0184507D01*
X0078064Y0184612D01*
X0077736Y0184725D01*
X0077410Y0184846D01*
X0077088Y0184974D01*
X0076769Y0185111D01*
X0076454Y0185256D01*
X0076142Y0185408D01*
X0075834Y0185568D01*
X0075529Y0185735D01*
X0075230Y0185910D01*
X0074934Y0186092D01*
X0074643Y0186281D01*
X0074357Y0186478D01*
X0074076Y0186681D01*
X0073799Y0186891D01*
X0073528Y0187108D01*
X0073263Y0187332D01*
X0073003Y0187561D01*
X0072749Y0187798D01*
X0072500Y0188040D01*
X0072258Y0188289D01*
X0072021Y0188543D01*
X0071792Y0188803D01*
X0071568Y0189068D01*
X0071351Y0189339D01*
X0071141Y0189616D01*
X0070938Y0189897D01*
X0070741Y0190183D01*
X0070552Y0190474D01*
X0070370Y0190770D01*
X0070195Y0191069D01*
X0070028Y0191374D01*
X0069868Y0191682D01*
X0069716Y0191994D01*
X0069571Y0192309D01*
X0069434Y0192628D01*
X0069306Y0192950D01*
X0069185Y0193276D01*
X0069072Y0193604D01*
X0068967Y0193935D01*
X0068870Y0194268D01*
X0068782Y0194604D01*
X0068702Y0194941D01*
X0068630Y0195281D01*
X0068566Y0195622D01*
X0068511Y0195965D01*
X0068464Y0196309D01*
X0068426Y0196654D01*
X0068396Y0197000D01*
X0068375Y0197346D01*
X0068362Y0197693D01*
X0068358Y0198040D01*
D12*
X0062344Y0198040D02*
X0062350Y0198535D01*
X0062368Y0199029D01*
X0062399Y0199523D01*
X0062441Y0200016D01*
X0062496Y0200507D01*
X0062562Y0200997D01*
X0062641Y0201486D01*
X0062731Y0201972D01*
X0062834Y0202456D01*
X0062948Y0202938D01*
X0063074Y0203416D01*
X0063212Y0203891D01*
X0063361Y0204363D01*
X0063522Y0204830D01*
X0063695Y0205294D01*
X0063878Y0205753D01*
X0064073Y0206208D01*
X0064279Y0206658D01*
X0064496Y0207102D01*
X0064724Y0207541D01*
X0064963Y0207975D01*
X0065212Y0208402D01*
X0065471Y0208823D01*
X0065741Y0209238D01*
X0066021Y0209646D01*
X0066311Y0210047D01*
X0066610Y0210441D01*
X0066919Y0210827D01*
X0067238Y0211205D01*
X0067565Y0211576D01*
X0067902Y0211938D01*
X0068248Y0212292D01*
X0068602Y0212638D01*
X0068964Y0212975D01*
X0069335Y0213302D01*
X0069713Y0213621D01*
X0070099Y0213930D01*
X0070493Y0214229D01*
X0070894Y0214519D01*
X0071302Y0214799D01*
X0071717Y0215069D01*
X0072138Y0215328D01*
X0072565Y0215577D01*
X0072999Y0215816D01*
X0073438Y0216044D01*
X0073882Y0216261D01*
X0074332Y0216467D01*
X0074787Y0216662D01*
X0075246Y0216845D01*
X0075710Y0217018D01*
X0076177Y0217179D01*
X0076649Y0217328D01*
X0077124Y0217466D01*
X0077602Y0217592D01*
X0078084Y0217706D01*
X0078568Y0217809D01*
X0079054Y0217899D01*
X0079543Y0217978D01*
X0080033Y0218044D01*
X0080524Y0218099D01*
X0081017Y0218141D01*
X0081511Y0218172D01*
X0082005Y0218190D01*
X0082500Y0218196D01*
X0082995Y0218190D01*
X0083489Y0218172D01*
X0083983Y0218141D01*
X0084476Y0218099D01*
X0084967Y0218044D01*
X0085457Y0217978D01*
X0085946Y0217899D01*
X0086432Y0217809D01*
X0086916Y0217706D01*
X0087398Y0217592D01*
X0087876Y0217466D01*
X0088351Y0217328D01*
X0088823Y0217179D01*
X0089290Y0217018D01*
X0089754Y0216845D01*
X0090213Y0216662D01*
X0090668Y0216467D01*
X0091118Y0216261D01*
X0091562Y0216044D01*
X0092001Y0215816D01*
X0092435Y0215577D01*
X0092862Y0215328D01*
X0093283Y0215069D01*
X0093698Y0214799D01*
X0094106Y0214519D01*
X0094507Y0214229D01*
X0094901Y0213930D01*
X0095287Y0213621D01*
X0095665Y0213302D01*
X0096036Y0212975D01*
X0096398Y0212638D01*
X0096752Y0212292D01*
X0097098Y0211938D01*
X0097435Y0211576D01*
X0097762Y0211205D01*
X0098081Y0210827D01*
X0098390Y0210441D01*
X0098689Y0210047D01*
X0098979Y0209646D01*
X0099259Y0209238D01*
X0099529Y0208823D01*
X0099788Y0208402D01*
X0100037Y0207975D01*
X0100276Y0207541D01*
X0100504Y0207102D01*
X0100721Y0206658D01*
X0100927Y0206208D01*
X0101122Y0205753D01*
X0101305Y0205294D01*
X0101478Y0204830D01*
X0101639Y0204363D01*
X0101788Y0203891D01*
X0101926Y0203416D01*
X0102052Y0202938D01*
X0102166Y0202456D01*
X0102269Y0201972D01*
X0102359Y0201486D01*
X0102438Y0200997D01*
X0102504Y0200507D01*
X0102559Y0200016D01*
X0102601Y0199523D01*
X0102632Y0199029D01*
X0102650Y0198535D01*
X0102656Y0198040D01*
X0102650Y0197545D01*
X0102632Y0197051D01*
X0102601Y0196557D01*
X0102559Y0196064D01*
X0102504Y0195573D01*
X0102438Y0195083D01*
X0102359Y0194594D01*
X0102269Y0194108D01*
X0102166Y0193624D01*
X0102052Y0193142D01*
X0101926Y0192664D01*
X0101788Y0192189D01*
X0101639Y0191717D01*
X0101478Y0191250D01*
X0101305Y0190786D01*
X0101122Y0190327D01*
X0100927Y0189872D01*
X0100721Y0189422D01*
X0100504Y0188978D01*
X0100276Y0188539D01*
X0100037Y0188105D01*
X0099788Y0187678D01*
X0099529Y0187257D01*
X0099259Y0186842D01*
X0098979Y0186434D01*
X0098689Y0186033D01*
X0098390Y0185639D01*
X0098081Y0185253D01*
X0097762Y0184875D01*
X0097435Y0184504D01*
X0097098Y0184142D01*
X0096752Y0183788D01*
X0096398Y0183442D01*
X0096036Y0183105D01*
X0095665Y0182778D01*
X0095287Y0182459D01*
X0094901Y0182150D01*
X0094507Y0181851D01*
X0094106Y0181561D01*
X0093698Y0181281D01*
X0093283Y0181011D01*
X0092862Y0180752D01*
X0092435Y0180503D01*
X0092001Y0180264D01*
X0091562Y0180036D01*
X0091118Y0179819D01*
X0090668Y0179613D01*
X0090213Y0179418D01*
X0089754Y0179235D01*
X0089290Y0179062D01*
X0088823Y0178901D01*
X0088351Y0178752D01*
X0087876Y0178614D01*
X0087398Y0178488D01*
X0086916Y0178374D01*
X0086432Y0178271D01*
X0085946Y0178181D01*
X0085457Y0178102D01*
X0084967Y0178036D01*
X0084476Y0177981D01*
X0083983Y0177939D01*
X0083489Y0177908D01*
X0082995Y0177890D01*
X0082500Y0177884D01*
X0082005Y0177890D01*
X0081511Y0177908D01*
X0081017Y0177939D01*
X0080524Y0177981D01*
X0080033Y0178036D01*
X0079543Y0178102D01*
X0079054Y0178181D01*
X0078568Y0178271D01*
X0078084Y0178374D01*
X0077602Y0178488D01*
X0077124Y0178614D01*
X0076649Y0178752D01*
X0076177Y0178901D01*
X0075710Y0179062D01*
X0075246Y0179235D01*
X0074787Y0179418D01*
X0074332Y0179613D01*
X0073882Y0179819D01*
X0073438Y0180036D01*
X0072999Y0180264D01*
X0072565Y0180503D01*
X0072138Y0180752D01*
X0071717Y0181011D01*
X0071302Y0181281D01*
X0070894Y0181561D01*
X0070493Y0181851D01*
X0070099Y0182150D01*
X0069713Y0182459D01*
X0069335Y0182778D01*
X0068964Y0183105D01*
X0068602Y0183442D01*
X0068248Y0183788D01*
X0067902Y0184142D01*
X0067565Y0184504D01*
X0067238Y0184875D01*
X0066919Y0185253D01*
X0066610Y0185639D01*
X0066311Y0186033D01*
X0066021Y0186434D01*
X0065741Y0186842D01*
X0065471Y0187257D01*
X0065212Y0187678D01*
X0064963Y0188105D01*
X0064724Y0188539D01*
X0064496Y0188978D01*
X0064279Y0189422D01*
X0064073Y0189872D01*
X0063878Y0190327D01*
X0063695Y0190786D01*
X0063522Y0191250D01*
X0063361Y0191717D01*
X0063212Y0192189D01*
X0063074Y0192664D01*
X0062948Y0193142D01*
X0062834Y0193624D01*
X0062731Y0194108D01*
X0062641Y0194594D01*
X0062562Y0195083D01*
X0062496Y0195573D01*
X0062441Y0196064D01*
X0062399Y0196557D01*
X0062368Y0197051D01*
X0062350Y0197545D01*
X0062344Y0198040D01*
X0062344Y0148040D02*
X0062350Y0148535D01*
X0062368Y0149029D01*
X0062399Y0149523D01*
X0062441Y0150016D01*
X0062496Y0150507D01*
X0062562Y0150997D01*
X0062641Y0151486D01*
X0062731Y0151972D01*
X0062834Y0152456D01*
X0062948Y0152938D01*
X0063074Y0153416D01*
X0063212Y0153891D01*
X0063361Y0154363D01*
X0063522Y0154830D01*
X0063695Y0155294D01*
X0063878Y0155753D01*
X0064073Y0156208D01*
X0064279Y0156658D01*
X0064496Y0157102D01*
X0064724Y0157541D01*
X0064963Y0157975D01*
X0065212Y0158402D01*
X0065471Y0158823D01*
X0065741Y0159238D01*
X0066021Y0159646D01*
X0066311Y0160047D01*
X0066610Y0160441D01*
X0066919Y0160827D01*
X0067238Y0161205D01*
X0067565Y0161576D01*
X0067902Y0161938D01*
X0068248Y0162292D01*
X0068602Y0162638D01*
X0068964Y0162975D01*
X0069335Y0163302D01*
X0069713Y0163621D01*
X0070099Y0163930D01*
X0070493Y0164229D01*
X0070894Y0164519D01*
X0071302Y0164799D01*
X0071717Y0165069D01*
X0072138Y0165328D01*
X0072565Y0165577D01*
X0072999Y0165816D01*
X0073438Y0166044D01*
X0073882Y0166261D01*
X0074332Y0166467D01*
X0074787Y0166662D01*
X0075246Y0166845D01*
X0075710Y0167018D01*
X0076177Y0167179D01*
X0076649Y0167328D01*
X0077124Y0167466D01*
X0077602Y0167592D01*
X0078084Y0167706D01*
X0078568Y0167809D01*
X0079054Y0167899D01*
X0079543Y0167978D01*
X0080033Y0168044D01*
X0080524Y0168099D01*
X0081017Y0168141D01*
X0081511Y0168172D01*
X0082005Y0168190D01*
X0082500Y0168196D01*
X0082995Y0168190D01*
X0083489Y0168172D01*
X0083983Y0168141D01*
X0084476Y0168099D01*
X0084967Y0168044D01*
X0085457Y0167978D01*
X0085946Y0167899D01*
X0086432Y0167809D01*
X0086916Y0167706D01*
X0087398Y0167592D01*
X0087876Y0167466D01*
X0088351Y0167328D01*
X0088823Y0167179D01*
X0089290Y0167018D01*
X0089754Y0166845D01*
X0090213Y0166662D01*
X0090668Y0166467D01*
X0091118Y0166261D01*
X0091562Y0166044D01*
X0092001Y0165816D01*
X0092435Y0165577D01*
X0092862Y0165328D01*
X0093283Y0165069D01*
X0093698Y0164799D01*
X0094106Y0164519D01*
X0094507Y0164229D01*
X0094901Y0163930D01*
X0095287Y0163621D01*
X0095665Y0163302D01*
X0096036Y0162975D01*
X0096398Y0162638D01*
X0096752Y0162292D01*
X0097098Y0161938D01*
X0097435Y0161576D01*
X0097762Y0161205D01*
X0098081Y0160827D01*
X0098390Y0160441D01*
X0098689Y0160047D01*
X0098979Y0159646D01*
X0099259Y0159238D01*
X0099529Y0158823D01*
X0099788Y0158402D01*
X0100037Y0157975D01*
X0100276Y0157541D01*
X0100504Y0157102D01*
X0100721Y0156658D01*
X0100927Y0156208D01*
X0101122Y0155753D01*
X0101305Y0155294D01*
X0101478Y0154830D01*
X0101639Y0154363D01*
X0101788Y0153891D01*
X0101926Y0153416D01*
X0102052Y0152938D01*
X0102166Y0152456D01*
X0102269Y0151972D01*
X0102359Y0151486D01*
X0102438Y0150997D01*
X0102504Y0150507D01*
X0102559Y0150016D01*
X0102601Y0149523D01*
X0102632Y0149029D01*
X0102650Y0148535D01*
X0102656Y0148040D01*
X0102650Y0147545D01*
X0102632Y0147051D01*
X0102601Y0146557D01*
X0102559Y0146064D01*
X0102504Y0145573D01*
X0102438Y0145083D01*
X0102359Y0144594D01*
X0102269Y0144108D01*
X0102166Y0143624D01*
X0102052Y0143142D01*
X0101926Y0142664D01*
X0101788Y0142189D01*
X0101639Y0141717D01*
X0101478Y0141250D01*
X0101305Y0140786D01*
X0101122Y0140327D01*
X0100927Y0139872D01*
X0100721Y0139422D01*
X0100504Y0138978D01*
X0100276Y0138539D01*
X0100037Y0138105D01*
X0099788Y0137678D01*
X0099529Y0137257D01*
X0099259Y0136842D01*
X0098979Y0136434D01*
X0098689Y0136033D01*
X0098390Y0135639D01*
X0098081Y0135253D01*
X0097762Y0134875D01*
X0097435Y0134504D01*
X0097098Y0134142D01*
X0096752Y0133788D01*
X0096398Y0133442D01*
X0096036Y0133105D01*
X0095665Y0132778D01*
X0095287Y0132459D01*
X0094901Y0132150D01*
X0094507Y0131851D01*
X0094106Y0131561D01*
X0093698Y0131281D01*
X0093283Y0131011D01*
X0092862Y0130752D01*
X0092435Y0130503D01*
X0092001Y0130264D01*
X0091562Y0130036D01*
X0091118Y0129819D01*
X0090668Y0129613D01*
X0090213Y0129418D01*
X0089754Y0129235D01*
X0089290Y0129062D01*
X0088823Y0128901D01*
X0088351Y0128752D01*
X0087876Y0128614D01*
X0087398Y0128488D01*
X0086916Y0128374D01*
X0086432Y0128271D01*
X0085946Y0128181D01*
X0085457Y0128102D01*
X0084967Y0128036D01*
X0084476Y0127981D01*
X0083983Y0127939D01*
X0083489Y0127908D01*
X0082995Y0127890D01*
X0082500Y0127884D01*
X0082005Y0127890D01*
X0081511Y0127908D01*
X0081017Y0127939D01*
X0080524Y0127981D01*
X0080033Y0128036D01*
X0079543Y0128102D01*
X0079054Y0128181D01*
X0078568Y0128271D01*
X0078084Y0128374D01*
X0077602Y0128488D01*
X0077124Y0128614D01*
X0076649Y0128752D01*
X0076177Y0128901D01*
X0075710Y0129062D01*
X0075246Y0129235D01*
X0074787Y0129418D01*
X0074332Y0129613D01*
X0073882Y0129819D01*
X0073438Y0130036D01*
X0072999Y0130264D01*
X0072565Y0130503D01*
X0072138Y0130752D01*
X0071717Y0131011D01*
X0071302Y0131281D01*
X0070894Y0131561D01*
X0070493Y0131851D01*
X0070099Y0132150D01*
X0069713Y0132459D01*
X0069335Y0132778D01*
X0068964Y0133105D01*
X0068602Y0133442D01*
X0068248Y0133788D01*
X0067902Y0134142D01*
X0067565Y0134504D01*
X0067238Y0134875D01*
X0066919Y0135253D01*
X0066610Y0135639D01*
X0066311Y0136033D01*
X0066021Y0136434D01*
X0065741Y0136842D01*
X0065471Y0137257D01*
X0065212Y0137678D01*
X0064963Y0138105D01*
X0064724Y0138539D01*
X0064496Y0138978D01*
X0064279Y0139422D01*
X0064073Y0139872D01*
X0063878Y0140327D01*
X0063695Y0140786D01*
X0063522Y0141250D01*
X0063361Y0141717D01*
X0063212Y0142189D01*
X0063074Y0142664D01*
X0062948Y0143142D01*
X0062834Y0143624D01*
X0062731Y0144108D01*
X0062641Y0144594D01*
X0062562Y0145083D01*
X0062496Y0145573D01*
X0062441Y0146064D01*
X0062399Y0146557D01*
X0062368Y0147051D01*
X0062350Y0147545D01*
X0062344Y0148040D01*
X0182974Y0193040D02*
X0182980Y0193519D01*
X0182998Y0193998D01*
X0183027Y0194476D01*
X0183068Y0194954D01*
X0183121Y0195430D01*
X0183185Y0195905D01*
X0183261Y0196378D01*
X0183349Y0196849D01*
X0183448Y0197318D01*
X0183559Y0197784D01*
X0183681Y0198248D01*
X0183815Y0198708D01*
X0183960Y0199165D01*
X0184115Y0199618D01*
X0184282Y0200067D01*
X0184460Y0200512D01*
X0184649Y0200953D01*
X0184849Y0201388D01*
X0185059Y0201819D01*
X0185280Y0202244D01*
X0185511Y0202664D01*
X0185752Y0203078D01*
X0186003Y0203486D01*
X0186265Y0203888D01*
X0186536Y0204283D01*
X0186817Y0204672D01*
X0187107Y0205053D01*
X0187406Y0205427D01*
X0187715Y0205794D01*
X0188032Y0206153D01*
X0188358Y0206504D01*
X0188693Y0206847D01*
X0189036Y0207182D01*
X0189387Y0207508D01*
X0189746Y0207825D01*
X0190113Y0208134D01*
X0190487Y0208433D01*
X0190868Y0208723D01*
X0191257Y0209004D01*
X0191652Y0209275D01*
X0192054Y0209537D01*
X0192462Y0209788D01*
X0192876Y0210029D01*
X0193296Y0210260D01*
X0193721Y0210481D01*
X0194152Y0210691D01*
X0194587Y0210891D01*
X0195028Y0211080D01*
X0195473Y0211258D01*
X0195922Y0211425D01*
X0196375Y0211580D01*
X0196832Y0211725D01*
X0197292Y0211859D01*
X0197756Y0211981D01*
X0198222Y0212092D01*
X0198691Y0212191D01*
X0199162Y0212279D01*
X0199635Y0212355D01*
X0200110Y0212419D01*
X0200586Y0212472D01*
X0201064Y0212513D01*
X0201542Y0212542D01*
X0202021Y0212560D01*
X0202500Y0212566D01*
X0202979Y0212560D01*
X0203458Y0212542D01*
X0203936Y0212513D01*
X0204414Y0212472D01*
X0204890Y0212419D01*
X0205365Y0212355D01*
X0205838Y0212279D01*
X0206309Y0212191D01*
X0206778Y0212092D01*
X0207244Y0211981D01*
X0207708Y0211859D01*
X0208168Y0211725D01*
X0208625Y0211580D01*
X0209078Y0211425D01*
X0209527Y0211258D01*
X0209972Y0211080D01*
X0210413Y0210891D01*
X0210848Y0210691D01*
X0211279Y0210481D01*
X0211704Y0210260D01*
X0212124Y0210029D01*
X0212538Y0209788D01*
X0212946Y0209537D01*
X0213348Y0209275D01*
X0213743Y0209004D01*
X0214132Y0208723D01*
X0214513Y0208433D01*
X0214887Y0208134D01*
X0215254Y0207825D01*
X0215613Y0207508D01*
X0215964Y0207182D01*
X0216307Y0206847D01*
X0216642Y0206504D01*
X0216968Y0206153D01*
X0217285Y0205794D01*
X0217594Y0205427D01*
X0217893Y0205053D01*
X0218183Y0204672D01*
X0218464Y0204283D01*
X0218735Y0203888D01*
X0218997Y0203486D01*
X0219248Y0203078D01*
X0219489Y0202664D01*
X0219720Y0202244D01*
X0219941Y0201819D01*
X0220151Y0201388D01*
X0220351Y0200953D01*
X0220540Y0200512D01*
X0220718Y0200067D01*
X0220885Y0199618D01*
X0221040Y0199165D01*
X0221185Y0198708D01*
X0221319Y0198248D01*
X0221441Y0197784D01*
X0221552Y0197318D01*
X0221651Y0196849D01*
X0221739Y0196378D01*
X0221815Y0195905D01*
X0221879Y0195430D01*
X0221932Y0194954D01*
X0221973Y0194476D01*
X0222002Y0193998D01*
X0222020Y0193519D01*
X0222026Y0193040D01*
X0222020Y0192561D01*
X0222002Y0192082D01*
X0221973Y0191604D01*
X0221932Y0191126D01*
X0221879Y0190650D01*
X0221815Y0190175D01*
X0221739Y0189702D01*
X0221651Y0189231D01*
X0221552Y0188762D01*
X0221441Y0188296D01*
X0221319Y0187832D01*
X0221185Y0187372D01*
X0221040Y0186915D01*
X0220885Y0186462D01*
X0220718Y0186013D01*
X0220540Y0185568D01*
X0220351Y0185127D01*
X0220151Y0184692D01*
X0219941Y0184261D01*
X0219720Y0183836D01*
X0219489Y0183416D01*
X0219248Y0183002D01*
X0218997Y0182594D01*
X0218735Y0182192D01*
X0218464Y0181797D01*
X0218183Y0181408D01*
X0217893Y0181027D01*
X0217594Y0180653D01*
X0217285Y0180286D01*
X0216968Y0179927D01*
X0216642Y0179576D01*
X0216307Y0179233D01*
X0215964Y0178898D01*
X0215613Y0178572D01*
X0215254Y0178255D01*
X0214887Y0177946D01*
X0214513Y0177647D01*
X0214132Y0177357D01*
X0213743Y0177076D01*
X0213348Y0176805D01*
X0212946Y0176543D01*
X0212538Y0176292D01*
X0212124Y0176051D01*
X0211704Y0175820D01*
X0211279Y0175599D01*
X0210848Y0175389D01*
X0210413Y0175189D01*
X0209972Y0175000D01*
X0209527Y0174822D01*
X0209078Y0174655D01*
X0208625Y0174500D01*
X0208168Y0174355D01*
X0207708Y0174221D01*
X0207244Y0174099D01*
X0206778Y0173988D01*
X0206309Y0173889D01*
X0205838Y0173801D01*
X0205365Y0173725D01*
X0204890Y0173661D01*
X0204414Y0173608D01*
X0203936Y0173567D01*
X0203458Y0173538D01*
X0202979Y0173520D01*
X0202500Y0173514D01*
X0202021Y0173520D01*
X0201542Y0173538D01*
X0201064Y0173567D01*
X0200586Y0173608D01*
X0200110Y0173661D01*
X0199635Y0173725D01*
X0199162Y0173801D01*
X0198691Y0173889D01*
X0198222Y0173988D01*
X0197756Y0174099D01*
X0197292Y0174221D01*
X0196832Y0174355D01*
X0196375Y0174500D01*
X0195922Y0174655D01*
X0195473Y0174822D01*
X0195028Y0175000D01*
X0194587Y0175189D01*
X0194152Y0175389D01*
X0193721Y0175599D01*
X0193296Y0175820D01*
X0192876Y0176051D01*
X0192462Y0176292D01*
X0192054Y0176543D01*
X0191652Y0176805D01*
X0191257Y0177076D01*
X0190868Y0177357D01*
X0190487Y0177647D01*
X0190113Y0177946D01*
X0189746Y0178255D01*
X0189387Y0178572D01*
X0189036Y0178898D01*
X0188693Y0179233D01*
X0188358Y0179576D01*
X0188032Y0179927D01*
X0187715Y0180286D01*
X0187406Y0180653D01*
X0187107Y0181027D01*
X0186817Y0181408D01*
X0186536Y0181797D01*
X0186265Y0182192D01*
X0186003Y0182594D01*
X0185752Y0183002D01*
X0185511Y0183416D01*
X0185280Y0183836D01*
X0185059Y0184261D01*
X0184849Y0184692D01*
X0184649Y0185127D01*
X0184460Y0185568D01*
X0184282Y0186013D01*
X0184115Y0186462D01*
X0183960Y0186915D01*
X0183815Y0187372D01*
X0183681Y0187832D01*
X0183559Y0188296D01*
X0183448Y0188762D01*
X0183349Y0189231D01*
X0183261Y0189702D01*
X0183185Y0190175D01*
X0183121Y0190650D01*
X0183068Y0191126D01*
X0183027Y0191604D01*
X0182998Y0192082D01*
X0182980Y0192561D01*
X0182974Y0193040D01*
X0270994Y0198040D02*
X0271000Y0198568D01*
X0271020Y0199095D01*
X0271052Y0199622D01*
X0271098Y0200148D01*
X0271156Y0200673D01*
X0271227Y0201196D01*
X0271311Y0201717D01*
X0271407Y0202236D01*
X0271517Y0202752D01*
X0271639Y0203266D01*
X0271773Y0203776D01*
X0271920Y0204283D01*
X0272079Y0204786D01*
X0272251Y0205285D01*
X0272435Y0205780D01*
X0272631Y0206270D01*
X0272839Y0206755D01*
X0273059Y0207235D01*
X0273290Y0207709D01*
X0273533Y0208178D01*
X0273788Y0208640D01*
X0274054Y0209096D01*
X0274331Y0209546D01*
X0274618Y0209988D01*
X0274917Y0210423D01*
X0275226Y0210851D01*
X0275546Y0211271D01*
X0275876Y0211683D01*
X0276215Y0212087D01*
X0276565Y0212483D01*
X0276924Y0212869D01*
X0277293Y0213247D01*
X0277671Y0213616D01*
X0278057Y0213975D01*
X0278453Y0214325D01*
X0278857Y0214664D01*
X0279269Y0214994D01*
X0279689Y0215314D01*
X0280117Y0215623D01*
X0280552Y0215922D01*
X0280994Y0216209D01*
X0281444Y0216486D01*
X0281900Y0216752D01*
X0282362Y0217007D01*
X0282831Y0217250D01*
X0283305Y0217481D01*
X0283785Y0217701D01*
X0284270Y0217909D01*
X0284760Y0218105D01*
X0285255Y0218289D01*
X0285754Y0218461D01*
X0286257Y0218620D01*
X0286764Y0218767D01*
X0287274Y0218901D01*
X0287788Y0219023D01*
X0288304Y0219133D01*
X0288823Y0219229D01*
X0289344Y0219313D01*
X0289867Y0219384D01*
X0290392Y0219442D01*
X0290918Y0219488D01*
X0291445Y0219520D01*
X0291972Y0219540D01*
X0292500Y0219546D01*
X0293028Y0219540D01*
X0293555Y0219520D01*
X0294082Y0219488D01*
X0294608Y0219442D01*
X0295133Y0219384D01*
X0295656Y0219313D01*
X0296177Y0219229D01*
X0296696Y0219133D01*
X0297212Y0219023D01*
X0297726Y0218901D01*
X0298236Y0218767D01*
X0298743Y0218620D01*
X0299246Y0218461D01*
X0299745Y0218289D01*
X0300240Y0218105D01*
X0300730Y0217909D01*
X0301215Y0217701D01*
X0301695Y0217481D01*
X0302169Y0217250D01*
X0302638Y0217007D01*
X0303100Y0216752D01*
X0303556Y0216486D01*
X0304006Y0216209D01*
X0304448Y0215922D01*
X0304883Y0215623D01*
X0305311Y0215314D01*
X0305731Y0214994D01*
X0306143Y0214664D01*
X0306547Y0214325D01*
X0306943Y0213975D01*
X0307329Y0213616D01*
X0307707Y0213247D01*
X0308076Y0212869D01*
X0308435Y0212483D01*
X0308785Y0212087D01*
X0309124Y0211683D01*
X0309454Y0211271D01*
X0309774Y0210851D01*
X0310083Y0210423D01*
X0310382Y0209988D01*
X0310669Y0209546D01*
X0310946Y0209096D01*
X0311212Y0208640D01*
X0311467Y0208178D01*
X0311710Y0207709D01*
X0311941Y0207235D01*
X0312161Y0206755D01*
X0312369Y0206270D01*
X0312565Y0205780D01*
X0312749Y0205285D01*
X0312921Y0204786D01*
X0313080Y0204283D01*
X0313227Y0203776D01*
X0313361Y0203266D01*
X0313483Y0202752D01*
X0313593Y0202236D01*
X0313689Y0201717D01*
X0313773Y0201196D01*
X0313844Y0200673D01*
X0313902Y0200148D01*
X0313948Y0199622D01*
X0313980Y0199095D01*
X0314000Y0198568D01*
X0314006Y0198040D01*
X0314000Y0197512D01*
X0313980Y0196985D01*
X0313948Y0196458D01*
X0313902Y0195932D01*
X0313844Y0195407D01*
X0313773Y0194884D01*
X0313689Y0194363D01*
X0313593Y0193844D01*
X0313483Y0193328D01*
X0313361Y0192814D01*
X0313227Y0192304D01*
X0313080Y0191797D01*
X0312921Y0191294D01*
X0312749Y0190795D01*
X0312565Y0190300D01*
X0312369Y0189810D01*
X0312161Y0189325D01*
X0311941Y0188845D01*
X0311710Y0188371D01*
X0311467Y0187902D01*
X0311212Y0187440D01*
X0310946Y0186984D01*
X0310669Y0186534D01*
X0310382Y0186092D01*
X0310083Y0185657D01*
X0309774Y0185229D01*
X0309454Y0184809D01*
X0309124Y0184397D01*
X0308785Y0183993D01*
X0308435Y0183597D01*
X0308076Y0183211D01*
X0307707Y0182833D01*
X0307329Y0182464D01*
X0306943Y0182105D01*
X0306547Y0181755D01*
X0306143Y0181416D01*
X0305731Y0181086D01*
X0305311Y0180766D01*
X0304883Y0180457D01*
X0304448Y0180158D01*
X0304006Y0179871D01*
X0303556Y0179594D01*
X0303100Y0179328D01*
X0302638Y0179073D01*
X0302169Y0178830D01*
X0301695Y0178599D01*
X0301215Y0178379D01*
X0300730Y0178171D01*
X0300240Y0177975D01*
X0299745Y0177791D01*
X0299246Y0177619D01*
X0298743Y0177460D01*
X0298236Y0177313D01*
X0297726Y0177179D01*
X0297212Y0177057D01*
X0296696Y0176947D01*
X0296177Y0176851D01*
X0295656Y0176767D01*
X0295133Y0176696D01*
X0294608Y0176638D01*
X0294082Y0176592D01*
X0293555Y0176560D01*
X0293028Y0176540D01*
X0292500Y0176534D01*
X0291972Y0176540D01*
X0291445Y0176560D01*
X0290918Y0176592D01*
X0290392Y0176638D01*
X0289867Y0176696D01*
X0289344Y0176767D01*
X0288823Y0176851D01*
X0288304Y0176947D01*
X0287788Y0177057D01*
X0287274Y0177179D01*
X0286764Y0177313D01*
X0286257Y0177460D01*
X0285754Y0177619D01*
X0285255Y0177791D01*
X0284760Y0177975D01*
X0284270Y0178171D01*
X0283785Y0178379D01*
X0283305Y0178599D01*
X0282831Y0178830D01*
X0282362Y0179073D01*
X0281900Y0179328D01*
X0281444Y0179594D01*
X0280994Y0179871D01*
X0280552Y0180158D01*
X0280117Y0180457D01*
X0279689Y0180766D01*
X0279269Y0181086D01*
X0278857Y0181416D01*
X0278453Y0181755D01*
X0278057Y0182105D01*
X0277671Y0182464D01*
X0277293Y0182833D01*
X0276924Y0183211D01*
X0276565Y0183597D01*
X0276215Y0183993D01*
X0275876Y0184397D01*
X0275546Y0184809D01*
X0275226Y0185229D01*
X0274917Y0185657D01*
X0274618Y0186092D01*
X0274331Y0186534D01*
X0274054Y0186984D01*
X0273788Y0187440D01*
X0273533Y0187902D01*
X0273290Y0188371D01*
X0273059Y0188845D01*
X0272839Y0189325D01*
X0272631Y0189810D01*
X0272435Y0190300D01*
X0272251Y0190795D01*
X0272079Y0191294D01*
X0271920Y0191797D01*
X0271773Y0192304D01*
X0271639Y0192814D01*
X0271517Y0193328D01*
X0271407Y0193844D01*
X0271311Y0194363D01*
X0271227Y0194884D01*
X0271156Y0195407D01*
X0271098Y0195932D01*
X0271052Y0196458D01*
X0271020Y0196985D01*
X0271000Y0197512D01*
X0270994Y0198040D01*
X0270994Y0148040D02*
X0271000Y0148568D01*
X0271020Y0149095D01*
X0271052Y0149622D01*
X0271098Y0150148D01*
X0271156Y0150673D01*
X0271227Y0151196D01*
X0271311Y0151717D01*
X0271407Y0152236D01*
X0271517Y0152752D01*
X0271639Y0153266D01*
X0271773Y0153776D01*
X0271920Y0154283D01*
X0272079Y0154786D01*
X0272251Y0155285D01*
X0272435Y0155780D01*
X0272631Y0156270D01*
X0272839Y0156755D01*
X0273059Y0157235D01*
X0273290Y0157709D01*
X0273533Y0158178D01*
X0273788Y0158640D01*
X0274054Y0159096D01*
X0274331Y0159546D01*
X0274618Y0159988D01*
X0274917Y0160423D01*
X0275226Y0160851D01*
X0275546Y0161271D01*
X0275876Y0161683D01*
X0276215Y0162087D01*
X0276565Y0162483D01*
X0276924Y0162869D01*
X0277293Y0163247D01*
X0277671Y0163616D01*
X0278057Y0163975D01*
X0278453Y0164325D01*
X0278857Y0164664D01*
X0279269Y0164994D01*
X0279689Y0165314D01*
X0280117Y0165623D01*
X0280552Y0165922D01*
X0280994Y0166209D01*
X0281444Y0166486D01*
X0281900Y0166752D01*
X0282362Y0167007D01*
X0282831Y0167250D01*
X0283305Y0167481D01*
X0283785Y0167701D01*
X0284270Y0167909D01*
X0284760Y0168105D01*
X0285255Y0168289D01*
X0285754Y0168461D01*
X0286257Y0168620D01*
X0286764Y0168767D01*
X0287274Y0168901D01*
X0287788Y0169023D01*
X0288304Y0169133D01*
X0288823Y0169229D01*
X0289344Y0169313D01*
X0289867Y0169384D01*
X0290392Y0169442D01*
X0290918Y0169488D01*
X0291445Y0169520D01*
X0291972Y0169540D01*
X0292500Y0169546D01*
X0293028Y0169540D01*
X0293555Y0169520D01*
X0294082Y0169488D01*
X0294608Y0169442D01*
X0295133Y0169384D01*
X0295656Y0169313D01*
X0296177Y0169229D01*
X0296696Y0169133D01*
X0297212Y0169023D01*
X0297726Y0168901D01*
X0298236Y0168767D01*
X0298743Y0168620D01*
X0299246Y0168461D01*
X0299745Y0168289D01*
X0300240Y0168105D01*
X0300730Y0167909D01*
X0301215Y0167701D01*
X0301695Y0167481D01*
X0302169Y0167250D01*
X0302638Y0167007D01*
X0303100Y0166752D01*
X0303556Y0166486D01*
X0304006Y0166209D01*
X0304448Y0165922D01*
X0304883Y0165623D01*
X0305311Y0165314D01*
X0305731Y0164994D01*
X0306143Y0164664D01*
X0306547Y0164325D01*
X0306943Y0163975D01*
X0307329Y0163616D01*
X0307707Y0163247D01*
X0308076Y0162869D01*
X0308435Y0162483D01*
X0308785Y0162087D01*
X0309124Y0161683D01*
X0309454Y0161271D01*
X0309774Y0160851D01*
X0310083Y0160423D01*
X0310382Y0159988D01*
X0310669Y0159546D01*
X0310946Y0159096D01*
X0311212Y0158640D01*
X0311467Y0158178D01*
X0311710Y0157709D01*
X0311941Y0157235D01*
X0312161Y0156755D01*
X0312369Y0156270D01*
X0312565Y0155780D01*
X0312749Y0155285D01*
X0312921Y0154786D01*
X0313080Y0154283D01*
X0313227Y0153776D01*
X0313361Y0153266D01*
X0313483Y0152752D01*
X0313593Y0152236D01*
X0313689Y0151717D01*
X0313773Y0151196D01*
X0313844Y0150673D01*
X0313902Y0150148D01*
X0313948Y0149622D01*
X0313980Y0149095D01*
X0314000Y0148568D01*
X0314006Y0148040D01*
X0314000Y0147512D01*
X0313980Y0146985D01*
X0313948Y0146458D01*
X0313902Y0145932D01*
X0313844Y0145407D01*
X0313773Y0144884D01*
X0313689Y0144363D01*
X0313593Y0143844D01*
X0313483Y0143328D01*
X0313361Y0142814D01*
X0313227Y0142304D01*
X0313080Y0141797D01*
X0312921Y0141294D01*
X0312749Y0140795D01*
X0312565Y0140300D01*
X0312369Y0139810D01*
X0312161Y0139325D01*
X0311941Y0138845D01*
X0311710Y0138371D01*
X0311467Y0137902D01*
X0311212Y0137440D01*
X0310946Y0136984D01*
X0310669Y0136534D01*
X0310382Y0136092D01*
X0310083Y0135657D01*
X0309774Y0135229D01*
X0309454Y0134809D01*
X0309124Y0134397D01*
X0308785Y0133993D01*
X0308435Y0133597D01*
X0308076Y0133211D01*
X0307707Y0132833D01*
X0307329Y0132464D01*
X0306943Y0132105D01*
X0306547Y0131755D01*
X0306143Y0131416D01*
X0305731Y0131086D01*
X0305311Y0130766D01*
X0304883Y0130457D01*
X0304448Y0130158D01*
X0304006Y0129871D01*
X0303556Y0129594D01*
X0303100Y0129328D01*
X0302638Y0129073D01*
X0302169Y0128830D01*
X0301695Y0128599D01*
X0301215Y0128379D01*
X0300730Y0128171D01*
X0300240Y0127975D01*
X0299745Y0127791D01*
X0299246Y0127619D01*
X0298743Y0127460D01*
X0298236Y0127313D01*
X0297726Y0127179D01*
X0297212Y0127057D01*
X0296696Y0126947D01*
X0296177Y0126851D01*
X0295656Y0126767D01*
X0295133Y0126696D01*
X0294608Y0126638D01*
X0294082Y0126592D01*
X0293555Y0126560D01*
X0293028Y0126540D01*
X0292500Y0126534D01*
X0291972Y0126540D01*
X0291445Y0126560D01*
X0290918Y0126592D01*
X0290392Y0126638D01*
X0289867Y0126696D01*
X0289344Y0126767D01*
X0288823Y0126851D01*
X0288304Y0126947D01*
X0287788Y0127057D01*
X0287274Y0127179D01*
X0286764Y0127313D01*
X0286257Y0127460D01*
X0285754Y0127619D01*
X0285255Y0127791D01*
X0284760Y0127975D01*
X0284270Y0128171D01*
X0283785Y0128379D01*
X0283305Y0128599D01*
X0282831Y0128830D01*
X0282362Y0129073D01*
X0281900Y0129328D01*
X0281444Y0129594D01*
X0280994Y0129871D01*
X0280552Y0130158D01*
X0280117Y0130457D01*
X0279689Y0130766D01*
X0279269Y0131086D01*
X0278857Y0131416D01*
X0278453Y0131755D01*
X0278057Y0132105D01*
X0277671Y0132464D01*
X0277293Y0132833D01*
X0276924Y0133211D01*
X0276565Y0133597D01*
X0276215Y0133993D01*
X0275876Y0134397D01*
X0275546Y0134809D01*
X0275226Y0135229D01*
X0274917Y0135657D01*
X0274618Y0136092D01*
X0274331Y0136534D01*
X0274054Y0136984D01*
X0273788Y0137440D01*
X0273533Y0137902D01*
X0273290Y0138371D01*
X0273059Y0138845D01*
X0272839Y0139325D01*
X0272631Y0139810D01*
X0272435Y0140300D01*
X0272251Y0140795D01*
X0272079Y0141294D01*
X0271920Y0141797D01*
X0271773Y0142304D01*
X0271639Y0142814D01*
X0271517Y0143328D01*
X0271407Y0143844D01*
X0271311Y0144363D01*
X0271227Y0144884D01*
X0271156Y0145407D01*
X0271098Y0145932D01*
X0271052Y0146458D01*
X0271020Y0146985D01*
X0271000Y0147512D01*
X0270994Y0148040D01*
X0394472Y0193040D02*
X0394477Y0193482D01*
X0394494Y0193925D01*
X0394521Y0194366D01*
X0394559Y0194807D01*
X0394608Y0195247D01*
X0394667Y0195685D01*
X0394737Y0196122D01*
X0394818Y0196557D01*
X0394910Y0196990D01*
X0395012Y0197420D01*
X0395125Y0197848D01*
X0395248Y0198273D01*
X0395382Y0198695D01*
X0395526Y0199113D01*
X0395680Y0199528D01*
X0395844Y0199939D01*
X0396019Y0200346D01*
X0396203Y0200748D01*
X0396397Y0201146D01*
X0396601Y0201538D01*
X0396814Y0201926D01*
X0397037Y0202308D01*
X0397269Y0202685D01*
X0397510Y0203056D01*
X0397761Y0203421D01*
X0398020Y0203779D01*
X0398288Y0204131D01*
X0398564Y0204477D01*
X0398849Y0204815D01*
X0399142Y0205147D01*
X0399443Y0205471D01*
X0399752Y0205788D01*
X0400069Y0206097D01*
X0400393Y0206398D01*
X0400725Y0206691D01*
X0401063Y0206976D01*
X0401409Y0207252D01*
X0401761Y0207520D01*
X0402119Y0207779D01*
X0402484Y0208030D01*
X0402855Y0208271D01*
X0403232Y0208503D01*
X0403614Y0208726D01*
X0404002Y0208939D01*
X0404394Y0209143D01*
X0404792Y0209337D01*
X0405194Y0209521D01*
X0405601Y0209696D01*
X0406012Y0209860D01*
X0406427Y0210014D01*
X0406845Y0210158D01*
X0407267Y0210292D01*
X0407692Y0210415D01*
X0408120Y0210528D01*
X0408550Y0210630D01*
X0408983Y0210722D01*
X0409418Y0210803D01*
X0409855Y0210873D01*
X0410293Y0210932D01*
X0410733Y0210981D01*
X0411174Y0211019D01*
X0411615Y0211046D01*
X0412058Y0211063D01*
X0412500Y0211068D01*
X0412942Y0211063D01*
X0413385Y0211046D01*
X0413826Y0211019D01*
X0414267Y0210981D01*
X0414707Y0210932D01*
X0415145Y0210873D01*
X0415582Y0210803D01*
X0416017Y0210722D01*
X0416450Y0210630D01*
X0416880Y0210528D01*
X0417308Y0210415D01*
X0417733Y0210292D01*
X0418155Y0210158D01*
X0418573Y0210014D01*
X0418988Y0209860D01*
X0419399Y0209696D01*
X0419806Y0209521D01*
X0420208Y0209337D01*
X0420606Y0209143D01*
X0420998Y0208939D01*
X0421386Y0208726D01*
X0421768Y0208503D01*
X0422145Y0208271D01*
X0422516Y0208030D01*
X0422881Y0207779D01*
X0423239Y0207520D01*
X0423591Y0207252D01*
X0423937Y0206976D01*
X0424275Y0206691D01*
X0424607Y0206398D01*
X0424931Y0206097D01*
X0425248Y0205788D01*
X0425557Y0205471D01*
X0425858Y0205147D01*
X0426151Y0204815D01*
X0426436Y0204477D01*
X0426712Y0204131D01*
X0426980Y0203779D01*
X0427239Y0203421D01*
X0427490Y0203056D01*
X0427731Y0202685D01*
X0427963Y0202308D01*
X0428186Y0201926D01*
X0428399Y0201538D01*
X0428603Y0201146D01*
X0428797Y0200748D01*
X0428981Y0200346D01*
X0429156Y0199939D01*
X0429320Y0199528D01*
X0429474Y0199113D01*
X0429618Y0198695D01*
X0429752Y0198273D01*
X0429875Y0197848D01*
X0429988Y0197420D01*
X0430090Y0196990D01*
X0430182Y0196557D01*
X0430263Y0196122D01*
X0430333Y0195685D01*
X0430392Y0195247D01*
X0430441Y0194807D01*
X0430479Y0194366D01*
X0430506Y0193925D01*
X0430523Y0193482D01*
X0430528Y0193040D01*
X0430523Y0192598D01*
X0430506Y0192155D01*
X0430479Y0191714D01*
X0430441Y0191273D01*
X0430392Y0190833D01*
X0430333Y0190395D01*
X0430263Y0189958D01*
X0430182Y0189523D01*
X0430090Y0189090D01*
X0429988Y0188660D01*
X0429875Y0188232D01*
X0429752Y0187807D01*
X0429618Y0187385D01*
X0429474Y0186967D01*
X0429320Y0186552D01*
X0429156Y0186141D01*
X0428981Y0185734D01*
X0428797Y0185332D01*
X0428603Y0184934D01*
X0428399Y0184542D01*
X0428186Y0184154D01*
X0427963Y0183772D01*
X0427731Y0183395D01*
X0427490Y0183024D01*
X0427239Y0182659D01*
X0426980Y0182301D01*
X0426712Y0181949D01*
X0426436Y0181603D01*
X0426151Y0181265D01*
X0425858Y0180933D01*
X0425557Y0180609D01*
X0425248Y0180292D01*
X0424931Y0179983D01*
X0424607Y0179682D01*
X0424275Y0179389D01*
X0423937Y0179104D01*
X0423591Y0178828D01*
X0423239Y0178560D01*
X0422881Y0178301D01*
X0422516Y0178050D01*
X0422145Y0177809D01*
X0421768Y0177577D01*
X0421386Y0177354D01*
X0420998Y0177141D01*
X0420606Y0176937D01*
X0420208Y0176743D01*
X0419806Y0176559D01*
X0419399Y0176384D01*
X0418988Y0176220D01*
X0418573Y0176066D01*
X0418155Y0175922D01*
X0417733Y0175788D01*
X0417308Y0175665D01*
X0416880Y0175552D01*
X0416450Y0175450D01*
X0416017Y0175358D01*
X0415582Y0175277D01*
X0415145Y0175207D01*
X0414707Y0175148D01*
X0414267Y0175099D01*
X0413826Y0175061D01*
X0413385Y0175034D01*
X0412942Y0175017D01*
X0412500Y0175012D01*
X0412058Y0175017D01*
X0411615Y0175034D01*
X0411174Y0175061D01*
X0410733Y0175099D01*
X0410293Y0175148D01*
X0409855Y0175207D01*
X0409418Y0175277D01*
X0408983Y0175358D01*
X0408550Y0175450D01*
X0408120Y0175552D01*
X0407692Y0175665D01*
X0407267Y0175788D01*
X0406845Y0175922D01*
X0406427Y0176066D01*
X0406012Y0176220D01*
X0405601Y0176384D01*
X0405194Y0176559D01*
X0404792Y0176743D01*
X0404394Y0176937D01*
X0404002Y0177141D01*
X0403614Y0177354D01*
X0403232Y0177577D01*
X0402855Y0177809D01*
X0402484Y0178050D01*
X0402119Y0178301D01*
X0401761Y0178560D01*
X0401409Y0178828D01*
X0401063Y0179104D01*
X0400725Y0179389D01*
X0400393Y0179682D01*
X0400069Y0179983D01*
X0399752Y0180292D01*
X0399443Y0180609D01*
X0399142Y0180933D01*
X0398849Y0181265D01*
X0398564Y0181603D01*
X0398288Y0181949D01*
X0398020Y0182301D01*
X0397761Y0182659D01*
X0397510Y0183024D01*
X0397269Y0183395D01*
X0397037Y0183772D01*
X0396814Y0184154D01*
X0396601Y0184542D01*
X0396397Y0184934D01*
X0396203Y0185332D01*
X0396019Y0185734D01*
X0395844Y0186141D01*
X0395680Y0186552D01*
X0395526Y0186967D01*
X0395382Y0187385D01*
X0395248Y0187807D01*
X0395125Y0188232D01*
X0395012Y0188660D01*
X0394910Y0189090D01*
X0394818Y0189523D01*
X0394737Y0189958D01*
X0394667Y0190395D01*
X0394608Y0190833D01*
X0394559Y0191273D01*
X0394521Y0191714D01*
X0394494Y0192155D01*
X0394477Y0192598D01*
X0394472Y0193040D01*
D13*
X0442500Y0225540D02*
X0442742Y0225537D01*
X0442983Y0225528D01*
X0443224Y0225514D01*
X0443465Y0225493D01*
X0443705Y0225467D01*
X0443945Y0225435D01*
X0444184Y0225397D01*
X0444421Y0225354D01*
X0444658Y0225304D01*
X0444893Y0225249D01*
X0445127Y0225189D01*
X0445359Y0225122D01*
X0445590Y0225051D01*
X0445819Y0224973D01*
X0446046Y0224890D01*
X0446271Y0224802D01*
X0446494Y0224708D01*
X0446714Y0224609D01*
X0446932Y0224504D01*
X0447147Y0224395D01*
X0447360Y0224280D01*
X0447570Y0224160D01*
X0447776Y0224035D01*
X0447980Y0223905D01*
X0448181Y0223770D01*
X0448378Y0223630D01*
X0448572Y0223486D01*
X0448762Y0223337D01*
X0448948Y0223183D01*
X0449131Y0223025D01*
X0449310Y0222863D01*
X0449485Y0222696D01*
X0449656Y0222525D01*
X0449823Y0222350D01*
X0449985Y0222171D01*
X0450143Y0221988D01*
X0450297Y0221802D01*
X0450446Y0221612D01*
X0450590Y0221418D01*
X0450730Y0221221D01*
X0450865Y0221020D01*
X0450995Y0220816D01*
X0451120Y0220610D01*
X0451240Y0220400D01*
X0451355Y0220187D01*
X0451464Y0219972D01*
X0451569Y0219754D01*
X0451668Y0219534D01*
X0451762Y0219311D01*
X0451850Y0219086D01*
X0451933Y0218859D01*
X0452011Y0218630D01*
X0452082Y0218399D01*
X0452149Y0218167D01*
X0452209Y0217933D01*
X0452264Y0217698D01*
X0452314Y0217461D01*
X0452357Y0217224D01*
X0452395Y0216985D01*
X0452427Y0216745D01*
X0452453Y0216505D01*
X0452474Y0216264D01*
X0452488Y0216023D01*
X0452497Y0215782D01*
X0452500Y0215540D01*
X0452500Y0133040D01*
X0452497Y0132798D01*
X0452488Y0132557D01*
X0452474Y0132316D01*
X0452453Y0132075D01*
X0452427Y0131835D01*
X0452395Y0131595D01*
X0452357Y0131356D01*
X0452314Y0131119D01*
X0452264Y0130882D01*
X0452209Y0130647D01*
X0452149Y0130413D01*
X0452082Y0130181D01*
X0452011Y0129950D01*
X0451933Y0129721D01*
X0451850Y0129494D01*
X0451762Y0129269D01*
X0451668Y0129046D01*
X0451569Y0128826D01*
X0451464Y0128608D01*
X0451355Y0128393D01*
X0451240Y0128180D01*
X0451120Y0127970D01*
X0450995Y0127764D01*
X0450865Y0127560D01*
X0450730Y0127359D01*
X0450590Y0127162D01*
X0450446Y0126968D01*
X0450297Y0126778D01*
X0450143Y0126592D01*
X0449985Y0126409D01*
X0449823Y0126230D01*
X0449656Y0126055D01*
X0449485Y0125884D01*
X0449310Y0125717D01*
X0449131Y0125555D01*
X0448948Y0125397D01*
X0448762Y0125243D01*
X0448572Y0125094D01*
X0448378Y0124950D01*
X0448181Y0124810D01*
X0447980Y0124675D01*
X0447776Y0124545D01*
X0447570Y0124420D01*
X0447360Y0124300D01*
X0447147Y0124185D01*
X0446932Y0124076D01*
X0446714Y0123971D01*
X0446494Y0123872D01*
X0446271Y0123778D01*
X0446046Y0123690D01*
X0445819Y0123607D01*
X0445590Y0123529D01*
X0445359Y0123458D01*
X0445127Y0123391D01*
X0444893Y0123331D01*
X0444658Y0123276D01*
X0444421Y0123226D01*
X0444184Y0123183D01*
X0443945Y0123145D01*
X0443705Y0123113D01*
X0443465Y0123087D01*
X0443224Y0123066D01*
X0442983Y0123052D01*
X0442742Y0123043D01*
X0442500Y0123040D01*
X0265000Y0123040D01*
X0264819Y0123042D01*
X0264638Y0123049D01*
X0264457Y0123060D01*
X0264276Y0123075D01*
X0264096Y0123095D01*
X0263916Y0123119D01*
X0263737Y0123147D01*
X0263559Y0123180D01*
X0263382Y0123217D01*
X0263205Y0123258D01*
X0263030Y0123303D01*
X0262855Y0123353D01*
X0262682Y0123407D01*
X0262511Y0123465D01*
X0262340Y0123527D01*
X0262172Y0123594D01*
X0262005Y0123664D01*
X0261839Y0123738D01*
X0261676Y0123817D01*
X0261515Y0123899D01*
X0261355Y0123985D01*
X0261198Y0124075D01*
X0261043Y0124169D01*
X0260890Y0124266D01*
X0260740Y0124368D01*
X0260592Y0124472D01*
X0260446Y0124581D01*
X0260304Y0124692D01*
X0260164Y0124808D01*
X0260027Y0124926D01*
X0259892Y0125048D01*
X0259761Y0125173D01*
X0259633Y0125301D01*
X0259508Y0125432D01*
X0259386Y0125567D01*
X0259268Y0125704D01*
X0259152Y0125844D01*
X0259041Y0125986D01*
X0258932Y0126132D01*
X0258828Y0126280D01*
X0258726Y0126430D01*
X0258629Y0126583D01*
X0258535Y0126738D01*
X0258445Y0126895D01*
X0258359Y0127055D01*
X0258277Y0127216D01*
X0258198Y0127379D01*
X0258124Y0127545D01*
X0258054Y0127712D01*
X0257987Y0127880D01*
X0257925Y0128051D01*
X0257867Y0128222D01*
X0257813Y0128395D01*
X0257763Y0128570D01*
X0257718Y0128745D01*
X0257677Y0128922D01*
X0257640Y0129099D01*
X0257607Y0129277D01*
X0257579Y0129456D01*
X0257555Y0129636D01*
X0257535Y0129816D01*
X0257520Y0129997D01*
X0257509Y0130178D01*
X0257502Y0130359D01*
X0257500Y0130540D01*
X0257500Y0218040D01*
X0257502Y0218221D01*
X0257509Y0218402D01*
X0257520Y0218583D01*
X0257535Y0218764D01*
X0257555Y0218944D01*
X0257579Y0219124D01*
X0257607Y0219303D01*
X0257640Y0219481D01*
X0257677Y0219658D01*
X0257718Y0219835D01*
X0257763Y0220010D01*
X0257813Y0220185D01*
X0257867Y0220358D01*
X0257925Y0220529D01*
X0257987Y0220700D01*
X0258054Y0220868D01*
X0258124Y0221035D01*
X0258198Y0221201D01*
X0258277Y0221364D01*
X0258359Y0221525D01*
X0258445Y0221685D01*
X0258535Y0221842D01*
X0258629Y0221997D01*
X0258726Y0222150D01*
X0258828Y0222300D01*
X0258932Y0222448D01*
X0259041Y0222594D01*
X0259152Y0222736D01*
X0259268Y0222876D01*
X0259386Y0223013D01*
X0259508Y0223148D01*
X0259633Y0223279D01*
X0259761Y0223407D01*
X0259892Y0223532D01*
X0260027Y0223654D01*
X0260164Y0223772D01*
X0260304Y0223888D01*
X0260446Y0223999D01*
X0260592Y0224108D01*
X0260740Y0224212D01*
X0260890Y0224314D01*
X0261043Y0224411D01*
X0261198Y0224505D01*
X0261355Y0224595D01*
X0261515Y0224681D01*
X0261676Y0224763D01*
X0261839Y0224842D01*
X0262005Y0224916D01*
X0262172Y0224986D01*
X0262340Y0225053D01*
X0262511Y0225115D01*
X0262682Y0225173D01*
X0262855Y0225227D01*
X0263030Y0225277D01*
X0263205Y0225322D01*
X0263382Y0225363D01*
X0263559Y0225400D01*
X0263737Y0225433D01*
X0263916Y0225461D01*
X0264096Y0225485D01*
X0264276Y0225505D01*
X0264457Y0225520D01*
X0264638Y0225531D01*
X0264819Y0225538D01*
X0265000Y0225540D01*
X0442500Y0225540D01*
X0472500Y0230540D02*
X0472500Y0118040D01*
X0240000Y0130540D02*
X0240000Y0213040D01*
X0239997Y0213282D01*
X0239988Y0213523D01*
X0239974Y0213764D01*
X0239953Y0214005D01*
X0239927Y0214245D01*
X0239895Y0214485D01*
X0239857Y0214724D01*
X0239814Y0214961D01*
X0239764Y0215198D01*
X0239709Y0215433D01*
X0239649Y0215667D01*
X0239582Y0215899D01*
X0239511Y0216130D01*
X0239433Y0216359D01*
X0239350Y0216586D01*
X0239262Y0216811D01*
X0239168Y0217034D01*
X0239069Y0217254D01*
X0238964Y0217472D01*
X0238855Y0217687D01*
X0238740Y0217900D01*
X0238620Y0218110D01*
X0238495Y0218316D01*
X0238365Y0218520D01*
X0238230Y0218721D01*
X0238090Y0218918D01*
X0237946Y0219112D01*
X0237797Y0219302D01*
X0237643Y0219488D01*
X0237485Y0219671D01*
X0237323Y0219850D01*
X0237156Y0220025D01*
X0236985Y0220196D01*
X0236810Y0220363D01*
X0236631Y0220525D01*
X0236448Y0220683D01*
X0236262Y0220837D01*
X0236072Y0220986D01*
X0235878Y0221130D01*
X0235681Y0221270D01*
X0235480Y0221405D01*
X0235276Y0221535D01*
X0235070Y0221660D01*
X0234860Y0221780D01*
X0234647Y0221895D01*
X0234432Y0222004D01*
X0234214Y0222109D01*
X0233994Y0222208D01*
X0233771Y0222302D01*
X0233546Y0222390D01*
X0233319Y0222473D01*
X0233090Y0222551D01*
X0232859Y0222622D01*
X0232627Y0222689D01*
X0232393Y0222749D01*
X0232158Y0222804D01*
X0231921Y0222854D01*
X0231684Y0222897D01*
X0231445Y0222935D01*
X0231205Y0222967D01*
X0230965Y0222993D01*
X0230724Y0223014D01*
X0230483Y0223028D01*
X0230242Y0223037D01*
X0230000Y0223040D01*
X0052500Y0223040D01*
X0052319Y0223038D01*
X0052138Y0223031D01*
X0051957Y0223020D01*
X0051776Y0223005D01*
X0051596Y0222985D01*
X0051416Y0222961D01*
X0051237Y0222933D01*
X0051059Y0222900D01*
X0050882Y0222863D01*
X0050705Y0222822D01*
X0050530Y0222777D01*
X0050355Y0222727D01*
X0050182Y0222673D01*
X0050011Y0222615D01*
X0049840Y0222553D01*
X0049672Y0222486D01*
X0049505Y0222416D01*
X0049339Y0222342D01*
X0049176Y0222263D01*
X0049015Y0222181D01*
X0048855Y0222095D01*
X0048698Y0222005D01*
X0048543Y0221911D01*
X0048390Y0221814D01*
X0048240Y0221712D01*
X0048092Y0221608D01*
X0047946Y0221499D01*
X0047804Y0221388D01*
X0047664Y0221272D01*
X0047527Y0221154D01*
X0047392Y0221032D01*
X0047261Y0220907D01*
X0047133Y0220779D01*
X0047008Y0220648D01*
X0046886Y0220513D01*
X0046768Y0220376D01*
X0046652Y0220236D01*
X0046541Y0220094D01*
X0046432Y0219948D01*
X0046328Y0219800D01*
X0046226Y0219650D01*
X0046129Y0219497D01*
X0046035Y0219342D01*
X0045945Y0219185D01*
X0045859Y0219025D01*
X0045777Y0218864D01*
X0045698Y0218701D01*
X0045624Y0218535D01*
X0045554Y0218368D01*
X0045487Y0218200D01*
X0045425Y0218029D01*
X0045367Y0217858D01*
X0045313Y0217685D01*
X0045263Y0217510D01*
X0045218Y0217335D01*
X0045177Y0217158D01*
X0045140Y0216981D01*
X0045107Y0216803D01*
X0045079Y0216624D01*
X0045055Y0216444D01*
X0045035Y0216264D01*
X0045020Y0216083D01*
X0045009Y0215902D01*
X0045002Y0215721D01*
X0045000Y0215540D01*
X0045000Y0128040D01*
X0045002Y0127859D01*
X0045009Y0127678D01*
X0045020Y0127497D01*
X0045035Y0127316D01*
X0045055Y0127136D01*
X0045079Y0126956D01*
X0045107Y0126777D01*
X0045140Y0126599D01*
X0045177Y0126422D01*
X0045218Y0126245D01*
X0045263Y0126070D01*
X0045313Y0125895D01*
X0045367Y0125722D01*
X0045425Y0125551D01*
X0045487Y0125380D01*
X0045554Y0125212D01*
X0045624Y0125045D01*
X0045698Y0124879D01*
X0045777Y0124716D01*
X0045859Y0124555D01*
X0045945Y0124395D01*
X0046035Y0124238D01*
X0046129Y0124083D01*
X0046226Y0123930D01*
X0046328Y0123780D01*
X0046432Y0123632D01*
X0046541Y0123486D01*
X0046652Y0123344D01*
X0046768Y0123204D01*
X0046886Y0123067D01*
X0047008Y0122932D01*
X0047133Y0122801D01*
X0047261Y0122673D01*
X0047392Y0122548D01*
X0047527Y0122426D01*
X0047664Y0122308D01*
X0047804Y0122192D01*
X0047946Y0122081D01*
X0048092Y0121972D01*
X0048240Y0121868D01*
X0048390Y0121766D01*
X0048543Y0121669D01*
X0048698Y0121575D01*
X0048855Y0121485D01*
X0049015Y0121399D01*
X0049176Y0121317D01*
X0049339Y0121238D01*
X0049505Y0121164D01*
X0049672Y0121094D01*
X0049840Y0121027D01*
X0050011Y0120965D01*
X0050182Y0120907D01*
X0050355Y0120853D01*
X0050530Y0120803D01*
X0050705Y0120758D01*
X0050882Y0120717D01*
X0051059Y0120680D01*
X0051237Y0120647D01*
X0051416Y0120619D01*
X0051596Y0120595D01*
X0051776Y0120575D01*
X0051957Y0120560D01*
X0052138Y0120549D01*
X0052319Y0120542D01*
X0052500Y0120540D01*
X0230000Y0120540D01*
X0230242Y0120543D01*
X0230483Y0120552D01*
X0230724Y0120566D01*
X0230965Y0120587D01*
X0231205Y0120613D01*
X0231445Y0120645D01*
X0231684Y0120683D01*
X0231921Y0120726D01*
X0232158Y0120776D01*
X0232393Y0120831D01*
X0232627Y0120891D01*
X0232859Y0120958D01*
X0233090Y0121029D01*
X0233319Y0121107D01*
X0233546Y0121190D01*
X0233771Y0121278D01*
X0233994Y0121372D01*
X0234214Y0121471D01*
X0234432Y0121576D01*
X0234647Y0121685D01*
X0234860Y0121800D01*
X0235070Y0121920D01*
X0235276Y0122045D01*
X0235480Y0122175D01*
X0235681Y0122310D01*
X0235878Y0122450D01*
X0236072Y0122594D01*
X0236262Y0122743D01*
X0236448Y0122897D01*
X0236631Y0123055D01*
X0236810Y0123217D01*
X0236985Y0123384D01*
X0237156Y0123555D01*
X0237323Y0123730D01*
X0237485Y0123909D01*
X0237643Y0124092D01*
X0237797Y0124278D01*
X0237946Y0124468D01*
X0238090Y0124662D01*
X0238230Y0124859D01*
X0238365Y0125060D01*
X0238495Y0125264D01*
X0238620Y0125470D01*
X0238740Y0125680D01*
X0238855Y0125893D01*
X0238964Y0126108D01*
X0239069Y0126326D01*
X0239168Y0126546D01*
X0239262Y0126769D01*
X0239350Y0126994D01*
X0239433Y0127221D01*
X0239511Y0127450D01*
X0239582Y0127681D01*
X0239649Y0127913D01*
X0239709Y0128147D01*
X0239764Y0128382D01*
X0239814Y0128619D01*
X0239857Y0128856D01*
X0239895Y0129095D01*
X0239927Y0129335D01*
X0239953Y0129575D01*
X0239974Y0129816D01*
X0239988Y0130057D01*
X0239997Y0130298D01*
X0240000Y0130540D01*
X0032500Y0113040D02*
X0032500Y0233040D01*
D14*
X0108100Y0218805D02*
X0108100Y0216537D01*
X0109234Y0215403D01*
X0113772Y0215403D01*
X0114906Y0216537D01*
X0114906Y0218805D01*
X0113772Y0219940D01*
X0109234Y0219940D01*
X0108100Y0218805D01*
X0109234Y0212573D02*
X0108100Y0211439D01*
X0108100Y0209171D01*
X0109234Y0208036D01*
X0114906Y0208036D01*
X0114906Y0205207D02*
X0114906Y0200670D01*
X0114906Y0202939D02*
X0108100Y0202939D01*
X0109234Y0212573D02*
X0114906Y0212573D01*
X0114906Y0183108D02*
X0108100Y0183108D01*
X0108100Y0179705D01*
X0109234Y0178571D01*
X0110369Y0178571D01*
X0111503Y0179705D01*
X0111503Y0183108D01*
X0111503Y0179705D02*
X0112637Y0178571D01*
X0113772Y0178571D01*
X0114906Y0179705D01*
X0114906Y0183108D01*
X0114906Y0164940D02*
X0114906Y0162671D01*
X0114906Y0163805D02*
X0108100Y0163805D01*
X0108100Y0162671D02*
X0108100Y0164940D01*
X0108100Y0160029D02*
X0114906Y0160029D01*
X0108100Y0155492D01*
X0114906Y0155492D01*
X0114906Y0137930D02*
X0108100Y0137930D01*
X0108100Y0134527D01*
X0109234Y0133393D01*
X0110369Y0133393D01*
X0111503Y0134527D01*
X0111503Y0137930D01*
X0114906Y0137930D02*
X0114906Y0134527D01*
X0113772Y0133393D01*
X0112637Y0133393D01*
X0111503Y0134527D01*
X0160600Y0136938D02*
X0160600Y0140341D01*
X0167406Y0140341D01*
X0167406Y0136938D01*
X0166272Y0135804D01*
X0165137Y0135804D01*
X0164003Y0136938D01*
X0164003Y0140341D01*
X0164003Y0136938D02*
X0162869Y0135804D01*
X0161734Y0135804D01*
X0160600Y0136938D01*
X0162869Y0150536D02*
X0167406Y0150536D01*
X0162869Y0150536D02*
X0160600Y0152805D01*
X0162869Y0155073D01*
X0167406Y0155073D01*
X0166272Y0157903D02*
X0167406Y0159037D01*
X0167406Y0161305D01*
X0166272Y0162440D01*
X0161734Y0162440D01*
X0160600Y0161305D01*
X0160600Y0159037D01*
X0161734Y0157903D01*
X0228100Y0174661D02*
X0229234Y0173527D01*
X0230369Y0173527D01*
X0231503Y0174661D01*
X0231503Y0178064D01*
X0228100Y0178064D02*
X0234906Y0178064D01*
X0234906Y0174661D01*
X0233772Y0173527D01*
X0232637Y0173527D01*
X0231503Y0174661D01*
X0228100Y0174661D02*
X0228100Y0178064D01*
X0228100Y0188259D02*
X0234906Y0188259D01*
X0234906Y0192796D02*
X0228100Y0188259D01*
X0228100Y0192796D02*
X0234906Y0192796D01*
X0234906Y0195439D02*
X0234906Y0197707D01*
X0234906Y0196573D02*
X0228100Y0196573D01*
X0228100Y0197707D02*
X0228100Y0195439D01*
X0228100Y0200536D02*
X0232637Y0200536D01*
X0234906Y0202805D01*
X0232637Y0205073D01*
X0228100Y0205073D01*
X0229234Y0207903D02*
X0231503Y0207903D01*
X0231503Y0210171D01*
X0233772Y0207903D02*
X0234906Y0209037D01*
X0234906Y0211305D01*
X0233772Y0212440D01*
X0229234Y0212440D01*
X0228100Y0211305D01*
X0228100Y0209037D01*
X0229234Y0207903D01*
X0231503Y0205073D02*
X0231503Y0200536D01*
X0318100Y0202939D02*
X0324906Y0202939D01*
X0324906Y0205207D02*
X0324906Y0200670D01*
X0324906Y0208036D02*
X0319234Y0208036D01*
X0318100Y0209171D01*
X0318100Y0211439D01*
X0319234Y0212573D01*
X0324906Y0212573D01*
X0323772Y0215403D02*
X0319234Y0215403D01*
X0318100Y0216537D01*
X0318100Y0218805D01*
X0319234Y0219940D01*
X0323772Y0219940D01*
X0324906Y0218805D01*
X0324906Y0216537D01*
X0323772Y0215403D01*
X0322637Y0183108D02*
X0318100Y0183108D01*
X0321503Y0183108D02*
X0321503Y0178571D01*
X0322637Y0178571D02*
X0318100Y0178571D01*
X0322637Y0178571D02*
X0324906Y0180840D01*
X0322637Y0183108D01*
X0324906Y0164940D02*
X0324906Y0162671D01*
X0324906Y0163805D02*
X0318100Y0163805D01*
X0318100Y0162671D02*
X0318100Y0164940D01*
X0318100Y0160029D02*
X0324906Y0160029D01*
X0318100Y0155492D01*
X0324906Y0155492D01*
X0324906Y0137930D02*
X0318100Y0137930D01*
X0318100Y0134527D01*
X0319234Y0133393D01*
X0320369Y0133393D01*
X0321503Y0134527D01*
X0321503Y0137930D01*
X0324906Y0137930D02*
X0324906Y0134527D01*
X0323772Y0133393D01*
X0322637Y0133393D01*
X0321503Y0134527D01*
X0370600Y0135804D02*
X0375137Y0135804D01*
X0377406Y0138072D01*
X0375137Y0140341D01*
X0370600Y0140341D01*
X0374003Y0140341D02*
X0374003Y0135804D01*
X0372869Y0150536D02*
X0377406Y0150536D01*
X0372869Y0150536D02*
X0370600Y0152805D01*
X0372869Y0155073D01*
X0377406Y0155073D01*
X0376272Y0157903D02*
X0377406Y0159037D01*
X0377406Y0161305D01*
X0376272Y0162440D01*
X0371734Y0162440D01*
X0370600Y0161305D01*
X0370600Y0159037D01*
X0371734Y0157903D01*
X0440600Y0173527D02*
X0445137Y0173527D01*
X0447406Y0175795D01*
X0445137Y0178064D01*
X0440600Y0178064D01*
X0444003Y0178064D02*
X0444003Y0173527D01*
X0440600Y0188259D02*
X0447406Y0188259D01*
X0447406Y0192796D02*
X0440600Y0188259D01*
X0440600Y0192796D02*
X0447406Y0192796D01*
X0447406Y0195439D02*
X0447406Y0197707D01*
X0447406Y0196573D02*
X0440600Y0196573D01*
X0440600Y0197707D02*
X0440600Y0195439D01*
X0440600Y0200536D02*
X0445137Y0200536D01*
X0447406Y0202805D01*
X0445137Y0205073D01*
X0440600Y0205073D01*
X0441734Y0207903D02*
X0444003Y0207903D01*
X0444003Y0210171D01*
X0446272Y0207903D02*
X0447406Y0209037D01*
X0447406Y0211305D01*
X0446272Y0212440D01*
X0441734Y0212440D01*
X0440600Y0211305D01*
X0440600Y0209037D01*
X0441734Y0207903D01*
X0444003Y0205073D02*
X0444003Y0200536D01*
D15*
X0485953Y0199318D02*
X0489243Y0202608D01*
X0488146Y0203704D02*
X0492533Y0199318D01*
X0492533Y0203704D02*
X0485953Y0203704D01*
X0487050Y0206568D02*
X0491436Y0206568D01*
X0492533Y0207665D01*
X0492533Y0210954D01*
X0485953Y0210954D01*
X0485953Y0207665D01*
X0487050Y0206568D01*
X0485953Y0213818D02*
X0488146Y0216012D01*
X0488146Y0214915D02*
X0488146Y0218205D01*
X0485953Y0218205D02*
X0492533Y0218205D01*
X0492533Y0214915D01*
X0491436Y0213818D01*
X0489243Y0213818D01*
X0488146Y0214915D01*
X0485953Y0152952D02*
X0485953Y0149662D01*
X0487050Y0148566D01*
X0491436Y0148566D01*
X0492533Y0149662D01*
X0492533Y0152952D01*
X0485953Y0152952D01*
X0487050Y0145702D02*
X0485953Y0144605D01*
X0485953Y0142412D01*
X0487050Y0141315D01*
X0488146Y0141315D01*
X0489243Y0142412D01*
X0489243Y0144605D01*
X0490340Y0145702D01*
X0491436Y0145702D01*
X0492533Y0144605D01*
X0492533Y0142412D01*
X0491436Y0141315D01*
X0490340Y0138452D02*
X0485953Y0138452D01*
X0489243Y0138452D02*
X0489243Y0134065D01*
X0490340Y0134065D02*
X0485953Y0134065D01*
X0484857Y0131201D02*
X0484857Y0126815D01*
X0490340Y0134065D02*
X0492533Y0136258D01*
X0490340Y0138452D01*
D16*
X0502500Y0113040D02*
X0002500Y0113040D01*
X0002500Y0233040D01*
X0502500Y0233040D01*
X0502500Y0113040D01*
M02*
