G75*
%MOIN*%
%OFA0B0*%
%FSLAX25Y25*%
%IPPOS*%
%LPD*%
%AMOC8*
5,1,8,0,0,1.08239X$1,22.5*
%
%ADD10C,0.00039*%
%ADD11C,0.04000*%
%ADD12C,0.00000*%
D10*
X0040337Y0020882D02*
X0040337Y0351591D01*
X0040340Y0351876D01*
X0040351Y0352162D01*
X0040368Y0352447D01*
X0040392Y0352731D01*
X0040423Y0353015D01*
X0040461Y0353298D01*
X0040506Y0353579D01*
X0040557Y0353860D01*
X0040615Y0354140D01*
X0040680Y0354418D01*
X0040752Y0354694D01*
X0040830Y0354968D01*
X0040915Y0355241D01*
X0041007Y0355511D01*
X0041105Y0355779D01*
X0041209Y0356045D01*
X0041320Y0356308D01*
X0041437Y0356568D01*
X0041560Y0356826D01*
X0041690Y0357080D01*
X0041826Y0357331D01*
X0041967Y0357579D01*
X0042115Y0357823D01*
X0042268Y0358064D01*
X0042428Y0358300D01*
X0042593Y0358533D01*
X0042763Y0358762D01*
X0042939Y0358987D01*
X0043121Y0359207D01*
X0043307Y0359423D01*
X0043499Y0359634D01*
X0043696Y0359841D01*
X0043898Y0360043D01*
X0044105Y0360240D01*
X0044316Y0360432D01*
X0044532Y0360618D01*
X0044752Y0360800D01*
X0044977Y0360976D01*
X0045206Y0361146D01*
X0045439Y0361311D01*
X0045675Y0361471D01*
X0045916Y0361624D01*
X0046160Y0361772D01*
X0046408Y0361913D01*
X0046659Y0362049D01*
X0046913Y0362179D01*
X0047171Y0362302D01*
X0047431Y0362419D01*
X0047694Y0362530D01*
X0047960Y0362634D01*
X0048228Y0362732D01*
X0048498Y0362824D01*
X0048771Y0362909D01*
X0049045Y0362987D01*
X0049321Y0363059D01*
X0049599Y0363124D01*
X0049879Y0363182D01*
X0050160Y0363233D01*
X0050441Y0363278D01*
X0050724Y0363316D01*
X0051008Y0363347D01*
X0051292Y0363371D01*
X0051577Y0363388D01*
X0051863Y0363399D01*
X0052148Y0363402D01*
X0272620Y0363402D01*
X0273001Y0363397D01*
X0273381Y0363384D01*
X0273761Y0363361D01*
X0274140Y0363328D01*
X0274518Y0363287D01*
X0274895Y0363237D01*
X0275271Y0363177D01*
X0275646Y0363109D01*
X0276018Y0363031D01*
X0276389Y0362944D01*
X0276757Y0362849D01*
X0277123Y0362744D01*
X0277486Y0362631D01*
X0277847Y0362509D01*
X0278204Y0362379D01*
X0278558Y0362239D01*
X0278909Y0362092D01*
X0279256Y0361935D01*
X0279599Y0361771D01*
X0279938Y0361598D01*
X0280273Y0361417D01*
X0280604Y0361228D01*
X0280929Y0361031D01*
X0281250Y0360827D01*
X0281566Y0360614D01*
X0281876Y0360394D01*
X0282182Y0360167D01*
X0282481Y0359932D01*
X0282775Y0359690D01*
X0283063Y0359442D01*
X0283345Y0359186D01*
X0283620Y0358923D01*
X0283889Y0358654D01*
X0284152Y0358379D01*
X0284408Y0358097D01*
X0284656Y0357809D01*
X0284898Y0357515D01*
X0285133Y0357216D01*
X0285360Y0356910D01*
X0285580Y0356600D01*
X0285793Y0356284D01*
X0285997Y0355963D01*
X0286194Y0355638D01*
X0286383Y0355307D01*
X0286564Y0354972D01*
X0286737Y0354633D01*
X0286901Y0354290D01*
X0287058Y0353943D01*
X0287205Y0353592D01*
X0287345Y0353238D01*
X0287475Y0352881D01*
X0287597Y0352520D01*
X0287710Y0352157D01*
X0287815Y0351791D01*
X0287910Y0351423D01*
X0287997Y0351052D01*
X0288075Y0350680D01*
X0288143Y0350305D01*
X0288203Y0349929D01*
X0288253Y0349552D01*
X0288294Y0349174D01*
X0288327Y0348795D01*
X0288350Y0348415D01*
X0288363Y0348035D01*
X0288368Y0347654D01*
X0288369Y0347654D02*
X0288369Y0013008D01*
X0288368Y0013008D02*
X0288365Y0012723D01*
X0288354Y0012437D01*
X0288337Y0012152D01*
X0288313Y0011868D01*
X0288282Y0011584D01*
X0288244Y0011301D01*
X0288199Y0011020D01*
X0288148Y0010739D01*
X0288090Y0010459D01*
X0288025Y0010181D01*
X0287953Y0009905D01*
X0287875Y0009631D01*
X0287790Y0009358D01*
X0287698Y0009088D01*
X0287600Y0008820D01*
X0287496Y0008554D01*
X0287385Y0008291D01*
X0287268Y0008031D01*
X0287145Y0007773D01*
X0287015Y0007519D01*
X0286879Y0007268D01*
X0286738Y0007020D01*
X0286590Y0006776D01*
X0286437Y0006535D01*
X0286277Y0006299D01*
X0286112Y0006066D01*
X0285942Y0005837D01*
X0285766Y0005612D01*
X0285584Y0005392D01*
X0285398Y0005176D01*
X0285206Y0004965D01*
X0285009Y0004758D01*
X0284807Y0004556D01*
X0284600Y0004359D01*
X0284389Y0004167D01*
X0284173Y0003981D01*
X0283953Y0003799D01*
X0283728Y0003623D01*
X0283499Y0003453D01*
X0283266Y0003288D01*
X0283030Y0003128D01*
X0282789Y0002975D01*
X0282545Y0002827D01*
X0282297Y0002686D01*
X0282046Y0002550D01*
X0281792Y0002420D01*
X0281534Y0002297D01*
X0281274Y0002180D01*
X0281011Y0002069D01*
X0280745Y0001965D01*
X0280477Y0001867D01*
X0280207Y0001775D01*
X0279934Y0001690D01*
X0279660Y0001612D01*
X0279384Y0001540D01*
X0279106Y0001475D01*
X0278826Y0001417D01*
X0278545Y0001366D01*
X0278264Y0001321D01*
X0277981Y0001283D01*
X0277697Y0001252D01*
X0277413Y0001228D01*
X0277128Y0001211D01*
X0276842Y0001200D01*
X0276557Y0001197D01*
X0060022Y0001197D01*
X0059546Y0001203D01*
X0059071Y0001220D01*
X0058596Y0001249D01*
X0058122Y0001289D01*
X0057649Y0001341D01*
X0057178Y0001404D01*
X0056708Y0001478D01*
X0056240Y0001564D01*
X0055774Y0001661D01*
X0055311Y0001769D01*
X0054851Y0001888D01*
X0054393Y0002019D01*
X0053939Y0002160D01*
X0053488Y0002313D01*
X0053042Y0002476D01*
X0052599Y0002650D01*
X0052161Y0002835D01*
X0051727Y0003030D01*
X0051298Y0003236D01*
X0050874Y0003452D01*
X0050455Y0003678D01*
X0050042Y0003914D01*
X0049635Y0004160D01*
X0049234Y0004416D01*
X0048840Y0004682D01*
X0048451Y0004957D01*
X0048070Y0005241D01*
X0047696Y0005534D01*
X0047328Y0005836D01*
X0046968Y0006148D01*
X0046616Y0006467D01*
X0046272Y0006795D01*
X0045935Y0007132D01*
X0045607Y0007476D01*
X0045288Y0007828D01*
X0044976Y0008188D01*
X0044674Y0008556D01*
X0044381Y0008930D01*
X0044097Y0009311D01*
X0043822Y0009700D01*
X0043556Y0010094D01*
X0043300Y0010495D01*
X0043054Y0010902D01*
X0042818Y0011315D01*
X0042592Y0011734D01*
X0042376Y0012158D01*
X0042170Y0012587D01*
X0041975Y0013021D01*
X0041790Y0013459D01*
X0041616Y0013902D01*
X0041453Y0014348D01*
X0041300Y0014799D01*
X0041159Y0015253D01*
X0041028Y0015711D01*
X0040909Y0016171D01*
X0040801Y0016634D01*
X0040704Y0017100D01*
X0040618Y0017568D01*
X0040544Y0018038D01*
X0040481Y0018509D01*
X0040429Y0018982D01*
X0040389Y0019456D01*
X0040360Y0019931D01*
X0040343Y0020406D01*
X0040337Y0020882D01*
D11*
X0050180Y0032142D02*
X0050180Y0036866D01*
X0050180Y0082142D02*
X0050180Y0086866D01*
X0091124Y0064031D02*
X0095849Y0064031D01*
X0102148Y0082142D02*
X0102148Y0086866D01*
X0102148Y0036866D02*
X0102148Y0032142D01*
X0095849Y0014031D02*
X0091124Y0014031D01*
X0091124Y0139031D02*
X0095849Y0139031D01*
X0102148Y0157142D02*
X0102148Y0161866D01*
X0050180Y0161866D02*
X0050180Y0157142D01*
X0091124Y0234031D02*
X0095849Y0234031D01*
X0102148Y0252142D02*
X0102148Y0256866D01*
X0050180Y0256866D02*
X0050180Y0252142D01*
D12*
X0047578Y0251119D02*
X0047580Y0251220D01*
X0047586Y0251321D01*
X0047596Y0251422D01*
X0047610Y0251522D01*
X0047628Y0251621D01*
X0047650Y0251720D01*
X0047675Y0251818D01*
X0047705Y0251915D01*
X0047738Y0252010D01*
X0047775Y0252104D01*
X0047816Y0252197D01*
X0047860Y0252288D01*
X0047908Y0252377D01*
X0047960Y0252464D01*
X0048015Y0252549D01*
X0048073Y0252631D01*
X0048134Y0252712D01*
X0048199Y0252790D01*
X0048266Y0252865D01*
X0048336Y0252937D01*
X0048410Y0253007D01*
X0048486Y0253074D01*
X0048564Y0253138D01*
X0048645Y0253198D01*
X0048728Y0253255D01*
X0048814Y0253309D01*
X0048902Y0253360D01*
X0048991Y0253407D01*
X0049082Y0253451D01*
X0049175Y0253490D01*
X0049270Y0253527D01*
X0049365Y0253559D01*
X0049462Y0253588D01*
X0049561Y0253612D01*
X0049659Y0253633D01*
X0049759Y0253650D01*
X0049859Y0253663D01*
X0049960Y0253672D01*
X0050061Y0253677D01*
X0050162Y0253678D01*
X0050263Y0253675D01*
X0050364Y0253668D01*
X0050465Y0253657D01*
X0050565Y0253642D01*
X0050664Y0253623D01*
X0050763Y0253600D01*
X0050860Y0253574D01*
X0050957Y0253543D01*
X0051052Y0253509D01*
X0051145Y0253471D01*
X0051238Y0253429D01*
X0051328Y0253384D01*
X0051417Y0253335D01*
X0051503Y0253283D01*
X0051587Y0253227D01*
X0051670Y0253168D01*
X0051749Y0253106D01*
X0051827Y0253041D01*
X0051901Y0252973D01*
X0051973Y0252901D01*
X0052042Y0252828D01*
X0052108Y0252751D01*
X0052171Y0252672D01*
X0052231Y0252590D01*
X0052287Y0252506D01*
X0052340Y0252420D01*
X0052390Y0252332D01*
X0052436Y0252242D01*
X0052479Y0252151D01*
X0052518Y0252057D01*
X0052553Y0251962D01*
X0052584Y0251866D01*
X0052612Y0251769D01*
X0052636Y0251671D01*
X0052656Y0251572D01*
X0052672Y0251472D01*
X0052684Y0251371D01*
X0052692Y0251271D01*
X0052696Y0251170D01*
X0052696Y0251068D01*
X0052692Y0250967D01*
X0052684Y0250867D01*
X0052672Y0250766D01*
X0052656Y0250666D01*
X0052636Y0250567D01*
X0052612Y0250469D01*
X0052584Y0250372D01*
X0052553Y0250276D01*
X0052518Y0250181D01*
X0052479Y0250087D01*
X0052436Y0249996D01*
X0052390Y0249906D01*
X0052340Y0249818D01*
X0052287Y0249732D01*
X0052231Y0249648D01*
X0052171Y0249566D01*
X0052108Y0249487D01*
X0052042Y0249410D01*
X0051973Y0249337D01*
X0051901Y0249265D01*
X0051827Y0249197D01*
X0051749Y0249132D01*
X0051670Y0249070D01*
X0051587Y0249011D01*
X0051503Y0248955D01*
X0051416Y0248903D01*
X0051328Y0248854D01*
X0051238Y0248809D01*
X0051145Y0248767D01*
X0051052Y0248729D01*
X0050957Y0248695D01*
X0050860Y0248664D01*
X0050763Y0248638D01*
X0050664Y0248615D01*
X0050565Y0248596D01*
X0050465Y0248581D01*
X0050364Y0248570D01*
X0050263Y0248563D01*
X0050162Y0248560D01*
X0050061Y0248561D01*
X0049960Y0248566D01*
X0049859Y0248575D01*
X0049759Y0248588D01*
X0049659Y0248605D01*
X0049561Y0248626D01*
X0049462Y0248650D01*
X0049365Y0248679D01*
X0049270Y0248711D01*
X0049175Y0248748D01*
X0049082Y0248787D01*
X0048991Y0248831D01*
X0048902Y0248878D01*
X0048814Y0248929D01*
X0048728Y0248983D01*
X0048645Y0249040D01*
X0048564Y0249100D01*
X0048486Y0249164D01*
X0048410Y0249231D01*
X0048336Y0249301D01*
X0048266Y0249373D01*
X0048199Y0249448D01*
X0048134Y0249526D01*
X0048073Y0249607D01*
X0048015Y0249689D01*
X0047960Y0249774D01*
X0047908Y0249861D01*
X0047860Y0249950D01*
X0047816Y0250041D01*
X0047775Y0250134D01*
X0047738Y0250228D01*
X0047705Y0250323D01*
X0047675Y0250420D01*
X0047650Y0250518D01*
X0047628Y0250617D01*
X0047610Y0250716D01*
X0047596Y0250816D01*
X0047586Y0250917D01*
X0047580Y0251018D01*
X0047578Y0251119D01*
X0047578Y0257819D02*
X0047580Y0257920D01*
X0047586Y0258021D01*
X0047596Y0258122D01*
X0047610Y0258222D01*
X0047628Y0258321D01*
X0047650Y0258420D01*
X0047675Y0258518D01*
X0047705Y0258615D01*
X0047738Y0258710D01*
X0047775Y0258804D01*
X0047816Y0258897D01*
X0047860Y0258988D01*
X0047908Y0259077D01*
X0047960Y0259164D01*
X0048015Y0259249D01*
X0048073Y0259331D01*
X0048134Y0259412D01*
X0048199Y0259490D01*
X0048266Y0259565D01*
X0048336Y0259637D01*
X0048410Y0259707D01*
X0048486Y0259774D01*
X0048564Y0259838D01*
X0048645Y0259898D01*
X0048728Y0259955D01*
X0048814Y0260009D01*
X0048902Y0260060D01*
X0048991Y0260107D01*
X0049082Y0260151D01*
X0049175Y0260190D01*
X0049270Y0260227D01*
X0049365Y0260259D01*
X0049462Y0260288D01*
X0049561Y0260312D01*
X0049659Y0260333D01*
X0049759Y0260350D01*
X0049859Y0260363D01*
X0049960Y0260372D01*
X0050061Y0260377D01*
X0050162Y0260378D01*
X0050263Y0260375D01*
X0050364Y0260368D01*
X0050465Y0260357D01*
X0050565Y0260342D01*
X0050664Y0260323D01*
X0050763Y0260300D01*
X0050860Y0260274D01*
X0050957Y0260243D01*
X0051052Y0260209D01*
X0051145Y0260171D01*
X0051238Y0260129D01*
X0051328Y0260084D01*
X0051417Y0260035D01*
X0051503Y0259983D01*
X0051587Y0259927D01*
X0051670Y0259868D01*
X0051749Y0259806D01*
X0051827Y0259741D01*
X0051901Y0259673D01*
X0051973Y0259601D01*
X0052042Y0259528D01*
X0052108Y0259451D01*
X0052171Y0259372D01*
X0052231Y0259290D01*
X0052287Y0259206D01*
X0052340Y0259120D01*
X0052390Y0259032D01*
X0052436Y0258942D01*
X0052479Y0258851D01*
X0052518Y0258757D01*
X0052553Y0258662D01*
X0052584Y0258566D01*
X0052612Y0258469D01*
X0052636Y0258371D01*
X0052656Y0258272D01*
X0052672Y0258172D01*
X0052684Y0258071D01*
X0052692Y0257971D01*
X0052696Y0257870D01*
X0052696Y0257768D01*
X0052692Y0257667D01*
X0052684Y0257567D01*
X0052672Y0257466D01*
X0052656Y0257366D01*
X0052636Y0257267D01*
X0052612Y0257169D01*
X0052584Y0257072D01*
X0052553Y0256976D01*
X0052518Y0256881D01*
X0052479Y0256787D01*
X0052436Y0256696D01*
X0052390Y0256606D01*
X0052340Y0256518D01*
X0052287Y0256432D01*
X0052231Y0256348D01*
X0052171Y0256266D01*
X0052108Y0256187D01*
X0052042Y0256110D01*
X0051973Y0256037D01*
X0051901Y0255965D01*
X0051827Y0255897D01*
X0051749Y0255832D01*
X0051670Y0255770D01*
X0051587Y0255711D01*
X0051503Y0255655D01*
X0051416Y0255603D01*
X0051328Y0255554D01*
X0051238Y0255509D01*
X0051145Y0255467D01*
X0051052Y0255429D01*
X0050957Y0255395D01*
X0050860Y0255364D01*
X0050763Y0255338D01*
X0050664Y0255315D01*
X0050565Y0255296D01*
X0050465Y0255281D01*
X0050364Y0255270D01*
X0050263Y0255263D01*
X0050162Y0255260D01*
X0050061Y0255261D01*
X0049960Y0255266D01*
X0049859Y0255275D01*
X0049759Y0255288D01*
X0049659Y0255305D01*
X0049561Y0255326D01*
X0049462Y0255350D01*
X0049365Y0255379D01*
X0049270Y0255411D01*
X0049175Y0255448D01*
X0049082Y0255487D01*
X0048991Y0255531D01*
X0048902Y0255578D01*
X0048814Y0255629D01*
X0048728Y0255683D01*
X0048645Y0255740D01*
X0048564Y0255800D01*
X0048486Y0255864D01*
X0048410Y0255931D01*
X0048336Y0256001D01*
X0048266Y0256073D01*
X0048199Y0256148D01*
X0048134Y0256226D01*
X0048073Y0256307D01*
X0048015Y0256389D01*
X0047960Y0256474D01*
X0047908Y0256561D01*
X0047860Y0256650D01*
X0047816Y0256741D01*
X0047775Y0256834D01*
X0047738Y0256928D01*
X0047705Y0257023D01*
X0047675Y0257120D01*
X0047650Y0257218D01*
X0047628Y0257317D01*
X0047610Y0257416D01*
X0047596Y0257516D01*
X0047586Y0257617D01*
X0047580Y0257718D01*
X0047578Y0257819D01*
X0087578Y0234019D02*
X0087580Y0234120D01*
X0087586Y0234221D01*
X0087596Y0234322D01*
X0087610Y0234422D01*
X0087628Y0234521D01*
X0087650Y0234620D01*
X0087675Y0234718D01*
X0087705Y0234815D01*
X0087738Y0234910D01*
X0087775Y0235004D01*
X0087816Y0235097D01*
X0087860Y0235188D01*
X0087908Y0235277D01*
X0087960Y0235364D01*
X0088015Y0235449D01*
X0088073Y0235531D01*
X0088134Y0235612D01*
X0088199Y0235690D01*
X0088266Y0235765D01*
X0088336Y0235837D01*
X0088410Y0235907D01*
X0088486Y0235974D01*
X0088564Y0236038D01*
X0088645Y0236098D01*
X0088728Y0236155D01*
X0088814Y0236209D01*
X0088902Y0236260D01*
X0088991Y0236307D01*
X0089082Y0236351D01*
X0089175Y0236390D01*
X0089270Y0236427D01*
X0089365Y0236459D01*
X0089462Y0236488D01*
X0089561Y0236512D01*
X0089659Y0236533D01*
X0089759Y0236550D01*
X0089859Y0236563D01*
X0089960Y0236572D01*
X0090061Y0236577D01*
X0090162Y0236578D01*
X0090263Y0236575D01*
X0090364Y0236568D01*
X0090465Y0236557D01*
X0090565Y0236542D01*
X0090664Y0236523D01*
X0090763Y0236500D01*
X0090860Y0236474D01*
X0090957Y0236443D01*
X0091052Y0236409D01*
X0091145Y0236371D01*
X0091238Y0236329D01*
X0091328Y0236284D01*
X0091417Y0236235D01*
X0091503Y0236183D01*
X0091587Y0236127D01*
X0091670Y0236068D01*
X0091749Y0236006D01*
X0091827Y0235941D01*
X0091901Y0235873D01*
X0091973Y0235801D01*
X0092042Y0235728D01*
X0092108Y0235651D01*
X0092171Y0235572D01*
X0092231Y0235490D01*
X0092287Y0235406D01*
X0092340Y0235320D01*
X0092390Y0235232D01*
X0092436Y0235142D01*
X0092479Y0235051D01*
X0092518Y0234957D01*
X0092553Y0234862D01*
X0092584Y0234766D01*
X0092612Y0234669D01*
X0092636Y0234571D01*
X0092656Y0234472D01*
X0092672Y0234372D01*
X0092684Y0234271D01*
X0092692Y0234171D01*
X0092696Y0234070D01*
X0092696Y0233968D01*
X0092692Y0233867D01*
X0092684Y0233767D01*
X0092672Y0233666D01*
X0092656Y0233566D01*
X0092636Y0233467D01*
X0092612Y0233369D01*
X0092584Y0233272D01*
X0092553Y0233176D01*
X0092518Y0233081D01*
X0092479Y0232987D01*
X0092436Y0232896D01*
X0092390Y0232806D01*
X0092340Y0232718D01*
X0092287Y0232632D01*
X0092231Y0232548D01*
X0092171Y0232466D01*
X0092108Y0232387D01*
X0092042Y0232310D01*
X0091973Y0232237D01*
X0091901Y0232165D01*
X0091827Y0232097D01*
X0091749Y0232032D01*
X0091670Y0231970D01*
X0091587Y0231911D01*
X0091503Y0231855D01*
X0091416Y0231803D01*
X0091328Y0231754D01*
X0091238Y0231709D01*
X0091145Y0231667D01*
X0091052Y0231629D01*
X0090957Y0231595D01*
X0090860Y0231564D01*
X0090763Y0231538D01*
X0090664Y0231515D01*
X0090565Y0231496D01*
X0090465Y0231481D01*
X0090364Y0231470D01*
X0090263Y0231463D01*
X0090162Y0231460D01*
X0090061Y0231461D01*
X0089960Y0231466D01*
X0089859Y0231475D01*
X0089759Y0231488D01*
X0089659Y0231505D01*
X0089561Y0231526D01*
X0089462Y0231550D01*
X0089365Y0231579D01*
X0089270Y0231611D01*
X0089175Y0231648D01*
X0089082Y0231687D01*
X0088991Y0231731D01*
X0088902Y0231778D01*
X0088814Y0231829D01*
X0088728Y0231883D01*
X0088645Y0231940D01*
X0088564Y0232000D01*
X0088486Y0232064D01*
X0088410Y0232131D01*
X0088336Y0232201D01*
X0088266Y0232273D01*
X0088199Y0232348D01*
X0088134Y0232426D01*
X0088073Y0232507D01*
X0088015Y0232589D01*
X0087960Y0232674D01*
X0087908Y0232761D01*
X0087860Y0232850D01*
X0087816Y0232941D01*
X0087775Y0233034D01*
X0087738Y0233128D01*
X0087705Y0233223D01*
X0087675Y0233320D01*
X0087650Y0233418D01*
X0087628Y0233517D01*
X0087610Y0233616D01*
X0087596Y0233716D01*
X0087586Y0233817D01*
X0087580Y0233918D01*
X0087578Y0234019D01*
X0094278Y0234019D02*
X0094280Y0234120D01*
X0094286Y0234221D01*
X0094296Y0234322D01*
X0094310Y0234422D01*
X0094328Y0234521D01*
X0094350Y0234620D01*
X0094375Y0234718D01*
X0094405Y0234815D01*
X0094438Y0234910D01*
X0094475Y0235004D01*
X0094516Y0235097D01*
X0094560Y0235188D01*
X0094608Y0235277D01*
X0094660Y0235364D01*
X0094715Y0235449D01*
X0094773Y0235531D01*
X0094834Y0235612D01*
X0094899Y0235690D01*
X0094966Y0235765D01*
X0095036Y0235837D01*
X0095110Y0235907D01*
X0095186Y0235974D01*
X0095264Y0236038D01*
X0095345Y0236098D01*
X0095428Y0236155D01*
X0095514Y0236209D01*
X0095602Y0236260D01*
X0095691Y0236307D01*
X0095782Y0236351D01*
X0095875Y0236390D01*
X0095970Y0236427D01*
X0096065Y0236459D01*
X0096162Y0236488D01*
X0096261Y0236512D01*
X0096359Y0236533D01*
X0096459Y0236550D01*
X0096559Y0236563D01*
X0096660Y0236572D01*
X0096761Y0236577D01*
X0096862Y0236578D01*
X0096963Y0236575D01*
X0097064Y0236568D01*
X0097165Y0236557D01*
X0097265Y0236542D01*
X0097364Y0236523D01*
X0097463Y0236500D01*
X0097560Y0236474D01*
X0097657Y0236443D01*
X0097752Y0236409D01*
X0097845Y0236371D01*
X0097938Y0236329D01*
X0098028Y0236284D01*
X0098117Y0236235D01*
X0098203Y0236183D01*
X0098287Y0236127D01*
X0098370Y0236068D01*
X0098449Y0236006D01*
X0098527Y0235941D01*
X0098601Y0235873D01*
X0098673Y0235801D01*
X0098742Y0235728D01*
X0098808Y0235651D01*
X0098871Y0235572D01*
X0098931Y0235490D01*
X0098987Y0235406D01*
X0099040Y0235320D01*
X0099090Y0235232D01*
X0099136Y0235142D01*
X0099179Y0235051D01*
X0099218Y0234957D01*
X0099253Y0234862D01*
X0099284Y0234766D01*
X0099312Y0234669D01*
X0099336Y0234571D01*
X0099356Y0234472D01*
X0099372Y0234372D01*
X0099384Y0234271D01*
X0099392Y0234171D01*
X0099396Y0234070D01*
X0099396Y0233968D01*
X0099392Y0233867D01*
X0099384Y0233767D01*
X0099372Y0233666D01*
X0099356Y0233566D01*
X0099336Y0233467D01*
X0099312Y0233369D01*
X0099284Y0233272D01*
X0099253Y0233176D01*
X0099218Y0233081D01*
X0099179Y0232987D01*
X0099136Y0232896D01*
X0099090Y0232806D01*
X0099040Y0232718D01*
X0098987Y0232632D01*
X0098931Y0232548D01*
X0098871Y0232466D01*
X0098808Y0232387D01*
X0098742Y0232310D01*
X0098673Y0232237D01*
X0098601Y0232165D01*
X0098527Y0232097D01*
X0098449Y0232032D01*
X0098370Y0231970D01*
X0098287Y0231911D01*
X0098203Y0231855D01*
X0098116Y0231803D01*
X0098028Y0231754D01*
X0097938Y0231709D01*
X0097845Y0231667D01*
X0097752Y0231629D01*
X0097657Y0231595D01*
X0097560Y0231564D01*
X0097463Y0231538D01*
X0097364Y0231515D01*
X0097265Y0231496D01*
X0097165Y0231481D01*
X0097064Y0231470D01*
X0096963Y0231463D01*
X0096862Y0231460D01*
X0096761Y0231461D01*
X0096660Y0231466D01*
X0096559Y0231475D01*
X0096459Y0231488D01*
X0096359Y0231505D01*
X0096261Y0231526D01*
X0096162Y0231550D01*
X0096065Y0231579D01*
X0095970Y0231611D01*
X0095875Y0231648D01*
X0095782Y0231687D01*
X0095691Y0231731D01*
X0095602Y0231778D01*
X0095514Y0231829D01*
X0095428Y0231883D01*
X0095345Y0231940D01*
X0095264Y0232000D01*
X0095186Y0232064D01*
X0095110Y0232131D01*
X0095036Y0232201D01*
X0094966Y0232273D01*
X0094899Y0232348D01*
X0094834Y0232426D01*
X0094773Y0232507D01*
X0094715Y0232589D01*
X0094660Y0232674D01*
X0094608Y0232761D01*
X0094560Y0232850D01*
X0094516Y0232941D01*
X0094475Y0233034D01*
X0094438Y0233128D01*
X0094405Y0233223D01*
X0094375Y0233320D01*
X0094350Y0233418D01*
X0094328Y0233517D01*
X0094310Y0233616D01*
X0094296Y0233716D01*
X0094286Y0233817D01*
X0094280Y0233918D01*
X0094278Y0234019D01*
X0099578Y0251219D02*
X0099580Y0251320D01*
X0099586Y0251421D01*
X0099596Y0251522D01*
X0099610Y0251622D01*
X0099628Y0251721D01*
X0099650Y0251820D01*
X0099675Y0251918D01*
X0099705Y0252015D01*
X0099738Y0252110D01*
X0099775Y0252204D01*
X0099816Y0252297D01*
X0099860Y0252388D01*
X0099908Y0252477D01*
X0099960Y0252564D01*
X0100015Y0252649D01*
X0100073Y0252731D01*
X0100134Y0252812D01*
X0100199Y0252890D01*
X0100266Y0252965D01*
X0100336Y0253037D01*
X0100410Y0253107D01*
X0100486Y0253174D01*
X0100564Y0253238D01*
X0100645Y0253298D01*
X0100728Y0253355D01*
X0100814Y0253409D01*
X0100902Y0253460D01*
X0100991Y0253507D01*
X0101082Y0253551D01*
X0101175Y0253590D01*
X0101270Y0253627D01*
X0101365Y0253659D01*
X0101462Y0253688D01*
X0101561Y0253712D01*
X0101659Y0253733D01*
X0101759Y0253750D01*
X0101859Y0253763D01*
X0101960Y0253772D01*
X0102061Y0253777D01*
X0102162Y0253778D01*
X0102263Y0253775D01*
X0102364Y0253768D01*
X0102465Y0253757D01*
X0102565Y0253742D01*
X0102664Y0253723D01*
X0102763Y0253700D01*
X0102860Y0253674D01*
X0102957Y0253643D01*
X0103052Y0253609D01*
X0103145Y0253571D01*
X0103238Y0253529D01*
X0103328Y0253484D01*
X0103417Y0253435D01*
X0103503Y0253383D01*
X0103587Y0253327D01*
X0103670Y0253268D01*
X0103749Y0253206D01*
X0103827Y0253141D01*
X0103901Y0253073D01*
X0103973Y0253001D01*
X0104042Y0252928D01*
X0104108Y0252851D01*
X0104171Y0252772D01*
X0104231Y0252690D01*
X0104287Y0252606D01*
X0104340Y0252520D01*
X0104390Y0252432D01*
X0104436Y0252342D01*
X0104479Y0252251D01*
X0104518Y0252157D01*
X0104553Y0252062D01*
X0104584Y0251966D01*
X0104612Y0251869D01*
X0104636Y0251771D01*
X0104656Y0251672D01*
X0104672Y0251572D01*
X0104684Y0251471D01*
X0104692Y0251371D01*
X0104696Y0251270D01*
X0104696Y0251168D01*
X0104692Y0251067D01*
X0104684Y0250967D01*
X0104672Y0250866D01*
X0104656Y0250766D01*
X0104636Y0250667D01*
X0104612Y0250569D01*
X0104584Y0250472D01*
X0104553Y0250376D01*
X0104518Y0250281D01*
X0104479Y0250187D01*
X0104436Y0250096D01*
X0104390Y0250006D01*
X0104340Y0249918D01*
X0104287Y0249832D01*
X0104231Y0249748D01*
X0104171Y0249666D01*
X0104108Y0249587D01*
X0104042Y0249510D01*
X0103973Y0249437D01*
X0103901Y0249365D01*
X0103827Y0249297D01*
X0103749Y0249232D01*
X0103670Y0249170D01*
X0103587Y0249111D01*
X0103503Y0249055D01*
X0103416Y0249003D01*
X0103328Y0248954D01*
X0103238Y0248909D01*
X0103145Y0248867D01*
X0103052Y0248829D01*
X0102957Y0248795D01*
X0102860Y0248764D01*
X0102763Y0248738D01*
X0102664Y0248715D01*
X0102565Y0248696D01*
X0102465Y0248681D01*
X0102364Y0248670D01*
X0102263Y0248663D01*
X0102162Y0248660D01*
X0102061Y0248661D01*
X0101960Y0248666D01*
X0101859Y0248675D01*
X0101759Y0248688D01*
X0101659Y0248705D01*
X0101561Y0248726D01*
X0101462Y0248750D01*
X0101365Y0248779D01*
X0101270Y0248811D01*
X0101175Y0248848D01*
X0101082Y0248887D01*
X0100991Y0248931D01*
X0100902Y0248978D01*
X0100814Y0249029D01*
X0100728Y0249083D01*
X0100645Y0249140D01*
X0100564Y0249200D01*
X0100486Y0249264D01*
X0100410Y0249331D01*
X0100336Y0249401D01*
X0100266Y0249473D01*
X0100199Y0249548D01*
X0100134Y0249626D01*
X0100073Y0249707D01*
X0100015Y0249789D01*
X0099960Y0249874D01*
X0099908Y0249961D01*
X0099860Y0250050D01*
X0099816Y0250141D01*
X0099775Y0250234D01*
X0099738Y0250328D01*
X0099705Y0250423D01*
X0099675Y0250520D01*
X0099650Y0250618D01*
X0099628Y0250717D01*
X0099610Y0250816D01*
X0099596Y0250916D01*
X0099586Y0251017D01*
X0099580Y0251118D01*
X0099578Y0251219D01*
X0099578Y0257819D02*
X0099580Y0257920D01*
X0099586Y0258021D01*
X0099596Y0258122D01*
X0099610Y0258222D01*
X0099628Y0258321D01*
X0099650Y0258420D01*
X0099675Y0258518D01*
X0099705Y0258615D01*
X0099738Y0258710D01*
X0099775Y0258804D01*
X0099816Y0258897D01*
X0099860Y0258988D01*
X0099908Y0259077D01*
X0099960Y0259164D01*
X0100015Y0259249D01*
X0100073Y0259331D01*
X0100134Y0259412D01*
X0100199Y0259490D01*
X0100266Y0259565D01*
X0100336Y0259637D01*
X0100410Y0259707D01*
X0100486Y0259774D01*
X0100564Y0259838D01*
X0100645Y0259898D01*
X0100728Y0259955D01*
X0100814Y0260009D01*
X0100902Y0260060D01*
X0100991Y0260107D01*
X0101082Y0260151D01*
X0101175Y0260190D01*
X0101270Y0260227D01*
X0101365Y0260259D01*
X0101462Y0260288D01*
X0101561Y0260312D01*
X0101659Y0260333D01*
X0101759Y0260350D01*
X0101859Y0260363D01*
X0101960Y0260372D01*
X0102061Y0260377D01*
X0102162Y0260378D01*
X0102263Y0260375D01*
X0102364Y0260368D01*
X0102465Y0260357D01*
X0102565Y0260342D01*
X0102664Y0260323D01*
X0102763Y0260300D01*
X0102860Y0260274D01*
X0102957Y0260243D01*
X0103052Y0260209D01*
X0103145Y0260171D01*
X0103238Y0260129D01*
X0103328Y0260084D01*
X0103417Y0260035D01*
X0103503Y0259983D01*
X0103587Y0259927D01*
X0103670Y0259868D01*
X0103749Y0259806D01*
X0103827Y0259741D01*
X0103901Y0259673D01*
X0103973Y0259601D01*
X0104042Y0259528D01*
X0104108Y0259451D01*
X0104171Y0259372D01*
X0104231Y0259290D01*
X0104287Y0259206D01*
X0104340Y0259120D01*
X0104390Y0259032D01*
X0104436Y0258942D01*
X0104479Y0258851D01*
X0104518Y0258757D01*
X0104553Y0258662D01*
X0104584Y0258566D01*
X0104612Y0258469D01*
X0104636Y0258371D01*
X0104656Y0258272D01*
X0104672Y0258172D01*
X0104684Y0258071D01*
X0104692Y0257971D01*
X0104696Y0257870D01*
X0104696Y0257768D01*
X0104692Y0257667D01*
X0104684Y0257567D01*
X0104672Y0257466D01*
X0104656Y0257366D01*
X0104636Y0257267D01*
X0104612Y0257169D01*
X0104584Y0257072D01*
X0104553Y0256976D01*
X0104518Y0256881D01*
X0104479Y0256787D01*
X0104436Y0256696D01*
X0104390Y0256606D01*
X0104340Y0256518D01*
X0104287Y0256432D01*
X0104231Y0256348D01*
X0104171Y0256266D01*
X0104108Y0256187D01*
X0104042Y0256110D01*
X0103973Y0256037D01*
X0103901Y0255965D01*
X0103827Y0255897D01*
X0103749Y0255832D01*
X0103670Y0255770D01*
X0103587Y0255711D01*
X0103503Y0255655D01*
X0103416Y0255603D01*
X0103328Y0255554D01*
X0103238Y0255509D01*
X0103145Y0255467D01*
X0103052Y0255429D01*
X0102957Y0255395D01*
X0102860Y0255364D01*
X0102763Y0255338D01*
X0102664Y0255315D01*
X0102565Y0255296D01*
X0102465Y0255281D01*
X0102364Y0255270D01*
X0102263Y0255263D01*
X0102162Y0255260D01*
X0102061Y0255261D01*
X0101960Y0255266D01*
X0101859Y0255275D01*
X0101759Y0255288D01*
X0101659Y0255305D01*
X0101561Y0255326D01*
X0101462Y0255350D01*
X0101365Y0255379D01*
X0101270Y0255411D01*
X0101175Y0255448D01*
X0101082Y0255487D01*
X0100991Y0255531D01*
X0100902Y0255578D01*
X0100814Y0255629D01*
X0100728Y0255683D01*
X0100645Y0255740D01*
X0100564Y0255800D01*
X0100486Y0255864D01*
X0100410Y0255931D01*
X0100336Y0256001D01*
X0100266Y0256073D01*
X0100199Y0256148D01*
X0100134Y0256226D01*
X0100073Y0256307D01*
X0100015Y0256389D01*
X0099960Y0256474D01*
X0099908Y0256561D01*
X0099860Y0256650D01*
X0099816Y0256741D01*
X0099775Y0256834D01*
X0099738Y0256928D01*
X0099705Y0257023D01*
X0099675Y0257120D01*
X0099650Y0257218D01*
X0099628Y0257317D01*
X0099610Y0257416D01*
X0099596Y0257516D01*
X0099586Y0257617D01*
X0099580Y0257718D01*
X0099578Y0257819D01*
X0099578Y0162819D02*
X0099580Y0162920D01*
X0099586Y0163021D01*
X0099596Y0163122D01*
X0099610Y0163222D01*
X0099628Y0163321D01*
X0099650Y0163420D01*
X0099675Y0163518D01*
X0099705Y0163615D01*
X0099738Y0163710D01*
X0099775Y0163804D01*
X0099816Y0163897D01*
X0099860Y0163988D01*
X0099908Y0164077D01*
X0099960Y0164164D01*
X0100015Y0164249D01*
X0100073Y0164331D01*
X0100134Y0164412D01*
X0100199Y0164490D01*
X0100266Y0164565D01*
X0100336Y0164637D01*
X0100410Y0164707D01*
X0100486Y0164774D01*
X0100564Y0164838D01*
X0100645Y0164898D01*
X0100728Y0164955D01*
X0100814Y0165009D01*
X0100902Y0165060D01*
X0100991Y0165107D01*
X0101082Y0165151D01*
X0101175Y0165190D01*
X0101270Y0165227D01*
X0101365Y0165259D01*
X0101462Y0165288D01*
X0101561Y0165312D01*
X0101659Y0165333D01*
X0101759Y0165350D01*
X0101859Y0165363D01*
X0101960Y0165372D01*
X0102061Y0165377D01*
X0102162Y0165378D01*
X0102263Y0165375D01*
X0102364Y0165368D01*
X0102465Y0165357D01*
X0102565Y0165342D01*
X0102664Y0165323D01*
X0102763Y0165300D01*
X0102860Y0165274D01*
X0102957Y0165243D01*
X0103052Y0165209D01*
X0103145Y0165171D01*
X0103238Y0165129D01*
X0103328Y0165084D01*
X0103417Y0165035D01*
X0103503Y0164983D01*
X0103587Y0164927D01*
X0103670Y0164868D01*
X0103749Y0164806D01*
X0103827Y0164741D01*
X0103901Y0164673D01*
X0103973Y0164601D01*
X0104042Y0164528D01*
X0104108Y0164451D01*
X0104171Y0164372D01*
X0104231Y0164290D01*
X0104287Y0164206D01*
X0104340Y0164120D01*
X0104390Y0164032D01*
X0104436Y0163942D01*
X0104479Y0163851D01*
X0104518Y0163757D01*
X0104553Y0163662D01*
X0104584Y0163566D01*
X0104612Y0163469D01*
X0104636Y0163371D01*
X0104656Y0163272D01*
X0104672Y0163172D01*
X0104684Y0163071D01*
X0104692Y0162971D01*
X0104696Y0162870D01*
X0104696Y0162768D01*
X0104692Y0162667D01*
X0104684Y0162567D01*
X0104672Y0162466D01*
X0104656Y0162366D01*
X0104636Y0162267D01*
X0104612Y0162169D01*
X0104584Y0162072D01*
X0104553Y0161976D01*
X0104518Y0161881D01*
X0104479Y0161787D01*
X0104436Y0161696D01*
X0104390Y0161606D01*
X0104340Y0161518D01*
X0104287Y0161432D01*
X0104231Y0161348D01*
X0104171Y0161266D01*
X0104108Y0161187D01*
X0104042Y0161110D01*
X0103973Y0161037D01*
X0103901Y0160965D01*
X0103827Y0160897D01*
X0103749Y0160832D01*
X0103670Y0160770D01*
X0103587Y0160711D01*
X0103503Y0160655D01*
X0103416Y0160603D01*
X0103328Y0160554D01*
X0103238Y0160509D01*
X0103145Y0160467D01*
X0103052Y0160429D01*
X0102957Y0160395D01*
X0102860Y0160364D01*
X0102763Y0160338D01*
X0102664Y0160315D01*
X0102565Y0160296D01*
X0102465Y0160281D01*
X0102364Y0160270D01*
X0102263Y0160263D01*
X0102162Y0160260D01*
X0102061Y0160261D01*
X0101960Y0160266D01*
X0101859Y0160275D01*
X0101759Y0160288D01*
X0101659Y0160305D01*
X0101561Y0160326D01*
X0101462Y0160350D01*
X0101365Y0160379D01*
X0101270Y0160411D01*
X0101175Y0160448D01*
X0101082Y0160487D01*
X0100991Y0160531D01*
X0100902Y0160578D01*
X0100814Y0160629D01*
X0100728Y0160683D01*
X0100645Y0160740D01*
X0100564Y0160800D01*
X0100486Y0160864D01*
X0100410Y0160931D01*
X0100336Y0161001D01*
X0100266Y0161073D01*
X0100199Y0161148D01*
X0100134Y0161226D01*
X0100073Y0161307D01*
X0100015Y0161389D01*
X0099960Y0161474D01*
X0099908Y0161561D01*
X0099860Y0161650D01*
X0099816Y0161741D01*
X0099775Y0161834D01*
X0099738Y0161928D01*
X0099705Y0162023D01*
X0099675Y0162120D01*
X0099650Y0162218D01*
X0099628Y0162317D01*
X0099610Y0162416D01*
X0099596Y0162516D01*
X0099586Y0162617D01*
X0099580Y0162718D01*
X0099578Y0162819D01*
X0099578Y0156219D02*
X0099580Y0156320D01*
X0099586Y0156421D01*
X0099596Y0156522D01*
X0099610Y0156622D01*
X0099628Y0156721D01*
X0099650Y0156820D01*
X0099675Y0156918D01*
X0099705Y0157015D01*
X0099738Y0157110D01*
X0099775Y0157204D01*
X0099816Y0157297D01*
X0099860Y0157388D01*
X0099908Y0157477D01*
X0099960Y0157564D01*
X0100015Y0157649D01*
X0100073Y0157731D01*
X0100134Y0157812D01*
X0100199Y0157890D01*
X0100266Y0157965D01*
X0100336Y0158037D01*
X0100410Y0158107D01*
X0100486Y0158174D01*
X0100564Y0158238D01*
X0100645Y0158298D01*
X0100728Y0158355D01*
X0100814Y0158409D01*
X0100902Y0158460D01*
X0100991Y0158507D01*
X0101082Y0158551D01*
X0101175Y0158590D01*
X0101270Y0158627D01*
X0101365Y0158659D01*
X0101462Y0158688D01*
X0101561Y0158712D01*
X0101659Y0158733D01*
X0101759Y0158750D01*
X0101859Y0158763D01*
X0101960Y0158772D01*
X0102061Y0158777D01*
X0102162Y0158778D01*
X0102263Y0158775D01*
X0102364Y0158768D01*
X0102465Y0158757D01*
X0102565Y0158742D01*
X0102664Y0158723D01*
X0102763Y0158700D01*
X0102860Y0158674D01*
X0102957Y0158643D01*
X0103052Y0158609D01*
X0103145Y0158571D01*
X0103238Y0158529D01*
X0103328Y0158484D01*
X0103417Y0158435D01*
X0103503Y0158383D01*
X0103587Y0158327D01*
X0103670Y0158268D01*
X0103749Y0158206D01*
X0103827Y0158141D01*
X0103901Y0158073D01*
X0103973Y0158001D01*
X0104042Y0157928D01*
X0104108Y0157851D01*
X0104171Y0157772D01*
X0104231Y0157690D01*
X0104287Y0157606D01*
X0104340Y0157520D01*
X0104390Y0157432D01*
X0104436Y0157342D01*
X0104479Y0157251D01*
X0104518Y0157157D01*
X0104553Y0157062D01*
X0104584Y0156966D01*
X0104612Y0156869D01*
X0104636Y0156771D01*
X0104656Y0156672D01*
X0104672Y0156572D01*
X0104684Y0156471D01*
X0104692Y0156371D01*
X0104696Y0156270D01*
X0104696Y0156168D01*
X0104692Y0156067D01*
X0104684Y0155967D01*
X0104672Y0155866D01*
X0104656Y0155766D01*
X0104636Y0155667D01*
X0104612Y0155569D01*
X0104584Y0155472D01*
X0104553Y0155376D01*
X0104518Y0155281D01*
X0104479Y0155187D01*
X0104436Y0155096D01*
X0104390Y0155006D01*
X0104340Y0154918D01*
X0104287Y0154832D01*
X0104231Y0154748D01*
X0104171Y0154666D01*
X0104108Y0154587D01*
X0104042Y0154510D01*
X0103973Y0154437D01*
X0103901Y0154365D01*
X0103827Y0154297D01*
X0103749Y0154232D01*
X0103670Y0154170D01*
X0103587Y0154111D01*
X0103503Y0154055D01*
X0103416Y0154003D01*
X0103328Y0153954D01*
X0103238Y0153909D01*
X0103145Y0153867D01*
X0103052Y0153829D01*
X0102957Y0153795D01*
X0102860Y0153764D01*
X0102763Y0153738D01*
X0102664Y0153715D01*
X0102565Y0153696D01*
X0102465Y0153681D01*
X0102364Y0153670D01*
X0102263Y0153663D01*
X0102162Y0153660D01*
X0102061Y0153661D01*
X0101960Y0153666D01*
X0101859Y0153675D01*
X0101759Y0153688D01*
X0101659Y0153705D01*
X0101561Y0153726D01*
X0101462Y0153750D01*
X0101365Y0153779D01*
X0101270Y0153811D01*
X0101175Y0153848D01*
X0101082Y0153887D01*
X0100991Y0153931D01*
X0100902Y0153978D01*
X0100814Y0154029D01*
X0100728Y0154083D01*
X0100645Y0154140D01*
X0100564Y0154200D01*
X0100486Y0154264D01*
X0100410Y0154331D01*
X0100336Y0154401D01*
X0100266Y0154473D01*
X0100199Y0154548D01*
X0100134Y0154626D01*
X0100073Y0154707D01*
X0100015Y0154789D01*
X0099960Y0154874D01*
X0099908Y0154961D01*
X0099860Y0155050D01*
X0099816Y0155141D01*
X0099775Y0155234D01*
X0099738Y0155328D01*
X0099705Y0155423D01*
X0099675Y0155520D01*
X0099650Y0155618D01*
X0099628Y0155717D01*
X0099610Y0155816D01*
X0099596Y0155916D01*
X0099586Y0156017D01*
X0099580Y0156118D01*
X0099578Y0156219D01*
X0094278Y0139019D02*
X0094280Y0139120D01*
X0094286Y0139221D01*
X0094296Y0139322D01*
X0094310Y0139422D01*
X0094328Y0139521D01*
X0094350Y0139620D01*
X0094375Y0139718D01*
X0094405Y0139815D01*
X0094438Y0139910D01*
X0094475Y0140004D01*
X0094516Y0140097D01*
X0094560Y0140188D01*
X0094608Y0140277D01*
X0094660Y0140364D01*
X0094715Y0140449D01*
X0094773Y0140531D01*
X0094834Y0140612D01*
X0094899Y0140690D01*
X0094966Y0140765D01*
X0095036Y0140837D01*
X0095110Y0140907D01*
X0095186Y0140974D01*
X0095264Y0141038D01*
X0095345Y0141098D01*
X0095428Y0141155D01*
X0095514Y0141209D01*
X0095602Y0141260D01*
X0095691Y0141307D01*
X0095782Y0141351D01*
X0095875Y0141390D01*
X0095970Y0141427D01*
X0096065Y0141459D01*
X0096162Y0141488D01*
X0096261Y0141512D01*
X0096359Y0141533D01*
X0096459Y0141550D01*
X0096559Y0141563D01*
X0096660Y0141572D01*
X0096761Y0141577D01*
X0096862Y0141578D01*
X0096963Y0141575D01*
X0097064Y0141568D01*
X0097165Y0141557D01*
X0097265Y0141542D01*
X0097364Y0141523D01*
X0097463Y0141500D01*
X0097560Y0141474D01*
X0097657Y0141443D01*
X0097752Y0141409D01*
X0097845Y0141371D01*
X0097938Y0141329D01*
X0098028Y0141284D01*
X0098117Y0141235D01*
X0098203Y0141183D01*
X0098287Y0141127D01*
X0098370Y0141068D01*
X0098449Y0141006D01*
X0098527Y0140941D01*
X0098601Y0140873D01*
X0098673Y0140801D01*
X0098742Y0140728D01*
X0098808Y0140651D01*
X0098871Y0140572D01*
X0098931Y0140490D01*
X0098987Y0140406D01*
X0099040Y0140320D01*
X0099090Y0140232D01*
X0099136Y0140142D01*
X0099179Y0140051D01*
X0099218Y0139957D01*
X0099253Y0139862D01*
X0099284Y0139766D01*
X0099312Y0139669D01*
X0099336Y0139571D01*
X0099356Y0139472D01*
X0099372Y0139372D01*
X0099384Y0139271D01*
X0099392Y0139171D01*
X0099396Y0139070D01*
X0099396Y0138968D01*
X0099392Y0138867D01*
X0099384Y0138767D01*
X0099372Y0138666D01*
X0099356Y0138566D01*
X0099336Y0138467D01*
X0099312Y0138369D01*
X0099284Y0138272D01*
X0099253Y0138176D01*
X0099218Y0138081D01*
X0099179Y0137987D01*
X0099136Y0137896D01*
X0099090Y0137806D01*
X0099040Y0137718D01*
X0098987Y0137632D01*
X0098931Y0137548D01*
X0098871Y0137466D01*
X0098808Y0137387D01*
X0098742Y0137310D01*
X0098673Y0137237D01*
X0098601Y0137165D01*
X0098527Y0137097D01*
X0098449Y0137032D01*
X0098370Y0136970D01*
X0098287Y0136911D01*
X0098203Y0136855D01*
X0098116Y0136803D01*
X0098028Y0136754D01*
X0097938Y0136709D01*
X0097845Y0136667D01*
X0097752Y0136629D01*
X0097657Y0136595D01*
X0097560Y0136564D01*
X0097463Y0136538D01*
X0097364Y0136515D01*
X0097265Y0136496D01*
X0097165Y0136481D01*
X0097064Y0136470D01*
X0096963Y0136463D01*
X0096862Y0136460D01*
X0096761Y0136461D01*
X0096660Y0136466D01*
X0096559Y0136475D01*
X0096459Y0136488D01*
X0096359Y0136505D01*
X0096261Y0136526D01*
X0096162Y0136550D01*
X0096065Y0136579D01*
X0095970Y0136611D01*
X0095875Y0136648D01*
X0095782Y0136687D01*
X0095691Y0136731D01*
X0095602Y0136778D01*
X0095514Y0136829D01*
X0095428Y0136883D01*
X0095345Y0136940D01*
X0095264Y0137000D01*
X0095186Y0137064D01*
X0095110Y0137131D01*
X0095036Y0137201D01*
X0094966Y0137273D01*
X0094899Y0137348D01*
X0094834Y0137426D01*
X0094773Y0137507D01*
X0094715Y0137589D01*
X0094660Y0137674D01*
X0094608Y0137761D01*
X0094560Y0137850D01*
X0094516Y0137941D01*
X0094475Y0138034D01*
X0094438Y0138128D01*
X0094405Y0138223D01*
X0094375Y0138320D01*
X0094350Y0138418D01*
X0094328Y0138517D01*
X0094310Y0138616D01*
X0094296Y0138716D01*
X0094286Y0138817D01*
X0094280Y0138918D01*
X0094278Y0139019D01*
X0087578Y0139019D02*
X0087580Y0139120D01*
X0087586Y0139221D01*
X0087596Y0139322D01*
X0087610Y0139422D01*
X0087628Y0139521D01*
X0087650Y0139620D01*
X0087675Y0139718D01*
X0087705Y0139815D01*
X0087738Y0139910D01*
X0087775Y0140004D01*
X0087816Y0140097D01*
X0087860Y0140188D01*
X0087908Y0140277D01*
X0087960Y0140364D01*
X0088015Y0140449D01*
X0088073Y0140531D01*
X0088134Y0140612D01*
X0088199Y0140690D01*
X0088266Y0140765D01*
X0088336Y0140837D01*
X0088410Y0140907D01*
X0088486Y0140974D01*
X0088564Y0141038D01*
X0088645Y0141098D01*
X0088728Y0141155D01*
X0088814Y0141209D01*
X0088902Y0141260D01*
X0088991Y0141307D01*
X0089082Y0141351D01*
X0089175Y0141390D01*
X0089270Y0141427D01*
X0089365Y0141459D01*
X0089462Y0141488D01*
X0089561Y0141512D01*
X0089659Y0141533D01*
X0089759Y0141550D01*
X0089859Y0141563D01*
X0089960Y0141572D01*
X0090061Y0141577D01*
X0090162Y0141578D01*
X0090263Y0141575D01*
X0090364Y0141568D01*
X0090465Y0141557D01*
X0090565Y0141542D01*
X0090664Y0141523D01*
X0090763Y0141500D01*
X0090860Y0141474D01*
X0090957Y0141443D01*
X0091052Y0141409D01*
X0091145Y0141371D01*
X0091238Y0141329D01*
X0091328Y0141284D01*
X0091417Y0141235D01*
X0091503Y0141183D01*
X0091587Y0141127D01*
X0091670Y0141068D01*
X0091749Y0141006D01*
X0091827Y0140941D01*
X0091901Y0140873D01*
X0091973Y0140801D01*
X0092042Y0140728D01*
X0092108Y0140651D01*
X0092171Y0140572D01*
X0092231Y0140490D01*
X0092287Y0140406D01*
X0092340Y0140320D01*
X0092390Y0140232D01*
X0092436Y0140142D01*
X0092479Y0140051D01*
X0092518Y0139957D01*
X0092553Y0139862D01*
X0092584Y0139766D01*
X0092612Y0139669D01*
X0092636Y0139571D01*
X0092656Y0139472D01*
X0092672Y0139372D01*
X0092684Y0139271D01*
X0092692Y0139171D01*
X0092696Y0139070D01*
X0092696Y0138968D01*
X0092692Y0138867D01*
X0092684Y0138767D01*
X0092672Y0138666D01*
X0092656Y0138566D01*
X0092636Y0138467D01*
X0092612Y0138369D01*
X0092584Y0138272D01*
X0092553Y0138176D01*
X0092518Y0138081D01*
X0092479Y0137987D01*
X0092436Y0137896D01*
X0092390Y0137806D01*
X0092340Y0137718D01*
X0092287Y0137632D01*
X0092231Y0137548D01*
X0092171Y0137466D01*
X0092108Y0137387D01*
X0092042Y0137310D01*
X0091973Y0137237D01*
X0091901Y0137165D01*
X0091827Y0137097D01*
X0091749Y0137032D01*
X0091670Y0136970D01*
X0091587Y0136911D01*
X0091503Y0136855D01*
X0091416Y0136803D01*
X0091328Y0136754D01*
X0091238Y0136709D01*
X0091145Y0136667D01*
X0091052Y0136629D01*
X0090957Y0136595D01*
X0090860Y0136564D01*
X0090763Y0136538D01*
X0090664Y0136515D01*
X0090565Y0136496D01*
X0090465Y0136481D01*
X0090364Y0136470D01*
X0090263Y0136463D01*
X0090162Y0136460D01*
X0090061Y0136461D01*
X0089960Y0136466D01*
X0089859Y0136475D01*
X0089759Y0136488D01*
X0089659Y0136505D01*
X0089561Y0136526D01*
X0089462Y0136550D01*
X0089365Y0136579D01*
X0089270Y0136611D01*
X0089175Y0136648D01*
X0089082Y0136687D01*
X0088991Y0136731D01*
X0088902Y0136778D01*
X0088814Y0136829D01*
X0088728Y0136883D01*
X0088645Y0136940D01*
X0088564Y0137000D01*
X0088486Y0137064D01*
X0088410Y0137131D01*
X0088336Y0137201D01*
X0088266Y0137273D01*
X0088199Y0137348D01*
X0088134Y0137426D01*
X0088073Y0137507D01*
X0088015Y0137589D01*
X0087960Y0137674D01*
X0087908Y0137761D01*
X0087860Y0137850D01*
X0087816Y0137941D01*
X0087775Y0138034D01*
X0087738Y0138128D01*
X0087705Y0138223D01*
X0087675Y0138320D01*
X0087650Y0138418D01*
X0087628Y0138517D01*
X0087610Y0138616D01*
X0087596Y0138716D01*
X0087586Y0138817D01*
X0087580Y0138918D01*
X0087578Y0139019D01*
X0047578Y0156119D02*
X0047580Y0156220D01*
X0047586Y0156321D01*
X0047596Y0156422D01*
X0047610Y0156522D01*
X0047628Y0156621D01*
X0047650Y0156720D01*
X0047675Y0156818D01*
X0047705Y0156915D01*
X0047738Y0157010D01*
X0047775Y0157104D01*
X0047816Y0157197D01*
X0047860Y0157288D01*
X0047908Y0157377D01*
X0047960Y0157464D01*
X0048015Y0157549D01*
X0048073Y0157631D01*
X0048134Y0157712D01*
X0048199Y0157790D01*
X0048266Y0157865D01*
X0048336Y0157937D01*
X0048410Y0158007D01*
X0048486Y0158074D01*
X0048564Y0158138D01*
X0048645Y0158198D01*
X0048728Y0158255D01*
X0048814Y0158309D01*
X0048902Y0158360D01*
X0048991Y0158407D01*
X0049082Y0158451D01*
X0049175Y0158490D01*
X0049270Y0158527D01*
X0049365Y0158559D01*
X0049462Y0158588D01*
X0049561Y0158612D01*
X0049659Y0158633D01*
X0049759Y0158650D01*
X0049859Y0158663D01*
X0049960Y0158672D01*
X0050061Y0158677D01*
X0050162Y0158678D01*
X0050263Y0158675D01*
X0050364Y0158668D01*
X0050465Y0158657D01*
X0050565Y0158642D01*
X0050664Y0158623D01*
X0050763Y0158600D01*
X0050860Y0158574D01*
X0050957Y0158543D01*
X0051052Y0158509D01*
X0051145Y0158471D01*
X0051238Y0158429D01*
X0051328Y0158384D01*
X0051417Y0158335D01*
X0051503Y0158283D01*
X0051587Y0158227D01*
X0051670Y0158168D01*
X0051749Y0158106D01*
X0051827Y0158041D01*
X0051901Y0157973D01*
X0051973Y0157901D01*
X0052042Y0157828D01*
X0052108Y0157751D01*
X0052171Y0157672D01*
X0052231Y0157590D01*
X0052287Y0157506D01*
X0052340Y0157420D01*
X0052390Y0157332D01*
X0052436Y0157242D01*
X0052479Y0157151D01*
X0052518Y0157057D01*
X0052553Y0156962D01*
X0052584Y0156866D01*
X0052612Y0156769D01*
X0052636Y0156671D01*
X0052656Y0156572D01*
X0052672Y0156472D01*
X0052684Y0156371D01*
X0052692Y0156271D01*
X0052696Y0156170D01*
X0052696Y0156068D01*
X0052692Y0155967D01*
X0052684Y0155867D01*
X0052672Y0155766D01*
X0052656Y0155666D01*
X0052636Y0155567D01*
X0052612Y0155469D01*
X0052584Y0155372D01*
X0052553Y0155276D01*
X0052518Y0155181D01*
X0052479Y0155087D01*
X0052436Y0154996D01*
X0052390Y0154906D01*
X0052340Y0154818D01*
X0052287Y0154732D01*
X0052231Y0154648D01*
X0052171Y0154566D01*
X0052108Y0154487D01*
X0052042Y0154410D01*
X0051973Y0154337D01*
X0051901Y0154265D01*
X0051827Y0154197D01*
X0051749Y0154132D01*
X0051670Y0154070D01*
X0051587Y0154011D01*
X0051503Y0153955D01*
X0051416Y0153903D01*
X0051328Y0153854D01*
X0051238Y0153809D01*
X0051145Y0153767D01*
X0051052Y0153729D01*
X0050957Y0153695D01*
X0050860Y0153664D01*
X0050763Y0153638D01*
X0050664Y0153615D01*
X0050565Y0153596D01*
X0050465Y0153581D01*
X0050364Y0153570D01*
X0050263Y0153563D01*
X0050162Y0153560D01*
X0050061Y0153561D01*
X0049960Y0153566D01*
X0049859Y0153575D01*
X0049759Y0153588D01*
X0049659Y0153605D01*
X0049561Y0153626D01*
X0049462Y0153650D01*
X0049365Y0153679D01*
X0049270Y0153711D01*
X0049175Y0153748D01*
X0049082Y0153787D01*
X0048991Y0153831D01*
X0048902Y0153878D01*
X0048814Y0153929D01*
X0048728Y0153983D01*
X0048645Y0154040D01*
X0048564Y0154100D01*
X0048486Y0154164D01*
X0048410Y0154231D01*
X0048336Y0154301D01*
X0048266Y0154373D01*
X0048199Y0154448D01*
X0048134Y0154526D01*
X0048073Y0154607D01*
X0048015Y0154689D01*
X0047960Y0154774D01*
X0047908Y0154861D01*
X0047860Y0154950D01*
X0047816Y0155041D01*
X0047775Y0155134D01*
X0047738Y0155228D01*
X0047705Y0155323D01*
X0047675Y0155420D01*
X0047650Y0155518D01*
X0047628Y0155617D01*
X0047610Y0155716D01*
X0047596Y0155816D01*
X0047586Y0155917D01*
X0047580Y0156018D01*
X0047578Y0156119D01*
X0047578Y0162819D02*
X0047580Y0162920D01*
X0047586Y0163021D01*
X0047596Y0163122D01*
X0047610Y0163222D01*
X0047628Y0163321D01*
X0047650Y0163420D01*
X0047675Y0163518D01*
X0047705Y0163615D01*
X0047738Y0163710D01*
X0047775Y0163804D01*
X0047816Y0163897D01*
X0047860Y0163988D01*
X0047908Y0164077D01*
X0047960Y0164164D01*
X0048015Y0164249D01*
X0048073Y0164331D01*
X0048134Y0164412D01*
X0048199Y0164490D01*
X0048266Y0164565D01*
X0048336Y0164637D01*
X0048410Y0164707D01*
X0048486Y0164774D01*
X0048564Y0164838D01*
X0048645Y0164898D01*
X0048728Y0164955D01*
X0048814Y0165009D01*
X0048902Y0165060D01*
X0048991Y0165107D01*
X0049082Y0165151D01*
X0049175Y0165190D01*
X0049270Y0165227D01*
X0049365Y0165259D01*
X0049462Y0165288D01*
X0049561Y0165312D01*
X0049659Y0165333D01*
X0049759Y0165350D01*
X0049859Y0165363D01*
X0049960Y0165372D01*
X0050061Y0165377D01*
X0050162Y0165378D01*
X0050263Y0165375D01*
X0050364Y0165368D01*
X0050465Y0165357D01*
X0050565Y0165342D01*
X0050664Y0165323D01*
X0050763Y0165300D01*
X0050860Y0165274D01*
X0050957Y0165243D01*
X0051052Y0165209D01*
X0051145Y0165171D01*
X0051238Y0165129D01*
X0051328Y0165084D01*
X0051417Y0165035D01*
X0051503Y0164983D01*
X0051587Y0164927D01*
X0051670Y0164868D01*
X0051749Y0164806D01*
X0051827Y0164741D01*
X0051901Y0164673D01*
X0051973Y0164601D01*
X0052042Y0164528D01*
X0052108Y0164451D01*
X0052171Y0164372D01*
X0052231Y0164290D01*
X0052287Y0164206D01*
X0052340Y0164120D01*
X0052390Y0164032D01*
X0052436Y0163942D01*
X0052479Y0163851D01*
X0052518Y0163757D01*
X0052553Y0163662D01*
X0052584Y0163566D01*
X0052612Y0163469D01*
X0052636Y0163371D01*
X0052656Y0163272D01*
X0052672Y0163172D01*
X0052684Y0163071D01*
X0052692Y0162971D01*
X0052696Y0162870D01*
X0052696Y0162768D01*
X0052692Y0162667D01*
X0052684Y0162567D01*
X0052672Y0162466D01*
X0052656Y0162366D01*
X0052636Y0162267D01*
X0052612Y0162169D01*
X0052584Y0162072D01*
X0052553Y0161976D01*
X0052518Y0161881D01*
X0052479Y0161787D01*
X0052436Y0161696D01*
X0052390Y0161606D01*
X0052340Y0161518D01*
X0052287Y0161432D01*
X0052231Y0161348D01*
X0052171Y0161266D01*
X0052108Y0161187D01*
X0052042Y0161110D01*
X0051973Y0161037D01*
X0051901Y0160965D01*
X0051827Y0160897D01*
X0051749Y0160832D01*
X0051670Y0160770D01*
X0051587Y0160711D01*
X0051503Y0160655D01*
X0051416Y0160603D01*
X0051328Y0160554D01*
X0051238Y0160509D01*
X0051145Y0160467D01*
X0051052Y0160429D01*
X0050957Y0160395D01*
X0050860Y0160364D01*
X0050763Y0160338D01*
X0050664Y0160315D01*
X0050565Y0160296D01*
X0050465Y0160281D01*
X0050364Y0160270D01*
X0050263Y0160263D01*
X0050162Y0160260D01*
X0050061Y0160261D01*
X0049960Y0160266D01*
X0049859Y0160275D01*
X0049759Y0160288D01*
X0049659Y0160305D01*
X0049561Y0160326D01*
X0049462Y0160350D01*
X0049365Y0160379D01*
X0049270Y0160411D01*
X0049175Y0160448D01*
X0049082Y0160487D01*
X0048991Y0160531D01*
X0048902Y0160578D01*
X0048814Y0160629D01*
X0048728Y0160683D01*
X0048645Y0160740D01*
X0048564Y0160800D01*
X0048486Y0160864D01*
X0048410Y0160931D01*
X0048336Y0161001D01*
X0048266Y0161073D01*
X0048199Y0161148D01*
X0048134Y0161226D01*
X0048073Y0161307D01*
X0048015Y0161389D01*
X0047960Y0161474D01*
X0047908Y0161561D01*
X0047860Y0161650D01*
X0047816Y0161741D01*
X0047775Y0161834D01*
X0047738Y0161928D01*
X0047705Y0162023D01*
X0047675Y0162120D01*
X0047650Y0162218D01*
X0047628Y0162317D01*
X0047610Y0162416D01*
X0047596Y0162516D01*
X0047586Y0162617D01*
X0047580Y0162718D01*
X0047578Y0162819D01*
X0047578Y0087819D02*
X0047580Y0087920D01*
X0047586Y0088021D01*
X0047596Y0088122D01*
X0047610Y0088222D01*
X0047628Y0088321D01*
X0047650Y0088420D01*
X0047675Y0088518D01*
X0047705Y0088615D01*
X0047738Y0088710D01*
X0047775Y0088804D01*
X0047816Y0088897D01*
X0047860Y0088988D01*
X0047908Y0089077D01*
X0047960Y0089164D01*
X0048015Y0089249D01*
X0048073Y0089331D01*
X0048134Y0089412D01*
X0048199Y0089490D01*
X0048266Y0089565D01*
X0048336Y0089637D01*
X0048410Y0089707D01*
X0048486Y0089774D01*
X0048564Y0089838D01*
X0048645Y0089898D01*
X0048728Y0089955D01*
X0048814Y0090009D01*
X0048902Y0090060D01*
X0048991Y0090107D01*
X0049082Y0090151D01*
X0049175Y0090190D01*
X0049270Y0090227D01*
X0049365Y0090259D01*
X0049462Y0090288D01*
X0049561Y0090312D01*
X0049659Y0090333D01*
X0049759Y0090350D01*
X0049859Y0090363D01*
X0049960Y0090372D01*
X0050061Y0090377D01*
X0050162Y0090378D01*
X0050263Y0090375D01*
X0050364Y0090368D01*
X0050465Y0090357D01*
X0050565Y0090342D01*
X0050664Y0090323D01*
X0050763Y0090300D01*
X0050860Y0090274D01*
X0050957Y0090243D01*
X0051052Y0090209D01*
X0051145Y0090171D01*
X0051238Y0090129D01*
X0051328Y0090084D01*
X0051417Y0090035D01*
X0051503Y0089983D01*
X0051587Y0089927D01*
X0051670Y0089868D01*
X0051749Y0089806D01*
X0051827Y0089741D01*
X0051901Y0089673D01*
X0051973Y0089601D01*
X0052042Y0089528D01*
X0052108Y0089451D01*
X0052171Y0089372D01*
X0052231Y0089290D01*
X0052287Y0089206D01*
X0052340Y0089120D01*
X0052390Y0089032D01*
X0052436Y0088942D01*
X0052479Y0088851D01*
X0052518Y0088757D01*
X0052553Y0088662D01*
X0052584Y0088566D01*
X0052612Y0088469D01*
X0052636Y0088371D01*
X0052656Y0088272D01*
X0052672Y0088172D01*
X0052684Y0088071D01*
X0052692Y0087971D01*
X0052696Y0087870D01*
X0052696Y0087768D01*
X0052692Y0087667D01*
X0052684Y0087567D01*
X0052672Y0087466D01*
X0052656Y0087366D01*
X0052636Y0087267D01*
X0052612Y0087169D01*
X0052584Y0087072D01*
X0052553Y0086976D01*
X0052518Y0086881D01*
X0052479Y0086787D01*
X0052436Y0086696D01*
X0052390Y0086606D01*
X0052340Y0086518D01*
X0052287Y0086432D01*
X0052231Y0086348D01*
X0052171Y0086266D01*
X0052108Y0086187D01*
X0052042Y0086110D01*
X0051973Y0086037D01*
X0051901Y0085965D01*
X0051827Y0085897D01*
X0051749Y0085832D01*
X0051670Y0085770D01*
X0051587Y0085711D01*
X0051503Y0085655D01*
X0051416Y0085603D01*
X0051328Y0085554D01*
X0051238Y0085509D01*
X0051145Y0085467D01*
X0051052Y0085429D01*
X0050957Y0085395D01*
X0050860Y0085364D01*
X0050763Y0085338D01*
X0050664Y0085315D01*
X0050565Y0085296D01*
X0050465Y0085281D01*
X0050364Y0085270D01*
X0050263Y0085263D01*
X0050162Y0085260D01*
X0050061Y0085261D01*
X0049960Y0085266D01*
X0049859Y0085275D01*
X0049759Y0085288D01*
X0049659Y0085305D01*
X0049561Y0085326D01*
X0049462Y0085350D01*
X0049365Y0085379D01*
X0049270Y0085411D01*
X0049175Y0085448D01*
X0049082Y0085487D01*
X0048991Y0085531D01*
X0048902Y0085578D01*
X0048814Y0085629D01*
X0048728Y0085683D01*
X0048645Y0085740D01*
X0048564Y0085800D01*
X0048486Y0085864D01*
X0048410Y0085931D01*
X0048336Y0086001D01*
X0048266Y0086073D01*
X0048199Y0086148D01*
X0048134Y0086226D01*
X0048073Y0086307D01*
X0048015Y0086389D01*
X0047960Y0086474D01*
X0047908Y0086561D01*
X0047860Y0086650D01*
X0047816Y0086741D01*
X0047775Y0086834D01*
X0047738Y0086928D01*
X0047705Y0087023D01*
X0047675Y0087120D01*
X0047650Y0087218D01*
X0047628Y0087317D01*
X0047610Y0087416D01*
X0047596Y0087516D01*
X0047586Y0087617D01*
X0047580Y0087718D01*
X0047578Y0087819D01*
X0047578Y0081119D02*
X0047580Y0081220D01*
X0047586Y0081321D01*
X0047596Y0081422D01*
X0047610Y0081522D01*
X0047628Y0081621D01*
X0047650Y0081720D01*
X0047675Y0081818D01*
X0047705Y0081915D01*
X0047738Y0082010D01*
X0047775Y0082104D01*
X0047816Y0082197D01*
X0047860Y0082288D01*
X0047908Y0082377D01*
X0047960Y0082464D01*
X0048015Y0082549D01*
X0048073Y0082631D01*
X0048134Y0082712D01*
X0048199Y0082790D01*
X0048266Y0082865D01*
X0048336Y0082937D01*
X0048410Y0083007D01*
X0048486Y0083074D01*
X0048564Y0083138D01*
X0048645Y0083198D01*
X0048728Y0083255D01*
X0048814Y0083309D01*
X0048902Y0083360D01*
X0048991Y0083407D01*
X0049082Y0083451D01*
X0049175Y0083490D01*
X0049270Y0083527D01*
X0049365Y0083559D01*
X0049462Y0083588D01*
X0049561Y0083612D01*
X0049659Y0083633D01*
X0049759Y0083650D01*
X0049859Y0083663D01*
X0049960Y0083672D01*
X0050061Y0083677D01*
X0050162Y0083678D01*
X0050263Y0083675D01*
X0050364Y0083668D01*
X0050465Y0083657D01*
X0050565Y0083642D01*
X0050664Y0083623D01*
X0050763Y0083600D01*
X0050860Y0083574D01*
X0050957Y0083543D01*
X0051052Y0083509D01*
X0051145Y0083471D01*
X0051238Y0083429D01*
X0051328Y0083384D01*
X0051417Y0083335D01*
X0051503Y0083283D01*
X0051587Y0083227D01*
X0051670Y0083168D01*
X0051749Y0083106D01*
X0051827Y0083041D01*
X0051901Y0082973D01*
X0051973Y0082901D01*
X0052042Y0082828D01*
X0052108Y0082751D01*
X0052171Y0082672D01*
X0052231Y0082590D01*
X0052287Y0082506D01*
X0052340Y0082420D01*
X0052390Y0082332D01*
X0052436Y0082242D01*
X0052479Y0082151D01*
X0052518Y0082057D01*
X0052553Y0081962D01*
X0052584Y0081866D01*
X0052612Y0081769D01*
X0052636Y0081671D01*
X0052656Y0081572D01*
X0052672Y0081472D01*
X0052684Y0081371D01*
X0052692Y0081271D01*
X0052696Y0081170D01*
X0052696Y0081068D01*
X0052692Y0080967D01*
X0052684Y0080867D01*
X0052672Y0080766D01*
X0052656Y0080666D01*
X0052636Y0080567D01*
X0052612Y0080469D01*
X0052584Y0080372D01*
X0052553Y0080276D01*
X0052518Y0080181D01*
X0052479Y0080087D01*
X0052436Y0079996D01*
X0052390Y0079906D01*
X0052340Y0079818D01*
X0052287Y0079732D01*
X0052231Y0079648D01*
X0052171Y0079566D01*
X0052108Y0079487D01*
X0052042Y0079410D01*
X0051973Y0079337D01*
X0051901Y0079265D01*
X0051827Y0079197D01*
X0051749Y0079132D01*
X0051670Y0079070D01*
X0051587Y0079011D01*
X0051503Y0078955D01*
X0051416Y0078903D01*
X0051328Y0078854D01*
X0051238Y0078809D01*
X0051145Y0078767D01*
X0051052Y0078729D01*
X0050957Y0078695D01*
X0050860Y0078664D01*
X0050763Y0078638D01*
X0050664Y0078615D01*
X0050565Y0078596D01*
X0050465Y0078581D01*
X0050364Y0078570D01*
X0050263Y0078563D01*
X0050162Y0078560D01*
X0050061Y0078561D01*
X0049960Y0078566D01*
X0049859Y0078575D01*
X0049759Y0078588D01*
X0049659Y0078605D01*
X0049561Y0078626D01*
X0049462Y0078650D01*
X0049365Y0078679D01*
X0049270Y0078711D01*
X0049175Y0078748D01*
X0049082Y0078787D01*
X0048991Y0078831D01*
X0048902Y0078878D01*
X0048814Y0078929D01*
X0048728Y0078983D01*
X0048645Y0079040D01*
X0048564Y0079100D01*
X0048486Y0079164D01*
X0048410Y0079231D01*
X0048336Y0079301D01*
X0048266Y0079373D01*
X0048199Y0079448D01*
X0048134Y0079526D01*
X0048073Y0079607D01*
X0048015Y0079689D01*
X0047960Y0079774D01*
X0047908Y0079861D01*
X0047860Y0079950D01*
X0047816Y0080041D01*
X0047775Y0080134D01*
X0047738Y0080228D01*
X0047705Y0080323D01*
X0047675Y0080420D01*
X0047650Y0080518D01*
X0047628Y0080617D01*
X0047610Y0080716D01*
X0047596Y0080816D01*
X0047586Y0080917D01*
X0047580Y0081018D01*
X0047578Y0081119D01*
X0047578Y0037819D02*
X0047580Y0037920D01*
X0047586Y0038021D01*
X0047596Y0038122D01*
X0047610Y0038222D01*
X0047628Y0038321D01*
X0047650Y0038420D01*
X0047675Y0038518D01*
X0047705Y0038615D01*
X0047738Y0038710D01*
X0047775Y0038804D01*
X0047816Y0038897D01*
X0047860Y0038988D01*
X0047908Y0039077D01*
X0047960Y0039164D01*
X0048015Y0039249D01*
X0048073Y0039331D01*
X0048134Y0039412D01*
X0048199Y0039490D01*
X0048266Y0039565D01*
X0048336Y0039637D01*
X0048410Y0039707D01*
X0048486Y0039774D01*
X0048564Y0039838D01*
X0048645Y0039898D01*
X0048728Y0039955D01*
X0048814Y0040009D01*
X0048902Y0040060D01*
X0048991Y0040107D01*
X0049082Y0040151D01*
X0049175Y0040190D01*
X0049270Y0040227D01*
X0049365Y0040259D01*
X0049462Y0040288D01*
X0049561Y0040312D01*
X0049659Y0040333D01*
X0049759Y0040350D01*
X0049859Y0040363D01*
X0049960Y0040372D01*
X0050061Y0040377D01*
X0050162Y0040378D01*
X0050263Y0040375D01*
X0050364Y0040368D01*
X0050465Y0040357D01*
X0050565Y0040342D01*
X0050664Y0040323D01*
X0050763Y0040300D01*
X0050860Y0040274D01*
X0050957Y0040243D01*
X0051052Y0040209D01*
X0051145Y0040171D01*
X0051238Y0040129D01*
X0051328Y0040084D01*
X0051417Y0040035D01*
X0051503Y0039983D01*
X0051587Y0039927D01*
X0051670Y0039868D01*
X0051749Y0039806D01*
X0051827Y0039741D01*
X0051901Y0039673D01*
X0051973Y0039601D01*
X0052042Y0039528D01*
X0052108Y0039451D01*
X0052171Y0039372D01*
X0052231Y0039290D01*
X0052287Y0039206D01*
X0052340Y0039120D01*
X0052390Y0039032D01*
X0052436Y0038942D01*
X0052479Y0038851D01*
X0052518Y0038757D01*
X0052553Y0038662D01*
X0052584Y0038566D01*
X0052612Y0038469D01*
X0052636Y0038371D01*
X0052656Y0038272D01*
X0052672Y0038172D01*
X0052684Y0038071D01*
X0052692Y0037971D01*
X0052696Y0037870D01*
X0052696Y0037768D01*
X0052692Y0037667D01*
X0052684Y0037567D01*
X0052672Y0037466D01*
X0052656Y0037366D01*
X0052636Y0037267D01*
X0052612Y0037169D01*
X0052584Y0037072D01*
X0052553Y0036976D01*
X0052518Y0036881D01*
X0052479Y0036787D01*
X0052436Y0036696D01*
X0052390Y0036606D01*
X0052340Y0036518D01*
X0052287Y0036432D01*
X0052231Y0036348D01*
X0052171Y0036266D01*
X0052108Y0036187D01*
X0052042Y0036110D01*
X0051973Y0036037D01*
X0051901Y0035965D01*
X0051827Y0035897D01*
X0051749Y0035832D01*
X0051670Y0035770D01*
X0051587Y0035711D01*
X0051503Y0035655D01*
X0051416Y0035603D01*
X0051328Y0035554D01*
X0051238Y0035509D01*
X0051145Y0035467D01*
X0051052Y0035429D01*
X0050957Y0035395D01*
X0050860Y0035364D01*
X0050763Y0035338D01*
X0050664Y0035315D01*
X0050565Y0035296D01*
X0050465Y0035281D01*
X0050364Y0035270D01*
X0050263Y0035263D01*
X0050162Y0035260D01*
X0050061Y0035261D01*
X0049960Y0035266D01*
X0049859Y0035275D01*
X0049759Y0035288D01*
X0049659Y0035305D01*
X0049561Y0035326D01*
X0049462Y0035350D01*
X0049365Y0035379D01*
X0049270Y0035411D01*
X0049175Y0035448D01*
X0049082Y0035487D01*
X0048991Y0035531D01*
X0048902Y0035578D01*
X0048814Y0035629D01*
X0048728Y0035683D01*
X0048645Y0035740D01*
X0048564Y0035800D01*
X0048486Y0035864D01*
X0048410Y0035931D01*
X0048336Y0036001D01*
X0048266Y0036073D01*
X0048199Y0036148D01*
X0048134Y0036226D01*
X0048073Y0036307D01*
X0048015Y0036389D01*
X0047960Y0036474D01*
X0047908Y0036561D01*
X0047860Y0036650D01*
X0047816Y0036741D01*
X0047775Y0036834D01*
X0047738Y0036928D01*
X0047705Y0037023D01*
X0047675Y0037120D01*
X0047650Y0037218D01*
X0047628Y0037317D01*
X0047610Y0037416D01*
X0047596Y0037516D01*
X0047586Y0037617D01*
X0047580Y0037718D01*
X0047578Y0037819D01*
X0047578Y0031119D02*
X0047580Y0031220D01*
X0047586Y0031321D01*
X0047596Y0031422D01*
X0047610Y0031522D01*
X0047628Y0031621D01*
X0047650Y0031720D01*
X0047675Y0031818D01*
X0047705Y0031915D01*
X0047738Y0032010D01*
X0047775Y0032104D01*
X0047816Y0032197D01*
X0047860Y0032288D01*
X0047908Y0032377D01*
X0047960Y0032464D01*
X0048015Y0032549D01*
X0048073Y0032631D01*
X0048134Y0032712D01*
X0048199Y0032790D01*
X0048266Y0032865D01*
X0048336Y0032937D01*
X0048410Y0033007D01*
X0048486Y0033074D01*
X0048564Y0033138D01*
X0048645Y0033198D01*
X0048728Y0033255D01*
X0048814Y0033309D01*
X0048902Y0033360D01*
X0048991Y0033407D01*
X0049082Y0033451D01*
X0049175Y0033490D01*
X0049270Y0033527D01*
X0049365Y0033559D01*
X0049462Y0033588D01*
X0049561Y0033612D01*
X0049659Y0033633D01*
X0049759Y0033650D01*
X0049859Y0033663D01*
X0049960Y0033672D01*
X0050061Y0033677D01*
X0050162Y0033678D01*
X0050263Y0033675D01*
X0050364Y0033668D01*
X0050465Y0033657D01*
X0050565Y0033642D01*
X0050664Y0033623D01*
X0050763Y0033600D01*
X0050860Y0033574D01*
X0050957Y0033543D01*
X0051052Y0033509D01*
X0051145Y0033471D01*
X0051238Y0033429D01*
X0051328Y0033384D01*
X0051417Y0033335D01*
X0051503Y0033283D01*
X0051587Y0033227D01*
X0051670Y0033168D01*
X0051749Y0033106D01*
X0051827Y0033041D01*
X0051901Y0032973D01*
X0051973Y0032901D01*
X0052042Y0032828D01*
X0052108Y0032751D01*
X0052171Y0032672D01*
X0052231Y0032590D01*
X0052287Y0032506D01*
X0052340Y0032420D01*
X0052390Y0032332D01*
X0052436Y0032242D01*
X0052479Y0032151D01*
X0052518Y0032057D01*
X0052553Y0031962D01*
X0052584Y0031866D01*
X0052612Y0031769D01*
X0052636Y0031671D01*
X0052656Y0031572D01*
X0052672Y0031472D01*
X0052684Y0031371D01*
X0052692Y0031271D01*
X0052696Y0031170D01*
X0052696Y0031068D01*
X0052692Y0030967D01*
X0052684Y0030867D01*
X0052672Y0030766D01*
X0052656Y0030666D01*
X0052636Y0030567D01*
X0052612Y0030469D01*
X0052584Y0030372D01*
X0052553Y0030276D01*
X0052518Y0030181D01*
X0052479Y0030087D01*
X0052436Y0029996D01*
X0052390Y0029906D01*
X0052340Y0029818D01*
X0052287Y0029732D01*
X0052231Y0029648D01*
X0052171Y0029566D01*
X0052108Y0029487D01*
X0052042Y0029410D01*
X0051973Y0029337D01*
X0051901Y0029265D01*
X0051827Y0029197D01*
X0051749Y0029132D01*
X0051670Y0029070D01*
X0051587Y0029011D01*
X0051503Y0028955D01*
X0051416Y0028903D01*
X0051328Y0028854D01*
X0051238Y0028809D01*
X0051145Y0028767D01*
X0051052Y0028729D01*
X0050957Y0028695D01*
X0050860Y0028664D01*
X0050763Y0028638D01*
X0050664Y0028615D01*
X0050565Y0028596D01*
X0050465Y0028581D01*
X0050364Y0028570D01*
X0050263Y0028563D01*
X0050162Y0028560D01*
X0050061Y0028561D01*
X0049960Y0028566D01*
X0049859Y0028575D01*
X0049759Y0028588D01*
X0049659Y0028605D01*
X0049561Y0028626D01*
X0049462Y0028650D01*
X0049365Y0028679D01*
X0049270Y0028711D01*
X0049175Y0028748D01*
X0049082Y0028787D01*
X0048991Y0028831D01*
X0048902Y0028878D01*
X0048814Y0028929D01*
X0048728Y0028983D01*
X0048645Y0029040D01*
X0048564Y0029100D01*
X0048486Y0029164D01*
X0048410Y0029231D01*
X0048336Y0029301D01*
X0048266Y0029373D01*
X0048199Y0029448D01*
X0048134Y0029526D01*
X0048073Y0029607D01*
X0048015Y0029689D01*
X0047960Y0029774D01*
X0047908Y0029861D01*
X0047860Y0029950D01*
X0047816Y0030041D01*
X0047775Y0030134D01*
X0047738Y0030228D01*
X0047705Y0030323D01*
X0047675Y0030420D01*
X0047650Y0030518D01*
X0047628Y0030617D01*
X0047610Y0030716D01*
X0047596Y0030816D01*
X0047586Y0030917D01*
X0047580Y0031018D01*
X0047578Y0031119D01*
X0087578Y0014019D02*
X0087580Y0014120D01*
X0087586Y0014221D01*
X0087596Y0014322D01*
X0087610Y0014422D01*
X0087628Y0014521D01*
X0087650Y0014620D01*
X0087675Y0014718D01*
X0087705Y0014815D01*
X0087738Y0014910D01*
X0087775Y0015004D01*
X0087816Y0015097D01*
X0087860Y0015188D01*
X0087908Y0015277D01*
X0087960Y0015364D01*
X0088015Y0015449D01*
X0088073Y0015531D01*
X0088134Y0015612D01*
X0088199Y0015690D01*
X0088266Y0015765D01*
X0088336Y0015837D01*
X0088410Y0015907D01*
X0088486Y0015974D01*
X0088564Y0016038D01*
X0088645Y0016098D01*
X0088728Y0016155D01*
X0088814Y0016209D01*
X0088902Y0016260D01*
X0088991Y0016307D01*
X0089082Y0016351D01*
X0089175Y0016390D01*
X0089270Y0016427D01*
X0089365Y0016459D01*
X0089462Y0016488D01*
X0089561Y0016512D01*
X0089659Y0016533D01*
X0089759Y0016550D01*
X0089859Y0016563D01*
X0089960Y0016572D01*
X0090061Y0016577D01*
X0090162Y0016578D01*
X0090263Y0016575D01*
X0090364Y0016568D01*
X0090465Y0016557D01*
X0090565Y0016542D01*
X0090664Y0016523D01*
X0090763Y0016500D01*
X0090860Y0016474D01*
X0090957Y0016443D01*
X0091052Y0016409D01*
X0091145Y0016371D01*
X0091238Y0016329D01*
X0091328Y0016284D01*
X0091417Y0016235D01*
X0091503Y0016183D01*
X0091587Y0016127D01*
X0091670Y0016068D01*
X0091749Y0016006D01*
X0091827Y0015941D01*
X0091901Y0015873D01*
X0091973Y0015801D01*
X0092042Y0015728D01*
X0092108Y0015651D01*
X0092171Y0015572D01*
X0092231Y0015490D01*
X0092287Y0015406D01*
X0092340Y0015320D01*
X0092390Y0015232D01*
X0092436Y0015142D01*
X0092479Y0015051D01*
X0092518Y0014957D01*
X0092553Y0014862D01*
X0092584Y0014766D01*
X0092612Y0014669D01*
X0092636Y0014571D01*
X0092656Y0014472D01*
X0092672Y0014372D01*
X0092684Y0014271D01*
X0092692Y0014171D01*
X0092696Y0014070D01*
X0092696Y0013968D01*
X0092692Y0013867D01*
X0092684Y0013767D01*
X0092672Y0013666D01*
X0092656Y0013566D01*
X0092636Y0013467D01*
X0092612Y0013369D01*
X0092584Y0013272D01*
X0092553Y0013176D01*
X0092518Y0013081D01*
X0092479Y0012987D01*
X0092436Y0012896D01*
X0092390Y0012806D01*
X0092340Y0012718D01*
X0092287Y0012632D01*
X0092231Y0012548D01*
X0092171Y0012466D01*
X0092108Y0012387D01*
X0092042Y0012310D01*
X0091973Y0012237D01*
X0091901Y0012165D01*
X0091827Y0012097D01*
X0091749Y0012032D01*
X0091670Y0011970D01*
X0091587Y0011911D01*
X0091503Y0011855D01*
X0091416Y0011803D01*
X0091328Y0011754D01*
X0091238Y0011709D01*
X0091145Y0011667D01*
X0091052Y0011629D01*
X0090957Y0011595D01*
X0090860Y0011564D01*
X0090763Y0011538D01*
X0090664Y0011515D01*
X0090565Y0011496D01*
X0090465Y0011481D01*
X0090364Y0011470D01*
X0090263Y0011463D01*
X0090162Y0011460D01*
X0090061Y0011461D01*
X0089960Y0011466D01*
X0089859Y0011475D01*
X0089759Y0011488D01*
X0089659Y0011505D01*
X0089561Y0011526D01*
X0089462Y0011550D01*
X0089365Y0011579D01*
X0089270Y0011611D01*
X0089175Y0011648D01*
X0089082Y0011687D01*
X0088991Y0011731D01*
X0088902Y0011778D01*
X0088814Y0011829D01*
X0088728Y0011883D01*
X0088645Y0011940D01*
X0088564Y0012000D01*
X0088486Y0012064D01*
X0088410Y0012131D01*
X0088336Y0012201D01*
X0088266Y0012273D01*
X0088199Y0012348D01*
X0088134Y0012426D01*
X0088073Y0012507D01*
X0088015Y0012589D01*
X0087960Y0012674D01*
X0087908Y0012761D01*
X0087860Y0012850D01*
X0087816Y0012941D01*
X0087775Y0013034D01*
X0087738Y0013128D01*
X0087705Y0013223D01*
X0087675Y0013320D01*
X0087650Y0013418D01*
X0087628Y0013517D01*
X0087610Y0013616D01*
X0087596Y0013716D01*
X0087586Y0013817D01*
X0087580Y0013918D01*
X0087578Y0014019D01*
X0094278Y0014019D02*
X0094280Y0014120D01*
X0094286Y0014221D01*
X0094296Y0014322D01*
X0094310Y0014422D01*
X0094328Y0014521D01*
X0094350Y0014620D01*
X0094375Y0014718D01*
X0094405Y0014815D01*
X0094438Y0014910D01*
X0094475Y0015004D01*
X0094516Y0015097D01*
X0094560Y0015188D01*
X0094608Y0015277D01*
X0094660Y0015364D01*
X0094715Y0015449D01*
X0094773Y0015531D01*
X0094834Y0015612D01*
X0094899Y0015690D01*
X0094966Y0015765D01*
X0095036Y0015837D01*
X0095110Y0015907D01*
X0095186Y0015974D01*
X0095264Y0016038D01*
X0095345Y0016098D01*
X0095428Y0016155D01*
X0095514Y0016209D01*
X0095602Y0016260D01*
X0095691Y0016307D01*
X0095782Y0016351D01*
X0095875Y0016390D01*
X0095970Y0016427D01*
X0096065Y0016459D01*
X0096162Y0016488D01*
X0096261Y0016512D01*
X0096359Y0016533D01*
X0096459Y0016550D01*
X0096559Y0016563D01*
X0096660Y0016572D01*
X0096761Y0016577D01*
X0096862Y0016578D01*
X0096963Y0016575D01*
X0097064Y0016568D01*
X0097165Y0016557D01*
X0097265Y0016542D01*
X0097364Y0016523D01*
X0097463Y0016500D01*
X0097560Y0016474D01*
X0097657Y0016443D01*
X0097752Y0016409D01*
X0097845Y0016371D01*
X0097938Y0016329D01*
X0098028Y0016284D01*
X0098117Y0016235D01*
X0098203Y0016183D01*
X0098287Y0016127D01*
X0098370Y0016068D01*
X0098449Y0016006D01*
X0098527Y0015941D01*
X0098601Y0015873D01*
X0098673Y0015801D01*
X0098742Y0015728D01*
X0098808Y0015651D01*
X0098871Y0015572D01*
X0098931Y0015490D01*
X0098987Y0015406D01*
X0099040Y0015320D01*
X0099090Y0015232D01*
X0099136Y0015142D01*
X0099179Y0015051D01*
X0099218Y0014957D01*
X0099253Y0014862D01*
X0099284Y0014766D01*
X0099312Y0014669D01*
X0099336Y0014571D01*
X0099356Y0014472D01*
X0099372Y0014372D01*
X0099384Y0014271D01*
X0099392Y0014171D01*
X0099396Y0014070D01*
X0099396Y0013968D01*
X0099392Y0013867D01*
X0099384Y0013767D01*
X0099372Y0013666D01*
X0099356Y0013566D01*
X0099336Y0013467D01*
X0099312Y0013369D01*
X0099284Y0013272D01*
X0099253Y0013176D01*
X0099218Y0013081D01*
X0099179Y0012987D01*
X0099136Y0012896D01*
X0099090Y0012806D01*
X0099040Y0012718D01*
X0098987Y0012632D01*
X0098931Y0012548D01*
X0098871Y0012466D01*
X0098808Y0012387D01*
X0098742Y0012310D01*
X0098673Y0012237D01*
X0098601Y0012165D01*
X0098527Y0012097D01*
X0098449Y0012032D01*
X0098370Y0011970D01*
X0098287Y0011911D01*
X0098203Y0011855D01*
X0098116Y0011803D01*
X0098028Y0011754D01*
X0097938Y0011709D01*
X0097845Y0011667D01*
X0097752Y0011629D01*
X0097657Y0011595D01*
X0097560Y0011564D01*
X0097463Y0011538D01*
X0097364Y0011515D01*
X0097265Y0011496D01*
X0097165Y0011481D01*
X0097064Y0011470D01*
X0096963Y0011463D01*
X0096862Y0011460D01*
X0096761Y0011461D01*
X0096660Y0011466D01*
X0096559Y0011475D01*
X0096459Y0011488D01*
X0096359Y0011505D01*
X0096261Y0011526D01*
X0096162Y0011550D01*
X0096065Y0011579D01*
X0095970Y0011611D01*
X0095875Y0011648D01*
X0095782Y0011687D01*
X0095691Y0011731D01*
X0095602Y0011778D01*
X0095514Y0011829D01*
X0095428Y0011883D01*
X0095345Y0011940D01*
X0095264Y0012000D01*
X0095186Y0012064D01*
X0095110Y0012131D01*
X0095036Y0012201D01*
X0094966Y0012273D01*
X0094899Y0012348D01*
X0094834Y0012426D01*
X0094773Y0012507D01*
X0094715Y0012589D01*
X0094660Y0012674D01*
X0094608Y0012761D01*
X0094560Y0012850D01*
X0094516Y0012941D01*
X0094475Y0013034D01*
X0094438Y0013128D01*
X0094405Y0013223D01*
X0094375Y0013320D01*
X0094350Y0013418D01*
X0094328Y0013517D01*
X0094310Y0013616D01*
X0094296Y0013716D01*
X0094286Y0013817D01*
X0094280Y0013918D01*
X0094278Y0014019D01*
X0099578Y0031219D02*
X0099580Y0031320D01*
X0099586Y0031421D01*
X0099596Y0031522D01*
X0099610Y0031622D01*
X0099628Y0031721D01*
X0099650Y0031820D01*
X0099675Y0031918D01*
X0099705Y0032015D01*
X0099738Y0032110D01*
X0099775Y0032204D01*
X0099816Y0032297D01*
X0099860Y0032388D01*
X0099908Y0032477D01*
X0099960Y0032564D01*
X0100015Y0032649D01*
X0100073Y0032731D01*
X0100134Y0032812D01*
X0100199Y0032890D01*
X0100266Y0032965D01*
X0100336Y0033037D01*
X0100410Y0033107D01*
X0100486Y0033174D01*
X0100564Y0033238D01*
X0100645Y0033298D01*
X0100728Y0033355D01*
X0100814Y0033409D01*
X0100902Y0033460D01*
X0100991Y0033507D01*
X0101082Y0033551D01*
X0101175Y0033590D01*
X0101270Y0033627D01*
X0101365Y0033659D01*
X0101462Y0033688D01*
X0101561Y0033712D01*
X0101659Y0033733D01*
X0101759Y0033750D01*
X0101859Y0033763D01*
X0101960Y0033772D01*
X0102061Y0033777D01*
X0102162Y0033778D01*
X0102263Y0033775D01*
X0102364Y0033768D01*
X0102465Y0033757D01*
X0102565Y0033742D01*
X0102664Y0033723D01*
X0102763Y0033700D01*
X0102860Y0033674D01*
X0102957Y0033643D01*
X0103052Y0033609D01*
X0103145Y0033571D01*
X0103238Y0033529D01*
X0103328Y0033484D01*
X0103417Y0033435D01*
X0103503Y0033383D01*
X0103587Y0033327D01*
X0103670Y0033268D01*
X0103749Y0033206D01*
X0103827Y0033141D01*
X0103901Y0033073D01*
X0103973Y0033001D01*
X0104042Y0032928D01*
X0104108Y0032851D01*
X0104171Y0032772D01*
X0104231Y0032690D01*
X0104287Y0032606D01*
X0104340Y0032520D01*
X0104390Y0032432D01*
X0104436Y0032342D01*
X0104479Y0032251D01*
X0104518Y0032157D01*
X0104553Y0032062D01*
X0104584Y0031966D01*
X0104612Y0031869D01*
X0104636Y0031771D01*
X0104656Y0031672D01*
X0104672Y0031572D01*
X0104684Y0031471D01*
X0104692Y0031371D01*
X0104696Y0031270D01*
X0104696Y0031168D01*
X0104692Y0031067D01*
X0104684Y0030967D01*
X0104672Y0030866D01*
X0104656Y0030766D01*
X0104636Y0030667D01*
X0104612Y0030569D01*
X0104584Y0030472D01*
X0104553Y0030376D01*
X0104518Y0030281D01*
X0104479Y0030187D01*
X0104436Y0030096D01*
X0104390Y0030006D01*
X0104340Y0029918D01*
X0104287Y0029832D01*
X0104231Y0029748D01*
X0104171Y0029666D01*
X0104108Y0029587D01*
X0104042Y0029510D01*
X0103973Y0029437D01*
X0103901Y0029365D01*
X0103827Y0029297D01*
X0103749Y0029232D01*
X0103670Y0029170D01*
X0103587Y0029111D01*
X0103503Y0029055D01*
X0103416Y0029003D01*
X0103328Y0028954D01*
X0103238Y0028909D01*
X0103145Y0028867D01*
X0103052Y0028829D01*
X0102957Y0028795D01*
X0102860Y0028764D01*
X0102763Y0028738D01*
X0102664Y0028715D01*
X0102565Y0028696D01*
X0102465Y0028681D01*
X0102364Y0028670D01*
X0102263Y0028663D01*
X0102162Y0028660D01*
X0102061Y0028661D01*
X0101960Y0028666D01*
X0101859Y0028675D01*
X0101759Y0028688D01*
X0101659Y0028705D01*
X0101561Y0028726D01*
X0101462Y0028750D01*
X0101365Y0028779D01*
X0101270Y0028811D01*
X0101175Y0028848D01*
X0101082Y0028887D01*
X0100991Y0028931D01*
X0100902Y0028978D01*
X0100814Y0029029D01*
X0100728Y0029083D01*
X0100645Y0029140D01*
X0100564Y0029200D01*
X0100486Y0029264D01*
X0100410Y0029331D01*
X0100336Y0029401D01*
X0100266Y0029473D01*
X0100199Y0029548D01*
X0100134Y0029626D01*
X0100073Y0029707D01*
X0100015Y0029789D01*
X0099960Y0029874D01*
X0099908Y0029961D01*
X0099860Y0030050D01*
X0099816Y0030141D01*
X0099775Y0030234D01*
X0099738Y0030328D01*
X0099705Y0030423D01*
X0099675Y0030520D01*
X0099650Y0030618D01*
X0099628Y0030717D01*
X0099610Y0030816D01*
X0099596Y0030916D01*
X0099586Y0031017D01*
X0099580Y0031118D01*
X0099578Y0031219D01*
X0099578Y0037819D02*
X0099580Y0037920D01*
X0099586Y0038021D01*
X0099596Y0038122D01*
X0099610Y0038222D01*
X0099628Y0038321D01*
X0099650Y0038420D01*
X0099675Y0038518D01*
X0099705Y0038615D01*
X0099738Y0038710D01*
X0099775Y0038804D01*
X0099816Y0038897D01*
X0099860Y0038988D01*
X0099908Y0039077D01*
X0099960Y0039164D01*
X0100015Y0039249D01*
X0100073Y0039331D01*
X0100134Y0039412D01*
X0100199Y0039490D01*
X0100266Y0039565D01*
X0100336Y0039637D01*
X0100410Y0039707D01*
X0100486Y0039774D01*
X0100564Y0039838D01*
X0100645Y0039898D01*
X0100728Y0039955D01*
X0100814Y0040009D01*
X0100902Y0040060D01*
X0100991Y0040107D01*
X0101082Y0040151D01*
X0101175Y0040190D01*
X0101270Y0040227D01*
X0101365Y0040259D01*
X0101462Y0040288D01*
X0101561Y0040312D01*
X0101659Y0040333D01*
X0101759Y0040350D01*
X0101859Y0040363D01*
X0101960Y0040372D01*
X0102061Y0040377D01*
X0102162Y0040378D01*
X0102263Y0040375D01*
X0102364Y0040368D01*
X0102465Y0040357D01*
X0102565Y0040342D01*
X0102664Y0040323D01*
X0102763Y0040300D01*
X0102860Y0040274D01*
X0102957Y0040243D01*
X0103052Y0040209D01*
X0103145Y0040171D01*
X0103238Y0040129D01*
X0103328Y0040084D01*
X0103417Y0040035D01*
X0103503Y0039983D01*
X0103587Y0039927D01*
X0103670Y0039868D01*
X0103749Y0039806D01*
X0103827Y0039741D01*
X0103901Y0039673D01*
X0103973Y0039601D01*
X0104042Y0039528D01*
X0104108Y0039451D01*
X0104171Y0039372D01*
X0104231Y0039290D01*
X0104287Y0039206D01*
X0104340Y0039120D01*
X0104390Y0039032D01*
X0104436Y0038942D01*
X0104479Y0038851D01*
X0104518Y0038757D01*
X0104553Y0038662D01*
X0104584Y0038566D01*
X0104612Y0038469D01*
X0104636Y0038371D01*
X0104656Y0038272D01*
X0104672Y0038172D01*
X0104684Y0038071D01*
X0104692Y0037971D01*
X0104696Y0037870D01*
X0104696Y0037768D01*
X0104692Y0037667D01*
X0104684Y0037567D01*
X0104672Y0037466D01*
X0104656Y0037366D01*
X0104636Y0037267D01*
X0104612Y0037169D01*
X0104584Y0037072D01*
X0104553Y0036976D01*
X0104518Y0036881D01*
X0104479Y0036787D01*
X0104436Y0036696D01*
X0104390Y0036606D01*
X0104340Y0036518D01*
X0104287Y0036432D01*
X0104231Y0036348D01*
X0104171Y0036266D01*
X0104108Y0036187D01*
X0104042Y0036110D01*
X0103973Y0036037D01*
X0103901Y0035965D01*
X0103827Y0035897D01*
X0103749Y0035832D01*
X0103670Y0035770D01*
X0103587Y0035711D01*
X0103503Y0035655D01*
X0103416Y0035603D01*
X0103328Y0035554D01*
X0103238Y0035509D01*
X0103145Y0035467D01*
X0103052Y0035429D01*
X0102957Y0035395D01*
X0102860Y0035364D01*
X0102763Y0035338D01*
X0102664Y0035315D01*
X0102565Y0035296D01*
X0102465Y0035281D01*
X0102364Y0035270D01*
X0102263Y0035263D01*
X0102162Y0035260D01*
X0102061Y0035261D01*
X0101960Y0035266D01*
X0101859Y0035275D01*
X0101759Y0035288D01*
X0101659Y0035305D01*
X0101561Y0035326D01*
X0101462Y0035350D01*
X0101365Y0035379D01*
X0101270Y0035411D01*
X0101175Y0035448D01*
X0101082Y0035487D01*
X0100991Y0035531D01*
X0100902Y0035578D01*
X0100814Y0035629D01*
X0100728Y0035683D01*
X0100645Y0035740D01*
X0100564Y0035800D01*
X0100486Y0035864D01*
X0100410Y0035931D01*
X0100336Y0036001D01*
X0100266Y0036073D01*
X0100199Y0036148D01*
X0100134Y0036226D01*
X0100073Y0036307D01*
X0100015Y0036389D01*
X0099960Y0036474D01*
X0099908Y0036561D01*
X0099860Y0036650D01*
X0099816Y0036741D01*
X0099775Y0036834D01*
X0099738Y0036928D01*
X0099705Y0037023D01*
X0099675Y0037120D01*
X0099650Y0037218D01*
X0099628Y0037317D01*
X0099610Y0037416D01*
X0099596Y0037516D01*
X0099586Y0037617D01*
X0099580Y0037718D01*
X0099578Y0037819D01*
X0094278Y0064019D02*
X0094280Y0064120D01*
X0094286Y0064221D01*
X0094296Y0064322D01*
X0094310Y0064422D01*
X0094328Y0064521D01*
X0094350Y0064620D01*
X0094375Y0064718D01*
X0094405Y0064815D01*
X0094438Y0064910D01*
X0094475Y0065004D01*
X0094516Y0065097D01*
X0094560Y0065188D01*
X0094608Y0065277D01*
X0094660Y0065364D01*
X0094715Y0065449D01*
X0094773Y0065531D01*
X0094834Y0065612D01*
X0094899Y0065690D01*
X0094966Y0065765D01*
X0095036Y0065837D01*
X0095110Y0065907D01*
X0095186Y0065974D01*
X0095264Y0066038D01*
X0095345Y0066098D01*
X0095428Y0066155D01*
X0095514Y0066209D01*
X0095602Y0066260D01*
X0095691Y0066307D01*
X0095782Y0066351D01*
X0095875Y0066390D01*
X0095970Y0066427D01*
X0096065Y0066459D01*
X0096162Y0066488D01*
X0096261Y0066512D01*
X0096359Y0066533D01*
X0096459Y0066550D01*
X0096559Y0066563D01*
X0096660Y0066572D01*
X0096761Y0066577D01*
X0096862Y0066578D01*
X0096963Y0066575D01*
X0097064Y0066568D01*
X0097165Y0066557D01*
X0097265Y0066542D01*
X0097364Y0066523D01*
X0097463Y0066500D01*
X0097560Y0066474D01*
X0097657Y0066443D01*
X0097752Y0066409D01*
X0097845Y0066371D01*
X0097938Y0066329D01*
X0098028Y0066284D01*
X0098117Y0066235D01*
X0098203Y0066183D01*
X0098287Y0066127D01*
X0098370Y0066068D01*
X0098449Y0066006D01*
X0098527Y0065941D01*
X0098601Y0065873D01*
X0098673Y0065801D01*
X0098742Y0065728D01*
X0098808Y0065651D01*
X0098871Y0065572D01*
X0098931Y0065490D01*
X0098987Y0065406D01*
X0099040Y0065320D01*
X0099090Y0065232D01*
X0099136Y0065142D01*
X0099179Y0065051D01*
X0099218Y0064957D01*
X0099253Y0064862D01*
X0099284Y0064766D01*
X0099312Y0064669D01*
X0099336Y0064571D01*
X0099356Y0064472D01*
X0099372Y0064372D01*
X0099384Y0064271D01*
X0099392Y0064171D01*
X0099396Y0064070D01*
X0099396Y0063968D01*
X0099392Y0063867D01*
X0099384Y0063767D01*
X0099372Y0063666D01*
X0099356Y0063566D01*
X0099336Y0063467D01*
X0099312Y0063369D01*
X0099284Y0063272D01*
X0099253Y0063176D01*
X0099218Y0063081D01*
X0099179Y0062987D01*
X0099136Y0062896D01*
X0099090Y0062806D01*
X0099040Y0062718D01*
X0098987Y0062632D01*
X0098931Y0062548D01*
X0098871Y0062466D01*
X0098808Y0062387D01*
X0098742Y0062310D01*
X0098673Y0062237D01*
X0098601Y0062165D01*
X0098527Y0062097D01*
X0098449Y0062032D01*
X0098370Y0061970D01*
X0098287Y0061911D01*
X0098203Y0061855D01*
X0098116Y0061803D01*
X0098028Y0061754D01*
X0097938Y0061709D01*
X0097845Y0061667D01*
X0097752Y0061629D01*
X0097657Y0061595D01*
X0097560Y0061564D01*
X0097463Y0061538D01*
X0097364Y0061515D01*
X0097265Y0061496D01*
X0097165Y0061481D01*
X0097064Y0061470D01*
X0096963Y0061463D01*
X0096862Y0061460D01*
X0096761Y0061461D01*
X0096660Y0061466D01*
X0096559Y0061475D01*
X0096459Y0061488D01*
X0096359Y0061505D01*
X0096261Y0061526D01*
X0096162Y0061550D01*
X0096065Y0061579D01*
X0095970Y0061611D01*
X0095875Y0061648D01*
X0095782Y0061687D01*
X0095691Y0061731D01*
X0095602Y0061778D01*
X0095514Y0061829D01*
X0095428Y0061883D01*
X0095345Y0061940D01*
X0095264Y0062000D01*
X0095186Y0062064D01*
X0095110Y0062131D01*
X0095036Y0062201D01*
X0094966Y0062273D01*
X0094899Y0062348D01*
X0094834Y0062426D01*
X0094773Y0062507D01*
X0094715Y0062589D01*
X0094660Y0062674D01*
X0094608Y0062761D01*
X0094560Y0062850D01*
X0094516Y0062941D01*
X0094475Y0063034D01*
X0094438Y0063128D01*
X0094405Y0063223D01*
X0094375Y0063320D01*
X0094350Y0063418D01*
X0094328Y0063517D01*
X0094310Y0063616D01*
X0094296Y0063716D01*
X0094286Y0063817D01*
X0094280Y0063918D01*
X0094278Y0064019D01*
X0087578Y0064019D02*
X0087580Y0064120D01*
X0087586Y0064221D01*
X0087596Y0064322D01*
X0087610Y0064422D01*
X0087628Y0064521D01*
X0087650Y0064620D01*
X0087675Y0064718D01*
X0087705Y0064815D01*
X0087738Y0064910D01*
X0087775Y0065004D01*
X0087816Y0065097D01*
X0087860Y0065188D01*
X0087908Y0065277D01*
X0087960Y0065364D01*
X0088015Y0065449D01*
X0088073Y0065531D01*
X0088134Y0065612D01*
X0088199Y0065690D01*
X0088266Y0065765D01*
X0088336Y0065837D01*
X0088410Y0065907D01*
X0088486Y0065974D01*
X0088564Y0066038D01*
X0088645Y0066098D01*
X0088728Y0066155D01*
X0088814Y0066209D01*
X0088902Y0066260D01*
X0088991Y0066307D01*
X0089082Y0066351D01*
X0089175Y0066390D01*
X0089270Y0066427D01*
X0089365Y0066459D01*
X0089462Y0066488D01*
X0089561Y0066512D01*
X0089659Y0066533D01*
X0089759Y0066550D01*
X0089859Y0066563D01*
X0089960Y0066572D01*
X0090061Y0066577D01*
X0090162Y0066578D01*
X0090263Y0066575D01*
X0090364Y0066568D01*
X0090465Y0066557D01*
X0090565Y0066542D01*
X0090664Y0066523D01*
X0090763Y0066500D01*
X0090860Y0066474D01*
X0090957Y0066443D01*
X0091052Y0066409D01*
X0091145Y0066371D01*
X0091238Y0066329D01*
X0091328Y0066284D01*
X0091417Y0066235D01*
X0091503Y0066183D01*
X0091587Y0066127D01*
X0091670Y0066068D01*
X0091749Y0066006D01*
X0091827Y0065941D01*
X0091901Y0065873D01*
X0091973Y0065801D01*
X0092042Y0065728D01*
X0092108Y0065651D01*
X0092171Y0065572D01*
X0092231Y0065490D01*
X0092287Y0065406D01*
X0092340Y0065320D01*
X0092390Y0065232D01*
X0092436Y0065142D01*
X0092479Y0065051D01*
X0092518Y0064957D01*
X0092553Y0064862D01*
X0092584Y0064766D01*
X0092612Y0064669D01*
X0092636Y0064571D01*
X0092656Y0064472D01*
X0092672Y0064372D01*
X0092684Y0064271D01*
X0092692Y0064171D01*
X0092696Y0064070D01*
X0092696Y0063968D01*
X0092692Y0063867D01*
X0092684Y0063767D01*
X0092672Y0063666D01*
X0092656Y0063566D01*
X0092636Y0063467D01*
X0092612Y0063369D01*
X0092584Y0063272D01*
X0092553Y0063176D01*
X0092518Y0063081D01*
X0092479Y0062987D01*
X0092436Y0062896D01*
X0092390Y0062806D01*
X0092340Y0062718D01*
X0092287Y0062632D01*
X0092231Y0062548D01*
X0092171Y0062466D01*
X0092108Y0062387D01*
X0092042Y0062310D01*
X0091973Y0062237D01*
X0091901Y0062165D01*
X0091827Y0062097D01*
X0091749Y0062032D01*
X0091670Y0061970D01*
X0091587Y0061911D01*
X0091503Y0061855D01*
X0091416Y0061803D01*
X0091328Y0061754D01*
X0091238Y0061709D01*
X0091145Y0061667D01*
X0091052Y0061629D01*
X0090957Y0061595D01*
X0090860Y0061564D01*
X0090763Y0061538D01*
X0090664Y0061515D01*
X0090565Y0061496D01*
X0090465Y0061481D01*
X0090364Y0061470D01*
X0090263Y0061463D01*
X0090162Y0061460D01*
X0090061Y0061461D01*
X0089960Y0061466D01*
X0089859Y0061475D01*
X0089759Y0061488D01*
X0089659Y0061505D01*
X0089561Y0061526D01*
X0089462Y0061550D01*
X0089365Y0061579D01*
X0089270Y0061611D01*
X0089175Y0061648D01*
X0089082Y0061687D01*
X0088991Y0061731D01*
X0088902Y0061778D01*
X0088814Y0061829D01*
X0088728Y0061883D01*
X0088645Y0061940D01*
X0088564Y0062000D01*
X0088486Y0062064D01*
X0088410Y0062131D01*
X0088336Y0062201D01*
X0088266Y0062273D01*
X0088199Y0062348D01*
X0088134Y0062426D01*
X0088073Y0062507D01*
X0088015Y0062589D01*
X0087960Y0062674D01*
X0087908Y0062761D01*
X0087860Y0062850D01*
X0087816Y0062941D01*
X0087775Y0063034D01*
X0087738Y0063128D01*
X0087705Y0063223D01*
X0087675Y0063320D01*
X0087650Y0063418D01*
X0087628Y0063517D01*
X0087610Y0063616D01*
X0087596Y0063716D01*
X0087586Y0063817D01*
X0087580Y0063918D01*
X0087578Y0064019D01*
X0099578Y0081219D02*
X0099580Y0081320D01*
X0099586Y0081421D01*
X0099596Y0081522D01*
X0099610Y0081622D01*
X0099628Y0081721D01*
X0099650Y0081820D01*
X0099675Y0081918D01*
X0099705Y0082015D01*
X0099738Y0082110D01*
X0099775Y0082204D01*
X0099816Y0082297D01*
X0099860Y0082388D01*
X0099908Y0082477D01*
X0099960Y0082564D01*
X0100015Y0082649D01*
X0100073Y0082731D01*
X0100134Y0082812D01*
X0100199Y0082890D01*
X0100266Y0082965D01*
X0100336Y0083037D01*
X0100410Y0083107D01*
X0100486Y0083174D01*
X0100564Y0083238D01*
X0100645Y0083298D01*
X0100728Y0083355D01*
X0100814Y0083409D01*
X0100902Y0083460D01*
X0100991Y0083507D01*
X0101082Y0083551D01*
X0101175Y0083590D01*
X0101270Y0083627D01*
X0101365Y0083659D01*
X0101462Y0083688D01*
X0101561Y0083712D01*
X0101659Y0083733D01*
X0101759Y0083750D01*
X0101859Y0083763D01*
X0101960Y0083772D01*
X0102061Y0083777D01*
X0102162Y0083778D01*
X0102263Y0083775D01*
X0102364Y0083768D01*
X0102465Y0083757D01*
X0102565Y0083742D01*
X0102664Y0083723D01*
X0102763Y0083700D01*
X0102860Y0083674D01*
X0102957Y0083643D01*
X0103052Y0083609D01*
X0103145Y0083571D01*
X0103238Y0083529D01*
X0103328Y0083484D01*
X0103417Y0083435D01*
X0103503Y0083383D01*
X0103587Y0083327D01*
X0103670Y0083268D01*
X0103749Y0083206D01*
X0103827Y0083141D01*
X0103901Y0083073D01*
X0103973Y0083001D01*
X0104042Y0082928D01*
X0104108Y0082851D01*
X0104171Y0082772D01*
X0104231Y0082690D01*
X0104287Y0082606D01*
X0104340Y0082520D01*
X0104390Y0082432D01*
X0104436Y0082342D01*
X0104479Y0082251D01*
X0104518Y0082157D01*
X0104553Y0082062D01*
X0104584Y0081966D01*
X0104612Y0081869D01*
X0104636Y0081771D01*
X0104656Y0081672D01*
X0104672Y0081572D01*
X0104684Y0081471D01*
X0104692Y0081371D01*
X0104696Y0081270D01*
X0104696Y0081168D01*
X0104692Y0081067D01*
X0104684Y0080967D01*
X0104672Y0080866D01*
X0104656Y0080766D01*
X0104636Y0080667D01*
X0104612Y0080569D01*
X0104584Y0080472D01*
X0104553Y0080376D01*
X0104518Y0080281D01*
X0104479Y0080187D01*
X0104436Y0080096D01*
X0104390Y0080006D01*
X0104340Y0079918D01*
X0104287Y0079832D01*
X0104231Y0079748D01*
X0104171Y0079666D01*
X0104108Y0079587D01*
X0104042Y0079510D01*
X0103973Y0079437D01*
X0103901Y0079365D01*
X0103827Y0079297D01*
X0103749Y0079232D01*
X0103670Y0079170D01*
X0103587Y0079111D01*
X0103503Y0079055D01*
X0103416Y0079003D01*
X0103328Y0078954D01*
X0103238Y0078909D01*
X0103145Y0078867D01*
X0103052Y0078829D01*
X0102957Y0078795D01*
X0102860Y0078764D01*
X0102763Y0078738D01*
X0102664Y0078715D01*
X0102565Y0078696D01*
X0102465Y0078681D01*
X0102364Y0078670D01*
X0102263Y0078663D01*
X0102162Y0078660D01*
X0102061Y0078661D01*
X0101960Y0078666D01*
X0101859Y0078675D01*
X0101759Y0078688D01*
X0101659Y0078705D01*
X0101561Y0078726D01*
X0101462Y0078750D01*
X0101365Y0078779D01*
X0101270Y0078811D01*
X0101175Y0078848D01*
X0101082Y0078887D01*
X0100991Y0078931D01*
X0100902Y0078978D01*
X0100814Y0079029D01*
X0100728Y0079083D01*
X0100645Y0079140D01*
X0100564Y0079200D01*
X0100486Y0079264D01*
X0100410Y0079331D01*
X0100336Y0079401D01*
X0100266Y0079473D01*
X0100199Y0079548D01*
X0100134Y0079626D01*
X0100073Y0079707D01*
X0100015Y0079789D01*
X0099960Y0079874D01*
X0099908Y0079961D01*
X0099860Y0080050D01*
X0099816Y0080141D01*
X0099775Y0080234D01*
X0099738Y0080328D01*
X0099705Y0080423D01*
X0099675Y0080520D01*
X0099650Y0080618D01*
X0099628Y0080717D01*
X0099610Y0080816D01*
X0099596Y0080916D01*
X0099586Y0081017D01*
X0099580Y0081118D01*
X0099578Y0081219D01*
X0099578Y0087819D02*
X0099580Y0087920D01*
X0099586Y0088021D01*
X0099596Y0088122D01*
X0099610Y0088222D01*
X0099628Y0088321D01*
X0099650Y0088420D01*
X0099675Y0088518D01*
X0099705Y0088615D01*
X0099738Y0088710D01*
X0099775Y0088804D01*
X0099816Y0088897D01*
X0099860Y0088988D01*
X0099908Y0089077D01*
X0099960Y0089164D01*
X0100015Y0089249D01*
X0100073Y0089331D01*
X0100134Y0089412D01*
X0100199Y0089490D01*
X0100266Y0089565D01*
X0100336Y0089637D01*
X0100410Y0089707D01*
X0100486Y0089774D01*
X0100564Y0089838D01*
X0100645Y0089898D01*
X0100728Y0089955D01*
X0100814Y0090009D01*
X0100902Y0090060D01*
X0100991Y0090107D01*
X0101082Y0090151D01*
X0101175Y0090190D01*
X0101270Y0090227D01*
X0101365Y0090259D01*
X0101462Y0090288D01*
X0101561Y0090312D01*
X0101659Y0090333D01*
X0101759Y0090350D01*
X0101859Y0090363D01*
X0101960Y0090372D01*
X0102061Y0090377D01*
X0102162Y0090378D01*
X0102263Y0090375D01*
X0102364Y0090368D01*
X0102465Y0090357D01*
X0102565Y0090342D01*
X0102664Y0090323D01*
X0102763Y0090300D01*
X0102860Y0090274D01*
X0102957Y0090243D01*
X0103052Y0090209D01*
X0103145Y0090171D01*
X0103238Y0090129D01*
X0103328Y0090084D01*
X0103417Y0090035D01*
X0103503Y0089983D01*
X0103587Y0089927D01*
X0103670Y0089868D01*
X0103749Y0089806D01*
X0103827Y0089741D01*
X0103901Y0089673D01*
X0103973Y0089601D01*
X0104042Y0089528D01*
X0104108Y0089451D01*
X0104171Y0089372D01*
X0104231Y0089290D01*
X0104287Y0089206D01*
X0104340Y0089120D01*
X0104390Y0089032D01*
X0104436Y0088942D01*
X0104479Y0088851D01*
X0104518Y0088757D01*
X0104553Y0088662D01*
X0104584Y0088566D01*
X0104612Y0088469D01*
X0104636Y0088371D01*
X0104656Y0088272D01*
X0104672Y0088172D01*
X0104684Y0088071D01*
X0104692Y0087971D01*
X0104696Y0087870D01*
X0104696Y0087768D01*
X0104692Y0087667D01*
X0104684Y0087567D01*
X0104672Y0087466D01*
X0104656Y0087366D01*
X0104636Y0087267D01*
X0104612Y0087169D01*
X0104584Y0087072D01*
X0104553Y0086976D01*
X0104518Y0086881D01*
X0104479Y0086787D01*
X0104436Y0086696D01*
X0104390Y0086606D01*
X0104340Y0086518D01*
X0104287Y0086432D01*
X0104231Y0086348D01*
X0104171Y0086266D01*
X0104108Y0086187D01*
X0104042Y0086110D01*
X0103973Y0086037D01*
X0103901Y0085965D01*
X0103827Y0085897D01*
X0103749Y0085832D01*
X0103670Y0085770D01*
X0103587Y0085711D01*
X0103503Y0085655D01*
X0103416Y0085603D01*
X0103328Y0085554D01*
X0103238Y0085509D01*
X0103145Y0085467D01*
X0103052Y0085429D01*
X0102957Y0085395D01*
X0102860Y0085364D01*
X0102763Y0085338D01*
X0102664Y0085315D01*
X0102565Y0085296D01*
X0102465Y0085281D01*
X0102364Y0085270D01*
X0102263Y0085263D01*
X0102162Y0085260D01*
X0102061Y0085261D01*
X0101960Y0085266D01*
X0101859Y0085275D01*
X0101759Y0085288D01*
X0101659Y0085305D01*
X0101561Y0085326D01*
X0101462Y0085350D01*
X0101365Y0085379D01*
X0101270Y0085411D01*
X0101175Y0085448D01*
X0101082Y0085487D01*
X0100991Y0085531D01*
X0100902Y0085578D01*
X0100814Y0085629D01*
X0100728Y0085683D01*
X0100645Y0085740D01*
X0100564Y0085800D01*
X0100486Y0085864D01*
X0100410Y0085931D01*
X0100336Y0086001D01*
X0100266Y0086073D01*
X0100199Y0086148D01*
X0100134Y0086226D01*
X0100073Y0086307D01*
X0100015Y0086389D01*
X0099960Y0086474D01*
X0099908Y0086561D01*
X0099860Y0086650D01*
X0099816Y0086741D01*
X0099775Y0086834D01*
X0099738Y0086928D01*
X0099705Y0087023D01*
X0099675Y0087120D01*
X0099650Y0087218D01*
X0099628Y0087317D01*
X0099610Y0087416D01*
X0099596Y0087516D01*
X0099586Y0087617D01*
X0099580Y0087718D01*
X0099578Y0087819D01*
M02*
