%
M48
M72
T01C0.03150
T02C0.03200
T03C0.04000
T04C0.04331
T05C0.04724
T06C0.05118
%
T01
X142699Y294504
X170258Y93717
T02
X80337Y279819
X80337Y319819
X115337Y314819
X130337Y314819
X130337Y274819
X129589Y259819
X142148Y259819
X165337Y269819
X165337Y279819
X165337Y289819
X165337Y299819
X165337Y309819
X165337Y319819
X165337Y329819
X170337Y344819
X190337Y344819
X195337Y329819
X195337Y319819
X195337Y309819
X195337Y299819
X195337Y289819
X195337Y279819
X195337Y269819
X190337Y254819
X170337Y254819
X142148Y219819
X129589Y219819
X115337Y219819
X137306Y194819
X137306Y179819
X145337Y164819
X155337Y164819
X165337Y164819
X175337Y164819
X185337Y164819
X195337Y164819
X205337Y164819
X215337Y164819
X225337Y159819
X225337Y139819
X215337Y134819
X205337Y134819
X195337Y134819
X185337Y134819
X175337Y134819
X165337Y134819
X155337Y134819
X145337Y134819
X130337Y139819
X130337Y159819
X145337Y114819
X145337Y99819
X130337Y99819
X115337Y99819
X115337Y59819
X130337Y59819
X145337Y59819
X160337Y64819
X160337Y54819
X165337Y39819
X185337Y39819
X190337Y54819
X190337Y64819
X190337Y74819
X190337Y84819
X185337Y99819
X185337Y114819
X205337Y119819
X205337Y104819
X205337Y89819
X205337Y74819
X165337Y99819
X160337Y84819
X160337Y74819
X245337Y74819
X245337Y89819
X255337Y94819
X245337Y104819
X255337Y109819
X245337Y119819
X260337Y129819
X270337Y129819
X275337Y109819
X275337Y94819
X270337Y74819
X260337Y74819
X235337Y179819
X235337Y194819
X235337Y209819
X250337Y199819
X260337Y199819
X270337Y199819
X270337Y224819
X260337Y224819
X250337Y224819
X245337Y247319
X240337Y254819
X250337Y254819
X260337Y269819
X270337Y284819
X270337Y299819
X270337Y314819
X260337Y329819
X250337Y344819
X245337Y352319
X240337Y344819
X230337Y329819
X230337Y314819
X230337Y299819
X230337Y284819
X230337Y269819
X195337Y209819
X195337Y194819
X195337Y179819
X177306Y179819
X177306Y194819
X115337Y259819
X115337Y274819
T03
X205337Y29819
X205337Y19819
X215337Y19819
X215337Y29819
X225337Y29819
X225337Y19819
X235337Y19819
X235337Y29819
X245337Y29819
X255337Y29819
X255337Y19819
X245337Y19819
X265337Y19819
X265337Y29819
X275337Y29819
X275337Y19819
T04
X205337Y44819
X235337Y44819
X245337Y44819
X275337Y44819
T05
X55337Y300134
X55337Y319819
X55337Y339504
T06
X50137Y37819
X50180Y34504
X50137Y31119
X50137Y87819
X50180Y84504
X50137Y81119
X90137Y64019
X93487Y64031
X96837Y64019
X102137Y81219
X102148Y84504
X102137Y87819
X102137Y37819
X102148Y34504
X102137Y31219
X96837Y14019
X93487Y14031
X90137Y14019
X90137Y139019
X93487Y139031
X96837Y139019
X102137Y156219
X102148Y159504
X102137Y162819
X50137Y162819
X50180Y159504
X50137Y156119
X90137Y234019
X93487Y234031
X96837Y234019
X102137Y251219
X102148Y254504
X102137Y257819
X50137Y257819
X50180Y254504
X50137Y251119
M30
